<?xml version="1.0" standalone="no"?>
<!DOCTYPE svg PUBLIC "-//W3C//DTD SVG 1.1//EN" "http://www.w3.org/Graphics/SVG/1.1/DTD/svg11.dtd" >
<svg xmlns="http://www.w3.org/2000/svg" xmlns:xlink="http://www.w3.org/1999/xlink" version="1.1">
<metadata></metadata>
<defs>
<font id="sterling_textregular" horiz-adv-x="1089" >
<font-face units-per-em="2048" ascent="1638" descent="-410" />
<missing-glyph horiz-adv-x="415" />
<glyph horiz-adv-x="0" />
<glyph horiz-adv-x="682" />
<glyph unicode=" "  horiz-adv-x="415" />
<glyph unicode="&#x09;" horiz-adv-x="415" />
<glyph unicode="&#xa0;" horiz-adv-x="415" />
<glyph unicode="!" horiz-adv-x="438" d="M113 66q0 45 28 76.5t78 31.5q49 0 78 -31.5t29 -76.5q0 -41 -29 -72t-78 -31q-50 0 -78 31t-28 72zM135 1196q0 76 20 106.5t66 30.5t67 -30.5t21 -106.5q0 -60 -34 -353t-37 -515q0 -4 -16.5 -4t-16.5 4q-4 221 -37 514t-33 354z" />
<glyph unicode="&#x22;" horiz-adv-x="581" d="M92 1268q0 29 20.5 47t43.5 18t43 -18t20 -47q0 -56 -47 -414q-2 -6 -17 -6t-16 6q-47 358 -47 414zM362 1268q0 29 20.5 47t43.5 18t43 -18t20 -47q0 -56 -47 -414q-2 -6 -16 -6t-16 6q-6 47 -16.5 124t-14.5 107t-9 73t-6.5 66.5t-1.5 43.5z" />
<glyph unicode="#" horiz-adv-x="1259" d="M9 442.5q0 22.5 3 22.5h320l96 393h-307q-3 0 -3 22.5t3 22.5h317l117 477q0 2 12.5 -1.5t24.5 -8t12 -6.5l-110 -461h374l117 477q0 2 12.5 -1.5t24.5 -8t12 -6.5l-112 -461h307q3 0 3 -22.5t-3 -22.5h-318l-94 -393h303q3 0 3 -22.5t-3 -22.5h-313l-117 -477 q-1 -3 -25 5t-24 11l111 461h-375l-117 -477q0 -2 -12.5 1.5t-25 8t-11.5 6.5l111 461h-310q-3 0 -3 22.5zM387 465h375l96 393h-377z" />
<glyph unicode="$" horiz-adv-x="991" d="M115 354q0 3 9 4.5t18 0.5t10 -5q42 -145 108.5 -226.5t185.5 -100.5l21 573l-27 16q-61 39 -98 64t-82.5 64.5t-70.5 74.5t-42.5 83.5t-17.5 101.5q0 135 104.5 230t260.5 99l4 105q0 6 27.5 6t27.5 -6q-4 -105 -4 -107q119 -5 276 -61l4 -275q0 -2 -6 -3.5t-11.5 -1.5 t-6.5 1q-97 249 -258 289l-19 -530l29 -19q25 -16 73 -44t73 -44t62.5 -43t57.5 -50.5t41 -56t30 -71t9 -84.5q0 -66 -29 -130.5t-80 -117t-128 -85.5t-166 -34l-6 -151q0 -8 -28 -8t-28 8l6 153q-108 5 -191.5 32t-113.5 50q-7 5 -24 299zM254 1090q0 -100 55.5 -168 t163.5 -138l19 502h-5q-95 0 -164 -52t-69 -144zM502 20h16q115 0 187.5 64.5t72.5 165.5q0 52 -17 95t-55 81.5t-78.5 68t-107.5 70.5q1 0 -3.5 -136.5t-9.5 -272.5z" />
<glyph unicode="%" horiz-adv-x="1533" d="M41 975q0 146 82.5 252t216.5 106q135 0 218 -103.5t83 -248.5q0 -94 -37 -175.5t-107 -133t-157 -51.5q-131 0 -215 105.5t-84 248.5zM174 981q0 -317 166 -317q89 0 127.5 81t38.5 230q0 317 -166 317q-89 0 -127.5 -81t-38.5 -230zM272 -25l947 1375q8 13 32 2 q23 -10 13 -23l-942 -1374q-7 -8 -19.5 -6t-23 10.5t-7.5 15.5zM893 326q0 146 82.5 252t216.5 106q135 0 218 -103.5t83 -248.5q0 -94 -37 -176t-107 -133.5t-157 -51.5q-131 0 -215 106t-84 249zM1026 332q0 -318 166 -318t166 312q0 317 -166 317q-89 0 -127.5 -81 t-38.5 -230z" />
<glyph unicode="&#x26;" horiz-adv-x="1390" d="M70 324q0 126 82.5 226t230.5 159q-168 156 -168 305q0 133 97.5 227t248.5 94q146 0 231 -78t85 -186q0 -107 -77 -194.5t-225 -149.5q219 -180 369 -328l66 103q123 194 123 248q0 49 -84 55q-5 0 -5 16.5t5 16.5q20 -1 83.5 -4t88.5 -3q26 0 79 3t76 4q4 0 4 -16.5 t-4 -16.5q-48 -5 -76.5 -16t-52.5 -35q-11 -11 -23 -27t-21.5 -29.5t-27.5 -41.5t-32 -48l-164 -243q22 -23 65 -69t74 -77q121 -121 168 -151t127 -39q5 0 5 -16.5t-5 -16.5q-82 4 -221 4h-84q-19 32 -82 106t-123 136q-50 -66 -95 -112.5t-98.5 -84t-114.5 -56t-130 -18.5 q-90 0 -166.5 31t-125.5 81.5t-76 113t-27 127.5zM217 395q0 -144 93.5 -235.5t230.5 -91.5q89 0 173 60.5t150 152.5q-247 240 -448 399q-92 -46 -145.5 -122t-53.5 -163zM332 1077q0 -52 14.5 -95.5t46.5 -84t61.5 -68.5t80.5 -71q112 47 164.5 121t52.5 157 q0 106 -60 178t-160 72q-86 0 -143 -62.5t-57 -146.5z" />
<glyph unicode="'" horiz-adv-x="311" d="M92 1268q0 29 20.5 47t43.5 18t43 -18t20 -47q0 -56 -47 -414q-2 -6 -17 -6t-16 6q-47 358 -47 414z" />
<glyph unicode="(" horiz-adv-x="761" d="M184 424q0 320 174.5 608.5t444.5 446.5q5 3 10 -3.5t6.5 -13.5t-0.5 -10q-130 -80 -241 -243t-177.5 -372.5t-66.5 -412.5t66.5 -412.5t177.5 -372.5t241 -243q2 -3 0.5 -10t-6.5 -13.5t-10 -3.5q-271 156 -445 445t-174 610z" />
<glyph unicode=")" horiz-adv-x="761" d="M-57.5 -614q-1.5 7 0.5 10q130 80 241 243t177.5 372.5t66.5 412.5t-66.5 412.5t-177.5 372.5t-241 243q-2 3 -0.5 10t6.5 13.5t10 3.5q270 -158 444.5 -446.5t174.5 -608.5q0 -321 -174 -610t-445 -445q-5 -3 -10 3.5t-6.5 13.5z" />
<glyph unicode="*" horiz-adv-x="747" d="M83.5 879q-4.5 22 10.5 32l256 105l-256 104q-14 10 -9.5 31t22.5 38.5t32 8.5l223 -166l-34 275q-2 16 21.5 23t47 0t21.5 -23l-35 -275l221 166q14 11 32 -7t22.5 -39.5t-9.5 -31.5l-252 -104l252 -105q15 -10 10.5 -32t-23 -40.5t-32.5 -7.5l-221 168l35 -276 q2 -16 -21.5 -23t-47 0t-21.5 23l34 276l-223 -168q-14 -11 -32.5 7.5t-23 40.5z" />
<glyph unicode="+" horiz-adv-x="983" d="M67 657.5q0 26.5 3 26.5h395v403q0 3 26.5 3t26.5 -3v-403h402q3 0 3 -26.5t-3 -26.5h-402v-402q0 -3 -26.5 -3t-26.5 3v402h-395q-3 0 -3 26.5z" />
<glyph unicode="," horiz-adv-x="370" d="M51 98q0 38 25.5 63t68.5 25q80 0 126 -58.5t46 -127.5q0 -96 -64 -189t-165 -153q-4 -2 -13.5 11.5t-4.5 17.5q76 58 109.5 111t33.5 112q0 77 -80 94q-82 16 -82 94z" />
<glyph unicode="-" horiz-adv-x="595" d="M48 536.5q0 26.5 3 26.5h494q3 0 3 -26.5t-3 -26.5h-494q-3 0 -3 26.5z" />
<glyph unicode="." horiz-adv-x="397" d="M86 72q0 47 30 80.5t83 33.5q52 0 82 -33.5t30 -80.5q0 -43 -30.5 -76t-81.5 -33q-52 0 -82.5 33t-30.5 76z" />
<glyph unicode="/" horiz-adv-x="460" d="M-135 -592l559 2089q1 2 14.5 -1.5t26.5 -8t12 -6.5l-559 -2089q-1 -2 -14.5 1.5t-26.5 8t-12 6.5z" />
<glyph unicode="0" horiz-adv-x="1261" d="M102 657q0 137 37 259.5t104 215t167.5 147t220.5 54.5q159 0 281 -93.5t184.5 -246t62.5 -336.5t-62.5 -339t-184.5 -251t-281 -96q-120 0 -220.5 56t-167.5 150.5t-104 218.5t-37 261zM289 649q0 -182 36.5 -320.5t115 -222t190.5 -83.5t190.5 83.5t115 222t36.5 320.5 t-36.5 322.5t-115 225.5t-190.5 85t-190.5 -85t-115 -225.5t-36.5 -322.5z" />
<glyph unicode="1" horiz-adv-x="833" d="M91 1239.5q-1 8.5 1 17t6 9.5q221 28 404 61q8 1 10 -6.5t2 -24.5v-1050q0 -53 2 -83.5t12 -56.5t22 -38t42 -21.5t60.5 -12t88.5 -5.5q5 0 5 -16.5t-5 -16.5q-82 4 -290 4q-158 0 -314 -4q-5 0 -5 16.5t5 16.5q58 3 89 5.5t60.5 12t41 21t21.5 38t11.5 57t1.5 83.5v774 q0 55 -3 89t-14.5 61.5t-27.5 40t-49 19.5t-71 6.5t-101 -5.5q-4 0 -5 8.5z" />
<glyph unicode="2" horiz-adv-x="991" d="M39 35q150 150 243.5 246t175.5 187.5t124.5 149t73.5 117t41 106t10 101.5q0 136 -80 207.5t-189 71.5q-175 0 -295 -191q-1 -2 -7 1t-11 7t-4 6q58 133 162 211t229 78q65 0 127 -22.5t113.5 -64.5t82.5 -110t31 -151q0 -54 -14 -105.5t-48 -107t-70 -103t-101 -115.5 t-119.5 -122t-146.5 -145t-162 -162h475q31 0 55.5 4t42 14.5t29 19t22 29t15 31t14 38.5t14.5 40q1 2 5 2t10 -0.5t11.5 -2t9.5 -3.5t3 -4l-43 -238l-10 -55h-811z" />
<glyph unicode="3" horiz-adv-x="952" d="M59 129q-2 2 7.5 14t13.5 9q80 -62 145.5 -85.5t145.5 -23.5q141 0 232 90.5t91 218.5q0 133 -81.5 215t-206.5 82q-69 0 -164 -31q-2 -1 -4 3t-4 10t-3.5 12t-2 10.5t0.5 5.5q81 22 136 41q137 45 200.5 122.5t63.5 191.5q0 103 -68.5 168t-177.5 65q-83 0 -160 -52.5 t-135 -143.5q-1 -2 -7.5 1.5t-12.5 8t-5 6.5q53 123 157.5 194.5t236.5 71.5q80 0 146 -26.5t107.5 -71t64 -99t22.5 -112.5q0 -106 -81 -191t-247 -141q183 -3 288 -105t105 -239q0 -76 -29 -143t-83.5 -119.5t-140 -83.5t-191.5 -31q-91 0 -186.5 41.5t-172.5 116.5z" />
<glyph unicode="4" horiz-adv-x="1114" d="M25 479l616 844h115v-774h141q55 0 78.5 31.5t48.5 113.5q1 2 10.5 2.5t19 -0.5t9.5 -2q-25 -125 -35 -188l-10 -66h-262v-440h-142v440h-571zM143 549h471v639h-4z" />
<glyph unicode="5" horiz-adv-x="942" d="M57 152q-2 3 10 13t15 7q154 -135 291 -135q149 0 240.5 97t91.5 257q0 140 -93 222.5t-237 82.5q-85 0 -178 -49l-52 31l56 625h520q52 0 69.5 18.5t38.5 87.5q2 2 11 2t18.5 -1.5t9.5 -2.5q-5 -27 -15 -87t-15 -85l-11 -55h-573l-39 -453q96 47 229 47q188 0 306 -110 t118 -275q0 -185 -127 -301.5t-311 -116.5q-114 0 -217.5 55t-155.5 126z" />
<glyph unicode="6" horiz-adv-x="1136" d="M111 510q0 151 68.5 299t182 261t269.5 187t321 82q5 0 9 -10.5t4 -17.5q0 -11 -13 -11q-154 -17 -283.5 -96t-212.5 -193t-129 -248.5t-46 -268.5q0 -205 86 -338t231 -133q133 0 204.5 104.5t71.5 261.5q0 136 -78.5 234t-205.5 98q-78 0 -150 -33l-3 4q-6 21 -1 29 q134 57 234 57q115 0 203 -55.5t132 -142.5t44 -189q0 -173 -134 -297.5t-321 -124.5q-134 0 -245 71t-174.5 195.5t-63.5 274.5z" />
<glyph unicode="7" horiz-adv-x="974" d="M80 1010l53 293h795q7 0 9.5 -9.5t-1.5 -15.5l-625 -1307q-7 -13 -54 -3q-36 10 -34 20l600 1190h-512q-28 0 -50 -4t-38 -9.5t-29 -17t-21 -20.5t-16.5 -27t-13 -29.5t-12 -34t-12.5 -35.5q-1 -2 -5 -2t-10 1t-11.5 2.5t-9.5 3.5t-3 4z" />
<glyph unicode="8" horiz-adv-x="1071" d="M109 311q0 117 80.5 207t209.5 152q-55 32 -95 63t-75.5 71.5t-54 90.5t-18.5 109q0 140 110.5 238.5t280.5 98.5q164 0 267.5 -87t103.5 -214q0 -111 -77.5 -193.5t-203.5 -137.5q60 -32 98.5 -55t86 -59.5t75 -71.5t47 -83t19.5 -102q0 -66 -31.5 -131.5t-86 -118 t-137 -85t-176.5 -32.5q-102 0 -184.5 28.5t-133.5 77t-78 108.5t-27 126zM254 342q0 -137 91.5 -228t211.5 -91q110 0 196.5 70t86.5 179q0 35 -10.5 67.5t-25.5 58t-42.5 51.5t-51.5 44t-63 41.5t-66 37.5t-72.5 37.5t-70.5 37.5q-184 -110 -184 -305zM279 1063 q0 -48 19 -91t44.5 -73.5t73.5 -64t84 -53.5t98 -52q92 49 137 123.5t45 159.5q0 121 -71.5 200.5t-186.5 79.5q-114 0 -178.5 -64.5t-64.5 -164.5z" />
<glyph unicode="9" horiz-adv-x="1140" d="M98 922q0 172 133.5 291.5t321.5 119.5q142 0 252.5 -71.5t170.5 -194t60 -274.5q0 -151 -68.5 -299t-182 -261.5t-269.5 -187.5t-321 -82q-5 0 -9 11.5t-4 17.5q0 10 13 10q124 14 233 68t188 135t136 181t85.5 208.5t28.5 214.5q0 208 -84 339.5t-233 131.5 q-128 0 -202.5 -103.5t-74.5 -252.5q0 -135 78.5 -228.5t206.5 -93.5q79 0 150 33l3 -4q6 -21 1 -29q-134 -57 -234 -57q-172 0 -275.5 110t-103.5 267z" />
<glyph unicode=":" horiz-adv-x="397" d="M86 72q0 47 30 80.5t83 33.5q52 0 82 -33.5t30 -80.5q0 -43 -30.5 -76t-81.5 -33q-52 0 -82.5 33t-30.5 76zM86 637q0 47 30 81t83 34q52 0 82 -34t30 -81q0 -43 -30.5 -76t-81.5 -33q-52 0 -82.5 33t-30.5 76z" />
<glyph unicode=";" horiz-adv-x="397" d="M86 637q0 47 30 81t83 34q52 0 82 -34t30 -81q0 -43 -30.5 -76t-81.5 -33q-52 0 -82.5 33t-30.5 76zM92 98q0 38 25.5 63t68.5 25q80 0 126 -58.5t46 -127.5q0 -96 -64 -189t-165 -153q-4 -2 -13.5 11.5t-4.5 17.5q76 58 109.5 111t33.5 112q0 77 -80 94q-82 16 -82 94z " />
<glyph unicode="&#x3c;" horiz-adv-x="983" d="M88 637v43l795 358q2 1 5.5 -3t6 -10.5t4.5 -14t2 -12.5t-2 -7l-747 -334l747 -333q2 -2 2 -7t-2 -12.5t-4.5 -14.5t-6 -11t-5.5 -3z" />
<glyph unicode="=" horiz-adv-x="983" d="M63 522.5q0 26.5 3 26.5h852q3 0 3 -26.5t-3 -26.5h-852q-3 0 -3 26.5zM63 792.5q0 26.5 3 26.5h852q3 0 3 -26.5t-3 -26.5h-852q-3 0 -3 26.5z" />
<glyph unicode="&#x3e;" horiz-adv-x="983" d="M86 317q0 5 2 7l748 333l-748 334q-2 2 -2 7t2 12.5t4.5 14t6 10.5t5.5 3l795 -358v-43l-795 -361q-2 -1 -5.5 3t-6 11t-4.5 14.5t-2 12.5z" />
<glyph unicode="?" horiz-adv-x="739" d="M63 1122q48 94 130 154.5t188 60.5q127 0 211 -77.5t84 -200.5q0 -44 -17 -88.5t-48.5 -85.5t-52.5 -64t-52 -53q-94 -97 -143 -184.5t-50 -206.5q0 -31 2 -47q0 -6 -8 -9t-17 -0.5t-11 9.5q-11 68 -11 98q0 79 26.5 152t64 127.5t75 105.5t64 106t26.5 109 q0 100 -62 154.5t-147 54.5q-65 0 -127.5 -35t-101.5 -96q-3 -2 -9 0t-11 7t-3 9zM201 66q0 45 28 76.5t78 31.5q49 0 78 -31.5t29 -76.5q0 -41 -29 -72t-78 -31q-50 0 -78 31t-28 72z" />
<glyph unicode="@" horiz-adv-x="1949" d="M147 524q0 131 40 255t116 227t178.5 181t235 121.5t278.5 43.5q153 0 286 -42t227.5 -113t162 -164.5t100.5 -197.5t33 -210q0 -218 -117 -356t-298 -138q-83 0 -156 38.5t-107 117.5q-76 -154 -231 -154q-87 0 -147 50.5t-60 133.5q0 121 111.5 193.5t306.5 83.5v41 q0 79 -43.5 132.5t-136.5 53.5q-111 0 -195 -94q-4 -3 -9.5 -0.5t-8.5 9.5t0 12q37 68 106.5 110.5t155.5 42.5q110 0 181.5 -68t68.5 -190l-8 -229q-3 -108 51.5 -172t161.5 -64q132 0 216.5 121t84.5 324q0 125 -51 247t-143 220.5t-236.5 159.5t-315.5 61 q-161 0 -302 -63t-239 -169t-154.5 -250.5t-56.5 -304.5q0 -162 53 -304t148.5 -246.5t237 -165t309.5 -60.5q223 0 461 131q5 3 10.5 -5t7.5 -16.5t0 -11.5q-109 -64 -223 -102.5t-256 -38.5q-244 0 -434 103.5t-295 290t-105 425.5zM805 352q0 -65 37 -107t98 -42 q72 0 115 48.5t45 104.5l6 195q-186 -12 -260 -86q-41 -41 -41 -113z" />
<glyph unicode="A" horiz-adv-x="1228" d="M-2 12.5q0 16.5 4 16.5q38 4 57.5 9.5t36.5 22.5q28 28 52.5 92t82.5 248l248 781q15 50 29 131q2 11 70 15q32 2 49 1q20 0 20 -2l320 -967q26 -80 45 -132t39 -89.5t34 -56.5t37 -31t40 -15t52 -7q4 0 4 -16.5t-4 -16.5q-82 4 -225 4q-90 0 -246 -4q-5 0 -5 16.5 t5 16.5q46 4 71.5 12.5t41.5 23.5t15 46t-10.5 71t-31.5 109l-77 237h-416q-61 -200 -85 -292.5t-24 -135.5q0 -41 20.5 -53.5t71.5 -17.5q5 0 5 -16.5t-5 -16.5q-82 4 -172 4q-19 0 -37 -0.5t-48 -1.5l-60 -2q-4 0 -4 16.5zM354 592h377l-190 592q0 2 -3 2t-3 -2z" />
<glyph unicode="B" horiz-adv-x="1159" d="M94 12.5q0 16.5 4 16.5q32 2 49.5 4t37.5 6.5t29.5 9.5t20.5 17t14.5 25.5t7.5 36.5t4.5 49t0.5 65v819q0 39 -0.5 65t-4.5 49t-7.5 36.5t-14.5 25.5t-20.5 17t-29.5 9.5t-37.5 6.5t-49.5 4q-4 0 -4 16.5t4 16.5q156 -4 244 -4q14 0 80 4t121 4q198 0 308 -71.5 t110 -215.5q0 -108 -69 -189.5t-200 -119.5v-4q183 -6 290.5 -110.5t107.5 -240.5q0 -170 -124.5 -272t-310.5 -102q-47 0 -183 7t-138 7q-130 0 -236 -4q-4 0 -4 16.5zM424 242q0 -119 31 -150q55 -55 170 -55q60 0 111.5 16t93.5 49t66 91.5t24 136.5q0 148 -93.5 246 t-218.5 98q-104 0 -184 -35v-397zM424 834q0 -79 20 -99q10 -10 46 -16t65 -6q105 0 174 69q74 71 74 174q0 141 -82 225.5t-225 84.5q-17 0 -42.5 -2t-29.5 -2v-428z" />
<glyph unicode="C" horiz-adv-x="1300" d="M106 651q0 105 28.5 205t86 187t137.5 152.5t190 103.5t236 38q93 0 202.5 -27.5t125.5 -27.5q24 0 41 33q1 3 13 2.5t12 -4.5l10 -336q0 -3 -5.5 -5t-11.5 -1t-8 6q-66 158 -158.5 235.5t-224.5 77.5q-148 0 -258.5 -81.5t-168.5 -225t-58 -328.5q0 -181 65 -327 t184.5 -230t272.5 -84q131 0 240 84q79 64 131 240q2 4 17.5 1.5t15.5 -7.5q-17 -247 -37 -260q-149 -107 -389 -107q-126 0 -236 35.5t-192 99t-141.5 149t-89.5 188t-30 214.5z" />
<glyph unicode="D" horiz-adv-x="1456" d="M94 12.5q0 16.5 4 16.5q32 2 49.5 4t37.5 6.5t29.5 9.5t20.5 17t14.5 25.5t7.5 36.5t4.5 49t0.5 65v819q0 39 -0.5 65t-4.5 49t-7.5 36.5t-14.5 25.5t-20.5 17t-29.5 9.5t-37.5 6.5t-49.5 4q-4 0 -4 16.5t4 16.5q156 -4 256 -4q34 0 154.5 7t153.5 7q164 0 298 -51.5 t220.5 -140t133 -205.5t46.5 -250q0 -143 -50.5 -266t-144 -214t-233.5 -142.5t-311 -51.5q-17 0 -123.5 2t-143.5 2q-100 0 -256 -4q-4 0 -4 16.5zM424 254q0 -137 33 -170q16 -16 73 -25.5t119 -9.5q107 0 194 31t147 87t100.5 135.5t59.5 175.5t19 208q0 265 -149 422.5 t-381 157.5q-128 0 -215 -23v-989z" />
<glyph unicode="E" horiz-adv-x="1099" d="M94 12.5q0 16.5 4 16.5q32 2 49.5 4t37.5 6.5t29.5 9.5t20.5 17t14.5 25.5t7.5 36.5t4.5 49t0.5 65v819q0 39 -0.5 65t-4.5 49t-7.5 36.5t-14.5 25.5t-20.5 17t-29.5 9.5t-37.5 6.5t-49.5 4q-4 0 -4 16.5t4 16.5q156 -4 246 -4h274q106 0 281 8q14 0 14 -15 q11 -161 11 -260q0 -2 -6.5 -3.5t-12 -1.5t-6.5 1q-8 44 -17.5 73.5t-29.5 58t-50 44.5t-78 25.5t-114 9.5h-159q-27 0 -27 -4v-551l82 2q222 6 264 14q35 7 51 23q4 4 7 8t6 10t5 11t4 13t3 13.5t3 16t3 16.5t3 19t3 20q0 4 14.5 4t14.5 -4q-4 -46 -4 -186q0 -135 8 -195 q2 -7 -21 -7q-12 0 -12 3q-1 7 -5 30.5t-5.5 30.5t-5.5 22t-9.5 23.5t-13.5 16.5q-25 25 -94.5 35.5t-218.5 13.5l-82 2v-334q0 -113 7 -150.5t32 -62.5q41 -41 196 -41h33q77 0 126 13.5t81.5 49.5t51 82t38.5 128q1 4 10 5t18 -0.5t9 -4.5q-19 -159 -39 -301 q-3 -24 -11 -29t-40 -4q-141 6 -356 6h-33q-293 0 -449 -4q-4 0 -4 16.5z" />
<glyph unicode="F" horiz-adv-x="1017" d="M94 12.5q0 16.5 4 16.5q32 2 49.5 4t37.5 6.5t29.5 9.5t20.5 17t14.5 25.5t7.5 36.5t4.5 49t0.5 65v819q0 39 -0.5 65t-4.5 49t-7.5 36.5t-14.5 25.5t-20.5 17t-29.5 9.5t-37.5 6.5t-49.5 4q-4 0 -4 16.5t4 16.5q156 -4 246 -4h274q106 0 281 8q14 0 14 -15 q11 -161 11 -260q0 -2 -6.5 -3.5t-12 -1.5t-6.5 1q-8 44 -17.5 73.5t-29.5 58t-50 44.5t-78 25.5t-114 9.5h-159q-27 0 -27 -4v-563q31 0 82 2q169 3 232 10t85 29q18 18 35 125q0 4 14.5 4t14.5 -4q-4 -46 -4 -187q0 -134 8 -194q2 -7 -21 -7q-12 0 -12 3l-8 52t-9.5 33.5 t-19.5 32.5q-29 29 -92 39t-223 15l-82 2v-389q0 -41 0.5 -66.5t4.5 -49.5t8 -37t16 -25t22 -17t33.5 -9.5t43.5 -5.5t58 -3q4 0 4 -16.5t-4 -16.5q-82 4 -256 4q-100 0 -256 -4q-4 0 -4 16.5z" />
<glyph unicode="G" horiz-adv-x="1359" d="M106 651q0 105 28.5 205t86 187t137.5 152.5t190 103.5t236 38q93 0 202.5 -27.5t125.5 -27.5q24 0 41 33q1 3 13 2.5t12 -4.5l10 -336q0 -3 -5.5 -5t-11.5 -1t-8 6q-66 158 -158.5 235.5t-224.5 77.5q-148 0 -258.5 -81.5t-168.5 -225t-58 -328.5q0 -180 68.5 -325.5 t191.5 -227.5t276 -82q59 0 107 12t59 23q9 9 16 73t7 159q0 36 -1 61t-6 46.5t-9 34.5t-16 23.5t-22 15.5t-31.5 9.5t-38.5 6t-50 3.5q-4 0 -4 16.5t4 16.5q156 -4 256 -4q153 0 235 4q5 0 5 -16.5t-5 -16.5q-43 -3 -64 -5.5t-43.5 -11t-31 -20t-16.5 -37t-9.5 -56.5 t-1.5 -83v-256q0 -10 -14 -14q-42 -11 -136.5 -22t-205.5 -11q-157 0 -291 54t-225 146t-142 216.5t-51 263.5z" />
<glyph unicode="H" horiz-adv-x="1531" d="M94 12.5q0 16.5 4 16.5q32 2 49.5 4t37.5 6.5t29.5 9.5t20.5 17t14.5 25.5t7.5 36.5t4.5 49t0.5 65v819q0 39 -0.5 65t-4.5 49t-7.5 36.5t-14.5 25.5t-20.5 17t-29.5 9.5t-37.5 6.5t-49.5 4q-4 0 -4 16.5t4 16.5q156 -4 256 -4q154 0 236 4q4 0 4 -16.5t-4 -16.5 q-43 -3 -64 -5.5t-43.5 -11t-31 -20t-16.5 -37t-9.5 -56.5t-1.5 -83v-369h684v369q0 39 -0.5 65t-4.5 49t-7.5 36.5t-14.5 25.5t-20.5 17t-29.5 9.5t-37.5 6.5t-49.5 4q-4 0 -4 16.5t4 16.5q156 -4 256 -4q154 0 236 4q4 0 4 -16.5t-4 -16.5q-43 -3 -64 -5.5t-43.5 -11 t-31 -20t-16.5 -37t-9.5 -56.5t-1.5 -83v-819q0 -52 1.5 -83t9.5 -56.5t16.5 -37t31 -20t43.5 -11t64 -5.5q4 0 4 -16.5t-4 -16.5q-82 4 -236 4q-100 0 -256 -4q-4 0 -4 16.5t4 16.5q32 2 49.5 4t37.5 6.5t29.5 9.5t20.5 17t14.5 25.5t7.5 36.5t4.5 49t0.5 65v397h-684v-397 q0 -52 1.5 -83t9.5 -56.5t16.5 -37t31 -20t43.5 -11t64 -5.5q4 0 4 -16.5t-4 -16.5q-82 4 -236 4q-100 0 -256 -4q-4 0 -4 16.5z" />
<glyph unicode="I" horiz-adv-x="706" d="M84 12.5q0 16.5 4 16.5q102 5 127 15q39 14 49 70q8 39 8 128v819q0 80 -3.5 118.5t-28 61t-47 26t-90.5 6.5q-10 1 -15 1q-4 0 -4 16.5t4 16.5q156 -4 277 -4q174 0 256 4q5 0 5 -16.5t-5 -16.5q-103 -12 -121 -17q-41 -13 -54 -55q-12 -39 -12 -141v-819 q0 -75 3.5 -112.5t26 -59.5t43 -26.5t80.5 -10.5q22 -3 34 -4q5 0 5 -16.5t-5 -16.5q-82 4 -256 4q-121 0 -277 -4q-4 0 -4 16.5z" />
<glyph unicode="J" horiz-adv-x="655" d="M22 -303.5q0 8.5 7 10.5q86 33 132.5 80.5t68.5 133t22 229.5v911q0 80 -3.5 118.5t-28 61t-47 26t-90.5 6.5q-10 1 -15 1q-4 0 -4 16.5t4 16.5q156 -4 276 -4q174 0 256 4q4 0 4 -16.5t-4 -16.5q-103 -12 -120 -17q-42 -13 -54 -55q-12 -39 -12 -141v-938 q0 -183 -119 -305q-100 -97 -258 -142q-6 -2 -10.5 5t-4.5 15.5z" />
<glyph unicode="K" horiz-adv-x="1333" d="M94 12.5q0 16.5 4 16.5q32 2 49.5 4t37.5 6.5t29.5 9.5t20.5 17t14.5 25.5t7.5 36.5t4.5 49t0.5 65v819q0 39 -0.5 65t-4.5 49t-7.5 36.5t-14.5 25.5t-20.5 17t-29.5 9.5t-37.5 6.5t-49.5 4q-4 0 -4 16.5t4 16.5q156 -4 256 -4q154 0 236 4q4 0 4 -16.5t-4 -16.5 q-43 -3 -64 -5.5t-43.5 -11t-31 -20t-16.5 -37t-9.5 -56.5t-1.5 -83v-819q0 -52 1.5 -83t9.5 -56.5t16.5 -37t31 -20t43.5 -11t64 -5.5q4 0 4 -16.5t-4 -16.5q-82 4 -236 4q-100 0 -256 -4q-4 0 -4 16.5zM493.5 663.5q-0.5 12.5 2.5 16.5q60 60 344 358q35 37 84 88 q54 57 67 73t13 30q0 31 -93 45q-3 0 -3 16.5t3 16.5q140 -4 195 -4q86 0 160 4q4 0 4 -15.5t-4 -17.5q-20 -4 -36 -8t-31 -10t-23 -9t-22 -11.5t-17.5 -10.5t-20 -13.5t-18.5 -13.5q-38 -27 -287 -280l-176 -179q116 -138 277.5 -319t252.5 -273q117 -120 215 -120 q4 0 6 -16.5t-6 -16.5q-105 6 -284 6q-21 0 -52 31q-54 54 -240.5 264t-307.5 352q-2 4 -2.5 16.5z" />
<glyph unicode="L" horiz-adv-x="1067" d="M94 12.5q0 16.5 4 16.5q32 2 49.5 4t37.5 6.5t29.5 9.5t20.5 17t14.5 25.5t7.5 36.5t4.5 49t0.5 65v798q0 55 -2 89.5t-10.5 61.5t-17 40t-31 22.5t-42.5 13t-61 7.5q-4 0 -4 16.5t4 16.5q152 -4 246 -4q184 0 266 4q4 0 4 -16.5t-4 -16.5q-36 -4 -54.5 -6.5t-42 -8.5 t-33.5 -12t-22.5 -18.5t-17 -27.5t-9.5 -39t-6 -52.5t-1 -69.5v-731q0 -113 7 -150.5t32 -62.5q41 -41 196 -41h33q145 0 205 60q52 52 92 213q1 4 10 5t18 -0.5t9 -4.5l-39 -301q-2 -17 -16 -25t-28.5 -9t-45.5 -1q-16 0 -127 4t-190 4h-33q-293 0 -449 -4q-4 0 -4 16.5z " />
<glyph unicode="M" horiz-adv-x="1753" d="M80 12.5q0 16.5 4 16.5q35 4 48 6t32 9t31 19q32 32 45.5 116.5t19.5 277.5l21 583q1 32 1 59q0 39 -2 65q-4 43 -27 67t-49 30.5t-87 12.5q-5 0 -5 16.5t5 16.5q55 -2 119.5 -2t124.5 1t71 1q37 0 45 -25q0 -2 10.5 -38.5t16.5 -53.5q235 -610 360 -959h2 q202 524 355 936q8 23 19 59l11 36q12 47 31 47q4 0 48 -3t77 -3q143 0 225 4q4 0 4 -16.5t-4 -16.5q-62 -7 -88 -14t-48 -31q-24 -25 -28 -67q-3 -29 -3 -76q0 -21 1 -46l23 -741q2 -62 4.5 -99t10 -69t16.5 -47.5t29 -28t43 -17.5t61 -9q5 0 5 -16.5t-5 -16.5 q-82 4 -246 4q-90 0 -246 -4q-5 0 -5 16.5t5 16.5q58 6 88.5 16.5t50 41.5t24.5 78q4 34 4 88q0 22 -1 46l-14 715q-3 130 -6 160h-13q-121 -329 -456 -1192q-3 -8 -24 -7.5t-23 7.5q-45 132 -118.5 330t-178 470.5t-148.5 391.5h-2l-35 -885q-3 -53 -3 -93q0 -36 2 -60 q4 -52 28 -75q22 -22 117 -32q5 0 5 -16.5t-5 -16.5q-82 4 -185 4q-28 0 -184 -4q-4 0 -4 16.5z" />
<glyph unicode="N" horiz-adv-x="1478" d="M94 1290.5q0 16.5 4 16.5q156 -4 193 -4q14 0 77 1t70 1q55 -100 88 -144l643 -887h2l-2 676q0 191 -9 235q-11 54 -50 70q-27 12 -102 19q-4 0 -4 16.5t4 16.5q36 -1 98 -5t94 -4q28 0 61.5 1.5t68 4t46.5 3.5q4 0 4 -16.5t-4 -16.5q-29 -3 -44 -5t-33 -9.5t-25 -14 t-16.5 -26t-11.5 -38.5t-5 -57.5t-3.5 -76.5t-0.5 -103v-655q0 -149 8 -293q0 -6 -31 -8.5t-34 2.5l-850 1171h-2l2 -813q0 -192 10 -236q11 -52 50 -69q26 -11 102 -18q4 0 4 -16.5t-4 -16.5q-35 1 -97.5 4.5t-95.5 3.5q-12 0 -176 -8q-5 0 -5 16.5t5 16.5q29 3 43.5 5 t33 9.5t25.5 14t16.5 26t11.5 38t5 57t3.5 76.5t0.5 103v686q0 89 -7 132.5t-28 64.5q-17 17 -45.5 24.5t-83.5 12.5q-4 0 -4 16.5z" />
<glyph unicode="O" horiz-adv-x="1583" d="M106 651q0 131 46.5 253t131 219.5t217.5 156.5t292 59q128 0 239.5 -38t192 -103.5t138 -153t86 -186.5t28.5 -203q0 -131 -46.5 -254t-132 -220.5t-218.5 -156.5t-292 -59t-291 58.5t-216 155.5t-129.5 219t-45.5 253zM297 655q0 -182 61 -327.5t174.5 -229.5 t260.5 -84q150 0 262.5 82t171.5 226t59 329q0 182 -61.5 327.5t-175.5 229.5t-261 84q-225 0 -358 -177t-133 -460z" />
<glyph unicode="P" horiz-adv-x="1075" d="M94 12.5q0 16.5 4 16.5q32 2 49.5 4t37.5 6.5t29.5 9.5t20.5 17t14.5 25.5t7.5 36.5t4.5 49t0.5 65v819q0 51 -1.5 82.5t-10.5 56t-17 36t-31.5 20t-42.5 11.5t-61 7q-4 0 -4 16.5t4 16.5q156 -4 264 -4q26 0 112 4t116 4q198 0 319 -91.5t121 -254.5q0 -82 -38.5 -158 t-103.5 -131q-66 -54 -160 -82q-64 -19 -132 -18q-32 0 -66 4q-8 2 -8 17t8 15h6q332 0 332 312q0 119 -63.5 203.5t-164.5 116.5q-59 19 -122 19q-46 0 -94 -10v-1011q0 -75 3.5 -112.5t26 -59.5t42 -26.5t81.5 -10.5q21 -3 33 -4q4 0 4 -16.5t-4 -16.5q-82 4 -256 4 q-100 0 -256 -4q-4 0 -4 16.5z" />
<glyph unicode="Q" horiz-adv-x="1583" d="M106 651q0 131 46.5 253t131 219.5t217.5 156.5t292 59q128 0 239.5 -38t192 -103.5t138 -153t86 -186.5t28.5 -203q0 -148 -56 -281t-169.5 -235t-268.5 -143q331 -221 637 -221q64 0 128 23.5t103 54.5q2 2 7.5 -4t8 -12.5t-0.5 -10.5q-188 -135 -420 -135 q-286 0 -623 237l-65 43h-2q-152 6 -277.5 65.5t-205.5 154t-123.5 213.5t-43.5 247zM297 655q0 -182 61 -326t174.5 -226.5t260.5 -82.5q226 0 359.5 174.5t133.5 456.5q0 182 -61.5 327.5t-175.5 229.5t-261 84q-225 0 -358 -177t-133 -460z" />
<glyph unicode="R" horiz-adv-x="1241" d="M94 12.5q0 16.5 4 16.5q32 2 49.5 4t37.5 6.5t29.5 9.5t20.5 17t14.5 25.5t7.5 36.5t4.5 49t0.5 65v798q0 55 -2 89.5t-10.5 61.5t-17 40t-31 22.5t-42.5 13t-61 7.5q-4 0 -4 17.5t4 17.5q26 -1 127 -5t137 -4q25 0 129.5 7.5t137.5 7.5q193 0 301 -87.5t108 -228.5 q0 -119 -69.5 -221t-182.5 -170q118 -105 234 -303q108 -182 145 -221q42 -45 127 -55q4 0 4 -16.5t-4 -16.5q-82 4 -241 4h-35q-12 7 -60.5 91.5t-111.5 192.5t-99 156q-66 88 -105.5 117t-109.5 29q-25 0 -106 -6v-338q0 -52 1.5 -83t9.5 -56.5t16.5 -37t31 -20t43.5 -11 t64 -5.5q4 0 4 -16.5t-4 -16.5q-82 4 -236 4q-100 0 -256 -4q-4 0 -4 16.5zM424 651q73 -20 164 -20q122 0 170 31q48 34 79 100.5t31 161.5q0 138 -100.5 240t-243.5 102q-35 0 -100 -9v-606z" />
<glyph unicode="S" horiz-adv-x="991" d="M115 354q0 3 9 4.5t18 0.5t10 -5q23 -80 51.5 -138.5t71 -105.5t103.5 -70.5t140 -23.5q114 0 184 65t70 167q0 28 -4 52t-16.5 47.5t-22.5 40.5t-34.5 39.5t-38 35t-49 36t-51.5 34t-60.5 38t-63.5 39.5q-73 46 -120 82t-93 84.5t-68 105t-22 122.5q0 139 109 236 t270 97q54 0 107 -12.5t87 -25.5t43 -13q39 0 48 37q1 3 14.5 2.5t13.5 -4.5l8 -326q0 -2 -6 -3.5t-11.5 -1.5t-6.5 1q-119 299 -318 299q-93 0 -160 -53t-67 -145q0 -59 20.5 -108t64.5 -90t84 -69.5t108 -70.5q19 -11 28 -17q20 -12 64 -39t63.5 -39t55 -37.5t52.5 -43 t41 -46t34.5 -55.5t19 -63t8.5 -76q0 -66 -29.5 -132t-81 -119.5t-130 -86.5t-168.5 -33q-124 0 -223 30.5t-132 57.5q-7 5 -24 299z" />
<glyph unicode="T" horiz-adv-x="1212" d="M35 981q30 248 39 344q144 -16 532 -16q387 0 531 16q15 -167 37 -344q0 -3 -9 -4.5t-18 -0.5t-10 5q-37 150 -82 201q-43 44 -126.5 62t-242.5 18v-1020q0 -41 0.5 -66.5t4.5 -49.5t8 -37t16 -25t22 -17t33.5 -9.5t43.5 -5.5t58 -3q4 0 4 -16.5t-4 -16.5q-82 4 -256 4 q-120 0 -276 -4q-4 0 -4 16.5t4 16.5q38 2 58 3t43 6t33 9.5t22 17t15.5 24.5t7.5 37t4.5 50t0.5 66v1020q-159 0 -242 -18t-126 -62q-28 -30 -46 -76t-38 -125q-1 -4 -10 -5t-18 0.5t-9 4.5z" />
<glyph unicode="U" horiz-adv-x="1415" d="M56 1290.5q0 16.5 5 16.5q156 -4 246 -4q164 0 246 4q5 0 5 -16.5t-5 -16.5q-41 -5 -61.5 -8.5t-43.5 -13t-31.5 -23t-17 -40t-10.5 -60.5t-2 -89v-563q0 -104 18 -179t60.5 -133t119 -87t187.5 -29q180 1 272 119q91 116 91 307v8l-5 467q-1 192 -10 234q-10 54 -49 71 q-26 12 -102 19q-5 0 -5 16.5t5 16.5q36 -1 98 -5t94 -4q28 0 61.5 1.5t68 4t46.5 3.5q5 0 5 -16.5t-5 -16.5q-29 -3 -44 -5t-33 -9.5t-25 -14t-16.5 -26t-11.5 -38.5t-5 -57.5t-3.5 -76.5t-0.5 -103v-459q0 -244 -118 -383t-353 -139q-259 0 -380.5 123.5t-121.5 380.5v573 q0 55 -2 89.5t-10.5 61.5t-17 40t-31 22.5t-42.5 13t-61 7.5q-5 0 -5 16.5z" />
<glyph unicode="V" horiz-adv-x="1249" d="M10 1290.5q0 16.5 4 16.5q82 -4 240 -4q75 0 231 4q5 0 5 -16.5t-5 -16.5q-70 -6 -97.5 -23t-27.5 -59q0 -49 48 -188l272 -793l244 672q52 144 73 213t21 106q0 38 -24.5 51.5t-84.5 20.5q-5 0 -5 16.5t5 16.5q82 -4 178 -4q4 0 160 4q5 0 5 -16.5t-5 -16.5 q-44 -5 -65.5 -12.5t-42.5 -28.5q-38 -38 -132 -297q-3 -8 -5 -12.5t-4.5 -11.5t-4.5 -13l-258 -700q-34 -91 -76 -213h-59q-163 472 -342 956q-54 147 -79 204.5t-52 84.5q-21 21 -45.5 29.5t-67.5 13.5q-4 0 -4 16.5z" />
<glyph unicode="W" horiz-adv-x="1972" d="M8 1290.5q0 16.5 4 16.5q82 -4 240 -4q67 0 223 4q5 0 5 -16.5t-5 -16.5q-40 -4 -62.5 -8.5t-40.5 -16.5t-23 -28.5t-2 -47t15.5 -70t34.5 -99.5l305 -822l273 719q-25 71 -41.5 115t-34 86.5t-28.5 65.5t-26.5 44.5t-26 30t-28.5 16.5t-33 10.5t-40 4.5q-5 0 -5 16.5 t5 16.5q82 -4 239 -4q66 0 222 4q4 0 4 -16.5t-4 -16.5q-47 -4 -72 -12.5t-41 -24t-14 -47t13 -73.5t36 -113l293 -816l241 682q90 253 96 317q1 8 1 15q0 43 -31 57q-20 9 -80 15q-4 0 -4 16.5t4 16.5q82 -4 178 -4q4 0 160 4q4 0 4 -16.5t-4 -16.5q-26 -3 -40.5 -5 t-33 -10.5t-28 -16t-25 -30.5t-25 -43.5t-28 -66t-33.5 -87t-41 -116.5l-324 -913h-65l-309 833l-316 -833h-74l-358 956l-51 135t-39 88.5t-31.5 57.5t-31 28t-36 16t-48.5 6h-3t-3 0.5t-3 0.5q-4 0 -4 16.5z" />
<glyph unicode="X" horiz-adv-x="1241" d="M-11.5 20.5q0.5 8.5 3.5 8.5q38 3 58 6.5t49 14t52.5 30.5t54.5 55t68 88l293 420l-219 342q-65 101 -100 150t-71.5 82.5t-64.5 43t-77 15.5q-5 0 -5 16.5t5 16.5q123 -6 219 -6q27 0 65.5 1t88.5 2.5t77 2.5q5 0 5 -16.5t-5 -16.5q-31 -4 -45 -6t-29.5 -6t-20.5 -10 t-5 -15t5 -21.5t17 -34t24.5 -42.5t37.5 -61t45 -74l150 -252l184 266q93 133 108 165q13 27 13 46q0 37 -105 43q-3 0 -4.5 8t-1 16.5t3.5 8.5q143 -7 187 -7q19 0 81 3t101 4q3 0 4.5 -8.5t1 -16.5t-3.5 -8q-60 -5 -96 -19.5t-76 -54t-98 -121.5l-267 -379l246 -383 q63 -100 99 -150.5t72.5 -83t64 -41.5t77.5 -15q5 0 5 -16.5t-5 -16.5q-123 6 -219 6q-27 0 -65.5 -1t-88.5 -2.5t-77 -2.5q-5 0 -5 16.5t5 16.5q53 6 73.5 15t20.5 28q0 10 -4.5 22.5t-17 35t-24 41.5t-35.5 58.5t-42 69.5l-174 295l-213 -309q-12 -17 -27.5 -39.5 t-25 -35.5t-21 -30.5t-18 -27.5t-14.5 -22.5t-12 -20t-8 -16t-5.5 -14.5t-1.5 -11q0 -18 21 -25t75 -12q3 0 4.5 -8t1 -16.5t-3.5 -8.5q-82 4 -180 4q-24 0 -180 -4q-3 0 -4.5 8t-1 16.5z" />
<glyph unicode="Y" horiz-adv-x="1163" d="M0 1290.5q0 16.5 4 16.5q82 -4 215 -4q69 0 225 4q4 0 4 -16.5t-4 -16.5q-54 -5 -76 -14.5t-22 -32.5q0 -27 39 -94l274 -471l248 460q35 65 35 97q0 25 -23.5 37.5t-74.5 17.5q-4 0 -4 16.5t4 16.5q82 -4 188 -4q4 0 160 4q4 0 4 -16.5t-4 -16.5q-46 -4 -81.5 -20.5 t-64.5 -49t-48.5 -62.5t-49.5 -83q-9 -16 -14 -25l-240 -434v-358q0 -54 1 -84.5t10 -57t17.5 -37t34.5 -19.5t50 -11t74 -4q5 0 5 -16.5t-5 -16.5q-82 4 -256 4q-121 0 -277 -4q-4 0 -4 16.5t4 16.5q38 2 58 3t43 6t33 9.5t22 17t15.5 24.5t7.5 37t4.5 50t0.5 66v321 l-307 527q-65 112 -102.5 143.5t-118.5 40.5q-4 0 -4 16.5z" />
<glyph unicode="Z" horiz-adv-x="1146" d="M55.5 5.5q-2.5 11.5 1.5 17.5l785 1220h-375q-83 0 -140 -13.5t-91.5 -42.5t-52.5 -65.5t-27 -89.5q-1 -1 -6.5 -1t-12 1.5t-6.5 3.5q0 16 15 138l16 122q0 15 35 15t126.5 -4t133.5 -4h266q115 0 315 4q8 0 9.5 -7.5t-3.5 -15.5l-778 -1229h467q77 0 125.5 13.5t81 50 t50.5 82t38 127.5q0 3 19.5 3t19.5 -3l-39 -301q-2 -17 -16 -25t-28.5 -9t-45.5 -1q-25 0 -103.5 4t-111.5 4h-258q-59 0 -207.5 -3t-194.5 -3q-5 0 -7.5 11.5z" />
<glyph unicode="[" horiz-adv-x="677" d="M223 -549q13 114 13 316v1351q0 202 -13 316q325 14 455 30q6 0 6 -18t-6 -19l-322 -34v-1903l322 -35q6 -1 6 -18t-6 -17q-143 17 -455 31z" />
<glyph unicode="\" horiz-adv-x="460" d="M-16 1481q-1 2 12 6.5t26.5 8t14.5 1.5l559 -2089q1 -2 -12 -6.5t-26.5 -8t-14.5 -1.5z" />
<glyph unicode="]" horiz-adv-x="677" d="M-6 -562.5q0 17.5 6 17.5l322 35v1903l-322 34q-6 0 -6 18.5t6 18.5q130 -16 455 -30q-13 -114 -13 -316v-1351q0 -202 13 -316q-312 -14 -455 -31q-6 0 -6 17.5z" />
<glyph unicode="^" horiz-adv-x="694" d="M61 954l220 349h133l219 -349h-35l-250 244l-252 -244h-35z" />
<glyph unicode="_" horiz-adv-x="1024" d="M63 0v53h898v-53h-898z" />
<glyph unicode="`" horiz-adv-x="696" d="M92 1333h215l236 -334h-35z" />
<glyph unicode="a" horiz-adv-x="944" d="M102 190q0 141 125 224.5t371 89.5l2 53v19q0 101 -50 160q-56 65 -165 65q-70 0 -135 -38.5t-111 -100.5q-2 -3 -7 0t-8.5 8.5t-2.5 9.5q33 93 127.5 160t204.5 67q137 -1 219 -89q79 -85 78 -232v-11l-9 -387v-9q0 -118 80 -118q60 0 107 82q1 3 6 -6q6 -11 4 -14 q-53 -152 -184 -152q-59 0 -103 40.5t-57 97.5q-36 -64 -102 -101t-148 -37q-97 0 -169.5 64t-72.5 155zM252 236q0 -77 47.5 -126t118.5 -49q81 0 153 72q21 21 21 33l6 299q-203 -8 -295 -100q-51 -51 -51 -129z" />
<glyph unicode="b" d="M2 1476.5q0 16.5 4 16.5h309v-719q51 47 128 83t149 36q190 0 299.5 -118.5t109.5 -305.5q0 -144 -73.5 -258t-200 -177t-281.5 -63q-144 0 -276 35v1221q0 55 -2 89.5t-10.5 61t-17 40t-31 23t-42.5 12.5t-61 7q-4 0 -4 16.5zM317 72q92 -37 197 -37q146 0 236 112.5 t90 290.5q0 160 -85 260.5t-231 100.5q-57 0 -113.5 -17.5t-93.5 -46.5v-663z" />
<glyph unicode="c" horiz-adv-x="964" d="M88 430q0 209 129.5 343t319.5 134q57 0 114.5 -15.5t94.5 -30.5t45 -15q13 0 24 12.5t16 32.5q0 5 16.5 5t16.5 -5v-291q0 -4 -13 -4t-15 4q-42 109 -124.5 185.5t-176.5 76.5q-125 0 -204 -121t-79 -295q0 -170 90.5 -278.5t228.5 -108.5q93 0 172 52.5t129 136.5 q9 12 15 7.5t4 -13.5q-36 -120 -138.5 -198.5t-230.5 -78.5q-184 0 -309 133t-125 332z" />
<glyph unicode="d" horiz-adv-x="1116" d="M86 395q0 219 147 358.5t375 139.5q79 0 162 -27v365q0 40 -1 67.5t-5.5 51.5t-9 38.5t-17 27t-23 18.5t-33 11.5t-42.5 8.5t-55 6q-4 0 -4 16.5t4 16.5h334v-1227q0 -41 1 -70t5.5 -53.5t8.5 -39.5t15 -27.5t20 -18.5t29 -11.5t36.5 -7.5t47.5 -5q5 0 5 -16.5t-5 -16.5 h-309v90q-51 -47 -128 -83t-148 -36q-190 0 -300 119t-110 305zM248 426q0 -160 84.5 -260t230.5 -100q58 0 114.5 17t92.5 46v678q-90 33 -176 33q-157 0 -251.5 -113t-94.5 -301z" />
<glyph unicode="e" horiz-adv-x="972" d="M88 430q0 122 55.5 231t159.5 177.5t232 68.5q149 0 250.5 -92t113.5 -240v-61h-633q-4 -46 -4 -68q0 -160 90.5 -270t220.5 -110q92 0 170 50t131 132q4 6 12.5 3t6.5 -9q-33 -115 -138 -196t-229 -81q-190 0 -314 132.5t-124 332.5zM272 565h447v49q0 115 -58 178.5 t-141 63.5q-97 0 -162 -80t-86 -211z" />
<glyph unicode="f" horiz-adv-x="673" d="M48 821.5q0 12.5 3 14.5q109 34 142 67q29 27 32 82q12 239 128.5 373.5t308.5 134.5q85 0 152 -41.5t67 -85.5q0 -21 -33.5 -52.5t-56.5 -31.5q-6 0 -13 3.5t-18.5 12t-18.5 14t-23.5 20t-23.5 20.5q-71 63 -129 63q-107 0 -152.5 -105.5t-45.5 -334.5v-103h280 q6 0 6 -31.5t-6 -31.5h-280v-547v-56t3 -44.5t4 -36t9 -27.5t11.5 -20.5t18 -14.5t22.5 -11t31 -8t37 -7t47 -7q5 -1 7 -1q5 0 5 -16.5t-5 -16.5q-118 4 -254 4q-107 0 -225 -4q-4 0 -4 16.5t4 16.5q28 4 41 6.5t31.5 8t25.5 11.5t17.5 18.5t13.5 27t7 39t4.5 53t0.5 69.5 v547h-168q-3 0 -3 12.5z" />
<glyph unicode="g" horiz-adv-x="954" d="M27 -281q0 81 76 145.5t200 92.5q-61 39 -61 104q0 110 139 172q-132 17 -219.5 109t-87.5 215q0 149 109.5 246.5t265.5 97.5q147 0 247 -84q38 70 87.5 110t103.5 40q42 0 73 -27t31 -63q0 -27 -19.5 -47.5t-49.5 -20.5q-16 0 -51.5 22.5t-65.5 22.5q-34 0 -80 -63 q88 -91 88 -211q0 -138 -97 -236.5t-239 -112.5q-117 -31 -117 -98q0 -32 30.5 -54.5t79.5 -36.5t108.5 -27.5t118.5 -32t108 -45t79.5 -73t30.5 -108.5q0 -101 -128.5 -189.5t-309.5 -88.5q-219 0 -334.5 63.5t-115.5 177.5zM166 -254q0 -98 89 -152.5t226 -54.5 q143 0 228.5 42t85.5 120q0 45 -29.5 77.5t-81.5 52.5t-106 33.5t-120 30.5t-106 35q-85 -25 -135.5 -74.5t-50.5 -109.5zM223 575q0 -132 62.5 -213t154.5 -81q102 0 164 80t62 204q0 130 -64.5 207.5t-157.5 77.5q-102 0 -161.5 -76.5t-59.5 -198.5z" />
<glyph unicode="h" horiz-adv-x="1148" d="M18 1476.5q0 16.5 5 16.5h309v-831h4q46 101 132.5 167t197.5 66q131 0 210.5 -90.5t79.5 -253.5v-289q0 -54 2 -88.5t9.5 -60.5t15 -39t27.5 -23t36 -13.5t52 -8.5q4 0 4 -16.5t-4 -16.5q-118 4 -205 4q-101 0 -219 -4q-4 0 -4 16.5t4 16.5q36 6 51.5 9t35 13t25.5 22 t13.5 39t8.5 60.5t1 89.5v283q0 112 -56 179t-157 67q-108 0 -184 -76t-76 -189v-264q0 -54 1.5 -88.5t9.5 -60.5t15 -39t27 -23t36 -13.5t52 -8.5q5 0 5 -16.5t-5 -16.5q-118 4 -205 4q-101 0 -219 -4q-5 0 -5 16.5t5 16.5q36 6 51.5 9t35 13t25.5 22t13.5 39t8.5 60.5 t1 89.5v965q0 41 -1 70t-5.5 53.5t-8.5 39.5t-15.5 27.5t-21 18.5t-29.5 11.5t-36.5 7.5t-47.5 5q-5 0 -5 16.5z" />
<glyph unicode="i" horiz-adv-x="587" d="M74 854q0 16 4 16h293v-608q0 -54 1.5 -88.5t9.5 -60.5t15 -39t27 -23t36 -13.5t52 -8.5q4 0 4 -16.5t-4 -16.5q-118 4 -205 4q-101 0 -219 -4q-4 0 -4 16.5t4 16.5q36 6 51.5 9t35 13t25.5 22t13.5 39t8.5 60.5t1 89.5v346q0 104 -14 149.5t-37 57.5t-89 22q-3 1 -5 1 q-4 0 -4 16zM174 1214q0 48 28.5 80.5t76.5 32.5t76 -32t28 -76q0 -47 -27.5 -79t-76.5 -32q-48 0 -76.5 31.5t-28.5 74.5z" />
<glyph unicode="j" horiz-adv-x="552" d="M24.5 -584q-0.5 7 2.5 9q50 14 82.5 39t53 59.5t31 95.5t14 129t3.5 178v682q0 104 -14 149.5t-37 57.5t-89 22q-3 1 -5 1q-4 0 -4 16t4 16h292v-1005q0 -185 -74 -306t-249 -163q-3 -1 -6.5 6t-4 14zM162 1214q0 48 28 80.5t76 32.5q49 0 77 -32t28 -76q0 -47 -28 -79 t-77 -32q-47 0 -75.5 31.5t-28.5 74.5z" />
<glyph unicode="k" horiz-adv-x="995" d="M18 1476.5q0 16.5 5 16.5h313v-1047l207 193q80 75 105.5 107.5t25.5 58.5q0 31 -49 37q-5 0 -5 16t5 16q118 -4 149 -4q64 0 182 4q4 0 4 -16t-4 -16q-39 -6 -70 -16t-57.5 -23t-67.5 -46t-75.5 -63.5t-107.5 -97.5l-105 -96q125 -109 256 -240l94 -94q45 -45 70.5 -68 t61.5 -44t69 -25q4 0 4 -16.5t-4 -16.5l-256 4q-102 124 -215 231l-217 205v-174q0 -54 1.5 -88.5t9.5 -60.5t15 -39t27 -23t36 -13.5t52 -8.5q5 0 5 -16.5t-5 -16.5q-118 4 -205 4q-101 0 -219 -4q-5 0 -5 16.5t5 16.5q36 6 51.5 9t35 13t25.5 22t13.5 39t8.5 60.5t1 89.5 v965q0 41 -1 70t-5.5 53.5t-8.5 39.5t-15.5 27.5t-21 18.5t-29.5 11.5t-36.5 7.5t-47.5 5q-5 0 -5 16.5z" />
<glyph unicode="l" horiz-adv-x="544" d="M48 1476.5q0 16.5 5 16.5h293v-1231q0 -54 1.5 -88.5t9.5 -60.5t15 -39t27 -23t36 -13.5t52 -8.5q5 0 5 -16.5t-5 -16.5q-118 4 -204 4q-102 0 -220 -4q-5 0 -5 16.5t5 16.5q36 6 51.5 9t35 13t26 22t13.5 39t8.5 61t1.5 89v969q0 53 -2 87.5t-10 59.5t-15.5 38t-27 22 t-35 12.5t-49.5 8.5q-5 1 -7 1q-5 0 -5 16.5z" />
<glyph unicode="m" horiz-adv-x="1718" d="M70 854q0 16 4 16h286v-163h2q48 88 124 138t169 50q100 0 170.5 -53t100.5 -164h2q49 101 127.5 159t179.5 58q131 0 211 -90.5t80 -253.5v-289q0 -54 1.5 -88.5t9.5 -60.5t15 -39t27 -23t36 -13.5t52 -8.5q5 0 5 -16.5t-5 -16.5q-118 4 -205 4q-101 0 -219 -4 q-5 0 -5 16.5t5 16.5q36 6 51.5 9t35 13t25.5 22t13.5 39t8.5 60.5t1 89.5v283q0 112 -56 179t-157 67q-100 0 -166 -66q-53 -53 -53 -123v-340q0 -54 1.5 -88.5t9.5 -60.5t15 -39t27 -23t36 -13.5t52 -8.5q5 0 5 -16.5t-5 -16.5q-118 4 -204 4q-101 0 -219 -4q-4 0 -4 16.5 t4 16.5q36 6 51.5 9t35 13t25.5 22t13.5 39t8.5 60.5t1 89.5v283q0 112 -56 179t-157 67q-100 0 -168 -68q-51 -51 -51 -121v-340q1 -41 2 -69.5t5.5 -52.5t8 -39t13 -27t17 -18.5t25 -12t30.5 -8t40 -6.5q4 0 4 -16.5t-4 -16.5q-118 4 -205 4q-101 0 -219 -4q-4 0 -4 16.5 t4 16.5q36 6 51.5 9t35 13t25.5 22t13.5 39t8.5 60.5t1 89.5v346q0 54 -2 88.5t-10.5 60t-15.5 38t-28.5 22t-36.5 12.5t-52 9q-4 0 -4 16z" />
<glyph unicode="n" horiz-adv-x="1179" d="M82 854q0 16 4 16h289v-208h4q46 101 132.5 167t197.5 66q131 0 210.5 -90.5t79.5 -253.5v-289q0 -54 2 -88.5t9.5 -60.5t15 -39t27.5 -23t36 -13.5t52 -8.5q5 0 5 -16.5t-5 -16.5q-118 4 -205 4q-101 0 -219 -4q-5 0 -5 16.5t5 16.5q36 6 51.5 9t35 13t25.5 22t13.5 39 t8.5 60.5t1 89.5v283q0 112 -56 179t-157 67q-108 0 -184 -76t-76 -189v-264q0 -54 1.5 -88.5t9.5 -60.5t15 -39t27 -23t36 -13.5t52 -8.5q4 0 4 -16.5t-4 -16.5q-118 4 -205 4q-101 0 -219 -4q-4 0 -4 16.5t4 16.5q36 6 51.5 9t35 13t25.5 22t13.5 39t8.5 60.5t1 89.5v346 q0 104 -14 149.5t-37 57.5t-89 22q-3 1 -5 1q-4 0 -4 16z" />
<glyph unicode="o" d="M92 436q0 200 125 332.5t328 132.5q215 0 333.5 -130t118.5 -335q0 -200 -124.5 -332.5t-327.5 -132.5q-215 0 -334 130.5t-119 334.5zM266 453q0 -117 30.5 -213.5t95 -158t153.5 -61.5q134 0 206 111t72 289q0 117 -30.5 213t-94.5 156.5t-153 60.5 q-134 0 -206.5 -109.5t-72.5 -287.5z" />
<glyph unicode="p" horiz-adv-x="1118" d="M48 854q0 16 5 16h289v-96h2q51 47 128 83t149 36q176 0 292.5 -122t116.5 -302q0 -107 -44 -201t-115.5 -158.5t-164.5 -101.5t-190 -37q-93 0 -170 23v-293q0 -54 1.5 -88.5t9.5 -60.5t15 -39t27 -23t36 -13.5t52 -8.5q5 0 5 -16.5t-5 -16.5q-118 4 -204 4 q-102 0 -220 -4q-5 0 -5 16.5t5 16.5q36 6 51.5 9t35 13t26 22t13.5 39t8.5 61t1.5 89v907q0 32 -0.5 57t-4 46t-4.5 36t-9 28t-11 20.5t-15.5 14.5t-18 10t-24 7.5t-26.5 5.5t-33 5q-5 0 -5 16zM346 68q92 -37 201 -37q148 0 234.5 113.5t86.5 293.5q0 160 -84.5 260.5 t-230.5 100.5q-57 0 -113.5 -17.5t-93.5 -46.5v-667z" />
<glyph unicode="q" d="M88 395q0 144 73.5 258t200 177t281.5 63q145 0 277 -35v-1157q0 -54 1.5 -88.5t9.5 -60.5t15 -39t27 -23t36 -13.5t52 -8.5q5 0 5 -16.5t-5 -16.5q-118 4 -205 4q-101 0 -219 -4q-5 0 -5 16.5t5 16.5q36 6 51.5 9t35 13t25.5 22t13.5 39t8.5 60.5t1 89.5v387h-2 q-50 -47 -126 -82t-146 -35q-190 0 -300 119t-110 305zM250 426q0 -160 84.5 -260t230.5 -100q58 0 114.5 17t92.5 46v664q-89 36 -197 36q-145 0 -235 -112.5t-90 -290.5z" />
<glyph unicode="r" horiz-adv-x="763" d="M70 854q0 16 4 16h288v-237h5q15 61 57 125q40 63 90.5 103t101.5 40q53 0 95.5 -32t42.5 -72q0 -29 -30.5 -58.5t-55.5 -29.5q-20 0 -57 28.5t-64 28.5q-39 0 -90 -51q-90 -90 -90 -303v-150q0 -41 1 -70t5 -53t7 -39t14 -27t17.5 -18t25.5 -11.5t31 -8t40 -6.5 q4 0 4 -16.5t-4 -16.5q-118 4 -205 4q-101 0 -219 -4q-4 0 -4 16.5t4 16.5q36 6 51.5 9t35 13t25.5 22t13.5 39t8.5 60.5t1 89.5v346q0 54 -2 88.5t-10.5 60t-15.5 38t-28.5 22t-36.5 12.5t-52 9q-4 0 -4 16z" />
<glyph unicode="s" horiz-adv-x="827" d="M106 266q0 5 13 5.5t14 -3.5q48 -111 124 -179.5t165 -68.5q82 0 131 42t49 108q0 26 -8 49t-27 43.5t-35.5 34.5t-49.5 32t-52 27t-59 27q-46 21 -75.5 36t-67 41t-59 51.5t-37 62.5t-15.5 79q0 106 79 177t222 71q56 0 117.5 -20.5t64.5 -20.5q14 0 25.5 12.5 t15.5 32.5q0 5 16.5 5t16.5 -5l2 -291q0 -4 -14 -4t-15 4q-94 242 -248 242q-82 0 -120.5 -42t-38.5 -93q0 -20 7 -38.5t15 -32.5t28 -30t31.5 -24.5t42 -24.5t42 -22t47.5 -23q40 -19 57 -27t52.5 -28t52.5 -33.5t42.5 -37t37 -45.5t21 -52.5t9.5 -64.5 q0 -108 -84.5 -185.5t-232.5 -77.5q-143 0 -283 72q-12 6 -19 219z" />
<glyph unicode="t" horiz-adv-x="727" d="M44 820.5q-2 11.5 7 19.5q174 160 268 260q5 4 13 0.5t8 -8.5v-220h338q6 0 6 -31.5t-6 -31.5h-338v-559q0 -95 44 -138.5t114 -43.5q37 0 83 30.5t72 73.5q2 3 9.5 -1t13.5 -10.5t4 -10.5q-38 -72 -108 -125.5t-160 -53.5q-97 0 -158 62.5t-61 181.5v594h-138 q-9 0 -11 11.5z" />
<glyph unicode="u" horiz-adv-x="1179" d="M46 854q0 16 5 16h289v-548q0 -113 53.5 -179.5t153.5 -66.5q111 0 182 71q84 84 84 193v264q0 46 -2 78t-5 56.5t-12 40t-17 25.5t-26.5 16.5t-33.5 9.5t-45 8q-4 0 -4 16t4 16h289v-608q0 -32 0.5 -56.5t3.5 -45.5t4.5 -36t9 -27.5t11 -20.5t15.5 -15t17.5 -10t23.5 -7 t27 -5.5l33 -5.5q4 0 4 -16.5t-4 -16.5h-289v205h-4q-45 -101 -134.5 -167.5t-201.5 -66.5q-130 0 -207 90t-77 254v289q0 54 -2 88.5t-9.5 60.5t-15 39.5t-27.5 23t-36.5 13.5t-51.5 9q-5 0 -5 16z" />
<glyph unicode="v" horiz-adv-x="937" d="M-38 860.5q0 16.5 5 16.5q207 -7 221 -7q8 0 215 7q5 0 5 -16.5t-5 -16.5q-57 -8 -78.5 -21t-21.5 -43q0 -47 59 -198l162 -422l115 299q64 165 86.5 230t22.5 97q0 26 -21 37.5t-88 20.5q-5 0 -5 16.5t5 16.5q21 -1 80 -4t86 -3q23 0 71.5 3t73.5 4q4 0 4 -16.5 t-4 -16.5q-42 -5 -61 -14t-35 -25q-30 -30 -131 -289q-15 -37 -23 -57l-108 -275q-62 -169 -74 -209l-80 -4q-24 75 -93 260t-116 291q-15 35 -38 89t-32.5 75t-23 49.5t-23 42.5t-20.5 25q-17 17 -40 24.5t-85 16.5q-5 0 -5 16.5z" />
<glyph unicode="w" horiz-adv-x="1415" d="M-38 860.5q0 16.5 5 16.5q207 -7 221 -7q2 0 209 7q5 0 5 -16.5t-5 -16.5q-57 -8 -78.5 -21t-21.5 -43q0 -47 59 -198l160 -373l191 442q-64 136 -80 152q-18 18 -37 25t-78 16q-4 0 -4 16.5t4 16.5q19 -1 60 -3t77 -3t66 -1t66.5 1t78 3t60.5 3q4 0 4 -16.5t-4 -16.5 q-62 -7 -84 -30q-17 -17 -17 -51q-1 -11 1 -25q8 -52 50 -156l158 -392l96 269q84 238 94 282q6 27 5 45q-2 27 -22.5 38t-86.5 20q-4 0 -4 16.5t4 16.5q19 -1 82 -4t90 -3q23 0 68 3t71 4q5 0 5 -16.5t-5 -16.5q-42 -5 -60 -14t-34 -25q-24 -24 -51.5 -91.5t-93.5 -254.5 l-96 -275q-30 -83 -68 -209l-53 -4q-23 72 -86.5 242t-122.5 309l-23 56l-170 -394q-65 -160 -82 -209l-47 -4q-24 75 -93 260t-116 291q-17 40 -38 89.5t-31.5 73.5t-23 50.5t-22 41.5t-20.5 26q-17 17 -40.5 24.5t-86.5 16.5q-5 0 -5 16.5z" />
<glyph unicode="x" horiz-adv-x="987" d="M26 860.5q0 16.5 5 16.5q19 -1 59 -3t75.5 -3t65.5 -1t66.5 1t78 3t60.5 3q4 0 4 -16.5t-4 -16.5q-50 -6 -72 -17.5t-22 -33.5q0 -26 28 -71t99 -140l43 -58q12 16 36 47.5t38 50t34 45t32 44t23.5 36.5t17 31.5t5.5 20.5q0 17 -16 27.5t-68 17.5q-4 0 -4 16.5t4 16.5 q21 -1 82.5 -4t85.5 -3q26 0 72.5 3t71.5 4q4 0 4 -16.5t-4 -16.5q-22 -2 -39 -6.5t-30 -8t-27.5 -15t-23 -18t-25.5 -26.5t-25.5 -31t-32 -42.5t-37.5 -49.5l-135 -176l92 -123q31 -41 73.5 -98t61.5 -82t40 -51t36 -41q25 -25 48 -34.5t61 -14.5q5 0 5 -16.5t-5 -16.5 q-20 1 -54 2.5t-63.5 2.5t-59.5 1q-42 0 -219 -6q-5 0 -5 16.5t5 16.5q48 6 70 17t22 32q0 24 -28 69t-101 144l-61 84q-12 -16 -34.5 -44t-35 -44t-31.5 -40.5t-30 -39.5t-25.5 -34.5t-22.5 -32.5t-15.5 -26.5t-11 -23t-3.5 -16.5q0 -17 16 -27.5t68 -17.5q4 0 4 -16.5 t-4 -16.5q-21 1 -57.5 2.5t-64 2.5t-46.5 1q-26 0 -73.5 -2.5t-69.5 -3.5q-5 0 -5 16.5t5 16.5q25 3 42 6t35.5 13.5t27.5 15t29 27.5t27 32t36 46.5t42 55.5l156 203l-72 96q-25 34 -58 78.5t-50.5 67.5t-37.5 49t-34 42.5t-26 28.5q-28 28 -54 39.5t-65 16.5q-5 0 -5 16.5 z" />
<glyph unicode="y" horiz-adv-x="948" d="M-20 860.5q0 16.5 4 16.5q206 -7 221 -7q5 0 211 7q4 0 4 -16.5t-4 -16.5q-100 -13 -106 -55q-1 -4 -1 -9q0 -48 57 -194q0 -1 0.5 -2t0.5 -2l161 -443l121 320q60 157 83.5 226t23.5 101q0 26 -21 37.5t-88 20.5q-5 0 -5 16.5t5 16.5q18 -1 82.5 -4t91.5 -3q23 0 68.5 3 t71.5 4q5 0 5 -16.5t-5 -16.5q-67 -9 -97 -39q-23 -23 -51.5 -89.5t-99.5 -256.5l-281 -742q-32 -93 -66 -154t-72.5 -92.5t-75.5 -43t-85 -11.5q-26 0 -61 6.5t-41 12.5q-3 3 -3 12q0 17 12 53q19 54 38 54q1 0 26 -4.5t39 -4.5q86 0 138 40t86 130l77 201 q-69 230 -213 606q-16 41 -34 90t-27 73t-20.5 50.5t-20.5 41.5t-20 26q-17 17 -40 24.5t-85 16.5q-4 0 -4 16.5z" />
<glyph unicode="z" horiz-adv-x="882" d="M61 20q0 11 5 17l548 782h-94q-69 0 -121 -4.5t-89 -11.5t-63.5 -21.5t-42.5 -28t-27.5 -39t-17 -46t-12.5 -56.5q-1 -4 -18.5 -3.5t-17.5 5.5l12 265q83 -9 383 -9q118 0 278 4q8 0 10.5 -14.5t-3.5 -23.5l-549 -783h247q55 0 93.5 4t68 17.5t47.5 28t34 45.5t25.5 59 t24.5 80q2 10 28 5q11 -3 11 -7q-3 -22 -13.5 -127t-16.5 -135q-3 -19 -20.5 -24t-55.5 -5q-18 0 -96 3t-136 3q-8 0 -413 -6q-3 0 -6 7.5t-3 18.5z" />
<glyph unicode="{" horiz-adv-x="718" d="M109.5 429.5q-5.5 7.5 0 14.5t19.5 9q136 20 217.5 80.5t81.5 144.5q0 47 -28 105.5t-62 107.5t-62 118.5t-28 135.5q0 115 104 207t277 112q8 1 14 -5t3 -13.5t-15 -9.5q-121 -20 -199 -75t-78 -140q0 -62 27.5 -126.5t60.5 -111.5t60.5 -110.5t27.5 -124.5 q0 -118 -80 -199t-214 -113q133 -32 213.5 -113t80.5 -198q0 -61 -27.5 -124.5t-60.5 -110.5t-60.5 -111.5t-27.5 -126.5q0 -85 76.5 -138t200.5 -77q12 -2 15 -9.5t-3 -14t-14 -5.5q-172 20 -276.5 113.5t-104.5 208.5q0 54 18.5 109t45 99.5t53 86.5t45 86.5t18.5 83.5 q0 86 -80.5 145t-218.5 80q-14 2 -19.5 9.5z" />
<glyph unicode="|" horiz-adv-x="454" d="M203 -600v2085q0 3 24.5 3t24.5 -3v-2085q0 -3 -24.5 -3t-24.5 3z" />
<glyph unicode="}" horiz-adv-x="718" d="M73 -572.5q3 7.5 15 9.5q124 24 200.5 77t76.5 138q0 51 -18 102t-44 93.5t-52.5 85t-44.5 92.5t-18 100q0 117 81 198t214 113q-134 32 -214.5 113t-80.5 199q0 50 18 100t44 92.5t52.5 85t44.5 93.5t18 102q0 85 -78 140t-199 75q-12 2 -15 9.5t3 13.5t14 5 q173 -20 277 -112t104 -207q0 -66 -28 -135.5t-62 -118.5t-62 -107.5t-28 -105.5q0 -84 81.5 -144.5t217.5 -80.5q14 -2 19.5 -9t0 -14.5t-19.5 -9.5q-138 -21 -218.5 -80t-80.5 -145q0 -39 18.5 -83.5t45 -86.5t53 -86.5t45 -99.5t18.5 -109q0 -115 -104.5 -208.5 t-276.5 -113.5q-8 -1 -14 5.5t-3 14z" />
<glyph unicode="~" horiz-adv-x="694" d="M33 428q8 88 53 152t121 67q49 2 107.5 -29.5t109 -62.5t80.5 -29q47 3 74.5 32t37.5 87h43q-10 -90 -52 -151.5t-120 -65.5q-50 -3 -108 28t-109 62t-82 29q-82 -5 -112 -119h-43z" />
<glyph unicode="&#xa1;" horiz-adv-x="438" d="M113 1233q0 41 28 71.5t78 30.5q49 0 78 -30.5t29 -71.5q0 -45 -29 -77t-78 -32q-50 0 -78 31.5t-28 77.5zM135 102q0 61 33 354.5t37 514.5q0 5 16.5 5t16.5 -5q3 -222 37 -515.5t34 -353.5q0 -76 -21 -106.5t-67 -30.5t-66 30.5t-20 106.5z" />
<glyph unicode="&#xa2;" horiz-adv-x="964" d="M88 430q0 202 121 331.5t303 137.5q1 33 2 63t2 45v15q0 6 25.5 6t25.5 -6l-1 -14q0 -15 -1 -44.5t-2 -62.5q51 -3 102.5 -17t84.5 -26t41 -12q13 0 24 12.5t16 32.5q0 5 16.5 5t16.5 -5v-291q0 -4 -13 -4t-15 4q-39 100 -113.5 174t-161.5 86l-26 -799q12 -2 34 -2 q93 0 173 52.5t130 136.5q9 12 15 7.5t4 -13.5q-35 -118 -134.5 -193t-224.5 -78q-6 -147 -6 -164q0 -6 -24.5 -6t-24.5 6q0 19 6 166q-170 14 -282.5 142t-112.5 315zM244 444q0 -143 66 -243t175 -131l27 790q-121 -10 -194.5 -127t-73.5 -289z" />
<glyph unicode="&#xa3;" horiz-adv-x="956" d="M52.5 -1.5q-0.5 16.5 4.5 19.5q134 37 221 130.5t87 203.5q0 90 -54 189h-233q-8 0 -8 26.5t8 26.5h203q-4 7 -29 48.5t-32 54.5t-25.5 50t-25 60t-13 58t-6.5 69q0 174 121 289.5t313 115.5q77 0 142 -33.5t85 -82.5q-1 -12 -37.5 -49.5t-48.5 -40.5q-5 0 -44 32.5 t-95.5 65.5t-104.5 33q-98 0 -157.5 -64t-59.5 -194q0 -66 30.5 -133.5t79.5 -146.5t70 -132h275q9 0 9 -26.5t-9 -26.5h-254q14 -61 14 -113q0 -85 -56 -175.5t-124 -141.5q70 -7 135 -7h164q97 0 132.5 9t64.5 37q34 34 71 159q2 4 18.5 1.5t16.5 -5.5q-30 -170 -61 -287 q-4 -17 -24.5 -22.5t-59.5 -5.5q-11 0 -108 2t-177 2h-53q-194 0 -357 -12q-8 0 -8.5 16.5z" />
<glyph unicode="&#xa5;" horiz-adv-x="1112" d="M-50 1290.5q0 16.5 5 16.5q82 -4 215 -4q67 0 223 4q5 0 5 -16.5t-5 -16.5q-57 -5 -80.5 -16t-23.5 -37q0 -30 37 -88l278 -459l258 448q35 60 35 97q0 25 -23.5 37.5t-74.5 17.5q-5 0 -5 16.5t5 16.5q82 -4 188 -4q4 0 160 4q5 0 5 -16.5t-5 -16.5q-46 -4 -81.5 -20.5 t-64.5 -49t-48.5 -62.5t-49.5 -83q-9 -16 -14 -25l-248 -428h358q3 0 3 -22.5t-3 -22.5h-366v-194h366q3 0 3 -22.5t-3 -22.5h-366v-80q0 -74 4.5 -112t27.5 -60t44 -26.5t81 -10.5l12 -1.5t10.5 -1t12.5 -1.5q5 0 5 -16.5t-5 -16.5q-82 4 -256 4q-120 0 -276 -4 q-5 0 -5 16.5t5 16.5q103 5 128 15q42 15 54 71q8 40 8 127v80h-370q-3 0 -3 22.5t3 22.5h370v194h-370q-3 0 -3 22.5t3 22.5h360l-297 484q-77 117 -110 146t-111 38q-5 0 -5 16.5z" />
<glyph unicode="&#xa7;" horiz-adv-x="991" d="M102 590q0 82 48 152t124 110q-71 84 -71 176q0 82 53.5 154.5t139 114.5t177.5 42q95 0 166 -33t92 -83q-1 -12 -37.5 -49.5t-48.5 -40.5q-5 0 -31 20.5t-59 45t-81.5 45t-92.5 20.5q-78 0 -122 -44.5t-44 -115.5q0 -27 8 -52.5t20 -46t34 -43.5t41.5 -39.5t51 -39 t53.5 -36.5t58.5 -37.5t57.5 -37.5q57 -37 88.5 -59t74 -57.5t64.5 -65.5t38 -69.5t16 -82.5q0 -82 -48.5 -152t-126.5 -110q74 -84 74 -176q0 -86 -55 -162.5t-139 -120t-170 -43.5q-106 0 -186.5 43t-102.5 97q-4 10 35 50t51 40q5 0 33.5 -24t65 -53t92 -53t106.5 -24 q73 0 115.5 50.5t42.5 123.5q0 27 -8 52.5t-20 46t-34 43.5t-41.5 39.5t-51 39t-53.5 36.5t-58.5 37.5t-57.5 37.5q-57 37 -88.5 59t-74 57.5t-64.5 65.5t-38 69.5t-16 82.5zM215 666q0 -56 35.5 -107.5t95.5 -95t123.5 -82.5t136.5 -87.5t117 -92.5q84 52 84 161 q0 56 -35.5 107.5t-95.5 95t-123.5 82.5t-136.5 87.5t-117 92.5q-84 -52 -84 -161z" />
<glyph unicode="&#xa8;" horiz-adv-x="696" d="M45 1126q0 42 31.5 74.5t73.5 32.5q41 0 71.5 -32.5t30.5 -74.5q0 -41 -30.5 -72.5t-71.5 -31.5q-42 0 -73.5 31t-31.5 73zM444 1128q0 42 31 74.5t72 32.5q42 0 73 -32.5t31 -74.5t-31 -74t-73 -32q-41 0 -72 32t-31 74z" />
<glyph unicode="&#xa9;" horiz-adv-x="1566" d="M94 655q0 139 54.5 265.5t146 218t218 146t265.5 54.5t265.5 -54.5t218 -146t146 -218t54.5 -265.5t-54.5 -265.5t-146 -218t-218 -146t-265.5 -54.5t-265.5 54.5t-218 146t-146 218t-54.5 265.5zM141 655q0 -174 85 -321.5t231.5 -233.5t320.5 -86t320.5 86t231.5 233.5 t85 321.5t-85 321.5t-231.5 233.5t-320.5 86t-320.5 -86t-231.5 -233.5t-85 -321.5zM416 651q0 119 52.5 204.5t136.5 126t188 40.5q42 0 105.5 -12.5t76.5 -12.5q25 0 35 17q2 2 9 1.5t7 -3.5l6 -217q0 -3 -11 -4t-13 2q-46 105 -97 150.5t-125 45.5q-112 0 -178.5 -81.5 t-66.5 -241.5q0 -148 69.5 -248.5t188.5 -100.5q46 0 84 18.5t64 51t44 69t31 79.5q0 1 7 1.5t14.5 -2t7.5 -6.5q1 -35 -9 -107.5t-18 -80.5q-18 -18 -88 -35.5t-152 -17.5q-72 0 -137 24t-117 68.5t-83 115t-31 156.5z" />
<glyph unicode="&#xaa;" horiz-adv-x="669" d="M74 852q0 94 80.5 150t251.5 59l2 39q4 74 -34 114.5t-108 40.5q-47 0 -94.5 -28t-77.5 -66l-12 15q15 55 84.5 107t150.5 52q95 0 148.5 -57.5t50.5 -163.5l-8 -258q-2 -86 57 -86q45 0 74 61l10 -16q-39 -113 -133 -113q-37 0 -67.5 27t-42.5 68q-22 -44 -66 -69.5 t-100 -25.5q-65 0 -115.5 45t-50.5 105zM186 885q0 -51 31 -83t76 -32q49 0 104 49l2 10l7 199q-132 -3 -187 -61q-33 -36 -33 -82z" />
<glyph unicode="&#xab;" horiz-adv-x="899" d="M83 413.5q0 10.5 9 16.5q138 102 383 309q1 1 8 -5t12.5 -13t2.5 -10l-246 -297l246 -297q3 -3 -2.5 -10.5t-12.5 -13.5t-8 -5q-199 177 -383 309q-9 6 -9 16.5zM462 413.5q0 10.5 9 16.5q163 129 363 309q1 1 7.5 -5t12 -13t2.5 -10l-246 -297l246 -297q3 -3 -2.5 -10.5 t-12 -13.5t-7.5 -5q-200 180 -363 309q-9 6 -9 16.5z" />
<glyph unicode="&#xad;" horiz-adv-x="595" d="M48 536.5q0 26.5 3 26.5h494q3 0 3 -26.5t-3 -26.5h-494q-3 0 -3 26.5z" />
<glyph unicode="&#xae;" horiz-adv-x="1566" d="M94 655q0 139 54.5 265.5t146 218t218 146t265.5 54.5t265.5 -54.5t218 -146t146 -218t54.5 -265.5t-54.5 -265.5t-146 -218t-218 -146t-265.5 -54.5t-265.5 54.5t-218 146t-146 218t-54.5 265.5zM141 655q0 -174 85 -321.5t231.5 -233.5t320.5 -86t320.5 86t231.5 233.5 t85 321.5t-85 321.5t-231.5 233.5t-320.5 86t-320.5 -86t-231.5 -233.5t-85 -321.5zM481 318q0 5 2 6q63 7 79 26t16 82v447q0 63 -16 82t-79 26q-2 1 -2 6t1.5 11t2.5 6q51 -2 156 -2q20 0 81.5 4t78.5 4q114 0 169.5 -48.5t55.5 -123.5q0 -125 -149 -209q70 -57 137 -170 q66 -110 73 -117q14 -14 70 -24q2 0 2.5 -11.5t-2.5 -11.5q-13 0 -67 1t-82 1h-21q-7 7 -63.5 106t-79.5 130q-31 41 -51.5 57t-51.5 16q-29 0 -57 -4v-176q0 -61 20 -79t93 -29q2 0 2 -6t-1 -11.5t-3 -5.5q-14 2 -154 2q-105 0 -156 -2q-1 0 -2.5 6t-1.5 11zM684 659 q34 -14 111 -14q42 0 73 31q50 50 50 121q0 77 -47.5 131.5t-137.5 54.5q-31 0 -49 -6v-318z" />
<glyph unicode="&#xaf;" horiz-adv-x="696" d="M88 1077v103h520v-103h-520z" />
<glyph unicode="&#xb0;" horiz-adv-x="614" d="M86 1108q0 95 63 159t158 64t158 -63.5t63 -157.5q0 -95 -65 -161t-160 -66q-94 0 -155.5 65t-61.5 160zM139 1108q0 -72 47 -125t117 -53q71 0 121.5 53.5t50.5 126.5q0 71 -48.5 122.5t-119.5 51.5t-119.5 -51.5t-48.5 -124.5z" />
<glyph unicode="&#xb4;" horiz-adv-x="696" d="M166 999l235 334h215l-415 -334h-35z" />
<glyph unicode="&#xb6;" horiz-adv-x="1409" d="M109 651q0 135 44.5 254t128 209t213.5 142.5t291 52.5h41v-1315h-39q-309 0 -494 178t-185 479zM975 -6v1311q220 10 381 30q6 0 6 -17.5t-6 -19.5l-271 -34v-1231l271 -35q6 -2 6 -18.5t-6 -16.5q-174 21 -381 31z" />
<glyph unicode="&#xb7;" horiz-adv-x="397" d="M86 436q0 47 30 81t83 34q52 0 82 -34t30 -81q0 -43 -30.5 -75.5t-81.5 -32.5q-52 0 -82.5 32.5t-30.5 75.5z" />
<glyph unicode="&#xb8;" horiz-adv-x="696" d="M141 -393q-2 3 2.5 7.5t10 8t6.5 2.5q63 -67 155 -67q71 0 110.5 29t39.5 77q0 58 -47 86.5t-127 28.5q-17 0 -45 -4l78 217h53l-51 -139h24q103 0 160 -44t57 -120q0 -75 -71.5 -123.5t-165.5 -48.5q-58 0 -111.5 27.5t-77.5 62.5z" />
<glyph unicode="&#xba;" horiz-adv-x="710" d="M45 1018q0 135 85 224t224 89q152 0 231 -87t79 -226q0 -135 -84 -224t-226 -89q-151 0 -230 87t-79 226zM176 1030q0 -74 17 -136.5t59 -106.5t102 -44q89 0 135 74t46 191q0 73 -17.5 134.5t-60 104.5t-103.5 43q-87 0 -132.5 -72t-45.5 -188z" />
<glyph unicode="&#xbb;" horiz-adv-x="899" d="M63 117l246 297l-246 297q-3 3 2.5 10t12.5 13t8 5q200 -180 363 -309q9 -6 9 -16.5t-9 -16.5q-163 -129 -363 -309q-1 -1 -8 5t-12.5 13.5t-2.5 10.5zM422 117l246 297l-246 297q-3 3 2.5 10t12 13t7.5 5q245 -207 383 -309q9 -6 9 -16.5t-9 -16.5q-184 -132 -383 -309 q-1 -1 -7.5 5t-12 13.5t-2.5 10.5z" />
<glyph unicode="&#xbf;" horiz-adv-x="739" d="M63 244q0 18 3.5 37.5t8 35t15 35t17 32t21.5 32t21 28t23.5 27.5t21.5 23.5t22 22.5l17 18q94 97 143 184.5t50 206.5q0 31 -2 47q-1 6 8 9t18.5 0.5t10.5 -9.5q10 -62 10 -99q0 -79 -26.5 -152t-64 -127.5t-75 -105.5t-64 -106t-26.5 -109q0 -100 62 -154t147 -54 q65 0 127.5 35t101.5 96q3 2 9 0t11 -7.5t3 -9.5q-48 -94 -130 -154.5t-188 -60.5q-127 0 -211 78t-84 201zM326 1237q0 41 29 71.5t77 30.5q50 0 78.5 -30.5t28.5 -71.5q0 -45 -28.5 -77t-78.5 -32q-49 0 -77.5 32t-28.5 77z" />
<glyph unicode="&#xc0;" horiz-adv-x="1228" d="M-2 12.5q0 16.5 4 16.5q38 4 57.5 9.5t36.5 22.5q28 28 52.5 92t82.5 248l248 781q15 50 29 131q1 11 69.5 14.5t69.5 -0.5l320 -967q26 -80 45 -132t39 -89.5t34 -56.5t37 -31t40 -15t52 -7q4 0 4 -16.5t-4 -16.5q-82 4 -225 4q-90 0 -246 -4q-5 0 -5 16.5t5 16.5 q46 4 71.5 12.5t41.5 23.5t15 46t-10.5 71t-31.5 109l-77 237h-416q-61 -200 -85 -292.5t-24 -135.5q0 -41 20.5 -53.5t71.5 -17.5q5 0 5 -16.5t-5 -16.5q-82 4 -172 4q-19 0 -37 -0.5t-48 -1.5l-60 -2q-4 0 -4 16.5zM154 1765h215l235 -333h-35zM354 592h377l-190 592 q0 2 -3 2t-3 -2z" />
<glyph unicode="&#xc1;" horiz-adv-x="1228" d="M-2 12.5q0 16.5 4 16.5q38 4 57.5 9.5t36.5 22.5q28 28 52.5 92t82.5 248l248 781q15 50 29 131q1 11 69.5 14.5t69.5 -0.5l320 -967q26 -80 45 -132t39 -89.5t34 -56.5t37 -31t40 -15t52 -7q4 0 4 -16.5t-4 -16.5q-82 4 -225 4q-90 0 -246 -4q-5 0 -5 16.5t5 16.5 q46 4 71.5 12.5t41.5 23.5t15 46t-10.5 71t-31.5 109l-77 237h-416q-61 -200 -85 -292.5t-24 -135.5q0 -41 20.5 -53.5t71.5 -17.5q5 0 5 -16.5t-5 -16.5q-82 4 -172 4q-19 0 -37 -0.5t-48 -1.5l-60 -2q-4 0 -4 16.5zM354 592h377l-190 592q0 2 -3 2t-3 -2zM514 1432 l236 333h215l-416 -333h-35z" />
<glyph unicode="&#xc2;" horiz-adv-x="1228" d="M-2 12.5q0 16.5 4 16.5q38 4 57.5 9.5t36.5 22.5q28 28 52.5 92t82.5 248l248 781q15 50 29 131q1 11 69.5 14.5t69.5 -0.5l320 -967q26 -80 45 -132t39 -89.5t34 -56.5t37 -31t40 -15t52 -7q4 0 4 -16.5t-4 -16.5q-82 4 -225 4q-90 0 -246 -4q-5 0 -5 16.5t5 16.5 q46 4 71.5 12.5t41.5 23.5t15 46t-10.5 71t-31.5 109l-77 237h-416q-61 -200 -85 -292.5t-24 -135.5q0 -41 20.5 -53.5t71.5 -17.5q5 0 5 -16.5t-5 -16.5q-82 4 -172 4q-19 0 -37 -0.5t-48 -1.5l-60 -2q-4 0 -4 16.5zM295 1421l219 348h133l219 -348h-35l-249 244l-252 -244 h-35zM354 592h377l-190 592q0 2 -3 2t-3 -2z" />
<glyph unicode="&#xc3;" horiz-adv-x="1228" d="M-2 12.5q0 16.5 4 16.5q38 4 57.5 9.5t36.5 22.5q28 28 52.5 92t82.5 248l248 781q15 50 29 131q1 11 69.5 14.5t69.5 -0.5l320 -967q26 -80 45 -132t39 -89.5t34 -56.5t37 -31t40 -15t52 -7q4 0 4 -16.5t-4 -16.5q-82 4 -225 4q-90 0 -246 -4q-5 0 -5 16.5t5 16.5 q46 4 71.5 12.5t41.5 23.5t15 46t-10.5 71t-31.5 109l-77 237h-416q-61 -200 -85 -292.5t-24 -135.5q0 -41 20.5 -53.5t71.5 -17.5q5 0 5 -16.5t-5 -16.5q-82 4 -172 4q-19 0 -37 -0.5t-48 -1.5l-60 -2q-4 0 -4 16.5zM281 1458q8 88 53 152t121 67q49 2 107.5 -29.5 t109 -62.5t80.5 -29q47 3 74.5 32t37.5 87h43q-10 -90 -52 -151.5t-120 -65.5q-50 -3 -108 28t-109 62t-82 29q-82 -5 -112 -119h-43zM354 592h377l-190 592q0 2 -3 2t-3 -2z" />
<glyph unicode="&#xc4;" horiz-adv-x="1228" d="M-2 12.5q0 16.5 4 16.5q38 4 57.5 9.5t36.5 22.5q28 28 52.5 92t82.5 248l248 781q15 50 29 131q1 11 69.5 14.5t69.5 -0.5l320 -967q26 -80 45 -132t39 -89.5t34 -56.5t37 -31t40 -15t52 -7q4 0 4 -16.5t-4 -16.5q-82 4 -225 4q-90 0 -246 -4q-5 0 -5 16.5t5 16.5 q46 4 71.5 12.5t41.5 23.5t15 46t-10.5 71t-31.5 109l-77 237h-416q-61 -200 -85 -292.5t-24 -135.5q0 -41 20.5 -53.5t71.5 -17.5q5 0 5 -16.5t-5 -16.5q-82 4 -172 4q-19 0 -37 -0.5t-48 -1.5l-60 -2q-4 0 -4 16.5zM291 1559q0 42 31 74t73 32q41 0 72 -32t31 -74 q0 -41 -31 -73t-72 -32q-42 0 -73 31.5t-31 73.5zM354 592h377l-190 592q0 2 -3 2t-3 -2zM690 1561q0 42 31 74t72 32q42 0 73 -32t31 -74t-31 -74.5t-73 -32.5q-41 0 -72 32.5t-31 74.5z" />
<glyph unicode="&#xc5;" horiz-adv-x="1228" d="M-2 12.5q0 16.5 4 16.5q38 4 57.5 9.5t36.5 22.5q28 28 52.5 92t82.5 248l248 781q12 37 23 98q-46 20 -72.5 63.5t-26.5 100.5q0 78 48.5 128t126.5 50t126 -50t48 -128q0 -55 -24 -96.5t-66 -63.5l305 -924q26 -80 45 -132t39 -89.5t34 -56.5t37 -31t40 -15t52 -7 q4 0 4 -16.5t-4 -16.5q-82 4 -225 4q-90 0 -246 -4q-5 0 -5 16.5t5 16.5q46 4 71.5 12.5t41.5 23.5t15 46t-10.5 71t-31.5 109l-77 237h-416q-61 -200 -85 -292.5t-24 -135.5q0 -41 20.5 -53.5t71.5 -17.5q5 0 5 -16.5t-5 -16.5q-82 4 -172 4q-19 0 -37 -0.5t-48 -1.5 l-60 -2q-4 0 -4 16.5zM354 592h377l-190 592q0 2 -3 2t-3 -2zM463 1446q0 -54 33 -91.5t84 -37.5t81.5 35.5t30.5 89.5t-33 91.5t-84 37.5t-81.5 -35.5t-30.5 -89.5z" />
<glyph unicode="&#xc6;" horiz-adv-x="1595" d="M-98 12.5q0 16.5 4 16.5q44 3 70.5 13t54.5 38q30 30 67 88.5t116 194.5q5 8 7.5 12.5t6.5 12t8 13.5l426 723q47 81 47 107q0 18 -28 27t-108 16q-5 0 -5 16.5t5 16.5q156 -4 246 -4h295q106 0 281 8q14 0 14 -15q10 -147 10 -260q0 -2 -6 -3.5t-11.5 -1.5t-6.5 1 q-8 44 -17.5 73.5t-29.5 58t-50 44.5t-78 25.5t-114 9.5h-160q-26 0 -26 -4v-551q30 -4 81 2q170 3 232.5 9.5t85.5 29.5q7 7 11.5 14.5t7.5 20.5t5 22.5t5 31.5t6 36q2 4 15 4t13 -4q-4 -46 -4 -186q0 -135 8 -195q2 -7 -18 -7q-14 -1 -14 3q-1 4 -3.5 21t-3 21.5t-3.5 18 t-5 19.5t-5.5 15.5t-8 15.5t-10.5 12q-25 25 -89 34.5t-225 14.5l-81 2v-334q0 -114 6.5 -151t31.5 -62q41 -41 197 -41h33q77 0 126 13.5t81.5 49.5t51 82t38.5 128q1 4 10 5t18 -0.5t9 -4.5q-19 -159 -39 -301q-3 -24 -11 -29t-40 -4q-141 6 -357 6h-33q-292 0 -448 -4 q-4 0 -4 16.5t4 16.5q104 7 127 30q22 22 29.5 69t7.5 151v249h-379q-130 -227 -178.5 -321t-48.5 -129q0 -28 16 -36t61 -13q5 0 5 -16.5t-5 -16.5q-82 4 -172 4q-19 0 -38 -0.5t-51 -1.5t-62 -2q-4 0 -4 16.5zM414 592h344v432q0 98 -6 156z" />
<glyph unicode="&#xc7;" horiz-adv-x="1306" d="M125 651q0 105 28.5 205t86 187t137.5 152.5t190 103.5t236 38q93 0 202 -27.5t125 -27.5q24 0 41 33q1 3 13 2.5t12 -4.5l10 -336q0 -3 -5 -5t-11 -1t-8 6q-66 158 -158.5 235.5t-224.5 77.5q-148 0 -259 -81.5t-169 -225t-58 -328.5q0 -181 65 -327t185 -230t273 -84 q130 0 239 84q79 64 131 240q2 4 17.5 1.5t15.5 -7.5q-17 -247 -37 -260q-149 -107 -389 -107h-33l-41 -112h25q103 0 160 -44t57 -120q0 -75 -72 -123.5t-166 -48.5q-58 0 -111 27.5t-77 62.5q-2 3 2 7.5t9.5 8t6.5 2.5q63 -67 156 -67q71 0 110.5 29t39.5 77 q0 58 -47 86.5t-127 28.5q-18 0 -46 -4l70 194q-184 19 -322.5 116.5t-210 244.5t-71.5 321z" />
<glyph unicode="&#xc8;" horiz-adv-x="1099" d="M94 12.5q0 16.5 4 16.5q32 2 49.5 4t37.5 6.5t29.5 9.5t20.5 17t14.5 25.5t7.5 36.5t4.5 49t0.5 65v819q0 39 -0.5 65t-4.5 49t-7.5 36.5t-14.5 25.5t-20.5 17t-29.5 9.5t-37.5 6.5t-49.5 4q-4 0 -4 16.5t4 16.5q156 -4 246 -4h274q106 0 281 8q14 0 14 -15 q11 -161 11 -260q0 -2 -6.5 -3.5t-12 -1.5t-6.5 1q-8 44 -17.5 73.5t-29.5 58t-50 44.5t-78 25.5t-114 9.5h-159q-27 0 -27 -4v-551l82 2q222 6 264 14q35 7 51 23q4 4 7 8t6 10t5 11t4 13t3 13.5t3 16t3 16.5t3 19t3 20q0 4 14.5 4t14.5 -4q-4 -46 -4 -186q0 -135 8 -195 q2 -7 -21 -7q-12 0 -12 3q-1 7 -5 30.5t-5.5 30.5t-5.5 22t-9.5 23.5t-13.5 16.5q-25 25 -94.5 35.5t-218.5 13.5l-82 2v-334q0 -113 7 -150.5t32 -62.5q41 -41 196 -41h33q77 0 126 13.5t81.5 49.5t51 82t38.5 128q1 4 10 5t18 -0.5t9 -4.5q-19 -159 -39 -301 q-3 -24 -11 -29t-40 -4q-141 6 -356 6h-33q-293 0 -449 -4q-4 0 -4 16.5zM205 1765h215l235 -333h-34z" />
<glyph unicode="&#xc9;" horiz-adv-x="1099" d="M94 12.5q0 16.5 4 16.5q32 2 49.5 4t37.5 6.5t29.5 9.5t20.5 17t14.5 25.5t7.5 36.5t4.5 49t0.5 65v819q0 39 -0.5 65t-4.5 49t-7.5 36.5t-14.5 25.5t-20.5 17t-29.5 9.5t-37.5 6.5t-49.5 4q-4 0 -4 16.5t4 16.5q156 -4 246 -4h274q106 0 281 8q14 0 14 -15 q11 -161 11 -260q0 -2 -6.5 -3.5t-12 -1.5t-6.5 1q-8 44 -17.5 73.5t-29.5 58t-50 44.5t-78 25.5t-114 9.5h-159q-27 0 -27 -4v-551l82 2q222 6 264 14q35 7 51 23q4 4 7 8t6 10t5 11t4 13t3 13.5t3 16t3 16.5t3 19t3 20q0 4 14.5 4t14.5 -4q-4 -46 -4 -186q0 -135 8 -195 q2 -7 -21 -7q-12 0 -12 3q-1 7 -5 30.5t-5.5 30.5t-5.5 22t-9.5 23.5t-13.5 16.5q-25 25 -94.5 35.5t-218.5 13.5l-82 2v-334q0 -113 7 -150.5t32 -62.5q41 -41 196 -41h33q77 0 126 13.5t81.5 49.5t51 82t38.5 128q1 4 10 5t18 -0.5t9 -4.5q-19 -159 -39 -301 q-3 -24 -11 -29t-40 -4q-141 6 -356 6h-33q-293 0 -449 -4q-4 0 -4 16.5zM422 1432l235 333h215l-415 -333h-35z" />
<glyph unicode="&#xca;" horiz-adv-x="1099" d="M94 12.5q0 16.5 4 16.5q32 2 49.5 4t37.5 6.5t29.5 9.5t20.5 17t14.5 25.5t7.5 36.5t4.5 49t0.5 65v819q0 39 -0.5 65t-4.5 49t-7.5 36.5t-14.5 25.5t-20.5 17t-29.5 9.5t-37.5 6.5t-49.5 4q-4 0 -4 16.5t4 16.5q156 -4 246 -4h274q106 0 281 8q14 0 14 -15 q11 -161 11 -260q0 -2 -6.5 -3.5t-12 -1.5t-6.5 1q-8 44 -17.5 73.5t-29.5 58t-50 44.5t-78 25.5t-114 9.5h-159q-27 0 -27 -4v-551l82 2q222 6 264 14q35 7 51 23q4 4 7 8t6 10t5 11t4 13t3 13.5t3 16t3 16.5t3 19t3 20q0 4 14.5 4t14.5 -4q-4 -46 -4 -186q0 -135 8 -195 q2 -7 -21 -7q-12 0 -12 3q-1 7 -5 30.5t-5.5 30.5t-5.5 22t-9.5 23.5t-13.5 16.5q-25 25 -94.5 35.5t-218.5 13.5l-82 2v-334q0 -113 7 -150.5t32 -62.5q41 -41 196 -41h33q77 0 126 13.5t81.5 49.5t51 82t38.5 128q1 4 10 5t18 -0.5t9 -4.5q-19 -159 -39 -301 q-3 -24 -11 -29t-40 -4q-141 6 -356 6h-33q-293 0 -449 -4q-4 0 -4 16.5zM258 1421l219 348h133l219 -348h-34l-250 244l-252 -244h-35z" />
<glyph unicode="&#xcb;" horiz-adv-x="1099" d="M94 12.5q0 16.5 4 16.5q32 2 49.5 4t37.5 6.5t29.5 9.5t20.5 17t14.5 25.5t7.5 36.5t4.5 49t0.5 65v819q0 39 -0.5 65t-4.5 49t-7.5 36.5t-14.5 25.5t-20.5 17t-29.5 9.5t-37.5 6.5t-49.5 4q-4 0 -4 16.5t4 16.5q156 -4 246 -4h274q106 0 281 8q14 0 14 -15 q11 -161 11 -260q0 -2 -6.5 -3.5t-12 -1.5t-6.5 1q-8 44 -17.5 73.5t-29.5 58t-50 44.5t-78 25.5t-114 9.5h-159q-27 0 -27 -4v-551l82 2q222 6 264 14q35 7 51 23q4 4 7 8t6 10t5 11t4 13t3 13.5t3 16t3 16.5t3 19t3 20q0 4 14.5 4t14.5 -4q-4 -46 -4 -186q0 -135 8 -195 q2 -7 -21 -7q-12 0 -12 3q-1 7 -5 30.5t-5.5 30.5t-5.5 22t-9.5 23.5t-13.5 16.5q-25 25 -94.5 35.5t-218.5 13.5l-82 2v-334q0 -113 7 -150.5t32 -62.5q41 -41 196 -41h33q77 0 126 13.5t81.5 49.5t51 82t38.5 128q1 4 10 5t18 -0.5t9 -4.5q-19 -159 -39 -301 q-3 -24 -11 -29t-40 -4q-141 6 -356 6h-33q-293 0 -449 -4q-4 0 -4 16.5zM240 1559q0 42 31 74t73 32q41 0 71.5 -32t30.5 -74t-30.5 -73.5t-71.5 -31.5q-42 0 -73 31.5t-31 73.5zM639 1561q0 42 30.5 74t71.5 32q42 0 73.5 -32t31.5 -74t-31.5 -74.5t-73.5 -32.5 q-41 0 -71.5 32.5t-30.5 74.5z" />
<glyph unicode="&#xcc;" horiz-adv-x="706" d="M-6 1763h215l235 -333h-34zM84 12.5q0 16.5 4 16.5q102 5 127 15q39 14 49 70q8 39 8 128v819q0 80 -3.5 118.5t-28 61t-47 26t-90.5 6.5q-10 1 -15 1q-4 0 -4 16.5t4 16.5q156 -4 277 -4q174 0 256 4q5 0 5 -16.5t-5 -16.5q-103 -12 -121 -17q-41 -13 -54 -55 q-12 -39 -12 -141v-819q0 -75 3.5 -112.5t26 -59.5t43 -26.5t80.5 -10.5q22 -3 34 -4q5 0 5 -16.5t-5 -16.5q-82 4 -256 4q-121 0 -277 -4q-4 0 -4 16.5z" />
<glyph unicode="&#xcd;" horiz-adv-x="706" d="M84 12.5q0 16.5 4 16.5q102 5 127 15q39 14 49 70q8 39 8 128v819q0 80 -3.5 118.5t-28 61t-47 26t-90.5 6.5q-10 1 -15 1q-4 0 -4 16.5t4 16.5q156 -4 277 -4q174 0 256 4q5 0 5 -16.5t-5 -16.5q-103 -12 -121 -17q-41 -13 -54 -55q-12 -39 -12 -141v-819 q0 -75 3.5 -112.5t26 -59.5t43 -26.5t80.5 -10.5q22 -3 34 -4q5 0 5 -16.5t-5 -16.5q-82 4 -256 4q-121 0 -277 -4q-4 0 -4 16.5zM293 1432l235 333h215l-415 -333h-35z" />
<glyph unicode="&#xce;" horiz-adv-x="706" d="M68 1421l219 348h133l219 -348h-35l-250 244l-252 -244h-34zM84 12.5q0 16.5 4 16.5q102 5 127 15q39 14 49 70q8 39 8 128v819q0 80 -3.5 118.5t-28 61t-47 26t-90.5 6.5q-10 1 -15 1q-4 0 -4 16.5t4 16.5q156 -4 277 -4q174 0 256 4q5 0 5 -16.5t-5 -16.5 q-103 -12 -121 -17q-41 -13 -54 -55q-12 -39 -12 -141v-819q0 -75 3.5 -112.5t26 -59.5t43 -26.5t80.5 -10.5q22 -3 34 -4q5 0 5 -16.5t-5 -16.5q-82 4 -256 4q-121 0 -277 -4q-4 0 -4 16.5z" />
<glyph unicode="&#xcf;" horiz-adv-x="706" d="M49 1559q0 42 31.5 74t73.5 32q41 0 71.5 -32t30.5 -74t-30.5 -73.5t-71.5 -31.5q-42 0 -73.5 31.5t-31.5 73.5zM84 12.5q0 16.5 4 16.5q102 5 127 15q39 14 49 70q8 39 8 128v819q0 80 -3.5 118.5t-28 61t-47 26t-90.5 6.5q-10 1 -15 1q-4 0 -4 16.5t4 16.5 q156 -4 277 -4q174 0 256 4q5 0 5 -16.5t-5 -16.5q-103 -12 -121 -17q-41 -13 -54 -55q-12 -39 -12 -141v-819q0 -75 3.5 -112.5t26 -59.5t43 -26.5t80.5 -10.5q22 -3 34 -4q5 0 5 -16.5t-5 -16.5q-82 4 -256 4q-121 0 -277 -4q-4 0 -4 16.5zM449 1561q0 42 30.5 74t71.5 32 q42 0 73 -32t31 -74t-31 -74.5t-73 -32.5q-41 0 -71.5 32.5t-30.5 74.5z" />
<glyph unicode="&#xd0;" horiz-adv-x="1456" d="M93 665.5q0 26.5 3 26.5h166v369q0 39 -0.5 65t-4.5 49t-7.5 36.5t-14.5 25.5t-20.5 17t-29.5 9.5t-37.5 6.5t-49.5 4q-4 0 -4 16.5t4 16.5q156 -4 256 -4q34 0 154.5 7t153.5 7q164 0 298 -51.5t220.5 -140t133 -205.5t46.5 -250q0 -143 -50.5 -266t-144 -214 t-233.5 -142.5t-311 -51.5q-17 0 -123.5 2t-143.5 2q-100 0 -256 -4q-4 0 -4 16.5t4 16.5q32 2 49.5 4t37.5 6.5t29.5 9.5t20.5 17t14.5 25.5t7.5 36.5t4.5 49t0.5 65v397h-166q-3 0 -3 26.5zM424 254q0 -137 33 -170q16 -16 73 -25.5t119 -9.5q107 0 194 31t147 87 t100.5 135.5t59.5 175.5t19 208q0 265 -149 422.5t-381 157.5q-128 0 -215 -23v-551h336q3 0 3 -26.5t-3 -26.5h-336v-385z" />
<glyph unicode="&#xd1;" horiz-adv-x="1478" d="M94 1290.5q0 16.5 4 16.5q156 -4 193 -4q14 0 77 1t70 1q55 -100 88 -144l643 -887h2l-2 676q0 191 -9 235q-11 54 -50 70q-27 12 -102 19q-4 0 -4 16.5t4 16.5q36 -1 98 -5t94 -4q28 0 61.5 1.5t68 4t46.5 3.5q4 0 4 -16.5t-4 -16.5q-29 -3 -44 -5t-33 -9.5t-25 -14 t-16.5 -26t-11.5 -38.5t-5 -57.5t-3.5 -76.5t-0.5 -103v-655q0 -149 8 -293q0 -6 -31 -8.5t-34 2.5l-850 1171h-2l2 -813q0 -192 10 -236q11 -52 50 -69q26 -11 102 -18q4 0 4 -16.5t-4 -16.5q-35 1 -97.5 4.5t-95.5 3.5q-12 0 -176 -8q-5 0 -5 16.5t5 16.5q29 3 43.5 5 t33 9.5t25.5 14t16.5 26t11.5 38t5 57t3.5 76.5t0.5 103v686q0 89 -7 132.5t-28 64.5q-17 17 -45.5 24.5t-83.5 12.5q-4 0 -4 16.5zM426 1458q8 88 53 152t121 67q49 2 107.5 -29.5t109 -62.5t80.5 -29q93 6 113 119h43q-10 -90 -52 -151.5t-120 -65.5q-50 -3 -108 28 t-109 62t-82 29q-83 -5 -113 -119h-43z" />
<glyph unicode="&#xd2;" horiz-adv-x="1583" d="M106 651q0 131 46.5 253t131 219.5t217.5 156.5t292 59q128 0 239.5 -38t192 -103.5t138 -153t86 -186.5t28.5 -203q0 -131 -46.5 -254t-132 -220.5t-218.5 -156.5t-292 -59t-291 58.5t-216 155.5t-129.5 219t-45.5 253zM297 655q0 -182 61 -327.5t174.5 -229.5 t260.5 -84q150 0 262.5 82t171.5 226t59 329q0 182 -61.5 327.5t-175.5 229.5t-261 84q-225 0 -358 -177t-133 -460zM432 1765h215l236 -333h-35z" />
<glyph unicode="&#xd3;" horiz-adv-x="1583" d="M106 651q0 131 46.5 253t131 219.5t217.5 156.5t292 59q128 0 239.5 -38t192 -103.5t138 -153t86 -186.5t28.5 -203q0 -131 -46.5 -254t-132 -220.5t-218.5 -156.5t-292 -59t-291 58.5t-216 155.5t-129.5 219t-45.5 253zM297 655q0 -182 61 -327.5t174.5 -229.5 t260.5 -84q150 0 262.5 82t171.5 226t59 329q0 182 -61.5 327.5t-175.5 229.5t-261 84q-225 0 -358 -177t-133 -460zM731 1432l236 333h215l-416 -333h-35z" />
<glyph unicode="&#xd4;" horiz-adv-x="1583" d="M106 651q0 131 46.5 253t131 219.5t217.5 156.5t292 59q128 0 239.5 -38t192 -103.5t138 -153t86 -186.5t28.5 -203q0 -131 -46.5 -254t-132 -220.5t-218.5 -156.5t-292 -59t-291 58.5t-216 155.5t-129.5 219t-45.5 253zM297 655q0 -182 61 -327.5t174.5 -229.5 t260.5 -84q150 0 262.5 82t171.5 226t59 329q0 182 -61.5 327.5t-175.5 229.5t-261 84q-225 0 -358 -177t-133 -460zM506 1421l219 348h133l219 -348h-35l-249 244l-252 -244h-35z" />
<glyph unicode="&#xd5;" horiz-adv-x="1583" d="M106 651q0 131 46.5 253t131 219.5t217.5 156.5t292 59q128 0 239.5 -38t192 -103.5t138 -153t86 -186.5t28.5 -203q0 -131 -46.5 -254t-132 -220.5t-218.5 -156.5t-292 -59t-291 58.5t-216 155.5t-129.5 219t-45.5 253zM297 655q0 -182 61 -327.5t174.5 -229.5 t260.5 -84q150 0 262.5 82t171.5 226t59 329q0 182 -61.5 327.5t-175.5 229.5t-261 84q-225 0 -358 -177t-133 -460zM477 1458q8 88 53 152t121 67q49 2 107.5 -29.5t109 -62.5t80.5 -29q93 6 113 119h43q-10 -90 -52 -151.5t-120 -65.5q-50 -3 -108 28t-109 62t-82 29 q-83 -5 -113 -119h-43z" />
<glyph unicode="&#xd6;" horiz-adv-x="1583" d="M106 651q0 131 46.5 253t131 219.5t217.5 156.5t292 59q128 0 239.5 -38t192 -103.5t138 -153t86 -186.5t28.5 -203q0 -131 -46.5 -254t-132 -220.5t-218.5 -156.5t-292 -59t-291 58.5t-216 155.5t-129.5 219t-45.5 253zM297 655q0 -182 61 -327.5t174.5 -229.5 t260.5 -84q150 0 262.5 82t171.5 226t59 329q0 182 -61.5 327.5t-175.5 229.5t-261 84q-225 0 -358 -177t-133 -460zM487 1559q0 42 31.5 74t73.5 32q41 0 71.5 -32t30.5 -74t-30.5 -73.5t-71.5 -31.5q-42 0 -73.5 31.5t-31.5 73.5zM887 1561q0 42 30.5 74t71.5 32 q42 0 73.5 -32t31.5 -74t-31.5 -74.5t-73.5 -32.5q-41 0 -71.5 32.5t-30.5 74.5z" />
<glyph unicode="&#xd8;" horiz-adv-x="1583" d="M106 651q0 131 46.5 253t131 219.5t217.5 156.5t292 59q214 0 378 -106l156 221q1 2 11 -4t19 -14t7 -11l-154 -219q128 -95 197.5 -242t69.5 -309q0 -131 -46.5 -254t-132 -220.5t-218.5 -156.5t-292 -59q-209 0 -376 103l-176 -252q-1 -2 -11 4.5t-19 14t-7 9.5 l174 250q-128 95 -197.5 243.5t-69.5 313.5zM297 655q0 -288 143 -467l674 961q-133 143 -326 143q-225 0 -358 -177t-133 -460zM471 152q132 -138 322 -138q150 0 262.5 82t171.5 226t59 329q0 283 -141 463z" />
<glyph unicode="&#xd9;" horiz-adv-x="1415" d="M56 1290.5q0 16.5 5 16.5q156 -4 246 -4q164 0 246 4q5 0 5 -16.5t-5 -16.5q-41 -5 -61.5 -8.5t-43.5 -13t-31.5 -23t-17 -40t-10.5 -60.5t-2 -89v-563q0 -104 18 -179t60.5 -133t119 -87t187.5 -29q180 0 272.5 118.5t90.5 315.5l-5 467q-1 192 -10 234q-10 54 -49 71 q-26 12 -102 19q-5 0 -5 16.5t5 16.5q36 -1 98 -5t94 -4q28 0 61.5 1.5t68 4t46.5 3.5q5 0 5 -16.5t-5 -16.5q-29 -3 -44 -5t-33 -9.5t-25 -14t-16.5 -26t-11.5 -38.5t-5 -57.5t-3.5 -76.5t-0.5 -103v-459q0 -244 -118 -383t-353 -139q-259 0 -380.5 123.5t-121.5 380.5v573 q0 55 -2 89.5t-10.5 61.5t-17 40t-31 22.5t-42.5 13t-61 7.5q-5 0 -5 16.5zM410 1765h215l235 -333h-35z" />
<glyph unicode="&#xda;" horiz-adv-x="1415" d="M56 1290.5q0 16.5 5 16.5q156 -4 246 -4q164 0 246 4q5 0 5 -16.5t-5 -16.5q-41 -5 -61.5 -8.5t-43.5 -13t-31.5 -23t-17 -40t-10.5 -60.5t-2 -89v-563q0 -104 18 -179t60.5 -133t119 -87t187.5 -29q180 0 272.5 118.5t90.5 315.5l-5 467q-1 192 -10 234q-10 54 -49 71 q-26 12 -102 19q-5 0 -5 16.5t5 16.5q36 -1 98 -5t94 -4q28 0 61.5 1.5t68 4t46.5 3.5q5 0 5 -16.5t-5 -16.5q-29 -3 -44 -5t-33 -9.5t-25 -14t-16.5 -26t-11.5 -38.5t-5 -57.5t-3.5 -76.5t-0.5 -103v-459q0 -244 -118 -383t-353 -139q-259 0 -380.5 123.5t-121.5 380.5v573 q0 55 -2 89.5t-10.5 61.5t-17 40t-31 22.5t-42.5 13t-61 7.5q-5 0 -5 16.5zM688 1432l236 333h215l-416 -333h-35z" />
<glyph unicode="&#xdb;" horiz-adv-x="1415" d="M56 1290.5q0 16.5 5 16.5q156 -4 246 -4q164 0 246 4q5 0 5 -16.5t-5 -16.5q-41 -5 -61.5 -8.5t-43.5 -13t-31.5 -23t-17 -40t-10.5 -60.5t-2 -89v-563q0 -104 18 -179t60.5 -133t119 -87t187.5 -29q180 0 272.5 118.5t90.5 315.5l-5 467q-1 192 -10 234q-10 54 -49 71 q-26 12 -102 19q-5 0 -5 16.5t5 16.5q36 -1 98 -5t94 -4q28 0 61.5 1.5t68 4t46.5 3.5q5 0 5 -16.5t-5 -16.5q-29 -3 -44 -5t-33 -9.5t-25 -14t-16.5 -26t-11.5 -38.5t-5 -57.5t-3.5 -76.5t-0.5 -103v-459q0 -244 -118 -383t-353 -139q-259 0 -380.5 123.5t-121.5 380.5v573 q0 55 -2 89.5t-10.5 61.5t-17 40t-31 22.5t-42.5 13t-61 7.5q-5 0 -5 16.5zM463 1421l219 348h133l219 -348h-35l-249 244l-252 -244h-35z" />
<glyph unicode="&#xdc;" horiz-adv-x="1415" d="M56 1290.5q0 16.5 5 16.5q156 -4 246 -4q164 0 246 4q5 0 5 -16.5t-5 -16.5q-41 -5 -61.5 -8.5t-43.5 -13t-31.5 -23t-17 -40t-10.5 -60.5t-2 -89v-563q0 -104 18 -179t60.5 -133t119 -87t187.5 -29q180 0 272.5 118.5t90.5 315.5l-5 467q-1 192 -10 234q-10 54 -49 71 q-26 12 -102 19q-5 0 -5 16.5t5 16.5q36 -1 98 -5t94 -4q28 0 61.5 1.5t68 4t46.5 3.5q5 0 5 -16.5t-5 -16.5q-29 -3 -44 -5t-33 -9.5t-25 -14t-16.5 -26t-11.5 -38.5t-5 -57.5t-3.5 -76.5t-0.5 -103v-459q0 -244 -118 -383t-353 -139q-259 0 -380.5 123.5t-121.5 380.5v573 q0 55 -2 89.5t-10.5 61.5t-17 40t-31 22.5t-42.5 13t-61 7.5q-5 0 -5 16.5zM403 1559q0 42 31.5 74t73.5 32q41 0 71.5 -32t30.5 -74t-30.5 -73.5t-71.5 -31.5q-42 0 -73.5 31.5t-31.5 73.5zM803 1561q0 42 30.5 74t71.5 32q42 0 73.5 -32t31.5 -74t-31.5 -74.5t-73.5 -32.5 q-41 0 -71.5 32.5t-30.5 74.5z" />
<glyph unicode="&#xdd;" horiz-adv-x="1163" d="M0 1290.5q0 16.5 4 16.5q82 -4 215 -4q69 0 225 4q4 0 4 -16.5t-4 -16.5q-54 -5 -76 -14.5t-22 -32.5q0 -27 39 -94l274 -471l248 460q35 65 35 97q0 25 -23.5 37.5t-74.5 17.5q-4 0 -4 16.5t4 16.5q82 -4 188 -4q4 0 160 4q4 0 4 -16.5t-4 -16.5q-46 -4 -81.5 -20.5 t-64.5 -49t-48.5 -62.5t-49.5 -83q-9 -16 -14 -25l-240 -434v-358q0 -54 1 -84.5t10 -57t17.5 -37t34.5 -19.5t50 -11t74 -4q5 0 5 -16.5t-5 -16.5q-82 4 -256 4q-121 0 -277 -4q-4 0 -4 16.5t4 16.5q38 2 58 3t43 6t33 9.5t22 17t15.5 24.5t7.5 37t4.5 50t0.5 66v321 l-307 527q-65 112 -102.5 143.5t-118.5 40.5q-4 0 -4 16.5zM563 1421l236 334h215l-416 -334h-35z" />
<glyph unicode="&#xde;" horiz-adv-x="1112" d="M94 12.5q0 16.5 4 16.5q32 2 49.5 4t37.5 6.5t29.5 9.5t20.5 17t14.5 25.5t7.5 36.5t4.5 49t0.5 65v819q0 39 -0.5 65t-4.5 49t-7.5 36.5t-14.5 25.5t-20.5 17t-29.5 9.5t-37.5 6.5t-49.5 4q-4 0 -4 16.5t4 16.5q156 -4 256 -4q154 0 236 4q4 0 4 -16.5t-4 -16.5 q-43 -3 -64 -5.5t-43.5 -11t-31 -20t-16.5 -37t-9.5 -56.5t-1.5 -83v-23q165 6 166 6q198 0 319 -91.5t121 -254.5q0 -82 -38.5 -158t-103.5 -130.5t-159.5 -82t-198.5 -14.5q-8 1 -8 17t8 16q338 -3 338 311q0 119 -63.5 203.5t-164.5 117t-216 9.5v-745q0 -52 1.5 -83 t9.5 -56.5t16.5 -37t31 -20t43.5 -11t64 -5.5q4 0 4 -16.5t-4 -16.5q-82 4 -236 4q-100 0 -256 -4q-4 0 -4 16.5z" />
<glyph unicode="&#xdf;" horiz-adv-x="1191" d="M44 821.5q0 12.5 3 14.5q107 33 141 67q30 27 33 82q7 127 48 226.5t107.5 159.5t148 91t173.5 31q126 0 221 -82.5t95 -210.5q0 -38 -14 -74.5t-43.5 -72.5t-54.5 -61.5t-67 -64t-61 -57.5q-84 -84 -84 -149q0 -41 25.5 -75t66 -59t89.5 -49t98.5 -51.5t90 -60t66 -81 t25.5 -107.5q0 -109 -81 -186t-228 -77q-135 0 -275 72q-4 2 -7 17t-5.5 62t-5.5 140q0 5 12.5 5.5t13.5 -3.5q49 -112 121 -180t160 -68q81 0 126.5 42t45.5 108q0 45 -25.5 83t-66 65.5t-89.5 53t-98.5 53t-90 58t-66 74t-25.5 96.5q0 38 10 71t33.5 64t41.5 50.5t54.5 53 t51.5 48.5q50 50 77 99.5t27 115.5q0 112 -69 186t-189 74q-242 0 -242 -440v-713q0 -104 10 -151t30 -61t69 -21q5 0 5 -16.5t-5 -16.5q-118 4 -172 4q-107 0 -225 -4q-4 0 -4 16.5t4 16.5q28 4 41 6.5t31.5 8t25.5 11.5t17.5 18.5t13.5 27t7 39t4.5 53t0.5 69.5v547h-168 q-3 0 -3 12.5z" />
<glyph unicode="&#xe0;" horiz-adv-x="944" d="M102 190q0 141 125 224.5t371 89.5l2 53q5 114 -50.5 179t-164.5 65q-70 0 -135 -38.5t-111 -100.5q-2 -3 -7 0t-8.5 8.5t-2.5 9.5q33 93 127.5 160t204.5 67q137 0 218.5 -88.5t78.5 -243.5l-9 -387q-3 -127 80 -127q60 0 107 82q1 3 6 -6q6 -11 4 -14 q-53 -152 -184 -152q-59 0 -103 40.5t-57 97.5q-36 -64 -102 -101t-148 -37q-97 0 -169.5 64t-72.5 155zM143 1333h215l236 -334h-35zM252 236q0 -77 47.5 -126t118.5 -49q81 0 153 72q21 21 21 33l6 299q-203 -8 -295 -100q-51 -51 -51 -129z" />
<glyph unicode="&#xe1;" horiz-adv-x="944" d="M102 190q0 141 125 224.5t371 89.5l2 53q5 114 -50.5 179t-164.5 65q-70 0 -135 -38.5t-111 -100.5q-2 -3 -7 0t-8.5 8.5t-2.5 9.5q33 93 127.5 160t204.5 67q137 0 218.5 -88.5t78.5 -243.5l-9 -387q-3 -127 80 -127q60 0 107 82q1 3 6 -6q6 -11 4 -14 q-53 -152 -184 -152q-59 0 -103 40.5t-57 97.5q-36 -64 -102 -101t-148 -37q-97 0 -169.5 64t-72.5 155zM252 236q0 -77 47.5 -126t118.5 -49q81 0 153 72q21 21 21 33l6 299q-203 -8 -295 -100q-51 -51 -51 -129zM299 999l236 334h215l-416 -334h-35z" />
<glyph unicode="&#xe2;" horiz-adv-x="944" d="M102 190q0 141 125 224.5t371 89.5l2 53q5 114 -50.5 179t-164.5 65q-70 0 -135 -38.5t-111 -100.5q-2 -3 -7 0t-8.5 8.5t-2.5 9.5q33 93 127.5 160t204.5 67q137 0 218.5 -88.5t78.5 -243.5l-9 -387q-3 -127 80 -127q60 0 107 82q1 3 6 -6q6 -11 4 -14 q-53 -152 -184 -152q-59 0 -103 40.5t-57 97.5q-36 -64 -102 -101t-148 -37q-97 0 -169.5 64t-72.5 155zM147 989l220 348h133l219 -348h-35l-250 244l-252 -244h-35zM252 236q0 -77 47.5 -126t118.5 -49q81 0 153 72q21 21 21 33l6 299q-203 -8 -295 -100q-51 -51 -51 -129 z" />
<glyph unicode="&#xe3;" horiz-adv-x="944" d="M102 190q0 141 125 224.5t371 89.5l2 53q5 114 -50.5 179t-164.5 65q-70 0 -135 -38.5t-111 -100.5q-2 -3 -7 0t-8.5 8.5t-2.5 9.5q33 93 127.5 160t204.5 67q137 0 218.5 -88.5t78.5 -243.5l-9 -387q-3 -127 80 -127q60 0 107 82q1 3 6 -6q6 -11 4 -14 q-53 -152 -184 -152q-59 0 -103 40.5t-57 97.5q-36 -64 -102 -101t-148 -37q-97 0 -169.5 64t-72.5 155zM137 1026q8 88 53 152t121 67q49 2 107.5 -29.5t109 -62.5t80.5 -29q93 6 113 119h43q-10 -90 -52 -151.5t-120 -65.5q-50 -3 -108 28t-109 62t-82 29 q-83 -5 -113 -119h-43zM252 236q0 -77 47.5 -126t118.5 -49q81 0 153 72q21 21 21 33l6 299q-203 -8 -295 -100q-51 -51 -51 -129z" />
<glyph unicode="&#xe4;" horiz-adv-x="944" d="M102 190q0 141 125 224.5t371 89.5l2 53q5 114 -50.5 179t-164.5 65q-70 0 -135 -38.5t-111 -100.5q-2 -3 -7 0t-8.5 8.5t-2.5 9.5q33 93 127.5 160t204.5 67q137 0 218.5 -88.5t78.5 -243.5l-9 -387q-3 -127 80 -127q60 0 107 82q1 3 6 -6q6 -11 4 -14 q-53 -152 -184 -152q-59 0 -103 40.5t-57 97.5q-36 -64 -102 -101t-148 -37q-97 0 -169.5 64t-72.5 155zM143 1126q0 42 31.5 74.5t73.5 32.5q41 0 71.5 -32.5t30.5 -74.5q0 -41 -30.5 -72.5t-71.5 -31.5q-42 0 -73.5 31t-31.5 73zM252 236q0 -77 47.5 -126t118.5 -49 q81 0 153 72q21 21 21 33l6 299q-203 -8 -295 -100q-51 -51 -51 -129zM543 1128q0 42 30.5 74.5t71.5 32.5q42 0 73.5 -32.5t31.5 -74.5t-31.5 -74t-73.5 -32q-41 0 -71.5 32t-30.5 74z" />
<glyph unicode="&#xe5;" horiz-adv-x="944" d="M102 190q0 141 125 224.5t371 89.5l2 53q5 114 -50.5 179t-164.5 65q-70 0 -135 -38.5t-111 -100.5q-2 -3 -7 0t-8.5 8.5t-2.5 9.5q33 93 127.5 160t204.5 67q137 0 218.5 -88.5t78.5 -243.5l-9 -387q-3 -127 80 -127q60 0 107 82q1 3 6 -6q6 -11 4 -14 q-53 -152 -184 -152q-59 0 -103 40.5t-57 97.5q-36 -64 -102 -101t-148 -37q-97 0 -169.5 64t-72.5 155zM252 236q0 -77 47.5 -126t118.5 -49q81 0 153 72q21 21 21 33l6 299q-203 -8 -295 -100q-51 -51 -51 -129zM289 1217q0 78 48 128t126 50t126 -50t48 -128 q0 -79 -48.5 -129t-125.5 -50t-125.5 50t-48.5 129zM348 1219q0 -54 33 -91.5t84 -37.5t82 35t31 89t-33 91.5t-84 37.5t-82 -35t-31 -89z" />
<glyph unicode="&#xe6;" horiz-adv-x="1447" d="M82 190q0 141 125 224.5t371 89.5l2 51q5 114 -50.5 177t-164.5 63q-70 0 -136.5 -37.5t-109.5 -95.5q-2 -3 -7 0t-9 8.5t-3 9.5q31 82 125 151.5t207 69.5q182 0 256 -149q126 149 322 149q149 0 250.5 -92t113.5 -240v-55h-633q-4 -46 -4 -68q0 -160 91 -267t221 -107 q93 0 171 48t130 128q4 6 12 3t6 -9q-33 -114 -137.5 -192.5t-229.5 -78.5q-119 0 -214 54.5t-150 150.5q-65 -108 -140.5 -156.5t-172.5 -48.5t-169.5 64t-72.5 155zM231 236q0 -77 47.5 -126t118.5 -49q54 0 115 41.5t104 112.5q-43 93 -43 215q0 23 2 35 q-199 -11 -292 -103q-52 -52 -52 -126zM748 565h446v43q0 115 -58 178.5t-141 63.5q-97 0 -161.5 -78t-85.5 -207z" />
<glyph unicode="&#xe7;" horiz-adv-x="974" d="M88 430q0 209 129.5 343t319.5 134q57 0 114.5 -15.5t94.5 -30.5t45 -15q13 0 24 12.5t16 32.5q0 5 16.5 5t16.5 -5v-291q0 -4 -13 -4t-15 4q-42 109 -124.5 185.5t-176.5 76.5q-125 0 -204 -121t-79 -295q0 -170 90.5 -278.5t228.5 -108.5q93 0 172 52.5t129 136.5 q9 12 15 7.5t4 -13.5q-36 -120 -138.5 -198.5t-230.5 -78.5h-16l-41 -112h24q103 0 160.5 -44t57.5 -120q0 -75 -72 -123.5t-166 -48.5q-58 0 -111 27.5t-77 62.5q-2 3 2 7.5t9.5 8t6.5 2.5q63 -67 156 -67q71 0 110 29t39 77q0 58 -47 86.5t-127 28.5q-17 0 -45 -4l70 194 q-160 25 -263.5 153t-103.5 308z" />
<glyph unicode="&#xe8;" horiz-adv-x="972" d="M88 430q0 122 55.5 231t159.5 177.5t232 68.5q149 0 250.5 -92t113.5 -240v-61h-633q-4 -46 -4 -68q0 -160 90.5 -270t220.5 -110q92 0 170 50t131 132q4 6 12.5 3t6.5 -9q-33 -115 -138 -196t-229 -81q-190 0 -314 132.5t-124 332.5zM225 1333h215l236 -334h-35z M272 565h447v49q0 115 -58 178.5t-141 63.5q-97 0 -162 -80t-86 -211z" />
<glyph unicode="&#xe9;" horiz-adv-x="972" d="M88 430q0 122 55.5 231t159.5 177.5t232 68.5q149 0 250.5 -92t113.5 -240v-61h-633q-4 -46 -4 -68q0 -160 90.5 -270t220.5 -110q92 0 170 50t131 132q4 6 12.5 3t6.5 -9q-33 -115 -138 -196t-229 -81q-190 0 -314 132.5t-124 332.5zM272 565h447v49q0 115 -58 178.5 t-141 63.5q-97 0 -162 -80t-86 -211zM371 999l235 334h215l-415 -334h-35z" />
<glyph unicode="&#xea;" horiz-adv-x="972" d="M88 430q0 122 55.5 231t159.5 177.5t232 68.5q149 0 250.5 -92t113.5 -240v-61h-633q-4 -46 -4 -68q0 -160 90.5 -270t220.5 -110q92 0 170 50t131 132q4 6 12.5 3t6.5 -9q-33 -115 -138 -196t-229 -81q-190 0 -314 132.5t-124 332.5zM209 989l219 348h133l219 -348h-35 l-249 244l-252 -244h-35zM272 565h447v49q0 115 -58 178.5t-141 63.5q-97 0 -162 -80t-86 -211z" />
<glyph unicode="&#xeb;" horiz-adv-x="972" d="M88 430q0 122 55.5 231t159.5 177.5t232 68.5q149 0 250.5 -92t113.5 -240v-61h-633q-4 -46 -4 -68q0 -160 90.5 -270t220.5 -110q92 0 170 50t131 132q4 6 12.5 3t6.5 -9q-33 -115 -138 -196t-229 -81q-190 0 -314 132.5t-124 332.5zM199 1126q0 42 31 74.5t73 32.5 q41 0 72 -32.5t31 -74.5q0 -41 -31 -72.5t-72 -31.5q-42 0 -73 31t-31 73zM272 565h447v49q0 115 -58 178.5t-141 63.5q-97 0 -162 -80t-86 -211zM598 1128q0 42 30.5 74.5t71.5 32.5q42 0 73.5 -32.5t31.5 -74.5t-31.5 -74t-73.5 -32q-41 0 -71.5 32t-30.5 74z" />
<glyph unicode="&#xec;" horiz-adv-x="587" d="M-66 1333h216l235 -334h-35zM74 854q0 16 4 16h293v-608q0 -54 1.5 -88.5t9.5 -60.5t15 -39t27 -23t36 -13.5t52 -8.5q4 0 4 -16.5t-4 -16.5q-118 4 -205 4q-101 0 -219 -4q-4 0 -4 16.5t4 16.5q36 6 51.5 9t35 13t25.5 22t13.5 39t8.5 60.5t1 89.5v346q0 104 -14 149.5 t-37 57.5t-89 22q-3 1 -5 1q-4 0 -4 16z" />
<glyph unicode="&#xed;" horiz-adv-x="587" d="M74 854q0 16 4 16h293v-608q0 -54 1.5 -88.5t9.5 -60.5t15 -39t27 -23t36 -13.5t52 -8.5q4 0 4 -16.5t-4 -16.5q-118 4 -205 4q-101 0 -219 -4q-4 0 -4 16.5t4 16.5q36 6 51.5 9t35 13t25.5 22t13.5 39t8.5 60.5t1 89.5v346q0 104 -14 149.5t-37 57.5t-89 22q-3 1 -5 1 q-4 0 -4 16zM111 999l235 334h215l-416 -334h-34z" />
<glyph unicode="&#xee;" horiz-adv-x="587" d="M8 989l219 348h133l220 -348h-35l-250 244l-252 -244h-35zM74 854q0 16 4 16h293v-608q0 -54 1.5 -88.5t9.5 -60.5t15 -39t27 -23t36 -13.5t52 -8.5q4 0 4 -16.5t-4 -16.5q-118 4 -205 4q-101 0 -219 -4q-4 0 -4 16.5t4 16.5q36 6 51.5 9t35 13t25.5 22t13.5 39t8.5 60.5 t1 89.5v346q0 104 -14 149.5t-37 57.5t-89 22q-3 1 -5 1q-4 0 -4 16z" />
<glyph unicode="&#xef;" horiz-adv-x="587" d="M-10 1126q0 42 31 74.5t73 32.5q41 0 72 -32.5t31 -74.5q0 -41 -31 -72.5t-72 -31.5q-42 0 -73 31t-31 73zM74 854q0 16 4 16h293v-608q0 -54 1.5 -88.5t9.5 -60.5t15 -39t27 -23t36 -13.5t52 -8.5q4 0 4 -16.5t-4 -16.5q-118 4 -205 4q-101 0 -219 -4q-4 0 -4 16.5 t4 16.5q36 6 51.5 9t35 13t25.5 22t13.5 39t8.5 60.5t1 89.5v346q0 104 -14 149.5t-37 57.5t-89 22q-3 1 -5 1q-4 0 -4 16zM389 1128q0 42 31 74.5t72 32.5q42 0 73 -32.5t31 -74.5t-31 -74t-73 -32q-41 0 -72 32t-31 74z" />
<glyph unicode="&#xf0;" horiz-adv-x="1079" d="M92 436q0 200 126.5 331.5t330.5 131.5q162 0 256 -121q-58 216 -273 441l-331 -154q-2 -1 -9 11t-12 24.5t-2 13.5l314 146q-125 125 -273 208q-5 3 -6 9t1 11t5 5h189q111 -68 215 -172l297 139q2 1 8.5 -11t11.5 -24.5t2 -13.5q-278 -131 -280 -131 q150 -158 242.5 -357.5t92.5 -420.5q0 -148 -51 -266.5t-156 -191.5t-249 -73q-213 0 -331 130.5t-118 334.5zM260 453q0 -117 32 -214t97 -158t152 -61q137 0 216 113.5t79 306.5q0 205 -79 307.5t-212 102.5q-135 0 -210 -110t-75 -287z" />
<glyph unicode="&#xf1;" horiz-adv-x="1179" d="M82 854q0 16 4 16h289v-208h4q46 101 132.5 167t197.5 66q131 0 210.5 -90.5t79.5 -253.5v-289q0 -54 2 -88.5t9.5 -60.5t15 -39t27.5 -23t36 -13.5t52 -8.5q5 0 5 -16.5t-5 -16.5q-118 4 -205 4q-101 0 -219 -4q-5 0 -5 16.5t5 16.5q36 6 51.5 9t35 13t25.5 22t13.5 39 t8.5 60.5t1 89.5v283q0 112 -56 179t-157 67q-108 0 -184 -76t-76 -189v-264q0 -54 1.5 -88.5t9.5 -60.5t15 -39t27 -23t36 -13.5t52 -8.5q4 0 4 -16.5t-4 -16.5q-118 4 -205 4q-101 0 -219 -4q-4 0 -4 16.5t4 16.5q36 6 51.5 9t35 13t25.5 22t13.5 39t8.5 60.5t1 89.5v346 q0 104 -14 149.5t-37 57.5t-89 22q-3 1 -5 1q-4 0 -4 16zM276 1026q8 88 53.5 152t121.5 67q49 2 107.5 -29.5t109 -62.5t80.5 -29q47 3 74.5 32t37.5 87h43q-10 -90 -52 -151.5t-120 -65.5q-50 -3 -108 28t-109 62t-82 29q-83 -5 -113 -119h-43z" />
<glyph unicode="&#xf2;" d="M92 436q0 200 125 332.5t328 132.5q215 0 333.5 -130t118.5 -335q0 -200 -124.5 -332.5t-327.5 -132.5q-215 0 -334 130.5t-119 334.5zM227 1333h215l236 -334h-35zM266 453q0 -117 30.5 -213.5t95 -158t153.5 -61.5q134 0 206 111t72 289q0 117 -30.5 213t-94.5 156.5 t-153 60.5q-134 0 -206.5 -109.5t-72.5 -287.5z" />
<glyph unicode="&#xf3;" d="M92 436q0 200 125 332.5t328 132.5q215 0 333.5 -130t118.5 -335q0 -200 -124.5 -332.5t-327.5 -132.5q-215 0 -334 130.5t-119 334.5zM266 453q0 -117 30.5 -213.5t95 -158t153.5 -61.5q134 0 206 111t72 289q0 117 -30.5 213t-94.5 156.5t-153 60.5 q-134 0 -206.5 -109.5t-72.5 -287.5zM424 999l235 334h215l-415 -334h-35z" />
<glyph unicode="&#xf4;" d="M92 436q0 200 125 332.5t328 132.5q215 0 333.5 -130t118.5 -335q0 -200 -124.5 -332.5t-327.5 -132.5q-215 0 -334 130.5t-119 334.5zM260 989l219 348h133l219 -348h-34l-250 244l-252 -244h-35zM266 453q0 -117 30.5 -213.5t95 -158t153.5 -61.5q134 0 206 111t72 289 q0 117 -30.5 213t-94.5 156.5t-153 60.5q-134 0 -206.5 -109.5t-72.5 -287.5z" />
<glyph unicode="&#xf5;" d="M92 436q0 200 125 332.5t328 132.5q215 0 333.5 -130t118.5 -335q0 -200 -124.5 -332.5t-327.5 -132.5q-215 0 -334 130.5t-119 334.5zM231 1026q8 88 53.5 152t121.5 67q49 2 107.5 -29.5t108.5 -62.5t80 -29q93 6 113 119h43q-10 -90 -52 -151.5t-120 -65.5 q-50 -3 -108 28t-109 62t-82 29q-83 -5 -113 -119h-43zM266 453q0 -117 30.5 -213.5t95 -158t153.5 -61.5q134 0 206 111t72 289q0 117 -30.5 213t-94.5 156.5t-153 60.5q-134 0 -206.5 -109.5t-72.5 -287.5z" />
<glyph unicode="&#xf6;" d="M92 436q0 200 125 332.5t328 132.5q215 0 333.5 -130t118.5 -335q0 -200 -124.5 -332.5t-327.5 -132.5q-215 0 -334 130.5t-119 334.5zM242 1126q0 42 31 74.5t73 32.5q41 0 72 -32.5t31 -74.5q0 -41 -31 -72.5t-72 -31.5q-42 0 -73 31t-31 73zM266 453 q0 -117 30.5 -213.5t95 -158t153.5 -61.5q134 0 206 111t72 289q0 117 -30.5 213t-94.5 156.5t-153 60.5q-134 0 -206.5 -109.5t-72.5 -287.5zM641 1128q0 42 30.5 74.5t71.5 32.5q42 0 73.5 -32.5t31.5 -74.5t-31.5 -74t-73.5 -32q-41 0 -71.5 32t-30.5 74z" />
<glyph unicode="&#xf8;" d="M92 436q0 200 125 332.5t328 132.5q143 0 246 -61l79 114q1 2 11 -4.5t19 -14t7 -9.5l-78 -111q82 -62 125 -160t43 -219q0 -200 -124.5 -332.5t-327.5 -132.5q-150 0 -258 68l-115 -162q-1 -2 -11 4.5t-19 14.5t-7 10l113 160q-156 132 -156 370zM266 453 q0 -176 53 -285l414 590q-73 92 -188 92q-134 0 -206.5 -109.5t-72.5 -287.5zM346 123q74 -103 199 -103q134 0 206 111t72 289q0 180 -63 297q-414 -592 -414 -594z" />
<glyph unicode="&#xf9;" horiz-adv-x="1179" d="M46 854q0 16 5 16h289v-548q0 -113 53.5 -179.5t153.5 -66.5q111 0 182 71q84 84 84 193v264q0 46 -2 78t-5 56.5t-12 40t-17 25.5t-26.5 16.5t-33.5 9.5t-45 8q-4 0 -4 16t4 16h289v-608q0 -32 0.5 -56.5t3.5 -45.5t4.5 -36t9 -27.5t11 -20.5t15.5 -15t17.5 -10t23.5 -7 t27 -5.5l33 -5.5q4 0 4 -16.5t-4 -16.5h-289v205h-4q-45 -101 -134.5 -167.5t-201.5 -66.5q-130 0 -207 90t-77 254v289q0 54 -2 88.5t-9.5 60.5t-15 39.5t-27.5 23t-36.5 13.5t-51.5 9q-5 0 -5 16zM231 1333h215l236 -334h-35z" />
<glyph unicode="&#xfa;" horiz-adv-x="1179" d="M46 854q0 16 5 16h289v-548q0 -113 53.5 -179.5t153.5 -66.5q111 0 182 71q84 84 84 193v264q0 46 -2 78t-5 56.5t-12 40t-17 25.5t-26.5 16.5t-33.5 9.5t-45 8q-4 0 -4 16t4 16h289v-608q0 -32 0.5 -56.5t3.5 -45.5t4.5 -36t9 -27.5t11 -20.5t15.5 -15t17.5 -10t23.5 -7 t27 -5.5l33 -5.5q4 0 4 -16.5t-4 -16.5h-289v205h-4q-45 -101 -134.5 -167.5t-201.5 -66.5q-130 0 -207 90t-77 254v289q0 54 -2 88.5t-9.5 60.5t-15 39.5t-27.5 23t-36.5 13.5t-51.5 9q-5 0 -5 16zM449 999l235 334h215l-416 -334h-34z" />
<glyph unicode="&#xfb;" horiz-adv-x="1179" d="M46 854q0 16 5 16h289v-548q0 -113 53.5 -179.5t153.5 -66.5q111 0 182 71q84 84 84 193v264q0 46 -2 78t-5 56.5t-12 40t-17 25.5t-26.5 16.5t-33.5 9.5t-45 8q-4 0 -4 16t4 16h289v-608q0 -32 0.5 -56.5t3.5 -45.5t4.5 -36t9 -27.5t11 -20.5t15.5 -15t17.5 -10t23.5 -7 t27 -5.5l33 -5.5q4 0 4 -16.5t-4 -16.5h-289v205h-4q-45 -101 -134.5 -167.5t-201.5 -66.5q-130 0 -207 90t-77 254v289q0 54 -2 88.5t-9.5 60.5t-15 39.5t-27.5 23t-36.5 13.5t-51.5 9q-5 0 -5 16zM285 989l219 348h133l219 -348h-35l-250 244l-252 -244h-34z" />
<glyph unicode="&#xfc;" horiz-adv-x="1179" d="M46 854q0 16 5 16h289v-548q0 -113 53.5 -179.5t153.5 -66.5q111 0 182 71q84 84 84 193v264q0 46 -2 78t-5 56.5t-12 40t-17 25.5t-26.5 16.5t-33.5 9.5t-45 8q-4 0 -4 16t4 16h289v-608q0 -32 0.5 -56.5t3.5 -45.5t4.5 -36t9 -27.5t11 -20.5t15.5 -15t17.5 -10t23.5 -7 t27 -5.5l33 -5.5q4 0 4 -16.5t-4 -16.5h-289v205h-4q-45 -101 -134.5 -167.5t-201.5 -66.5q-130 0 -207 90t-77 254v289q0 54 -2 88.5t-9.5 60.5t-15 39.5t-27.5 23t-36.5 13.5t-51.5 9q-5 0 -5 16zM266 1126q0 42 31.5 74.5t73.5 32.5q41 0 71.5 -32.5t30.5 -74.5 q0 -41 -30.5 -72.5t-71.5 -31.5q-43 0 -74 31t-31 73zM666 1128q0 42 30.5 74.5t71.5 32.5q42 0 73 -32.5t31 -74.5t-31 -74t-73 -32q-41 0 -71.5 32t-30.5 74z" />
<glyph unicode="&#xfd;" horiz-adv-x="948" d="M-20 860.5q0 16.5 4 16.5q206 -7 221 -7q5 0 211 7q4 0 4 -16.5t-4 -16.5q-100 -13 -106.5 -55t56.5 -203q0 -1 0.5 -2t0.5 -2l161 -443l121 320q60 157 83.5 226t23.5 101q0 26 -21 37.5t-88 20.5q-5 0 -5 16.5t5 16.5q18 -1 82.5 -4t91.5 -3q23 0 68.5 3t71.5 4 q5 0 5 -16.5t-5 -16.5q-67 -9 -97 -39q-23 -23 -51.5 -89.5t-99.5 -256.5l-281 -742q-32 -93 -66 -154t-72.5 -92.5t-75.5 -43t-85 -11.5q-26 0 -61 6.5t-41 12.5q-10 10 9 64.5t38 54.5q1 0 26 -4.5t39 -4.5q86 0 138 40t86 130l77 201q-69 230 -213 606q-16 41 -34 90 t-27 73t-20.5 50.5t-20.5 41.5t-20 26q-17 17 -40 24.5t-85 16.5q-4 0 -4 16.5zM422 999l235 334h215l-415 -334h-35z" />
<glyph unicode="&#xfe;" horiz-adv-x="1071" d="M2 1476.5q0 16.5 4 16.5h293v-719h2q51 48 126 83.5t146 35.5q176 0 293 -122t117 -302q0 -107 -44 -201t-115.5 -158.5t-164.5 -101.5t-190 -37q-93 0 -170 23v-293q0 -54 1.5 -88.5t9.5 -60.5t15 -39t27 -23t36 -13.5t52 -8.5q4 0 4 -16.5t-4 -16.5q-118 4 -204 4 q-102 0 -220 -4q-4 0 -4 16.5t4 16.5q36 6 51.5 9t35 13t26 22t13.5 39t8.5 61t1.5 89v1530q0 53 -2 87.5t-10 59.5t-15.5 38t-27 22t-35 12.5t-49.5 8.5q-5 1 -7 1q-4 0 -4 16.5zM299 68q92 -37 201 -37q148 0 234.5 113.5t86.5 293.5q0 160 -84.5 260.5t-230.5 100.5 q-57 0 -113.5 -17.5t-93.5 -46.5v-667z" />
<glyph unicode="&#xff;" horiz-adv-x="948" d="M-20 860.5q0 16.5 4 16.5q206 -7 221 -7q5 0 211 7q4 0 4 -16.5t-4 -16.5q-100 -13 -106.5 -55t56.5 -203q0 -1 0.5 -2t0.5 -2l161 -443l121 320q60 157 83.5 226t23.5 101q0 26 -21 37.5t-88 20.5q-5 0 -5 16.5t5 16.5q18 -1 82.5 -4t91.5 -3q23 0 68.5 3t71.5 4 q5 0 5 -16.5t-5 -16.5q-67 -9 -97 -39q-23 -23 -51.5 -89.5t-99.5 -256.5l-281 -742q-32 -93 -66 -154t-72.5 -92.5t-75.5 -43t-85 -11.5q-26 0 -61 6.5t-41 12.5q-10 10 9 64.5t38 54.5q1 0 26 -4.5t39 -4.5q86 0 138 40t86 130l77 201q-69 230 -213 606q-16 41 -34 90 t-27 73t-20.5 50.5t-20.5 41.5t-20 26q-17 17 -40 24.5t-85 16.5q-4 0 -4 16.5zM211 1126q0 42 31 74.5t73 32.5q41 0 72 -32.5t31 -74.5q0 -41 -31 -72.5t-72 -31.5q-42 0 -73 31t-31 73zM610 1128q0 42 31 74.5t72 32.5q42 0 73 -32.5t31 -74.5t-31 -74t-73 -32 q-41 0 -72 32t-31 74z" />
<glyph unicode="&#x152;" horiz-adv-x="1880" d="M106 633q0 143 51 266t144 214t233.5 142.5t311.5 51.5q17 0 123 -2t143 -2h287q105 0 280 8q15 0 15 -15q10 -147 10 -260q0 -2 -6.5 -3.5t-12 -1.5t-6.5 1q-10 56 -23.5 90t-44 64t-84.5 43.5t-136 13.5h-160q-27 0 -27 -4v-551q31 -4 82 2q157 3 217 8.5t88 22.5 q10 6 17 14t11.5 23t6.5 24.5t6 34.5t6 37q2 4 15.5 4t13.5 -4q-4 -46 -4 -186q0 -135 8 -195q2 -7 -21 -7q-12 0 -12 3q-1 4 -3.5 21t-3 21.5t-3.5 18t-5 19.5t-5.5 15.5t-8 15.5t-10.5 12q-25 25 -88.5 34.5t-224.5 14.5l-82 2v-334q0 -113 7 -150.5t32 -62.5 q41 -41 197 -41h33q77 0 125.5 13.5t81 49.5t51 82t38.5 128q1 4 10 5t18 -0.5t9 -4.5q-19 -159 -39 -301q-3 -24 -11 -29t-40 -4q-141 6 -356 6h-55q-114 2 -223 -1.5t-183 -8t-94 -4.5q-164 0 -298 51.5t-220.5 140t-133.5 205.5t-47 250zM297 616q0 -265 149 -422 t381 -157q132 0 215 22v990q0 138 -32 170q-16 16 -73 25t-120 9q-107 0 -194 -31t-147 -87t-100.5 -135.5t-59.5 -175.5t-19 -208z" />
<glyph unicode="&#x153;" horiz-adv-x="1699" d="M92 436q0 200 125 332.5t328 132.5q254 0 368 -184q59 86 148.5 135t200.5 49q149 0 250.5 -92t113.5 -240v-55h-633q-4 -46 -4 -68q0 -160 90.5 -267t220.5 -107q93 0 171.5 48t130.5 128q4 6 12 3t6 -9q-33 -114 -137.5 -192.5t-229.5 -78.5q-112 0 -202 47t-146 132 q-125 -179 -360 -179q-215 0 -334 130.5t-119 334.5zM266 453q0 -117 30.5 -213.5t95 -158t153.5 -61.5q134 0 206 111t72 289q0 117 -30.5 213t-94.5 156.5t-153 60.5q-134 0 -206.5 -109.5t-72.5 -287.5zM999 565h447v43q0 115 -58 178.5t-141 63.5q-97 0 -162 -78 t-86 -207z" />
<glyph unicode="&#x178;" horiz-adv-x="1163" d="M0 1290.5q0 16.5 4 16.5q82 -4 215 -4q69 0 225 4q4 0 4 -16.5t-4 -16.5q-54 -5 -76 -14.5t-22 -32.5q0 -27 39 -94l274 -471l248 460q35 65 35 97q0 25 -23.5 37.5t-74.5 17.5q-4 0 -4 16.5t4 16.5q82 -4 188 -4q4 0 160 4q4 0 4 -16.5t-4 -16.5q-46 -4 -81.5 -20.5 t-64.5 -49t-48.5 -62.5t-49.5 -83q-9 -16 -14 -25l-240 -434v-358q0 -54 1 -84.5t10 -57t17.5 -37t34.5 -19.5t50 -11t74 -4q5 0 5 -16.5t-5 -16.5q-82 4 -256 4q-121 0 -277 -4q-4 0 -4 16.5t4 16.5q38 2 58 3t43 6t33 9.5t22 17t15.5 24.5t7.5 37t4.5 50t0.5 66v321 l-307 527q-65 112 -102.5 143.5t-118.5 40.5q-4 0 -4 16.5zM311 1559q0 42 31.5 74t73.5 32q41 0 71.5 -32t30.5 -74t-30.5 -73.5t-71.5 -31.5q-42 0 -73.5 31.5t-31.5 73.5zM711 1561q0 42 30.5 74t71.5 32q42 0 73.5 -32t31.5 -74t-31.5 -74.5t-73.5 -32.5 q-41 0 -71.5 32.5t-30.5 74.5z" />
<glyph unicode="&#x2c6;" horiz-adv-x="694" d="M61 989l220 348h133l219 -348h-35l-250 244l-252 -244h-35z" />
<glyph unicode="&#x2dc;" horiz-adv-x="694" d="M33 1026q8 88 53 152t121 67q49 2 107.5 -29.5t109 -62.5t80.5 -29q47 3 74.5 32t37.5 87h43q-10 -90 -52 -151.5t-120 -65.5q-50 -3 -108 28t-109 62t-82 29q-82 -5 -112 -119h-43z" />
<glyph unicode="&#x2000;" horiz-adv-x="884" />
<glyph unicode="&#x2001;" horiz-adv-x="1769" />
<glyph unicode="&#x2002;" horiz-adv-x="884" />
<glyph unicode="&#x2003;" horiz-adv-x="1769" />
<glyph unicode="&#x2004;" horiz-adv-x="589" />
<glyph unicode="&#x2005;" horiz-adv-x="442" />
<glyph unicode="&#x2006;" horiz-adv-x="294" />
<glyph unicode="&#x2007;" horiz-adv-x="294" />
<glyph unicode="&#x2008;" horiz-adv-x="221" />
<glyph unicode="&#x2009;" horiz-adv-x="353" />
<glyph unicode="&#x200a;" horiz-adv-x="98" />
<glyph unicode="&#x2010;" horiz-adv-x="595" d="M48 536.5q0 26.5 3 26.5h494q3 0 3 -26.5t-3 -26.5h-494q-3 0 -3 26.5z" />
<glyph unicode="&#x2011;" horiz-adv-x="595" d="M48 536.5q0 26.5 3 26.5h494q3 0 3 -26.5t-3 -26.5h-494q-3 0 -3 26.5z" />
<glyph unicode="&#x2012;" horiz-adv-x="595" d="M48 536.5q0 26.5 3 26.5h494q3 0 3 -26.5t-3 -26.5h-494q-3 0 -3 26.5z" />
<glyph unicode="&#x2013;" horiz-adv-x="1024" d="M48 536.5q0 26.5 3 26.5h922q3 0 3 -26.5t-3 -26.5h-922q-3 0 -3 26.5z" />
<glyph unicode="&#x2014;" horiz-adv-x="2048" d="M48 536.5q0 26.5 3 26.5h1946q3 0 3 -26.5t-3 -26.5h-1946q-3 0 -3 26.5z" />
<glyph unicode="&#x2018;" horiz-adv-x="370" d="M53 1016q0 96 64.5 189t165.5 153q4 2 13.5 -11.5t4.5 -17.5q-76 -58 -109.5 -111t-33.5 -112q0 -77 80 -94q81 -16 81 -94q0 -38 -25.5 -63.5t-68.5 -25.5q-80 0 -126 58.5t-46 128.5z" />
<glyph unicode="&#x2019;" horiz-adv-x="370" d="M51 1245q0 38 25.5 63t68.5 25q80 0 126 -58.5t46 -127.5q0 -96 -64 -189t-165 -153q-4 -2 -13.5 11.5t-4.5 17.5q76 58 109.5 111t33.5 112q0 77 -80 94q-82 16 -82 94z" />
<glyph unicode="&#x201a;" horiz-adv-x="370" d="M51 98q0 38 25.5 63t68.5 25q80 0 126 -58.5t46 -127.5q0 -96 -64 -189t-165 -153q-4 -2 -13.5 11.5t-4.5 17.5q76 58 109.5 111t33.5 112q0 77 -80 94q-82 16 -82 94z" />
<glyph unicode="&#x201c;" horiz-adv-x="749" d="M53 1016q0 96 64.5 189t165.5 153q4 2 13.5 -11.5t4.5 -17.5q-76 -58 -109.5 -111t-33.5 -112q0 -77 80 -94q81 -16 81 -94q0 -38 -25.5 -63.5t-68.5 -25.5q-80 0 -126 58.5t-46 128.5zM432 1016q0 96 64.5 189t165.5 153q4 2 13.5 -11.5t4.5 -17.5q-76 -58 -109.5 -111 t-33.5 -112q0 -77 79 -94q82 -16 82 -94q0 -38 -25.5 -63.5t-68.5 -25.5q-80 0 -126 58.5t-46 128.5z" />
<glyph unicode="&#x201d;" horiz-adv-x="749" d="M51 1245q0 38 25.5 63t68.5 25q80 0 126 -58.5t46 -127.5q0 -96 -64 -189t-165 -153q-4 -2 -13.5 11.5t-4.5 17.5q76 58 109.5 111t33.5 112q0 77 -80 94q-82 16 -82 94zM430 1245q0 38 25.5 63t68.5 25q80 0 126 -58.5t46 -127.5q0 -96 -64 -189t-165 -153 q-4 -2 -13.5 11.5t-4.5 17.5q76 58 109.5 111t33.5 112q0 77 -80 94q-82 16 -82 94z" />
<glyph unicode="&#x201e;" horiz-adv-x="749" d="M51 98q0 38 25.5 63t68.5 25q80 0 126 -58.5t46 -127.5q0 -96 -64 -189t-165 -153q-4 -2 -13.5 11.5t-4.5 17.5q76 58 109.5 111t33.5 112q0 77 -80 94q-82 16 -82 94zM430 98q0 38 25.5 63t68.5 25q80 0 126 -58.5t46 -127.5q0 -96 -64 -189t-165 -153q-4 -2 -13.5 11.5 t-4.5 17.5q76 58 109.5 111t33.5 112q0 77 -80 94q-82 16 -82 94z" />
<glyph unicode="&#x2022;" horiz-adv-x="739" d="M133 412q0 105 68 173t170 68q101 0 168 -67t67 -172t-68.5 -175.5t-170.5 -70.5q-100 0 -167 69.5t-67 174.5z" />
<glyph unicode="&#x2026;" horiz-adv-x="1191" d="M86 72q0 47 30 80.5t83 33.5q52 0 82 -33.5t30 -80.5q0 -43 -30.5 -76t-81.5 -33q-52 0 -82.5 33t-30.5 76zM483 72q0 47 30 80.5t83 33.5q52 0 82.5 -33.5t30.5 -80.5q0 -43 -31 -76t-82 -33q-52 0 -82.5 33t-30.5 76zM881 72q0 47 29.5 80.5t82.5 33.5q52 0 82.5 -33.5 t30.5 -80.5q0 -43 -31 -76t-82 -33q-52 0 -82 33t-30 76z" />
<glyph unicode="&#x202f;" horiz-adv-x="353" />
<glyph unicode="&#x2039;" horiz-adv-x="540" d="M83 413.5q0 10.5 9 16.5q138 102 383 309q1 1 8 -5t12.5 -13t2.5 -10l-246 -297l246 -297q3 -3 -2.5 -10.5t-12.5 -13.5t-8 -5q-199 177 -383 309q-9 6 -9 16.5z" />
<glyph unicode="&#x203a;" horiz-adv-x="540" d="M63 117l246 297l-246 297q-3 3 2.5 10t12.5 13t8 5q245 -207 383 -309q9 -6 9 -16.5t-9 -16.5q-184 -132 -383 -309q-1 -1 -8 5t-12.5 13.5t-2.5 10.5z" />
<glyph unicode="&#x205f;" horiz-adv-x="442" />
<glyph unicode="&#x20ac;" horiz-adv-x="1282" d="M60 507.5q0 22.5 3 22.5h166q-6 50 -6 103q0 30 4 92h-164q-3 0 -3 22.5t3 22.5h168q35 259 191 411t387 152q75 0 168.5 -16.5t171.5 -44.5l4 -275q0 -2 -6.5 -3.5t-12 -1.5t-6.5 1q-54 135 -146 213t-208 78q-154 0 -253 -142.5t-118 -371.5h486q3 0 3 -22.5t-3 -22.5 h-488q-2 -18 -2 -57q0 -63 7 -138h483q3 0 3 -22.5t-3 -22.5h-477q34 -223 142 -335.5t257 -112.5q109 0 204.5 64.5t147.5 152.5q9 12 15 7.5t4 -13.5q-36 -124 -154 -200.5t-260 -76.5q-198 0 -346 139.5t-186 374.5h-173q-3 0 -3 22.5z" />
<glyph unicode="&#x2122;" horiz-adv-x="1419" d="M63 1126q1 4 27 185q60 -8 232 -8q168 0 239 8q4 -94 17 -185q0 -2 -8.5 -3t-17 -0.5t-9.5 3.5q-24 85 -56 110.5t-118 25.5v-416q0 -50 11 -62t60 -18q4 0 4 -15.5t-4 -15.5h-235q-5 0 -5 15.5t5 15.5q45 5 57 17.5t12 62.5v416q-84 0 -117 -27.5t-59 -108.5 q-1 -2 -9.5 -2.5t-17 0.5t-8.5 2zM629 751.5q0 16.5 6 16.5q51 4 62 26t16 121l8 279q1 28 -1.5 43t-14.5 23t-21 10t-37 6q-5 0 -5 16.5t5 16.5q61 -4 162 -4q22 0 29 -17q20 -54 73 -219t66 -203q8 22 57 161t74 218q15 53 26 61q5 3 11 3q4 0 66.5 -2t97.5 -2 q3 0 4.5 -7.5t1 -15.5t-3.5 -8q-39 -6 -51 -21t-11 -59l11 -322q2 -63 12.5 -80t56.5 -24q5 -2 5 -17.5t-5 -15.5h-229q-4 0 -4 16.5t4 16.5q41 5 54.5 26t10.5 78l-14 340q-118 -319 -174 -477q-3 -7 -22 -6t-21 6q-19 53 -77.5 224.5t-88.5 252.5l-12 -346q-2 -62 7.5 -78 t55.5 -20q3 0 3 -16.5t-3 -16.5h-184q-6 0 -6 16.5z" />
<glyph unicode="&#x25fc;" horiz-adv-x="880" d="M0 0v881h881v-881h-881z" />
<glyph unicode="&#xfb01;" horiz-adv-x="1204" d="M48 830q1 7 5 8q103 28 140 65q29 25 32 82q7 118 48 215t105.5 160.5t147 98t172.5 34.5q99 0 169.5 -44.5t72.5 -96.5q1 -20 -34.5 -53t-57.5 -33q-14 0 -54.5 37t-94 74.5t-97.5 37.5q-235 0 -235 -440v-103h620v-610q0 -54 1.5 -88.5t9.5 -60.5t15 -39t27 -23 t36 -13.5t52 -8.5q4 0 4 -16.5t-4 -16.5q-118 4 -204 4q-101 0 -219 -4q-5 0 -5 16.5t5 16.5q36 6 51.5 9t35 13t25.5 22t13.5 39t8.5 60.5t1 89.5v346q0 58 -3 91t-9 57.5t-21 34.5t-34 14t-54 4h-352v-547v-56t3 -44.5t4 -36t9 -27.5t11.5 -20.5t18 -14.5t22.5 -11t31 -8 t37 -7t47 -7q5 -1 7 -1q5 0 5 -16.5t-5 -16.5q-118 4 -254 4q-107 0 -225 -4q-4 0 -4 16.5t4 16.5q28 4 41 6.5t31.5 8t25.5 11.5t17.5 18.5t13.5 27t7 39t4.5 53t0.5 69.5v547h-166q-3 0 -4.5 7t-0.5 14z" />
<glyph unicode="&#xfb02;" horiz-adv-x="1185" d="M48 830q1 7 5 8q103 28 140 65q29 25 32 82q7 118 48 215t105.5 160.5t147 98t172.5 34.5q24 0 47.5 -2.5t39.5 -5.5t36 -8.5t28.5 -8.5t25 -9t18.5 -7l61 43q4 3 18.5 2.5t14.5 -4.5v-1231q0 -36 1 -62.5t2.5 -49t6.5 -38t9 -27.5t14.5 -20.5t18 -13.5t24.5 -9.5 t29 -6.5l36 -6q4 0 4 -16.5t-4 -16.5q-118 4 -204 4q-101 0 -219 -4q-5 0 -5 16.5t5 16.5q36 6 51.5 9t35 13t25.5 22t13.5 39t8.5 60.5t1 89.5v823q0 218 -47 265q-65 65 -191 65q-235 0 -235 -440v-103h280q6 0 6 -31.5t-6 -31.5h-280v-547v-56t3 -44.5t4 -36t9 -27.5 t11.5 -20.5t18 -14.5t22.5 -11t31 -8t37 -7t47 -7q5 -1 7 -1q5 0 5 -16.5t-5 -16.5q-118 4 -254 4q-107 0 -225 -4q-4 0 -4 16.5t4 16.5q28 4 41 6.5t31.5 8t25.5 11.5t17.5 18.5t13.5 27t7 39t4.5 53t0.5 69.5v547h-166q-3 0 -4.5 7t-0.5 14z" />
<glyph unicode="&#xfb03;" horiz-adv-x="1804" d="M48 821.5q0 12.5 3 14.5q112 36 139 63q32 32 35 86q11 205 122 341t290 136q83 0 137.5 -32.5t54.5 -75.5q0 -21 -33.5 -52.5t-56.5 -31.5q-8 0 -41.5 28.5t-78 57t-78.5 28.5q-98 0 -136 -100t-38 -309v-103h454q0 54 2 89q7 129 48 232t106.5 167.5t147.5 98.5t173 34 q99 0 169.5 -44.5t72.5 -96.5q1 -20 -34.5 -53t-57.5 -33q-14 0 -54.5 37t-94 74.5t-97.5 37.5q-235 0 -235 -440v-103h620v-610q0 -54 2 -88.5t9.5 -60.5t15 -39t27.5 -23t36 -13.5t52 -8.5q5 0 5 -16.5t-5 -16.5q-118 4 -205 4q-101 0 -219 -4q-5 0 -5 16.5t5 16.5 q36 6 51.5 9t35 13t25.5 22t13.5 39t8.5 60.5t1 89.5v346q0 58 -3 91t-9 57.5t-21 34.5t-34 14t-54 4h-352v-547v-56t3 -44.5t4 -36t9 -27.5t11.5 -20.5t18 -14.5t22.5 -11t31 -8t37 -7t47 -7q5 -1 7 -1q5 0 5 -16.5t-5 -16.5q-118 4 -254 4q-107 0 -225 -4q-4 0 -4 16.5 t4 16.5q28 4 41 6.5t31.5 8t25.5 11.5t17.5 18.5t13.5 27t7 39t4.5 53t0.5 69.5v547h-452v-547v-56t3 -44.5t4 -36t9 -27.5t11.5 -20.5t18 -14.5t22.5 -11t31 -8t37 -7t47 -7q5 -1 7 -1q5 0 5 -16.5t-5 -16.5q-118 4 -254 4q-107 0 -225 -4q-4 0 -4 16.5t4 16.5q28 4 41 6.5 t31.5 8t25.5 11.5t17.5 18.5t13.5 27t7 39t4.5 53t0.5 69.5v547h-168q-3 0 -3 12.5z" />
<glyph unicode="&#xfb04;" horiz-adv-x="1785" d="M48 821.5q0 12.5 3 14.5q112 36 139 63q32 32 35 86q11 207 124.5 342t287.5 135q83 0 137.5 -32.5t54.5 -75.5q0 -21 -33.5 -52.5t-56.5 -31.5q-8 0 -41.5 28.5t-78 57t-78.5 28.5q-98 0 -136 -100t-38 -309v-103h454q0 54 2 89q7 129 48 232t106.5 167.5t147.5 98.5 t173 34q24 0 47.5 -2.5t39.5 -5.5t36 -8.5t28.5 -8.5t25 -9t18.5 -7l61 43q4 3 18.5 2.5t14.5 -4.5v-1231q0 -46 2 -78t4.5 -56.5t12 -39.5t17 -25t27 -16.5t34 -9.5t45.5 -8q5 0 5 -16.5t-5 -16.5q-118 4 -205 4q-101 0 -219 -4q-5 0 -5 16.5t5 16.5q36 6 51.5 9t35 13 t25.5 22t13.5 39t8.5 60.5t1 89.5v823q0 218 -47 265q-65 65 -191 65q-235 0 -235 -440v-103h280q17 0 12.5 -31.5t-12.5 -31.5h-280v-547v-56t3 -44.5t4 -36t9 -27.5t11.5 -20.5t18 -14.5t22.5 -11t31 -8t37 -7t47 -7q5 -1 7 -1q5 0 5 -16.5t-5 -16.5q-118 4 -254 4 q-107 0 -225 -4q-4 0 -4 16.5t4 16.5q28 4 41 6.5t31.5 8t25.5 11.5t17.5 18.5t13.5 27t7 39t4.5 53t0.5 69.5v547h-452v-547v-56t3 -44.5t4 -36t9 -27.5t11.5 -20.5t18 -14.5t22.5 -11t31 -8t37 -7t47 -7q5 -1 7 -1q5 0 5 -16.5t-5 -16.5q-118 4 -254 4q-107 0 -225 -4 q-4 0 -4 16.5t4 16.5q28 4 41 6.5t31.5 8t25.5 11.5t17.5 18.5t13.5 27t7 39t4.5 53t0.5 69.5v547h-168q-3 0 -3 12.5z" />
</font>
</defs>
</svg>
