<?xml version="1.0" standalone="no"?>
<!DOCTYPE svg PUBLIC "-//W3C//DTD SVG 1.1//EN" "http://www.w3.org/Graphics/SVG/1.1/DTD/svg11.dtd" >
<svg xmlns="http://www.w3.org/2000/svg" xmlns:xlink="http://www.w3.org/1999/xlink" version="1.1">
<metadata></metadata>
<defs>
<font id="sterling_textbold" horiz-adv-x="1286" >
<font-face units-per-em="2048" ascent="1638" descent="-410" />
<missing-glyph horiz-adv-x="391" />
<glyph horiz-adv-x="0" />
<glyph horiz-adv-x="682" />
<glyph unicode=" "  horiz-adv-x="391" />
<glyph unicode="&#x09;" horiz-adv-x="391" />
<glyph unicode="&#xa0;" horiz-adv-x="391" />
<glyph unicode="!" horiz-adv-x="487" d="M106 96q0 61 40 101.5t100 40.5q59 0 100 -41t41 -101q0 -58 -41.5 -98.5t-99.5 -40.5q-60 0 -100 40t-40 99zM121 1165q0 172 125 172q59 0 93 -42t34 -130q0 -84 -48 -356t-61 -438q0 -5 -19.5 -5t-19.5 5q-10 168 -57 440.5t-47 353.5z" />
<glyph unicode="&#x22;" horiz-adv-x="684" d="M80 1245q0 38 28.5 65t65.5 27q38 0 66 -27t28 -65q0 -25 -3 -56.5t-11 -80.5t-14 -83.5t-20 -109.5t-21 -114q-1 -6 -23 -6t-24 6q-10 54 -26.5 140.5t-24.5 130t-14.5 93.5t-6.5 80zM414 1245q0 38 28.5 65t65.5 27q38 0 66 -27t28 -65q0 -25 -3.5 -57.5t-11 -79.5 t-14.5 -84.5t-20 -108t-21 -114.5q-2 -6 -24 -6t-23 6q-9 49 -26 139.5t-24.5 131.5t-14 92t-6.5 81z" />
<glyph unicode="#" horiz-adv-x="1335" d="M20 425q0 30 5 30h327l99 403h-312q-3 0 -3 32t3 32h326l115 462q0 2 16 -2t31.5 -9t15.5 -7l-106 -444h383l114 462q0 2 16.5 -2t33 -9t16.5 -7l-109 -444h312q3 0 3 -32t-3 -32h-326l-96 -403h307q3 0 3 -30t-3 -30h-322l-114 -463q-1 -3 -32.5 7.5t-31.5 13.5l107 442 h-385l-113 -461q0 -2 -17 1.5t-33.5 9t-15.5 8.5l107 442h-313q-5 0 -5 30zM424 455h383l100 403h-387z" />
<glyph unicode="$" horiz-adv-x="1046" d="M100 397q0 3 15.5 4.5t31.5 0.5t17 -5q28 -85 54 -142t61.5 -106.5t81 -77t104.5 -38.5l20 528l-20 10q-50 25 -76.5 39t-71 40.5t-69.5 46.5t-56.5 52t-47.5 63.5t-28 73t-12 87.5q0 154 113.5 256t294.5 108l6 140q0 3 34 3t34 -3q-4 -140 -6 -142q145 -6 297 -57 q4 -1 10 -135.5t6 -181.5q0 -4 -27.5 -6t-29.5 1q-104 265 -258 310q1 0 -3.5 -120.5t-8.5 -241.5l-5 -120l23 -12q148 -73 178 -91q134 -79 177 -182q26 -61 26 -137q0 -160 -121 -274t-314 -121l-6 -174q0 -6 -33.5 -6t-33.5 6l6 174q-117 5 -213 34t-123 54 q-8 8 -17.5 146t-9.5 196zM279 1077q0 -85 53.5 -143t161.5 -117l16 459h-14q-95 0 -156 -56t-61 -143zM532 29h17q106 0 174 64t68 159q0 90 -60 150.5t-180 123.5q0 1 -4.5 -123.5t-9.5 -248.5z" />
<glyph unicode="%" horiz-adv-x="1607" d="M35 975q0 98 40.5 179.5t119.5 132t182 50.5q155 0 247.5 -104t92.5 -254t-93.5 -255.5t-246.5 -105.5q-154 0 -248 103.5t-94 253.5zM225 981q0 -158 40.5 -234.5t111.5 -76.5q147 0 147 307q0 311 -147 311q-71 0 -111.5 -74.5t-40.5 -232.5zM303 -25l954 1381 q5 4 19.5 0.5t28.5 -12t10 -13.5l-950 -1380q-3 -3 -10 -2.5t-16.5 3.5t-18 7.5t-13.5 9t-4 6.5zM889 322q0 151 93 256.5t247 105.5q155 0 248.5 -104t93.5 -254t-94 -254.5t-248 -104.5t-247 102.5t-93 252.5zM1077 328q0 -158 40.5 -235t111.5 -77q149 0 149 308 q0 159 -39.5 235t-109.5 76q-71 0 -111.5 -74.5t-40.5 -232.5z" />
<glyph unicode="&#x26;" horiz-adv-x="1445" d="M55 322q0 122 87.5 224.5t234.5 155.5q-81 64 -130.5 145t-49.5 163q0 136 108.5 231.5t286.5 95.5q157 0 254.5 -76t97.5 -190q0 -98 -76.5 -180.5t-226.5 -138.5q188 -160 340 -312l31 49q104 160 104 228q0 34 -28 56t-80 28q-3 0 -3.5 12.5t1 25.5t4.5 13 q183 -6 231 -6q26 0 100.5 2.5t100.5 3.5q3 0 3.5 -25.5t-3.5 -25.5q-97 -13 -166 -82q-38 -38 -150 -191l-96 -139l66 -67q25 -25 86.5 -90.5t92 -95t79 -60.5t90.5 -35q3 0 3.5 -11t-1 -22.5t-4.5 -11.5q-16 0 -129.5 2t-173.5 2h-66q-61 88 -176 213q-207 -248 -440 -248 q-91 0 -168 30.5t-127.5 80.5t-78.5 114t-28 132zM268 426q0 -135 89 -222t221 -87q135 0 268 151q-101 108 -218.5 218.5t-207.5 181.5q-70 -44 -111 -107.5t-41 -134.5zM389 1094q0 -155 201 -306q79 42 119.5 110t40.5 140q0 96 -49 167t-138 71q-75 0 -124.5 -55 t-49.5 -127z" />
<glyph unicode="'" horiz-adv-x="350" d="M80 1245q0 38 28.5 65t65.5 27q38 0 66 -27t28 -65q0 -25 -3 -56.5t-11 -80.5t-14 -83.5t-20 -109.5t-21 -114q-1 -6 -23 -6t-24 6q-10 54 -26.5 140.5t-24.5 130t-14.5 93.5t-6.5 80z" />
<glyph unicode="(" horiz-adv-x="811" d="M176 430q0 178 55.5 342t153.5 295t225 234.5t279 177.5q5 2 12 -6t11 -17.5t1 -11.5q-217 -134 -359 -420t-142 -594t142 -594t359 -420q3 -2 -1 -11t-11 -17t-12 -6q-151 73 -278.5 176.5t-225.5 234.5t-153.5 295t-55.5 342z" />
<glyph unicode=")" horiz-adv-x="808" d="M-102 -584q217 134 358 419.5t141 594.5t-141 594.5t-358 419.5q-3 2 1 11.5t11 17.5t12 6q152 -74 278.5 -177.5t224.5 -234.5t153 -295t55 -342q0 -143 -36 -278t-100.5 -248t-154 -212t-195 -175.5t-225.5 -134.5q-5 -2 -12 6t-11 17t-1 11z" />
<glyph unicode="*" horiz-adv-x="784" d="M60 868q0 30 26 39l279 97l-279 94q-34 11 -15 61q17 45 51 65q23 13 38 -1l219 -199l-60 295q-7 31 38 43q47 13 84 -6q26 -14 22 -37l-60 -295l220 199q27 26 62 -15q33 -38 31 -77q-1 -26 -22 -33l-276 -94l276 -97q34 -11 18 -59q-14 -44 -46 -63q-25 -15 -43 3 l-220 197l60 -299q6 -30 -33 -42t-78 0t-33 42l60 299l-219 -197q-29 -28 -67 9q-32 32 -33 71z" />
<glyph unicode="+" horiz-adv-x="983" d="M67 657.5q0 32.5 3 32.5h389v397q0 3 32.5 3t32.5 -3v-397h396q3 0 3 -32.5t-3 -32.5h-396v-396q0 -3 -32.5 -3t-32.5 3v396h-389q-3 0 -3 32.5z" />
<glyph unicode="," horiz-adv-x="481" d="M72 152q0 48 37 79t88 31q95 0 156 -70.5t61 -152.5q0 -111 -82.5 -211t-216.5 -174q-2 -1 -11.5 10t-16.5 23.5t-3 15.5q190 127 190 236q0 71 -86 96q-55 15 -85.5 42t-30.5 75z" />
<glyph unicode="-" horiz-adv-x="595" d="M48 536q0 42 3 42h494q3 0 3 -42t-3 -42h-494q-3 0 -3 42z" />
<glyph unicode="." horiz-adv-x="491" d="M98 102q0 64 42 108t104 44q64 0 106.5 -44t42.5 -108q0 -62 -43 -103.5t-104 -41.5q-64 0 -106 41t-42 104z" />
<glyph unicode="/" horiz-adv-x="460" d="M-141 -584l553 2083q1 2 18 -3t33.5 -11t15.5 -8l-549 -2085q-1 -2 -19 3.5t-35.5 12t-16.5 8.5z" />
<glyph unicode="0" d="M90 653q0 136 37.5 259t106 218t174.5 151t235 56t235 -56t174.5 -151t106 -218t37.5 -259t-37.5 -258.5t-106 -217t-174.5 -150.5t-235 -56t-235 56t-174.5 150.5t-106 217t-37.5 258.5zM346 655q0 -306 77 -466t220 -160t219 160t76 466q0 299 -76.5 461t-218.5 162 q-144 0 -220.5 -159t-76.5 -464z" />
<glyph unicode="1" horiz-adv-x="897" d="M104 1224q-1 26 5 27q153 22 462 78q9 1 14 -8t5 -23v-1042q0 -50 2.5 -82t14 -56.5t23.5 -37t41 -21t56 -11t80 -5.5q1 0 2 -11t0.5 -22.5t-4.5 -11.5q-37 2 -328 2q-182 0 -338 -4q-3 0 -3.5 12t0 23.5t1.5 11.5q52 3 79.5 6t57 11t42 20.5t24.5 36.5t15 56.5t3 82.5 v754q0 96 -20 137t-74.5 53t-152.5 -2q-6 0 -7 26z" />
<glyph unicode="2" horiz-adv-x="1028" d="M35 59q246 224 382.5 375.5t192.5 259.5t56 209q0 128 -77 201.5t-181 73.5q-83 0 -153.5 -44t-115.5 -120q-1 -2 -10 2.5t-17.5 10t-7.5 7.5q51 144 169 223.5t257 79.5q96 0 179.5 -42.5t136.5 -125.5t53 -190q0 -54 -13 -102.5t-45 -100.5t-66 -95t-97 -106 t-115.5 -112t-144.5 -134.5t-162 -152.5v-2h426q27 0 48.5 2.5t39 9t30.5 11.5t24.5 18.5t18 20t15.5 25.5t12 26.5t11.5 31t11.5 31.5q3 3 16 2t27.5 -4t13.5 -6q-39 -242 -47 -287l-10 -55h-850q-2 0 -5.5 29t-2.5 30z" />
<glyph unicode="3" horiz-adv-x="970" d="M49 160q-2 3 11.5 18t17.5 12q77 -58 143 -84t144 -26q132 0 218.5 78.5t86.5 203.5q0 120 -79.5 194.5t-197.5 74.5q-47 0 -155 -25q-3 -1 -6.5 11t-4.5 22.5t0 13.5q65 15 158 47q115 39 176.5 110.5t61.5 172.5q0 94 -64.5 152.5t-167.5 58.5q-76 0 -151.5 -45.5 t-126.5 -122.5q-1 -2 -10 3t-17.5 12t-7.5 10q58 131 173 207.5t249 76.5q149 0 248.5 -89.5t99.5 -219.5q0 -111 -99.5 -205t-259.5 -137q186 -6 296 -107t110 -235q0 -167 -123.5 -271t-320.5 -104q-124 0 -227 54.5t-175 138.5z" />
<glyph unicode="4" horiz-adv-x="1187" d="M47 496l606 827h193l-2 -764l129 2q49 0 72.5 26t46.5 97q3 2 15.5 2t27 -1.5t14.5 -2.5q-28 -136 -35 -184l-10 -66l-260 2l2 -440h-225l2 440l-557 -2zM184 561l445 -2l-2 600h-2z" />
<glyph unicode="5" horiz-adv-x="999" d="M57 154q-1 1 6 9.5t15 15.5t10 5q160 -127 291 -127q141 0 226 92t85 236q0 129 -84 208t-213 79q-94 0 -190 -49l-58 51l56 629h520q65 0 87 18.5t48 87.5q3 2 15.5 2t27 -1.5t14.5 -2.5l-32 -172l-21 -119h-594l-37 -405q121 59 265 59q188 0 307 -108.5t119 -274.5 q0 -126 -64.5 -223.5t-167 -147t-221.5 -49.5q-132 0 -241 54.5t-169 132.5z" />
<glyph unicode="6" horiz-adv-x="1153" d="M92 522q0 155 69 301t186 257t281 181.5t345 79.5q6 0 6 -32q0 -15 -10 -15q-149 -22 -271 -96t-201 -182t-122 -241t-43 -275q0 -207 77 -340t197 -133q109 0 165 100t56 258q0 136 -69 223.5t-185 87.5q-41 0 -81 -14q-6 -2 -7 23q-1 17 4 18q107 47 213 47 q168 0 267.5 -103.5t99.5 -267.5q0 -121 -63.5 -220.5t-173.5 -155.5t-242 -56q-213 0 -355.5 159t-142.5 396z" />
<glyph unicode="7" horiz-adv-x="999" d="M74 965l55 338h825q8 0 13 -26.5t0 -33.5l-625 -1268q-6 -13 -74 6q-55 16 -51 27l598 1090h-543q-20 0 -36.5 -4t-28 -8t-22.5 -17t-17 -20t-14.5 -28.5t-12 -31t-12.5 -37.5q-3 -2 -15.5 -0.5t-26.5 6t-13 7.5z" />
<glyph unicode="8" horiz-adv-x="1122" d="M98 309q0 116 85 204.5t212 123.5q-123 65 -192.5 146t-69.5 198q0 106 62 189.5t161.5 127t214.5 43.5q196 0 309 -92t113 -225q0 -109 -83.5 -190.5t-207.5 -114.5q58 -29 99 -52t87 -58t73.5 -71t46 -86t18.5 -108q0 -158 -131 -267.5t-336 -109.5q-217 0 -339 98 t-122 244zM305 326q0 -125 82.5 -211t194.5 -86t183 65.5t71 165.5q0 33 -10.5 63t-23.5 53t-42 49t-49 41.5t-61 39t-62.5 34.5t-70 35t-66.5 33q-74 -54 -110 -128.5t-36 -153.5zM326 1061q0 -47 19.5 -88.5t46.5 -71t76 -60.5t84.5 -49.5t96.5 -46.5q69 49 103 123.5 t34 151.5q0 105 -65 182.5t-170 77.5q-103 0 -164 -61t-61 -158z" />
<glyph unicode="9" horiz-adv-x="1155" d="M86 899q0 192 133 315t348 123q224 0 360 -155t136 -402q0 -155 -68 -301t-183.5 -256t-279 -180.5t-344.5 -79.5q-4 0 -8 14t-4 19q0 14 8 14q149 22 271.5 96t202 181.5t122.5 240.5t43 275q0 208 -75.5 340.5t-196.5 132.5q-107 0 -165 -103t-58 -258 q0 -136 70 -225.5t186 -89.5q36 0 82 16q6 2 6 -25q0 -16 -4 -18q-102 -47 -213 -47q-159 0 -264 108t-105 265z" />
<glyph unicode=":" horiz-adv-x="491" d="M98 102q0 64 42 108t104 44q64 0 106.5 -44t42.5 -108q0 -62 -43 -103.5t-104 -41.5q-64 0 -106 41t-42 104zM98 662q0 64 42 107.5t104 43.5q64 0 106.5 -43.5t42.5 -107.5q0 -62 -43 -104t-104 -42q-64 0 -106 41.5t-42 104.5z" />
<glyph unicode=";" horiz-adv-x="491" d="M88 152q0 48 37 79t88 31q95 0 156 -70.5t61 -152.5q0 -111 -82.5 -211t-216.5 -174q-2 -1 -11.5 10t-16.5 23.5t-3 15.5q191 127 191 236q0 71 -86 96q-117 32 -117 117zM98 662q0 64 42 107.5t104 43.5q64 0 106.5 -43.5t42.5 -107.5q0 -62 -43 -104t-104 -42 q-64 0 -106 41.5t-42 104.5z" />
<glyph unicode="&#x3c;" horiz-adv-x="983" d="M72 631v55l805 365q5 3 13 -12q18 -34 14 -50q-1 -3 -3 -4l-735 -328l735 -325q10 -3 -6 -44q-11 -26 -18 -24z" />
<glyph unicode="=" horiz-adv-x="983" d="M63 512q0 33 3 33h852q3 0 3 -33t-3 -33h-852q-3 0 -3 33zM63 801q0 33 3 33h852q3 0 3 -33t-3 -33h-852q-3 0 -3 33z" />
<glyph unicode="&#x3e;" horiz-adv-x="980" d="M73 322.5q0 7.5 3 9.5l735 325l-735 328q-3 2 -3 9.5t3.5 17.5t7.5 19t8.5 15t7.5 5l803 -365v-55l-803 -367q-3 -1 -7.5 5t-8.5 15.5t-7.5 20t-3.5 18z" />
<glyph unicode="?" horiz-adv-x="813" d="M66 1049q30 127 127 208.5t231 81.5q139 0 236.5 -87t97.5 -218q0 -68 -32.5 -130t-73 -100.5t-97.5 -78.5q-50 -39 -79.5 -65.5t-62.5 -66t-48 -84.5t-15 -99v-33q0 -6 -18 -7.5t-19 5.5q-14 57 -14 110q0 69 24.5 131t60 107t71 87t60 89t24.5 94q0 89 -58 143t-145 54 q-78 0 -141.5 -44t-96.5 -110q-3 -3 -10.5 -2t-15 5.5t-6.5 9.5zM209 96q0 61 40.5 101.5t100.5 40.5q59 0 99 -41t40 -101q0 -58 -41 -98.5t-98 -40.5q-60 0 -100.5 40t-40.5 99z" />
<glyph unicode="@" horiz-adv-x="1925" d="M129 524q0 164 64 316.5t175.5 266.5t272 182.5t342.5 68.5q131 0 247.5 -32t204 -87.5t157.5 -128.5t114 -157t67 -170.5t23 -170.5q0 -242 -113.5 -385t-289.5 -143q-100 0 -177 50.5t-114 139.5q-38 -90 -106.5 -139t-153.5 -49q-98 0 -166 60.5t-68 156.5 q0 132 129.5 211.5t339.5 85.5v45q0 79 -46 129.5t-136 50.5q-132 0 -227 -114q-3 -3 -19.5 9.5t-13.5 18.5q46 99 141.5 158t200.5 59q131 0 217.5 -88t79.5 -239l-10 -211q-6 -121 37.5 -188.5t140.5 -67.5q121 0 196.5 123t75.5 325q0 94 -30.5 191t-93.5 187.5 t-149.5 161t-208 113t-259.5 42.5q-159 0 -299 -62.5t-237.5 -168t-153.5 -249t-56 -301.5q0 -215 89.5 -389.5t260 -277.5t392.5 -103q210 0 456 131q5 4 12.5 -6t11.5 -22.5t1 -14.5q-110 -65 -225 -104t-256 -39q-245 0 -436.5 104.5t-297.5 292.5t-106 428zM799 346 q0 -60 37 -100.5t98 -40.5q59 0 97 38.5t40 88.5l6 217q-167 -20 -237 -94q-41 -44 -41 -109z" />
<glyph unicode="A" d="M-7.5 18.5q-0.5 22.5 3.5 22.5q68 9 106 47q31 31 61.5 102t74.5 211l235 742q23 70 31 153q0 9 106 17q61 5 88 5q20 0 21 -3l328 -953q25 -73 43.5 -121.5t38 -85t35 -56t38 -32.5t43.5 -18t55 -8q4 0 4 -22.5t-4 -22.5q-82 4 -278 4q-137 0 -293 -4q-5 0 -5 22.5 t5 22.5q109 10 127 63q5 14 4 34q0 55 -35 155l-75 223h-400q-94 -310 -94 -379q0 -49 29.5 -70t95.5 -26q3 0 3.5 -11t-1 -22.5t-4.5 -11.5q-118 4 -211 4q-19 0 -41 -0.5t-60 -1.5t-71 -2q-3 0 -3.5 22.5zM373 586h354l-184 551h-4z" />
<glyph unicode="B" horiz-adv-x="1282" d="M90.5 9q-0.5 11 0 22.5t1.5 11.5q43 3 64.5 5.5t44 11.5t30.5 19.5t15.5 36.5t8.5 55.5t1 82.5v793q0 53 -1 82.5t-8.5 55t-15.5 36.5t-30.5 19.5t-43.5 11t-65 5.5q-1 0 -1.5 12t0 24t3.5 12q74 -2 275 -2q34 0 131.5 5t175.5 5q196 0 311 -73t115 -216 q0 -114 -82.5 -196t-222.5 -113v-4q181 -7 295 -107t114 -239q0 -179 -134 -277t-367 -98q-48 0 -178 5t-160 5q-207 0 -273 -2q-3 0 -3.5 11zM500 252q0 -128 30 -158q17 -17 57.5 -31t92.5 -14q122 0 197 69t75 214q0 153 -85.5 242.5t-215.5 89.5q-84 0 -151 -23v-389z M500 872q0 -109 22 -131t101 -22q100 0 163 63q66 66 66 168q0 136 -77 220.5t-204 84.5q-17 0 -71 -6v-377z" />
<glyph unicode="C" horiz-adv-x="1374" d="M94 651q0 106 29 206t88 187.5t141.5 153t197 103.5t247.5 38q73 0 145 -13.5t124 -27.5t75 -14q27 0 49 39q2 3 26.5 2.5t24.5 -4.5l10 -373q0 -5 -26 -6.5t-29 4.5q-141 338 -399 338q-134 0 -233 -81t-149 -222.5t-50 -325.5q0 -289 125.5 -460.5t328.5 -171.5 q142 0 246 94q93 87 156 270q1 5 31 1.5t30 -9.5q-24 -293 -41 -303q-157 -109 -440 -109q-171 0 -307.5 55.5t-222.5 151t-131.5 217.5t-45.5 260z" />
<glyph unicode="D" horiz-adv-x="1525" d="M90.5 9q-0.5 11 0 22.5t1.5 11.5q43 3 64.5 5.5t44 11.5t30.5 19.5t15.5 36.5t8.5 55.5t1 82.5v793q0 53 -1 82.5t-8.5 55t-15.5 36.5t-30.5 19.5t-43.5 11t-65 5.5q-1 0 -1.5 12t0 24t3.5 12q74 -2 256 -2q34 0 184 7t183 7q169 0 307 -50t228 -137.5t139 -205 t49 -252.5q0 -147 -51 -271t-146.5 -214t-240 -140.5t-322.5 -50.5q-16 0 -136 2t-159 2q-217 0 -291 -2q-3 0 -3.5 11zM500 260q0 -140 26 -162q18 -18 72 -29.5t109 -11.5q218 0 338 156t120 438q0 147 -39 263t-107 188.5t-156.5 110.5t-190.5 38q-98 0 -172 -20v-971z " />
<glyph unicode="E" horiz-adv-x="1193" d="M90.5 9q-0.5 11 0 22.5t1.5 11.5q43 3 64.5 5.5t44 11.5t30.5 19.5t15.5 36.5t8.5 55.5t1 82.5v793q0 53 -1 82.5t-8.5 55t-15.5 36.5t-30.5 19.5t-43.5 11t-65 5.5q-1 0 -1.5 12t0 24t3.5 12q74 -2 287 -2h319q110 0 306 8q6 0 12 -5t6 -12q10 -163 10 -276q0 -2 -15 -4 t-27.5 -2t-14.5 2q-22 83 -57 128t-106 68t-193 23h-91q-30 0 -30 -8v-529l106 4q114 3 166 12t74 31q29 29 45 131q0 3 14.5 3.5t29.5 -1t15 -4.5q-6 -75 -6 -202q0 -105 8 -207q0 -3 -15 -5t-30.5 -2t-15.5 3q-17 97 -45 125q-26 26 -80.5 36.5t-163.5 12.5l-102 2v-320 q0 -99 8.5 -143t34.5 -70q41 -41 159 -41h33q134 0 203.5 60.5t112.5 210.5q1 4 31 2.5t30 -6.5q-6 -58 -37 -299q-3 -26 -12 -31.5t-45 -3.5q-159 6 -389 6h-166q-295 0 -369 -2q-3 0 -3.5 11z" />
<glyph unicode="F" horiz-adv-x="1130" d="M90.5 9q-0.5 11 0 22.5t1.5 11.5q43 3 64.5 5.5t44 11.5t30.5 19.5t15.5 36.5t8.5 55.5t1 82.5v793q0 53 -1 82.5t-8.5 55t-15.5 36.5t-30.5 19.5t-43.5 11t-65 5.5q-1 0 -1.5 12t0 24t3.5 12q74 -2 287 -2h317q107 0 303 8q6 0 11.5 -5t5.5 -12q12 -196 12 -286 q0 -2 -14 -3t-28.5 -1t-14.5 2q-18 80 -52.5 127.5t-104 73.5t-181.5 26h-105q-30 0 -30 -8v-559q86 2 106 2q111 3 165 12.5t77 32.5q17 17 25.5 45.5t17.5 83.5q0 4 29.5 4t29.5 -4q-6 -75 -6 -205q0 -105 8 -207q0 -3 -15 -4.5t-30.5 -1t-15.5 3.5q-6 35 -10 52.5 t-12.5 38t-20.5 32.5q-27 27 -80 37t-166 12l-102 2v-352q0 -52 1 -82t9.5 -55.5t17 -36t32.5 -19t46.5 -10.5t69.5 -4q1 0 2 -11t0.5 -22.5t-4.5 -11.5q-37 2 -289 2q-217 0 -291 -2q-3 0 -3.5 11z" />
<glyph unicode="G" horiz-adv-x="1431" d="M94 651q0 106 29 206t88 187.5t141.5 153t197 103.5t247.5 38q97 0 211.5 -26.5t132.5 -26.5q28 0 49 37q2 3 26.5 3.5t24.5 -3.5l10 -375q0 -3 -13 -4.5t-26.5 -0.5t-15.5 5q-140 336 -399 336q-134 0 -233 -80.5t-149 -221.5t-50 -325q0 -284 134 -457t332 -173 q52 0 96 13.5t56 25.5q29 29 29 210q0 38 -1.5 66t-7 50t-10 36t-18 25t-23.5 16.5t-33 10t-39.5 6t-50.5 3.5q-5 0 -5 25t5 25q156 -4 293 -4q203 0 285 4q5 0 5 -25t-5 -25q-43 -3 -64 -5.5t-43.5 -10.5t-31 -19t-16.5 -34.5t-9.5 -52.5t-1.5 -78v-252q0 -11 -14 -14 q-172 -54 -410 -54q-171 0 -310 55.5t-228 150t-137 217t-48 259.5z" />
<glyph unicode="H" horiz-adv-x="1599" d="M90.5 9q-0.5 11 0 22.5t1.5 11.5q43 3 64.5 5.5t44 11.5t30.5 19.5t15.5 36.5t8.5 55.5t1 82.5v793q0 53 -1 82.5t-8.5 55t-15.5 36.5t-30.5 19.5t-43.5 11t-65 5.5q-1 0 -1.5 12t0 24t3.5 12q74 -2 291 -2q244 0 281 2q4 0 4.5 -12t-0.5 -24t-2 -12q-44 -3 -65.5 -5.5 t-44.5 -11t-31 -19.5t-16 -36t-9.5 -55.5t-1.5 -82.5v-349h596v349q0 38 -1 64t-5 49t-7.5 36t-14.5 24.5t-20.5 16.5t-30 10t-38 6.5t-49.5 3.5q-2 0 -2.5 12t0.5 24t4 12q76 -2 299 -2q233 0 272 2q5 0 5 -24t-5 -24q-43 -3 -63.5 -5.5t-43.5 -11t-31 -20t-16.5 -36 t-10 -55.5t-1.5 -82v-793q0 -51 1.5 -82t10 -56t17 -36.5t31 -20t43.5 -11t63 -5.5q5 0 5 -22.5t-5 -22.5q-39 2 -272 2q-223 0 -299 -2q-3 0 -4 11t-0.5 22.5t2.5 11.5q43 3 64 5.5t43.5 11t31 20t16.5 36.5t9.5 56t1.5 82v373h-596v-373q0 -52 1.5 -82.5t9.5 -55.5 t16.5 -36.5t31 -20t44.5 -11t65 -5.5q1 0 2 -11t0.5 -22.5t-4.5 -11.5q-37 2 -281 2q-217 0 -291 -2q-3 0 -3.5 11z" />
<glyph unicode="I" horiz-adv-x="792" d="M89.5 31.5q0.5 11.5 2.5 11.5q36 2 53 3t40.5 5t32.5 9t22 16t16.5 24.5t8.5 36.5t6 50t1 67v795q0 40 -1 67t-5.5 50t-8.5 36.5t-17 25t-22 16.5t-32.5 9.5t-41 5.5l-52.5 3q-2 0 -2.5 11t0.5 21.5t4 10.5q76 -2 307 -2q258 0 295 2q4 0 4.5 -10.5t-0.5 -21.5t-2 -11 q-101 -9 -127 -21q-40 -17 -50 -77q-7 -38 -7 -115v-795q0 -51 2 -82.5t10.5 -55.5t18.5 -35.5t31.5 -19.5t44.5 -10.5t63 -6.5q9 -1 14 -1q1 0 2 -11t0.5 -22.5t-4.5 -11.5q-37 2 -295 2q-231 0 -307 -2q-3 0 -4 11t-0.5 22.5z" />
<glyph unicode="J" horiz-adv-x="712" d="M-10.5 -318q-1.5 10 2.5 13q94 30 146 75.5t78 131.5t26 229v918q0 52 -1.5 83t-10 56.5t-18 37t-34.5 20.5t-49.5 11.5t-71.5 4.5q-3 0 -3.5 21.5t3.5 21.5q76 -2 314 -2q249 0 286 2q4 0 5.5 -10.5t1 -21.5t-1.5 -11q-35 -3 -52 -4.5t-40.5 -6t-32.5 -10t-22 -17 t-16.5 -25t-8.5 -36t-6 -49t-1 -65.5v-832q0 -258 -133 -391q-123 -120 -344 -176q-4 -1 -9.5 10.5t-7 21.5z" />
<glyph unicode="K" horiz-adv-x="1394" d="M90.5 9q-0.5 11 0 22.5t1.5 11.5q43 3 64.5 5.5t44 11.5t30.5 19.5t15.5 36.5t8.5 55.5t1 82.5v793q0 53 -1 82.5t-8.5 55t-15.5 36.5t-30.5 19.5t-43.5 11t-65 5.5q-1 0 -1.5 12t0 24t3.5 12q74 -2 291 -2q244 0 281 2q4 0 4.5 -12t-0.5 -24t-2 -12q-44 -3 -65.5 -5.5 t-44.5 -11t-31 -19.5t-16 -36t-9.5 -55.5t-1.5 -82.5v-793q0 -52 1.5 -82.5t9.5 -55.5t16.5 -36.5t31 -20t44.5 -11t65 -5.5q1 0 2 -11t0.5 -22.5t-4.5 -11.5q-37 2 -281 2q-217 0 -291 -2q-3 0 -3.5 11zM560.5 653.5q-0.5 14.5 2.5 18.5l277 293q87 93 125.5 147.5 t38.5 91.5q0 22 -22.5 38t-63.5 20q-3 0 -3 22.5t3 22.5q132 -4 233 -4q67 0 203 4q3 0 4.5 -21.5t-2.5 -23.5q-47 -9 -89.5 -26.5t-82 -45t-67 -50.5t-66.5 -59q-45 -40 -183 -182l-118 -123q107 -140 272 -345.5t242 -295.5q79 -91 163 -94q1 0 2 -11t0.5 -22.5 t-4.5 -11.5q-13 0 -153.5 2t-169.5 2q-26 0 -43.5 10t-38.5 35q-42 50 -197.5 251t-259.5 339q-2 4 -2.5 18.5z" />
<glyph unicode="L" horiz-adv-x="1163" d="M90.5 9q-0.5 11 0 22.5t1.5 11.5q43 3 64.5 5.5t44 11.5t30.5 19.5t15.5 36.5t8.5 55.5t1 82.5v784q0 53 -1.5 85t-9.5 58t-16.5 38t-30.5 21t-43 11.5t-63 5.5q-1 0 -1.5 12t0 24t3.5 12q74 -2 287 -2q262 0 299 2q4 0 5 -10.5t0.5 -21.5t-1.5 -11q-35 -3 -53 -5t-41 -7 t-33 -11t-23 -18t-17.5 -26t-9.5 -37.5t-6 -51t-1 -66.5v-725q0 -97 9.5 -143t35.5 -72q39 -39 157 -39h37q137 0 203 66q35 35 61 90.5t60 155.5q1 4 31 3.5t30 -5.5q-3 -44 -20 -182.5t-19 -159.5q-3 -26 -17 -31.5t-56 -5.5q-360 8 -377 8h-172q-295 0 -369 -2 q-3 0 -3.5 11z" />
<glyph unicode="M" horiz-adv-x="1802" d="M75 19.5q0 23.5 3 23.5q90 10 119 39q34 34 49.5 109.5t21.5 240.5l27 537q1 33 1 61q0 49 -4 83q-7 54 -30.5 85.5t-55.5 43.5t-89 18q-5 0 -5 23.5t5 23.5q55 -2 149.5 -2t189.5 1t101 1q33 0 39 -25q9 -39 27 -92q130 -362 290 -840h2l295 805q7 24 19.5 59.5 t15.5 47.5q12 47 31 47q4 0 65.5 -3t94.5 -3q198 0 280 4q4 0 4 -22.5t-4 -22.5q-41 -5 -62.5 -8.5t-44 -13.5t-32 -24t-17.5 -40t-10 -60q-1 -15 -1 -33q0 -24 1 -55l23 -715q2 -62 4.5 -99.5t10 -69.5t16.5 -47t29.5 -27.5t42.5 -17.5t61 -9q5 0 5 -23.5t-5 -23.5 q-82 4 -273 4q-143 0 -299 -4q-5 0 -5 23.5t5 23.5q78 7 111 27.5t45 72.5q10 45 10 138v32l-14 701q-3 126 -6 157h-11q-41 -117 -101 -278t-159 -424.5t-182 -486.5q-3 -8 -37.5 -7.5t-36.5 7.5q-55 168 -207 609t-198 576h-4l-27 -805q-2 -54 -2 -96q0 -63 4 -97 q8 -58 37 -87t135 -39q2 0 2 -11.5t-1 -23.5t-3 -12q-148 4 -225 4q-81 0 -217 -4q-3 0 -3 23.5z" />
<glyph unicode="N" horiz-adv-x="1513" d="M82 1284.5q0 22.5 4 22.5q156 -4 254 -4q30 0 84 1t78 1q86 -140 145 -220l555 -757h2l-4 573q0 84 -2.5 137t-11.5 94.5t-20 63t-35.5 36.5t-50 20.5t-70.5 9.5q-2 0 -2 11t1 21.5t3 10.5q38 -1 119 -4t114 -3q21 0 207 7q3 0 3 -21.5t-3 -21.5q-38 -4 -60.5 -9.5 t-43.5 -20t-31.5 -37.5t-19 -64.5t-11 -96.5t-2.5 -139l-2 -508q0 -219 12 -391q0 -6 -70 -10q-28 -2 -45 -2q-26 0 -28 4l-809 1106h-2l4 -697q0 -83 3 -136t11.5 -94t19.5 -62t36 -35.5t50 -19t71 -9.5q2 0 2 -11t-1.5 -22.5t-3.5 -11.5q-180 4 -233 4q-101 0 -207 -4 q-3 0 -3 22.5t3 22.5q39 4 60.5 9t43.5 19.5t32 36t18.5 62.5t11 96t2.5 139l2 625q0 150 -47 197q-17 17 -45.5 24.5t-83.5 12.5q-4 0 -4 22.5z" />
<glyph unicode="O" horiz-adv-x="1583" d="M94 649q0 105 28 204.5t86 188t139.5 154.5t196.5 104.5t249 38.5t248.5 -38t195.5 -103.5t138.5 -152.5t85.5 -186t28 -204q0 -133 -46 -255t-131.5 -220t-221.5 -156.5t-302 -58.5q-167 0 -302 58t-219 155t-128.5 218t-44.5 253zM367 655q0 -286 115.5 -459 t310.5 -173q197 0 309 168.5t112 457.5q0 287 -115 460t-311 173q-197 0 -309 -169t-112 -458z" />
<glyph unicode="P" horiz-adv-x="1214" d="M90.5 9q-0.5 11 0 22.5t1.5 11.5q43 3 64.5 5.5t44 11.5t30.5 19.5t15.5 36.5t8.5 55.5t1 82.5v793q0 51 -1.5 82t-9.5 56t-16 36t-30.5 19.5t-43.5 11t-63 5.5q-1 0 -1.5 12t0 24t3.5 12q74 -2 295 -2q33 0 146 5t137 5q230 0 355.5 -96t125.5 -275q0 -126 -75 -224 q-76 -96 -200 -144q-100 -39 -213 -39q-26 0 -53 2q-4 0 -4 22.5t4 22.5q78 2 135 29t88.5 72.5t46.5 99t15 116.5q0 183 -114 277q-86 71 -204 70q-38 0 -79 -7v-989q0 -76 3.5 -112.5t27.5 -58.5t46 -26t91 -9q5 -1 8 -1q1 0 2 -11t0.5 -22.5t-4.5 -11.5q-37 2 -289 2 q-217 0 -291 -2q-3 0 -3.5 11z" />
<glyph unicode="Q" horiz-adv-x="1583" d="M94 649q0 105 28 204.5t86 188t139.5 154.5t196.5 104.5t249 38.5t248.5 -38t195.5 -103.5t138.5 -152.5t85.5 -186t28 -204q0 -143 -51 -272.5t-157 -232t-253 -148.5q340 -238 614 -238q111 0 248 72q1 1 4 -3t6.5 -9.5t6.5 -11.5t4.5 -11t-0.5 -6q-226 -160 -490 -160 q-160 0 -334 78.5t-344 225.5l-45 34h-2q-144 15 -260.5 77.5t-190 155.5t-112.5 206.5t-39 236.5zM367 655q0 -287 115 -459.5t311 -172.5q197 0 309 168t112 458q0 287 -115 460t-311 173q-197 0 -309 -169t-112 -458z" />
<glyph unicode="R" horiz-adv-x="1339" d="M90.5 9q-0.5 11 0 22.5t1.5 11.5q43 3 64.5 5.5t44 11.5t30.5 19.5t15.5 36.5t8.5 55.5t1 82.5v784q0 53 -1.5 85t-9.5 58t-16.5 38t-30.5 21t-43 11.5t-63 5.5q-1 0 -1.5 12t0 24t3.5 12q185 -5 295 -5q39 0 172.5 7.5t165.5 7.5q210 0 319 -89t109 -237 q0 -119 -80 -212.5t-209 -147.5q73 -63 131.5 -140t118.5 -184q87 -156 144 -213q41 -41 110 -49q2 0 2 -11.5t-1.5 -23.5t-4.5 -12q-82 4 -291 4h-61q-12 10 -61.5 98l-112.5 200t-97 161q-52 72 -86.5 96.5t-81.5 24.5q-12 0 -42 -3.5t-33 -3.5v-319q0 -52 1.5 -82.5 t9.5 -55.5t16.5 -36.5t31 -20t44.5 -11t65 -5.5q1 0 2 -11t0.5 -22.5t-4.5 -11.5q-37 2 -281 2q-217 0 -291 -2q-3 0 -3.5 11zM500 657q90 -20 151 -20q105 0 156 45q92 79 92 246q0 139 -91.5 230t-223.5 91q-26 0 -84 -8v-584z" />
<glyph unicode="S" horiz-adv-x="1054" d="M100 397q0 3 15.5 4.5t31.5 0.5t17 -5q27 -79 50.5 -132t55.5 -101t70 -75.5t90 -43.5t119 -16q102 0 170.5 63.5t68.5 159.5q0 43 -16 80t-38 63t-66 55.5t-77 47.5t-94 48q-23 11 -34 17q-65 33 -106.5 56.5t-93 62.5t-81 77.5t-50.5 94t-21 119.5q0 159 119.5 262.5 t304.5 103.5q71 0 152.5 -22.5t94.5 -22.5q31 0 52 37q2 3 27.5 2.5t25.5 -4.5l10 -368q0 -3 -26.5 -5.5t-28.5 0.5q-129 322 -340 322q-94 0 -155.5 -54t-61.5 -145q0 -43 18 -81.5t44.5 -66.5t71.5 -58t83 -50t96 -47q52 -24 80.5 -37.5t73.5 -39t70.5 -46t56.5 -52.5 t47 -65.5t27.5 -78t11.5 -95.5q0 -165 -128.5 -281t-330.5 -116q-130 0 -239.5 31t-139.5 59q-8 8 -17.5 146t-9.5 196z" />
<glyph unicode="T" horiz-adv-x="1304" d="M53 932q26 312 29 387q175 -14 575 -14q393 0 568 14q4 -98 28 -387q0 -5 -29.5 -6.5t-31.5 4.5q-35 147 -100 215q-96 96 -318 96v-987q0 -52 1.5 -83.5t11.5 -56.5t18.5 -36t34.5 -19.5t48 -10.5t70 -5q1 0 2 -11t0.5 -22.5t-4.5 -11.5q-37 2 -294 2q-232 0 -308 -2 q-3 0 -4 11t-0.5 22.5t2.5 11.5q35 2 54 3t41.5 5.5t32.5 9.5t22 16.5t16 25t8 36.5t5 49.5t1 65.5v987q-223 0 -315 -92q-66 -66 -102 -219q-1 -6 -31.5 -4.5t-30.5 6.5z" />
<glyph unicode="U" horiz-adv-x="1468" d="M51.5 1269q-0.5 12 0 24t3.5 12q74 -2 287 -2q248 0 285 2q4 0 4.5 -12t-0.5 -24t-2 -12q-43 -4 -64 -6.5t-44 -11.5t-31.5 -21t-17 -37.5t-10 -57.5t-1.5 -85v-565q0 -195 88.5 -291t273.5 -96q167 0 260 107q91 105 91 284v8l-5 414q-1 84 -3.5 137t-11.5 95t-20 63.5 t-35 37t-49.5 21t-70.5 9.5q-2 0 -2 11t1 21.5t3 10.5q38 -1 119 -4t114 -3q22 0 207 7q2 0 3 -10.5t1 -21.5t-2 -11q-38 -4 -60.5 -9.5t-44 -20t-32 -37.5t-19.5 -64.5t-11.5 -97.5t-2.5 -140v-399q0 -242 -132 -386.5t-373 -144.5q-257 0 -394 126t-137 374v575 q0 53 -1.5 85t-9.5 58t-16.5 38t-30.5 21t-43 11.5t-63 5.5q-1 0 -1.5 12z" />
<glyph unicode="V" horiz-adv-x="1275" d="M-20 1283.5q0 23.5 4 23.5q82 -4 284 -4q131 0 287 4q3 0 3.5 -11.5t-1 -23.5t-4.5 -12q-71 -6 -103 -29t-32 -68q0 -49 39 -155l270 -768l209 585q51 144 72.5 218t21.5 116q0 51 -31.5 73t-101.5 28q-3 0 -3.5 12t1 23.5t4.5 11.5q118 -4 211 -4q17 0 193 4 q3 0 3 -23.5t-3 -23.5q-74 -9 -115 -50q-33 -33 -67 -108t-95 -244l-248 -680q-31 -85 -69 -201h-127q-56 163 -349 965q-41 116 -70 177t-59 91q-41 41 -120 50q-4 0 -4 23.5z" />
<glyph unicode="W" horiz-adv-x="1992" d="M-30.5 1295.5q0.5 11.5 3.5 11.5q82 -4 285 -4q131 0 287 4q5 0 5 -22.5t-5 -22.5q-111 -10 -129 -62q-5 -13 -5 -32q0 -55 38 -160l266 -764l268 696q-30 88 -53 142.5t-44 90.5t-46 53.5t-49.5 25t-65.5 10.5q-5 0 -5 22.5t5 22.5q82 -4 285 -4q128 0 284 4 q4 0 4 -22.5t-4 -22.5q-45 -4 -72 -14.5t-41.5 -27t-14.5 -47t9 -68t29 -97.5l266 -764l193 577q83 253 93 320q2 15 2 28q0 52 -32 72q-26 15 -96 21q-3 0 -3.5 11t1 22.5t4.5 11.5q114 -4 223 -4q1 0 181 4q3 0 3.5 -22.5t-3.5 -22.5q-68 -9 -107.5 -39t-75 -101.5 t-86.5 -222.5l-313 -922h-127l-309 865l-330 -865h-127l-338 965q-28 79 -45 124t-36.5 84t-33 56.5t-36 31t-42 17.5t-55.5 7q-3 0 -4.5 11t-1 22.5z" />
<glyph unicode="X" horiz-adv-x="1323" d="M-5 31.5q0 11.5 3 11.5q93 12 171.5 74t190.5 213l207 282l-182 285q-56 86 -90 137.5t-68 95.5t-55 65t-48.5 37t-50 21.5t-57.5 8.5q-3 0 -3.5 11t1 22.5t4.5 11.5q82 -4 289 -4q127 0 283 4q3 0 3.5 -11.5t-1 -22.5t-4.5 -11q-55 -5 -81 -18t-26 -40q0 -7 1.5 -15 t6 -19t8.5 -20.5t13 -25.5t15.5 -27t19 -32t21 -34.5l25.5 -40.5t27 -44l103 -168l98 137q88 119 125 181.5t37 103.5q0 56 -104 62q-5 0 -5 22.5t5 22.5q207 -7 233 -7q23 0 88 3t109 4q3 0 3.5 -22.5t-3.5 -22.5q-92 -12 -171 -76.5t-190 -214.5l-184 -252l203 -316 q83 -130 125.5 -192t84.5 -102.5t69.5 -50t80.5 -17.5q5 0 5 -22.5t-5 -22.5q-82 4 -264 4q-141 0 -297 -4q-3 0 -3.5 11t1 22.5t4.5 11.5q53 5 76.5 18t23.5 39q0 10 -2.5 21.5t-9.5 26.5t-14 28.5t-21 36.5t-24.5 40t-30 48.5t-33.5 54.5l-123 203l-94 -137 q-23 -33 -58.5 -82.5t-55 -77.5t-41 -61.5t-31 -56.5t-9.5 -40q0 -28 24.5 -41t80.5 -18q4 0 4 -21.5t-4 -21.5h-231q-17 0 -193 -4q-2 0 -3.5 12t-1.5 23.5z" />
<glyph unicode="Y" horiz-adv-x="1249" d="M-14 1284.5q0 22.5 4 22.5q82 -4 274 -4q112 0 268 4q4 0 4 -22.5t-4 -22.5q-110 -9 -110 -58q0 -25 19 -66.5t65 -127.5l203 -348l186 344q74 139 74 184q0 33 -28.5 49.5t-88.5 22.5q-4 0 -4 22.5t4 22.5q118 -4 231 -4q5 0 181 4q2 0 3.5 -11.5t1.5 -22.5t-3 -11 q-50 -5 -87 -20.5t-72 -52.5t-65 -83t-75 -127l-211 -377v-348q0 -52 1.5 -83.5t11.5 -56.5t18.5 -36t34.5 -19.5t48 -10.5t70 -5q1 0 2 -11t0.5 -22.5t-4.5 -11.5q-37 2 -293 2q-229 0 -305 -2q-3 0 -4 11t-0.5 22.5t2.5 11.5q35 2 54 3t41.5 5.5t32.5 9.5t22 16.5t16 25 t8 36.5t5 49.5t1 65.5v305l-287 477q-79 130 -123.5 174.5t-117.5 51.5q-4 0 -4 22.5z" />
<glyph unicode="Z" horiz-adv-x="1212" d="M64.5 20.5q-2.5 22.5 1.5 28.5l765 1184h-319q-79 0 -133.5 -15.5t-93 -51.5t-63 -85.5t-46.5 -126.5q-2 -4 -29.5 -1.5t-27.5 5.5q2 40 11 163.5t13 160.5q2 20 10.5 26t39.5 5q10 0 121.5 -5t172.5 -5h349q192 0 276 2q4 0 7 -9.5t2.5 -22.5t-5.5 -20l-762 -1187h400 q129 0 195.5 66t121.5 237q2 2 16.5 2t31 -2t16.5 -4q-3 -44 -19.5 -178t-19.5 -158q-1 -13 -6 -21t-17 -11.5t-22 -4t-31 -0.5q-280 8 -322 8h-213q-80 0 -234.5 -1t-178.5 -1q-5 0 -7.5 22.5z" />
<glyph unicode="[" horiz-adv-x="733" d="M223 -549q15 131 15 316v1351q0 185 -15 316q108 2 280 11t255 19q6 0 6 -26.5t-6 -26.5l-309 -35v-1870l309 -34q6 0 6 -26t-6 -26q-84 10 -255.5 19.5t-279.5 11.5z" />
<glyph unicode="\" horiz-adv-x="460" d="M-23 1477q-1 2 16 8t35 11t19 3l551 -2083q1 -2 -15.5 -8.5t-34 -12t-18.5 -3.5z" />
<glyph unicode="]" horiz-adv-x="733" d="M-31 -554q0 26 6 26l308 34v1870l-308 35q-6 0 -6 26.5t6 26.5q83 -10 255 -19t280 -11q-16 -140 -16 -316v-1351q0 -176 16 -316q-108 -2 -279.5 -11.5t-255.5 -19.5q-6 0 -6 26z" />
<glyph unicode="^" horiz-adv-x="704" d="M43 956l223 408h172l221 -408h-49l-258 248l-260 -248h-49z" />
<glyph unicode="_" horiz-adv-x="1024" d="M57 0v66h910v-66h-910z" />
<glyph unicode="`" horiz-adv-x="696" d="M45 1397h289l209 -389h-47z" />
<glyph unicode="a" horiz-adv-x="987" d="M86 197q0 139 129 224.5t367 88.5l2 47v16q0 85 -48 137q-53 56 -149 56q-69 0 -137 -38.5t-115 -100.5q-2 -3 -10 3t-15 14t-6 11q60 121 167.5 189.5t226.5 68.5q139 1 224 -93q81 -89 81 -237v-14l-12 -360q-1 -59 21.5 -89t57.5 -30q33 0 59 24t38 62q1 3 14.5 -3 t13.5 -9q-12 -92 -73 -144.5t-148 -52.5q-69 0 -124 42t-72 110q-38 -67 -103 -109.5t-147 -42.5q-99 0 -170.5 67.5t-71.5 162.5zM303 242q0 -62 39 -102t96 -40q70 0 117 47q20 20 20 46l7 268q-152 -16 -226 -90q-53 -53 -53 -129z" />
<glyph unicode="b" horiz-adv-x="1144" d="M2.5 1470.5q0.5 22.5 5.5 22.5h379v-719q51 55 125 93t156 38q177 0 287 -122.5t110 -317.5q0 -143 -73 -258t-196 -177.5t-272 -62.5q-201 0 -364 62v1185q0 41 -1 70t-5.5 53t-8.5 39.5t-14.5 27.5t-19 18.5t-27.5 12t-33.5 7.5t-42.5 6q-6 0 -5.5 22.5zM387 92 q30 -20 77.5 -34.5t92.5 -14.5q125 0 198.5 95t73.5 272q0 165 -74.5 264.5t-193.5 99.5q-46 0 -95 -18t-79 -45v-619z" />
<glyph unicode="c" horiz-adv-x="985" d="M78 432q0 134 57 242.5t166 173.5t252 65q80 0 160 -23.5t90 -23.5q30 0 47 39q2 5 27.5 5t25.5 -5v-334q0 -4 -26.5 -4.5t-28.5 2.5q-61 126 -136 203.5t-159 77.5q-110 0 -172 -103.5t-62 -269.5q0 -172 80 -278.5t205 -106.5q83 0 164.5 49.5t122.5 118.5 q4 3 13.5 0.5t19 -8.5t8.5 -10q-44 -119 -154 -198t-241 -79q-134 0 -240 64.5t-162.5 170.5t-56.5 232z" />
<glyph unicode="d" horiz-adv-x="1167" d="M76 408q0 219 144 359t366 140q82 0 168 -20v321q0 46 -2.5 77.5t-5.5 56t-13.5 39.5t-19.5 25t-30.5 16.5t-38.5 9.5t-52 8q-6 0 -5.5 21.5t5.5 21.5h389v-1215q0 -53 1.5 -85.5t8.5 -58.5t14 -38t26 -21.5t36.5 -12.5t52.5 -7q6 0 7 -22.5t-7 -22.5h-358v104 q-51 -55 -129 -95t-160 -40q-177 0 -287 122t-110 317zM311 463q0 -165 75.5 -265t195.5 -100q47 0 95 17t77 43v626q-82 50 -160 50q-131 0 -207 -94.5t-76 -276.5z" />
<glyph unicode="e" horiz-adv-x="1026" d="M78 432q0 128 57 236.5t169 176.5t257 68q170 0 278.5 -100.5t116.5 -257.5v-63h-626v-43q0 -152 81 -252.5t218 -100.5q83 0 159.5 46.5t120.5 117.5q1 2 6.5 0t12.5 -4.5t12 -6t4 -5.5q-37 -119 -151 -199t-252 -80q-141 0 -248 64t-161 169.5t-54 233.5zM334 555h366 v66q0 105 -44 165t-111 60q-84 0 -141.5 -80.5t-69.5 -210.5z" />
<glyph unicode="f" horiz-adv-x="727" d="M31.5 824.5q0.5 14.5 3.5 15.5q115 27 143 55q19 19 31 96q27 229 166.5 362.5t329.5 133.5q91 0 163 -37t72 -84q0 -44 -54.5 -102t-76.5 -58q-18 0 -102 80q-88 80 -136 80q-70 0 -101.5 -78t-31.5 -241v-173h281q6 0 6 -43t-6 -43h-283v-522q0 -52 1.5 -83t11 -57 t19.5 -38t36.5 -22t52 -14t76.5 -9q4 0 5.5 -11t0.5 -22.5t-4 -11.5q-59 2 -301 2q-201 0 -260 -2q-5 0 -5.5 22.5t5.5 22.5q40 5 60 10.5t37.5 17.5t24 37t10 60.5t3.5 97.5v516h-174q-2 0 -3 14t-0.5 28.5z" />
<glyph unicode="g" horiz-adv-x="987" d="M20 -317q0 78 78.5 146t204.5 91q-78 43 -78 119q0 56 43.5 106.5t130.5 81.5q-148 20 -235.5 111.5t-87.5 218.5q0 148 111.5 248t293.5 100q133 0 234 -61q45 80 105 125t124 45q52 0 90.5 -35t38.5 -80q0 -33 -25.5 -58.5t-62.5 -25.5q-20 0 -62 28.5t-79 28.5 t-84 -57q54 -42 83 -104.5t29 -132.5q0 -142 -97 -238t-261 -115q-56 -10 -85.5 -33t-29.5 -53q0 -27 32 -47.5t83 -34.5t112.5 -29t123 -36.5t112.5 -50.5t83 -78t32 -113q0 -126 -141 -221.5t-351 -95.5q-229 0 -347 71.5t-118 178.5zM201 -274q0 -88 98.5 -145.5 t241.5 -57.5q134 0 204 39t70 108q0 37 -29.5 67t-84 51.5t-108 37.5t-125 35.5t-112.5 34.5q-67 -20 -111 -69t-44 -101zM297 569q0 -131 51 -208.5t123 -77.5q83 0 131.5 77t48.5 205q0 129 -51.5 203t-124.5 74q-82 0 -130 -73.5t-48 -199.5z" />
<glyph unicode="h" horiz-adv-x="1206" d="M21.5 1470.5q0.5 22.5 5.5 22.5h379v-799h4q52 95 137.5 154t187.5 59q127 0 211 -92.5t84 -249.5v-299q0 -52 1.5 -84.5t8 -58t13 -38t24 -22t33.5 -12.5t49 -8q6 0 5.5 -22.5t-5.5 -22.5q-59 2 -227 2q-185 0 -244 -2q-4 0 -3.5 22.5t3.5 22.5q29 4 43.5 7t30 12.5 t21 21.5t11 38t6.5 58t1 86v279q0 94 -49 152.5t-131 58.5q-56 0 -100.5 -23.5t-69.5 -60.5q-45 -52 -45 -142v-264q0 -51 2 -84.5t8.5 -58.5t13.5 -38t23.5 -22t31 -12.5t43.5 -7.5q1 0 1.5 -11t0 -22.5t-3.5 -11.5q-59 2 -227 2q-185 0 -244 -2q-3 0 -4 11t0.5 22.5 t5.5 11.5q33 5 48 8t32.5 13.5t22.5 21t11 37.5t6.5 57.5t0.5 85.5v948q0 55 -2 90t-10 61t-16 39t-29 23t-38.5 13t-55.5 8q-6 0 -5.5 22.5z" />
<glyph unicode="i" horiz-adv-x="630" d="M66.5 856.5q0.5 22.5 5.5 22.5h368v-613q0 -52 1.5 -85t8.5 -58t14 -38t25.5 -22t35.5 -12.5t50 -7.5q4 0 6 -11t1 -22.5t-4 -11.5q-59 2 -248 2q-191 0 -250 -2q-3 0 -4 11t0.5 22.5t5.5 11.5q25 3 39 5t30 7.5t23.5 11t16 18t11.5 26.5t6.5 37.5t4 50.5t0.5 67v336 q0 53 -1.5 86t-8.5 59t-14.5 39t-26.5 23.5t-37 14.5t-53 10q-6 0 -5.5 22.5zM180 1198q0 63 38 106.5t101 43.5t101.5 -43.5t38.5 -102.5q0 -61 -38 -102t-102 -41t-101.5 40.5t-37.5 98.5z" />
<glyph unicode="j" horiz-adv-x="587" d="M-26 -584q-2 10 1 13q119 33 169.5 136t50.5 324v713q0 63 -4 100t-11 62t-26.5 38t-39.5 19t-61 13q-6 0 -5.5 22.5t5.5 22.5h369v-985q0 -405 -432 -510q-3 -1 -8.5 10.5t-7.5 21.5zM160 1198q0 63 38 106.5t101 43.5t102 -43.5t39 -102.5q0 -61 -38.5 -102t-102.5 -41 q-62 0 -100.5 40.5t-38.5 98.5z" />
<glyph unicode="k" horiz-adv-x="1081" d="M21.5 1470.5q0.5 22.5 5.5 22.5h379v-1032l188 162q113 100 113 155q0 22 -15.5 36.5t-40.5 19.5q-5 0 -5 24.5t5 24.5q122 -4 211 -4q45 0 197 4q3 0 3.5 -24.5t-3.5 -24.5q-98 -18 -180 -69.5t-222 -172.5l-61 -53q72 -74 209 -234q27 -34 73 -88.5t58 -69.5 q82 -98 158 -104q1 0 2 -11t0.5 -22.5t-4.5 -11.5q-279 2 -328 2q-39 65 -110 160.5t-132 165.5l-116 116v-176q0 -101 13 -146.5t32 -56.5t71 -19q4 -1 6 -1q1 0 1.5 -11t0 -22.5t-3.5 -11.5q-59 2 -227 2q-185 0 -244 -2q-3 0 -4 11t0.5 22.5t5.5 11.5q66 10 82 20 q30 19 36 92q3 39 3 111v948q0 55 -2 90t-10 61t-16 39t-29 23t-38.5 13t-55.5 8q-6 0 -5.5 22.5z" />
<glyph unicode="l" horiz-adv-x="593" d="M34 1470.5q0 22.5 5 22.5h371v-1227q0 -52 1.5 -85t8.5 -58t14 -38t25.5 -22t35.5 -12.5t50 -7.5q4 0 5.5 -11t0.5 -22.5t-4 -11.5q-59 2 -250 2t-250 -2q-3 0 -3.5 11t1 22.5t4.5 11.5q34 4 50.5 7t34.5 12.5t25 21.5t13.5 38t8 58.5t1.5 85.5v948q0 53 -1.5 86t-9 59.5 t-15.5 40t-27 23.5t-37 14.5t-53 10.5q-5 0 -5 22.5z" />
<glyph unicode="m" horiz-adv-x="1804" d="M57.5 856.5q0.5 22.5 5.5 22.5h353v-189h2q122 217 321 217q95 0 169 -57t104 -162h2q125 219 321 219q124 0 207.5 -93.5t83.5 -248.5v-299q0 -52 1.5 -84.5t8.5 -58t13.5 -38t24.5 -22t34 -12.5t49 -8q6 0 5.5 -22.5t-5.5 -22.5q-59 2 -227 2q-185 0 -244 -2 q-4 0 -3.5 22.5t3.5 22.5q29 4 43.5 7t30 12.5t21 21.5t11 38t6.5 58t1 86v279q0 94 -48 152.5t-130 58.5q-55 0 -96.5 -24t-63.5 -60q-31 -43 -31 -113v-293q0 -61 4 -98.5t10 -61.5t23 -36t34 -17t52 -10q1 0 1.5 -11t0 -22.5t-3.5 -11.5q-59 2 -217 2q-185 0 -244 -2 q-3 0 -3.5 11t0 22.5t1.5 11.5q29 4 43.5 7t30.5 12.5t21.5 21.5t11.5 38t7 58.5t1 85.5v279q0 94 -48 152.5t-130 58.5q-55 0 -96.5 -23.5t-65.5 -60.5q-29 -40 -29 -113v-293q0 -61 4 -98.5t10.5 -61.5t23.5 -36t34 -17t51 -10q1 0 1.5 -11t0 -22.5t-3.5 -11.5 q-59 2 -227 2q-185 0 -244 -2q-3 0 -4 11t0.5 22.5t5.5 11.5q33 5 48 8t32.5 13.5t22.5 21t11 37.5t6.5 57.5t0.5 85.5v336q0 77 -4.5 117.5t-23 65.5t-41.5 32.5t-75 16.5q-6 0 -5.5 22.5z" />
<glyph unicode="n" horiz-adv-x="1234" d="M64.5 856.5q0.5 22.5 5.5 22.5h350v-205h4q59 110 148.5 171.5t195.5 61.5q127 0 211 -92.5t84 -249.5v-299q0 -52 1.5 -84.5t8 -58t13 -38t24 -22t33.5 -12.5t49 -8q6 0 5.5 -22.5t-5.5 -22.5q-59 2 -225 2q-185 0 -244 -2q-3 0 -3.5 11t0 22.5t1.5 11.5q29 4 43.5 7 t30.5 12.5t21.5 21.5t11.5 38t7 58.5t1 85.5v279q0 93 -50.5 152t-132.5 59q-55 0 -101.5 -23.5t-72.5 -60.5q-39 -45 -39 -142v-264q0 -61 4 -98.5t10.5 -61.5t23.5 -36t34 -17t51 -10q1 0 1.5 -11t0 -22.5t-3.5 -11.5q-59 2 -229 2q-183 0 -242 -2q-3 0 -4 11t-1 22.5 t1 11.5q34 5 48.5 8.5t33 13t24 21t12.5 37.5t8 58t1 85v336q0 52 -2 85.5t-9.5 59.5t-15 39t-27 23.5t-37 14.5t-52.5 10q-6 0 -5.5 22.5z" />
<glyph unicode="o" horiz-adv-x="1126" d="M80 438q0 201 134.5 336t348.5 135q152 0 262.5 -63.5t164.5 -168t54 -235.5q0 -202 -132 -336.5t-349 -134.5q-151 0 -262 63.5t-166 168t-55 235.5zM330 455q0 -82 14.5 -156t42 -133.5t73 -95t103.5 -35.5q110 0 172 114t62 277q0 82 -14 156t-41.5 133.5t-73.5 95 t-105 35.5q-74 0 -128 -56t-79.5 -143t-25.5 -192z" />
<glyph unicode="p" horiz-adv-x="1157" d="M25.5 856.5q0.5 22.5 5.5 22.5h360v-109h2q51 56 128 95.5t159 39.5q169 0 283 -124t114 -316q0 -143 -69 -258t-184.5 -177.5t-252.5 -62.5q-102 0 -170 21v-281q0 -51 2 -83.5t9.5 -58t16.5 -38.5t29.5 -22.5t41.5 -13.5t59 -7q1 0 1.5 -12t0 -23.5t-3.5 -11.5 q-59 2 -266 2q-181 0 -240 -2q-5 0 -5.5 23.5t5.5 23.5q34 5 48.5 8.5t32 13t23 21t11.5 37.5t7 57.5t1 85.5v895q0 52 -1.5 85.5t-9 59.5t-15 39t-27 23.5t-37.5 14.5t-53 10q-6 0 -5.5 22.5zM401 92q91 -51 170 -51q127 0 200 95.5t73 273.5q0 164 -76 264t-197 100 q-46 0 -93.5 -16.5t-76.5 -42.5v-623z" />
<glyph unicode="q" horiz-adv-x="1138" d="M78 408q0 220 154.5 359.5t400.5 139.5q178 0 350 -49v-1151q0 -62 4 -99t10.5 -61.5t25 -36.5t37.5 -17t58 -9q1 0 1.5 -12t0 -23.5t-3.5 -11.5q-59 2 -242 2q-213 0 -272 -2q-3 0 -3.5 11.5t0 23.5t1.5 12q38 3 59 6.5t41 13.5t29 23t16 38.5t9 58t2 83.5v383h-2 q-52 -51 -126.5 -86t-150.5 -35q-177 0 -288 122t-111 317zM313 463q0 -165 75.5 -265t195.5 -100q47 0 95 17t77 43v620q-80 51 -168 51q-126 0 -200.5 -94.5t-74.5 -271.5z" />
<glyph unicode="r" horiz-adv-x="841" d="M57.5 856.5q0.5 22.5 5.5 22.5h357v-232h10q11 32 43 90q104 172 225 172q58 0 100 -37.5t42 -87.5q0 -48 -47.5 -97.5t-71.5 -49.5q-12 0 -66 42t-82 42q-31 0 -71 -35q-29 -29 -48.5 -86t-19.5 -113v-221q0 -61 5 -99.5t12.5 -61.5t27.5 -35.5t37 -17t55 -9.5 q2 0 3 -22.5t-3 -22.5q-59 2 -243 2q-185 0 -244 -2q-3 0 -3.5 11t0 22.5t1.5 11.5q34 5 48.5 8.5t32.5 13t23.5 21t12 37.5t7.5 57.5t1 85.5v336q0 62 -4.5 99t-11.5 62t-26.5 38.5t-40 19.5t-61.5 13q-6 0 -5.5 22.5z" />
<glyph unicode="s" horiz-adv-x="845" d="M84 281q0 5 27 5.5t28 -3.5q56 -120 133.5 -186t163.5 -66q73 0 119.5 35.5t46.5 95.5q0 27 -13.5 50.5t-30 39t-52.5 35t-58 29t-69 28.5q-50 19 -82.5 34.5t-75 42t-67.5 54.5t-42.5 70t-17.5 92q0 108 89 190t243 82q54 0 116 -17.5t76 -17.5q33 0 50 39q2 5 27.5 5 t25.5 -5l2 -305q0 -3 -14 -3.5t-28 1t-15 4.5q-124 236 -267 236q-68 0 -104.5 -36t-36.5 -81q0 -25 12 -46.5t27.5 -36.5t46.5 -32t53 -27t63 -27q5 -2 9 -3.5t8 -3.5q51 -21 83.5 -36t75.5 -42.5t68 -56.5t43.5 -72t18.5 -94q0 -122 -97 -202.5t-255 -80.5 q-100 0 -188.5 20.5t-123.5 45.5q-3 2 -7 37t-7 92.5t-4 116.5z" />
<glyph unicode="t" horiz-adv-x="765" d="M24 802q-2 20 7 27q254 227 346 326q5 4 20 0.5t15 -8.5v-273h313q6 0 6 -43t-6 -43h-313v-514q0 -83 41 -125.5t104 -42.5q39 0 80.5 30.5t60.5 72.5q1 3 10.5 -1t18.5 -10.5t8 -9.5q-30 -96 -111 -158.5t-182 -62.5q-112 0 -186 71t-74 202v542h-147q-9 0 -11 20z" />
<glyph unicode="u" horiz-adv-x="1212" d="M39 867.5q1 11.5 4 11.5h360v-545q0 -95 45.5 -155t126.5 -60q54 0 98 23.5t70 60.5q43 53 43 143v264q0 51 -2 85t-8.5 58.5t-13.5 38t-23.5 22.5t-31 12.5t-43.5 7.5q-1 0 -1.5 11t0 22.5t3.5 11.5h348v-603q0 -52 1 -85.5t9 -59t15.5 -39t27 -23.5t37.5 -14t53 -10 q6 0 5.5 -22.5t-5.5 -22.5h-352v205h-4q-60 -111 -147.5 -172.5t-192.5 -61.5q-127 0 -206 90.5t-79 247.5v301q0 52 -1.5 84.5t-8.5 58t-13.5 38t-24.5 22t-34 13t-49 8.5q-4 0 -5.5 11t-0.5 22.5z" />
<glyph unicode="v" horiz-adv-x="972" d="M-50 861.5q0 23.5 5 23.5q177 -6 252 -6t252 6q5 0 5 -23.5t-5 -23.5q-56 -8 -77.5 -22.5t-21.5 -45.5q0 -39 54 -180l153 -400l127 342q29 77 40 107.5t21.5 66.5t10.5 56q0 36 -26 53t-95 23q-5 0 -5 23.5t5 23.5q198 -6 201 -6q22 0 74.5 2.5t91.5 3.5q3 0 3.5 -23.5 t-3.5 -23.5q-67 -5 -109 -47q-27 -25 -56 -86.5t-77 -190.5l-129 -330q-2 -6 -33 -86.5t-39 -109.5l-151 -6q-23 71 -95 252.5t-122 295.5q-11 26 -28 65.5t-24.5 56t-19 42.5t-17.5 37t-14 26t-15 23.5t-15 16.5q-18 18 -41 26.5t-72 14.5q-5 0 -5 23.5z" />
<glyph unicode="w" horiz-adv-x="1488" d="M-38.5 873.5q0.5 11.5 3.5 11.5q177 -6 244 -6q79 0 250 6q5 0 5 -23.5t-5 -23.5q-54 -6 -76.5 -21.5t-22.5 -48.5q0 -39 48 -178l135 -371l176 434q-43 117 -70 144q-18 18 -38.5 26.5t-63.5 14.5q-3 0 -3.5 12t1 23.5t4.5 11.5q177 -6 233 -6q59 0 236 6q4 0 4 -23.5 t-4 -23.5q-58 -6 -78 -30q-15 -18 -16 -49q0 -11 2 -23q7 -48 43 -146l135 -369l96 277q30 86 41.5 122.5t21.5 76.5t9 61q0 40 -27 57t-96 23q-3 0 -3.5 12t1 23.5t4.5 11.5q198 -6 199 -6q26 0 79.5 2.5t90.5 3.5q3 0 3.5 -23.5t-3.5 -23.5q-69 -5 -111 -47 q-26 -26 -54.5 -92.5t-82.5 -217.5l-94 -262q-2 -7 -40 -114t-40 -117l-127 -6q-9 32 -89 259.5t-104 284.5l-20 52l-140 -357l-86 -233l-129 -6q-8 29 -93.5 266.5t-104.5 281.5q-9 22 -22.5 57t-20 51.5t-16.5 41.5t-16 37.5t-14.5 28t-16 25t-15.5 17.5q-41 41 -117 50 q-3 0 -4.5 12t-1 23.5z" />
<glyph unicode="x" horiz-adv-x="1011" d="M-2 861.5q0 23.5 4 23.5q177 -6 242 -6q64 0 241 6q5 0 5 -23.5t-5 -23.5q-92 -6 -92 -52q0 -28 29 -75t90 -127l39 -47q158 206 158 249q0 24 -20 36t-73 16q-3 0 -3.5 12t1 23.5t4.5 11.5q132 -4 201 -4q6 0 166 4q3 0 3.5 -23.5t-3.5 -23.5q-78 -7 -125.5 -47.5 t-153.5 -173.5q-13 -17 -20 -25l-84 -109l191 -243q90 -122 118 -150q18 -18 37 -28.5t31 -13.5t37 -7q4 0 4 -23.5t-4 -23.5q-177 6 -228 6q-74 0 -251 -6q-5 0 -5 23.5t5 23.5q88 12 88 55q0 27 -29 73t-94 132l-47 59q-9 -12 -29 -38t-29 -37.5t-25.5 -33.5t-24.5 -33.5 t-20 -29t-18 -28t-12.5 -23.5t-9 -22t-2.5 -17q0 -23 18.5 -36.5t67.5 -20.5q5 0 5 -22.5t-5 -22.5q-132 4 -197 4q-6 0 -166 -4q-3 0 -3.5 22.5t3.5 22.5q30 3 52 8.5t46.5 21.5t40 28t46 47.5t48.5 58.5t64 82l98 127l-174 221q-13 18 -36 49.5t-33 44.5t-23 29t-22 24 q-49 47 -113 56q-4 0 -4 23.5z" />
<glyph unicode="y" horiz-adv-x="968" d="M-46 859.5q0 23.5 5 23.5q118 -4 252 -4q73 0 250 6q5 0 5 -23.5t-5 -23.5q-35 -5 -57 -11.5t-33.5 -21t-14.5 -29.5t4.5 -46t18.5 -60t33 -82l163 -391l127 335q68 177 68 226q0 37 -27.5 53.5t-99.5 22.5q-5 0 -5 25.5t5 25.5q198 -6 203 -6q22 0 73.5 2.5t90.5 3.5 q2 0 3.5 -12.5t1.5 -25.5t-3 -13q-68 -5 -109 -46q-24 -24 -46 -73t-64 -160q-10 -27 -15 -41l-301 -770q-38 -101 -76.5 -167t-80 -101t-82 -48.5t-93.5 -13.5q-52 0 -103.5 21.5t-53.5 38.5v6q0 30 25 94q28 72 48 72q3 0 36 -13t75 -26t66 -13q58 0 98.5 38.5t71.5 123.5 l57 148q-12 43 -135 323t-131 301q-8 20 -22 53.5t-21.5 51t-18.5 43t-18.5 40.5t-16.5 32t-16.5 28t-15.5 19q-18 18 -40.5 26.5t-70.5 14.5q-5 0 -5 23.5z" />
<glyph unicode="z" horiz-adv-x="937" d="M63.5 17q-1.5 23 2.5 30l536 766h-92q-117 0 -187 -26t-105.5 -72t-67.5 -133q-2 -4 -32 -2.5t-30 6.5l18 299q108 -6 390 -6q222 0 362 4q7 0 8.5 -23t-2.5 -29l-536 -765h153q97 0 157.5 25.5t97 74t73.5 141.5q1 6 31 4.5t30 -6.5q-3 -25 -11.5 -136t-12.5 -151 q-2 -24 -49 -24q-183 6 -310 6q-12 0 -417 -6q-5 0 -6.5 23z" />
<glyph unicode="{" horiz-adv-x="749" d="M94.5 435.5q-0.5 25.5 11.5 25.5q84 10 146 29.5t102.5 55t40.5 83.5q0 37 -19 80.5t-46 87.5t-54 92.5t-46 110t-19 124.5q0 144 136.5 238t338.5 102q4 0 6 -11t0 -22.5t-8 -11.5q-291 -40 -291 -205q0 -57 27 -121t59 -112t59 -113.5t27 -124.5q0 -111 -88.5 -194.5 t-222.5 -112.5q132 -29 221.5 -113.5t89.5 -195.5q0 -59 -27 -124t-59 -113t-59 -111.5t-27 -120.5q0 -85 74 -134.5t217 -70.5q6 0 8 -11.5t0 -22.5t-6 -11q-202 8 -338.5 102t-136.5 238q0 63 19 124.5t46 109.5t54 92t46 87.5t19 80.5q0 131 -289 168q-11 0 -11.5 25.5z " />
<glyph unicode="|" horiz-adv-x="454" d="M190 -600v2085q0 5 37 5t37 -5v-2085q0 -4 -37 -4t-37 4z" />
<glyph unicode="}" horiz-adv-x="749" d="M55 -558.5q2 11.5 8 11.5q143 21 217 70.5t74 134.5q0 57 -27 120.5t-59 111.5t-59 113t-27 124q0 110 90 195t222 114q-134 29 -223 112.5t-89 194.5q0 59 27 124.5t59 113.5t59 112t27 121q0 165 -291 205q-6 0 -8 11.5t0 22.5t6 11q202 -8 340 -102t138 -238 q0 -63 -19.5 -124.5t-46.5 -110t-54.5 -92.5t-47 -87.5t-19.5 -80.5q0 -48 40.5 -83.5t102.5 -55t146 -29.5q12 0 11.5 -25.5t-11.5 -25.5q-289 -37 -289 -168q0 -37 19.5 -80.5t47 -87.5t54.5 -92t46.5 -109.5t19.5 -124.5q0 -144 -138 -238t-340 -102q-4 0 -6 11t0 22.5z " />
<glyph unicode="~" horiz-adv-x="845" d="M74 434q13 124 67.5 190.5t137.5 69.5q47 2 112 -26.5t122 -57.5t83 -28q99 3 121 114h53q-15 -125 -67.5 -191t-135.5 -69q-47 -2 -112.5 27t-123.5 58t-85 28q-93 -3 -119 -115h-53z" />
<glyph unicode="&#xa1;" horiz-adv-x="487" d="M102 1200q0 58 40.5 98.5t99.5 40.5q60 0 100.5 -40t40.5 -99q0 -61 -40.5 -101t-100.5 -40q-59 0 -99.5 40.5t-40.5 100.5zM119 129q0 85 46.5 358.5t59.5 438.5q0 4 19.5 4t19.5 -4q9 -170 58 -443.5t49 -353.5q0 -170 -125 -170q-127 0 -127 170z" />
<glyph unicode="&#xa2;" horiz-adv-x="989" d="M78 432q0 132 54.5 238t164.5 171t258 68l6 152q0 12 27.5 12t27.5 -12q-4 -123 -4 -152q52 -4 114 -22.5t77 -18.5q30 0 47 39q2 5 28.5 5t26.5 -5v-338q0 -4 -27.5 -3.5t-29.5 3.5q-51 109 -111.5 183t-124.5 92l-22 -758q2 0 8 -1t8 -1q89 0 165 49t122 127 q4 3 13.5 0.5t19 -8.5t8.5 -10q-40 -109 -135.5 -184t-212.5 -87l-6 -200q0 -8 -14 -11.5t-28 -1t-14 10.5q4 159 4 198q-136 3 -240 68t-157 169t-53 228zM307 469q0 -147 62.5 -247.5t165.5 -127.5l22 754q-114 -3 -182 -109t-68 -270z" />
<glyph unicode="&#xa3;" horiz-adv-x="1005" d="M52 611.5q0 33.5 7 33.5h205q-53 86 -81.5 156t-28.5 149q0 164 127 276.5t315 112.5q104 0 195.5 -41.5t97.5 -91.5q0 -33 -33 -73t-67 -64.5t-44 -24.5q-7 0 -37.5 28.5t-66 63t-84 63t-88.5 28.5q-62 0 -101.5 -44t-39.5 -128q0 -61 33 -128t86.5 -148.5t76.5 -131.5 h275q5 0 5 -33.5t-5 -33.5h-250q12 -44 12 -93q0 -93 -63 -183.5t-150 -135.5q16 -1 43.5 -2.5t49.5 -2.5t42 -1h164q97 0 134 9.5t63 35.5q33 33 71 160q1 4 24.5 1t23.5 -6q-48 -276 -66 -342q-4 -17 -24.5 -21.5t-61.5 -4.5q-11 0 -108 2t-177 2h-94q-226 0 -362 -10 q-8 0 -10 28t3 31q136 65 232 153t96 177q0 29 -13.5 65.5t-28.5 64t-42 71.5h-248q-7 0 -7 33.5z" />
<glyph unicode="&#xa5;" horiz-adv-x="1228" d="M-34 1284.5q0 22.5 5 22.5q82 -4 273 -4q112 0 268 4q4 0 4 -22.5t-4 -22.5q-113 -9 -113 -60q0 -57 82 -192l205 -342l191 338q75 141 75 184q0 33 -28.5 49.5t-89.5 22.5q-4 0 -4 22.5t4 22.5q118 -4 231 -4q4 0 180 4q2 0 3.5 -11.5t1.5 -22.5t-3 -11 q-40 -4 -72 -16.5t-58 -31.5t-54.5 -55.5t-53 -75.5t-61.5 -104l-211 -367h342q3 0 3 -31.5t-3 -31.5h-354l2 -172h352q3 0 3 -31t-3 -31h-352v-61q0 -140 29 -170t154 -40q7 -1 10 -1q1 0 2 -11t0.5 -22.5t-4.5 -11.5q-37 2 -300 2q-155 0 -311 -4q-3 0 -3.5 12t0 23.5 t1.5 11.5l55.5 3t43 5t35 9.5t24.5 16.5t18.5 25t10 36.5t7 49.5t1.5 66v61h-357q-3 0 -3 31t3 31h359l2 172h-361q-3 0 -3 31.5t3 31.5h342l-274 424q-86 131 -116 163q-49 54 -118 62q-3 1 -6 1q-5 0 -5 22.5z" />
<glyph unicode="&#xa7;" horiz-adv-x="1097" d="M102 549q0 91 52.5 168.5t136.5 124.5q-72 82 -72 172q0 138 117.5 231.5t288.5 93.5q117 0 203 -40.5t94 -92.5q0 -45 -46 -99t-63 -54q-7 0 -42 28.5t-76.5 62.5t-96 62.5t-96.5 28.5q-60 0 -95.5 -35t-35.5 -86q0 -25 9 -48.5t31 -47t41 -40.5t58 -41.5t61.5 -37 t70.5 -39.5q24 -13 36 -20q60 -33 99.5 -57.5t88.5 -61t77.5 -70.5t48.5 -79t20 -93q0 -94 -55 -172.5t-144 -124.5q84 -84 84 -184q0 -142 -119 -239t-289 -97q-123 0 -214 45t-99 98q-1 45 45.5 99.5t63.5 54.5q7 0 43.5 -30t80 -66t102 -66t103.5 -30q61 0 96 38t35 91 q0 18 -5 35.5t-12.5 32.5t-22 31.5t-27.5 29t-34.5 28.5t-37.5 27t-43.5 27.5t-44.5 26.5t-47 27t-47 27q-58 33 -97.5 58t-85.5 62t-73.5 71t-46.5 78.5t-19 91.5zM252 651q0 -59 58 -118t132 -101.5t174.5 -104t157.5 -110.5q86 50 86 156q0 48 -36.5 94t-98.5 86.5 t-128.5 77.5t-142.5 84.5t-124 89.5q-78 -53 -78 -154z" />
<glyph unicode="&#xa8;" horiz-adv-x="774" d="M45 1163q0 57 37 97t94 40q58 0 94.5 -40t36.5 -95q0 -56 -36.5 -95.5t-94.5 -39.5q-57 0 -94 39.5t-37 93.5zM467 1165q0 57 37.5 97.5t93.5 40.5q58 0 94.5 -40.5t36.5 -95.5q0 -56 -36.5 -96.5t-94.5 -40.5q-57 0 -94 40.5t-37 94.5z" />
<glyph unicode="&#xa9;" horiz-adv-x="1560" d="M94 655q0 139 54.5 265.5t146 218t218 146t265.5 54.5t265.5 -54.5t218 -146t146 -218t54.5 -265.5t-54.5 -265.5t-146 -218t-218 -146t-265.5 -54.5t-265.5 54.5t-218 146t-146 218t-54.5 265.5zM150 655q0 -171 84 -316.5t228.5 -230.5t315.5 -85t315.5 85t228 230.5 t83.5 316.5q0 128 -49.5 245t-133 201.5t-200 134.5t-244.5 50q-171 0 -315.5 -84.5t-228.5 -230t-84 -316.5zM403 651q0 168 112 269.5t280 101.5q44 0 106.5 -12.5t75.5 -12.5q27 0 37 21q2 2 16 1.5t14 -3.5l7 -228q0 -3 -13.5 -4t-15.5 2q-53 106 -101.5 151.5 t-119.5 45.5q-103 0 -165.5 -80t-62.5 -237q0 -154 63 -248t171 -94q152 0 225 211q1 1 9 0.5t17 -4t9 -7.5q1 -23 -12.5 -100t-18.5 -84q-19 -17 -89 -35t-156 -18q-164 0 -276 100.5t-112 263.5z" />
<glyph unicode="&#xaa;" horiz-adv-x="712" d="M72 846q0 93 88 152t252 59l2 37q3 63 -34.5 100t-98.5 37q-45 0 -91 -28t-77 -73q-29 25 -29 27q28 68 105 123t161 55q97 0 157.5 -61.5t57.5 -167.5l-8 -240q-1 -41 14 -60.5t37 -19.5t41.5 19.5t28.5 48.5q0 1 7 -4.5t14.5 -11.5t7.5 -7q-38 -137 -160 -137 q-47 0 -82.5 27.5t-52.5 77.5q-20 -45 -67 -75t-105 -30q-66 0 -117 45.5t-51 106.5zM225 885q0 -45 27 -73t65 -28q40 0 82 39q7 7 7 19l6 176q-104 -3 -156 -55q-31 -36 -31 -78z" />
<glyph unicode="&#xab;" horiz-adv-x="974" d="M67 412.5q0 15.5 9 21.5q208 151 420 326q1 1 10.5 -6t18 -15.5t5.5 -11.5l-235 -313l235 -318q3 -3 -5.5 -11.5t-18 -15.5t-10.5 -6q-233 194 -420 328q-9 6 -9 21.5zM480 412.5q0 15.5 9 21.5q300 239 400 326q1 1 11 -6t18.5 -15.5t5.5 -11.5l-236 -313l236 -318 q3 -3 -5.5 -11.5t-18.5 -15.5t-11 -6q-189 160 -400 328q-9 6 -9 21.5z" />
<glyph unicode="&#xad;" horiz-adv-x="595" d="M48 536q0 42 3 42h494q3 0 3 -42t-3 -42h-494q-3 0 -3 42z" />
<glyph unicode="&#xae;" horiz-adv-x="1560" d="M94 655q0 139 54.5 265.5t146 218t218 146t265.5 54.5t265.5 -54.5t218 -146t146 -218t54.5 -265.5t-54.5 -265.5t-146 -218t-218 -146t-265.5 -54.5t-265.5 54.5t-218 146t-146 218t-54.5 265.5zM150 655q0 -171 84 -316.5t228.5 -230.5t315.5 -85t315.5 85t228 230.5 t83.5 316.5q0 128 -49.5 245t-133 201.5t-200 134.5t-244.5 50q-171 0 -315.5 -84.5t-228.5 -230t-84 -316.5zM451 320.5q0 6.5 2 7.5q60 8 77 27.5t17 82.5v434q0 62 -17 82t-77 27q-2 1 -2 7.5t1.5 14t2.5 7.5q51 -2 170 -2q27 0 101 4t89 4q122 0 181 -50.5t59 -127.5 q0 -69 -45 -119.5t-121 -79.5q36 -24 76.5 -72.5t70.5 -101.5q62 -103 70 -111q18 -18 72 -24q2 0 2.5 -15.5t-2.5 -15.5q-13 0 -85 2t-100 2h-32q-5 6 -58.5 104.5t-81.5 139.5q-22 32 -41 46.5t-45 14.5q-27 0 -47 -4v-166q0 -61 20.5 -81t88.5 -29q2 -1 2 -7.5t-2 -14 t-4 -7.5q-46 4 -168 4q-68 0 -170 -4q-1 0 -2.5 7.5t-1.5 14zM688 659q37 -12 100 -12q43 0 70 27q45 45 45 125q0 75 -42 126.5t-120 51.5q-35 0 -53 -6v-312z" />
<glyph unicode="&#xaf;" horiz-adv-x="733" d="M88 1085v121h557v-121h-557z" />
<glyph unicode="&#xb0;" horiz-adv-x="641" d="M80 1094q0 103 68.5 173t170.5 70q103 0 172.5 -69.5t69.5 -171.5q0 -103 -71.5 -174.5t-174.5 -71.5q-102 0 -168.5 70.5t-66.5 173.5zM141 1094q0 -76 50 -131.5t124 -55.5q76 0 130.5 56t54.5 133q0 76 -52.5 130t-128.5 54t-127 -54.5t-51 -131.5z" />
<glyph unicode="&#xb4;" horiz-adv-x="696" d="M166 1008l211 389h285l-451 -389h-45z" />
<glyph unicode="&#xb6;" horiz-adv-x="1482" d="M109 651q0 140 44.5 259.5t128.5 208.5t213.5 139.5t290.5 50.5h54v-1315h-52q-320 0 -499.5 172t-179.5 485zM997 -6v1311q235 4 449 30q6 0 6 -26.5t-6 -26.5l-301 -35v-1198l301 -35q6 0 6 -25.5t-6 -25.5q-224 28 -449 31z" />
<glyph unicode="&#xb7;" horiz-adv-x="491" d="M98 449q0 64 42 106.5t104 42.5q64 0 106.5 -43t42.5 -106q0 -62 -43 -105t-104 -43q-64 0 -106 42.5t-42 105.5z" />
<glyph unicode="&#xb8;" horiz-adv-x="696" d="M80 -387q-2 3 3.5 12t12.5 16.5t8 6.5q80 -80 199 -80q65 0 104 30t39 74q0 59 -54.5 88t-139.5 29q-5 0 -15 -1t-14 -1l94 225h68l-53 -131h24q112 0 178 -51.5t66 -128.5q0 -86 -78 -142.5t-188 -56.5q-76 0 -143 30t-111 81z" />
<glyph unicode="&#xba;" horiz-adv-x="770" d="M57 1018q0 135 90.5 227t235.5 92q158 0 244 -90t86 -227q0 -135 -90.5 -225t-239.5 -90q-157 0 -241.5 88t-84.5 225zM233 1032q0 -73 13.5 -133.5t49 -103.5t87.5 -43q74 0 113 74t39 184q0 54 -8 100.5t-24.5 87.5t-47.5 64.5t-72 23.5q-72 0 -111 -72.5t-39 -181.5z " />
<glyph unicode="&#xbb;" horiz-adv-x="995" d="M78 96l235 318l-235 313q-3 3 5.5 11.5t18.5 15.5t11 6q110 -96 399 -326q9 -6 9 -21.5t-9 -21.5q-194 -155 -399 -328q-1 -1 -11 6t-18.5 15.5t-5.5 11.5zM471 96l236 318l-236 313q-3 3 5.5 11.5t18.5 15.5t11 6q212 -175 420 -326q9 -6 9 -21.5t-9 -21.5 q-187 -134 -420 -328q-1 -1 -11 6t-18.5 15.5t-5.5 11.5z" />
<glyph unicode="&#xbf;" horiz-adv-x="813" d="M53 262q0 52 17 98.5t49.5 85t64 66.5t74.5 59q39 30 64 51t54.5 53t46.5 61t28.5 68t11.5 83q0 5 -1 16.5t-1 16.5q0 6 17.5 7.5t19.5 -5.5q16 -66 16 -113q0 -69 -25 -131t-60.5 -107t-71 -87t-60.5 -89t-25 -94q0 -89 58 -143t145 -54q78 0 142.5 45t97.5 111 q3 6 17 0.5t13 -12.5q-30 -127 -127 -208t-231 -81q-139 0 -236.5 86t-97.5 217zM322 1200q0 58 41.5 98.5t99.5 40.5q60 0 99.5 -40t39.5 -99q0 -61 -39.5 -101t-99.5 -40q-59 0 -100 40.5t-41 100.5z" />
<glyph unicode="&#xc0;" d="M-7.5 18.5q-0.5 22.5 3.5 22.5q68 9 106 47q31 31 61.5 102t74.5 211l235 742q23 70 31 153q0 9 106.5 17t108.5 2l328 -953q25 -73 43.5 -121.5t38 -85t35 -56t38 -32.5t43.5 -18t55 -8q4 0 4 -22.5t-4 -22.5q-82 4 -278 4q-137 0 -293 -4q-5 0 -5 22.5t5 22.5 q109 10 126.5 63t-30.5 189l-75 223h-400q-94 -310 -94 -379q0 -49 29.5 -70t95.5 -26q3 0 3.5 -11t-1 -22.5t-4.5 -11.5q-118 4 -211 4q-19 0 -41 -0.5t-60 -1.5t-71 -2q-3 0 -3.5 22.5zM106 1829h289l209 -389h-47zM373 586h354l-184 551h-4z" />
<glyph unicode="&#xc1;" d="M-7.5 18.5q-0.5 22.5 3.5 22.5q68 9 106 47q31 31 61.5 102t74.5 211l235 742q23 70 31 153q0 9 106.5 17t108.5 2l328 -953q25 -73 43.5 -121.5t38 -85t35 -56t38 -32.5t43.5 -18t55 -8q4 0 4 -22.5t-4 -22.5q-82 4 -278 4q-137 0 -293 -4q-5 0 -5 22.5t5 22.5 q109 10 126.5 63t-30.5 189l-75 223h-400q-94 -310 -94 -379q0 -49 29.5 -70t95.5 -26q3 0 3.5 -11t-1 -22.5t-4.5 -11.5q-118 4 -211 4q-19 0 -41 -0.5t-60 -1.5t-71 -2q-3 0 -3.5 22.5zM373 586h354l-184 551h-4zM514 1440l211 389h285l-451 -389h-45z" />
<glyph unicode="&#xc2;" d="M-7.5 18.5q-0.5 22.5 3.5 22.5q68 9 106 47q31 31 61.5 102t74.5 211l235 742q23 70 31 153q0 9 106.5 17t108.5 2l328 -953q25 -73 43.5 -121.5t38 -85t35 -56t38 -32.5t43.5 -18t55 -8q4 0 4 -22.5t-4 -22.5q-82 4 -278 4q-137 0 -293 -4q-5 0 -5 22.5t5 22.5 q109 10 126.5 63t-30.5 189l-75 223h-400q-94 -310 -94 -379q0 -49 29.5 -70t95.5 -26q3 0 3.5 -11t-1 -22.5t-4.5 -11.5q-118 4 -211 4q-19 0 -41 -0.5t-60 -1.5t-71 -2q-3 0 -3.5 22.5zM276 1423l224 408h172l221 -408h-49l-258 248l-260 -248h-50zM373 586h354l-184 551 h-4z" />
<glyph unicode="&#xc3;" d="M-7.5 18.5q-0.5 22.5 3.5 22.5q68 9 106 47q31 31 61.5 102t74.5 211l235 742q23 70 31 153q0 9 106.5 17t108.5 2l328 -953q25 -73 43.5 -121.5t38 -85t35 -56t38 -32.5t43.5 -18t55 -8q4 0 4 -22.5t-4 -22.5q-82 4 -278 4q-137 0 -293 -4q-5 0 -5 22.5t5 22.5 q109 10 126.5 63t-30.5 189l-75 223h-400q-94 -310 -94 -379q0 -49 29.5 -70t95.5 -26q3 0 3.5 -11t-1 -22.5t-4.5 -11.5q-118 4 -211 4q-19 0 -41 -0.5t-60 -1.5t-71 -2q-3 0 -3.5 22.5zM322 1464q13 124 67 190.5t137 69.5q47 2 112 -26.5t122.5 -57.5t83.5 -28 q99 3 121 114h53q-15 -125 -67.5 -191t-135.5 -69q-47 -2 -112.5 27t-123.5 58t-85 28q-93 -3 -119 -115h-53zM373 586h354l-184 551h-4z" />
<glyph unicode="&#xc4;" d="M-7.5 18.5q-0.5 22.5 3.5 22.5q68 9 106 47q31 31 61.5 102t74.5 211l235 742q23 70 31 153q0 9 106.5 17t108.5 2l328 -953q25 -73 43.5 -121.5t38 -85t35 -56t38 -32.5t43.5 -18t55 -8q4 0 4 -22.5t-4 -22.5q-82 4 -278 4q-137 0 -293 -4q-5 0 -5 22.5t5 22.5 q109 10 126.5 63t-30.5 189l-75 223h-400q-94 -310 -94 -379q0 -49 29.5 -70t95.5 -26q3 0 3.5 -11t-1 -22.5t-4.5 -11.5q-118 4 -211 4q-19 0 -41 -0.5t-60 -1.5t-71 -2q-3 0 -3.5 22.5zM291 1595q0 57 37 97.5t94 40.5q58 0 94.5 -40.5t36.5 -95.5q0 -56 -36.5 -95.5 t-94.5 -39.5q-57 0 -94 39.5t-37 93.5zM373 586h354l-184 551h-4zM713 1597q0 57 37.5 97.5t93.5 40.5q58 0 94.5 -40.5t36.5 -95.5q0 -56 -36.5 -96.5t-94.5 -40.5q-57 0 -94 40.5t-37 94.5z" />
<glyph unicode="&#xc5;" d="M-7.5 18.5q-0.5 22.5 3.5 22.5q68 9 106 47q31 31 61.5 102t74.5 211l235 742q29 97 33 135q-42 25 -66 70.5t-24 101.5q0 90 54.5 145.5t143.5 55.5t144 -56t55 -145q0 -52 -23 -95t-61 -69l318 -924q25 -73 43.5 -121.5t38 -85t35 -56t38 -32.5t43.5 -18t55 -8 q4 0 4 -22.5t-4 -22.5q-82 4 -278 4q-137 0 -293 -4q-5 0 -5 22.5t5 22.5q109 10 127 63.5t-31 188.5l-75 223h-400q-51 -169 -72.5 -252t-21.5 -127q0 -50 29.5 -70.5t95.5 -25.5q3 0 3.5 -11t-1 -22.5t-4.5 -11.5q-118 4 -211 4q-19 0 -41 -0.5t-60 -1.5t-71 -2 q-3 0 -3.5 22.5zM373 586h354l-184 551h-4zM483 1454q0 -61 37.5 -103t95.5 -42t92.5 39.5t34.5 99.5t-37 102.5t-94 42.5q-58 0 -93.5 -39.5t-35.5 -99.5z" />
<glyph unicode="&#xc6;" horiz-adv-x="1695" d="M-99.5 18.5q-0.5 22.5 3.5 22.5q74 8 127 53q37 33 81.5 100.5t123.5 206.5l364 629q68 123 68 164q0 29 -27 42.5t-106 20.5q-1 0 -1.5 12t0 24t3.5 12q74 -2 301 -2h364q109 0 305 8q6 0 11.5 -5t5.5 -12q10 -163 10 -276q0 -2 -15 -4t-27.5 -2t-14.5 2q-22 83 -57 128 t-106.5 68t-193.5 23h-90q-31 0 -31 -8v-529q87 2 107 4q111 3 165.5 12t76.5 31q17 17 25.5 45t19.5 86q1 4 29 3.5t28 -5.5q-6 -75 -6 -202q0 -105 8 -207q0 -3 -15 -5t-29.5 -2t-14.5 3q-19 99 -45 125t-79 37t-167 12l-103 2v-320q0 -97 9.5 -142t35.5 -71 q41 -41 160 -41h31q134 0 203 60t112 211q2 4 32 2.5t30 -6.5q-6 -58 -37 -299q-3 -26 -12 -31.5t-45 -3.5q-159 6 -390 6h-165q-293 0 -367 -2q-3 0 -3.5 11t0 22.5t1.5 11.5q104 6 129 31q20 20 27.5 63t7.5 131v248h-377q-150 -273 -176 -335q-21 -50 -21 -77 q0 -31 25 -44.5t80 -18.5q5 0 5 -22.5t-5 -22.5q-118 4 -209 4l-176 -4q-3 0 -3.5 22.5zM420 586h338v446q0 60 -10 137z" />
<glyph unicode="&#xc7;" horiz-adv-x="1376" d="M100 651q0 133 47 255.5t134 219.5t223 155t301 58q73 0 145 -13.5t124 -27.5t75 -14q25 0 47 39q2 3 26.5 2.5t24.5 -4.5l13 -373q0 -5 -27.5 -6.5t-30.5 4.5q-141 338 -397 338q-134 0 -233 -81t-149 -222.5t-50 -325.5q0 -289 124.5 -460.5t327.5 -171.5q142 0 246 94 q96 90 158 270q1 5 30 1.5t29 -9.5q-24 -293 -41 -303q-154 -109 -428 -109h-14l-35 -86h27q112 0 176.5 -51t64.5 -129q0 -86 -77.5 -142.5t-186.5 -56.5q-76 0 -144 30t-112 81q-2 3 4 12t13 16.5t8 6.5q37 -37 90 -58.5t110 -21.5q65 0 103.5 30t38.5 74q0 59 -54 88 t-139 29q-5 0 -15.5 -1t-14.5 -1l75 182q-154 11 -277.5 70.5t-201 153.5t-118 211t-40.5 247z" />
<glyph unicode="&#xc8;" horiz-adv-x="1189" d="M90.5 9q-0.5 11 0 22.5t1.5 11.5q43 3 64.5 5.5t44 11.5t30.5 19.5t15.5 36.5t8.5 55.5t1 82.5v793q0 53 -1 82.5t-8.5 55t-15.5 36.5t-30.5 19.5t-43.5 11t-65 5.5q-1 0 -1.5 12t0 24t3.5 12q74 -2 287 -2h319q110 0 306 8q6 0 12 -5t6 -12q10 -163 10 -276q0 -2 -15 -4 t-27.5 -2t-14.5 2q-22 83 -57 128t-106 68t-193 23h-91q-30 0 -30 -8v-529l106 4q114 3 166 12t74 31q29 29 45 131q0 3 14.5 3.5t29.5 -1t15 -4.5q-6 -75 -6 -202q0 -105 8 -207q0 -3 -15 -5t-30.5 -2t-15.5 3q-17 97 -45 125q-26 26 -80.5 36.5t-163.5 12.5l-102 2v-320 q0 -99 8.5 -143t34.5 -70q41 -41 159 -41h33q134 0 203.5 60.5t112.5 210.5q1 4 31 2.5t30 -6.5q-6 -58 -37 -299q-3 -26 -12 -31.5t-45 -3.5q-159 6 -389 6h-166q-295 0 -369 -2q-3 0 -3.5 11zM158 1829h288l209 -389h-47z" />
<glyph unicode="&#xc9;" horiz-adv-x="1189" d="M90.5 9q-0.5 11 0 22.5t1.5 11.5q43 3 64.5 5.5t44 11.5t30.5 19.5t15.5 36.5t8.5 55.5t1 82.5v793q0 53 -1 82.5t-8.5 55t-15.5 36.5t-30.5 19.5t-43.5 11t-65 5.5q-1 0 -1.5 12t0 24t3.5 12q74 -2 287 -2h319q110 0 306 8q6 0 12 -5t6 -12q10 -163 10 -276q0 -2 -15 -4 t-27.5 -2t-14.5 2q-22 83 -57 128t-106 68t-193 23h-91q-30 0 -30 -8v-529l106 4q114 3 166 12t74 31q29 29 45 131q0 3 14.5 3.5t29.5 -1t15 -4.5q-6 -75 -6 -202q0 -105 8 -207q0 -3 -15 -5t-30.5 -2t-15.5 3q-17 97 -45 125q-26 26 -80.5 36.5t-163.5 12.5l-102 2v-320 q0 -99 8.5 -143t34.5 -70q41 -41 159 -41h33q134 0 203.5 60.5t112.5 210.5q1 4 31 2.5t30 -6.5q-6 -58 -37 -299q-3 -26 -12 -31.5t-45 -3.5q-159 6 -389 6h-166q-295 0 -369 -2q-3 0 -3.5 11zM422 1440l211 389h285l-451 -389h-45z" />
<glyph unicode="&#xca;" horiz-adv-x="1189" d="M90.5 9q-0.5 11 0 22.5t1.5 11.5q43 3 64.5 5.5t44 11.5t30.5 19.5t15.5 36.5t8.5 55.5t1 82.5v793q0 53 -1 82.5t-8.5 55t-15.5 36.5t-30.5 19.5t-43.5 11t-65 5.5q-1 0 -1.5 12t0 24t3.5 12q74 -2 287 -2h319q110 0 306 8q6 0 12 -5t6 -12q10 -163 10 -276q0 -2 -15 -4 t-27.5 -2t-14.5 2q-22 83 -57 128t-106 68t-193 23h-91q-30 0 -30 -8v-529l106 4q114 3 166 12t74 31q29 29 45 131q0 3 14.5 3.5t29.5 -1t15 -4.5q-6 -75 -6 -202q0 -105 8 -207q0 -3 -15 -5t-30.5 -2t-15.5 3q-17 97 -45 125q-26 26 -80.5 36.5t-163.5 12.5l-102 2v-320 q0 -99 8.5 -143t34.5 -70q41 -41 159 -41h33q134 0 203.5 60.5t112.5 210.5q1 4 31 2.5t30 -6.5q-6 -58 -37 -299q-3 -26 -12 -31.5t-45 -3.5q-159 6 -389 6h-166q-295 0 -369 -2q-3 0 -3.5 11zM240 1423l223 408h172l221 -408h-49l-258 248l-260 -248h-49z" />
<glyph unicode="&#xcb;" horiz-adv-x="1189" d="M90.5 9q-0.5 11 0 22.5t1.5 11.5q43 3 64.5 5.5t44 11.5t30.5 19.5t15.5 36.5t8.5 55.5t1 82.5v793q0 53 -1 82.5t-8.5 55t-15.5 36.5t-30.5 19.5t-43.5 11t-65 5.5q-1 0 -1.5 12t0 24t3.5 12q74 -2 287 -2h319q110 0 306 8q6 0 12 -5t6 -12q10 -163 10 -276q0 -2 -15 -4 t-27.5 -2t-14.5 2q-22 83 -57 128t-106 68t-193 23h-91q-30 0 -30 -8v-529l106 4q114 3 166 12t74 31q29 29 45 131q0 3 14.5 3.5t29.5 -1t15 -4.5q-6 -75 -6 -202q0 -105 8 -207q0 -3 -15 -5t-30.5 -2t-15.5 3q-17 97 -45 125q-26 26 -80.5 36.5t-163.5 12.5l-102 2v-320 q0 -99 8.5 -143t34.5 -70q41 -41 159 -41h33q134 0 203.5 60.5t112.5 210.5q1 4 31 2.5t30 -6.5q-6 -58 -37 -299q-3 -26 -12 -31.5t-45 -3.5q-159 6 -389 6h-166q-295 0 -369 -2q-3 0 -3.5 11zM240 1595q0 57 37 97.5t94 40.5q58 0 94.5 -40.5t36.5 -95.5 q0 -56 -36.5 -95.5t-94.5 -39.5q-57 0 -94 39.5t-37 93.5zM662 1597q0 57 37.5 97.5t93.5 40.5q58 0 94.5 -40.5t36.5 -95.5q0 -56 -36.5 -96.5t-94.5 -40.5q-57 0 -94 40.5t-37 94.5z" />
<glyph unicode="&#xcc;" horiz-adv-x="792" d="M-53 1827h289l208 -389h-47zM89.5 31.5q0.5 11.5 2.5 11.5q36 2 53 3t40.5 5t32.5 9t22 16t16.5 24.5t8.5 36.5t6 50t1 67v795q0 40 -1 67t-5.5 50t-8.5 36.5t-17 25t-22 16.5t-32.5 9.5t-41 5.5l-52.5 3q-2 0 -2.5 11t0.5 21.5t4 10.5q76 -2 307 -2q258 0 295 2 q4 0 4.5 -10.5t-0.5 -21.5t-2 -11q-101 -9 -127 -21q-40 -17 -50 -77q-7 -38 -7 -115v-795q0 -51 2 -82.5t10.5 -55.5t18.5 -35.5t31.5 -19.5t44.5 -10.5t63 -6.5q9 -1 14 -1q1 0 2 -11t0.5 -22.5t-4.5 -11.5q-37 2 -295 2q-231 0 -307 -2q-3 0 -4 11t-0.5 22.5z" />
<glyph unicode="&#xcd;" horiz-adv-x="792" d="M89.5 31.5q0.5 11.5 2.5 11.5q36 2 53 3t40.5 5t32.5 9t22 16t16.5 24.5t8.5 36.5t6 50t1 67v795q0 40 -1 67t-5.5 50t-8.5 36.5t-17 25t-22 16.5t-32.5 9.5t-41 5.5l-52.5 3q-2 0 -2.5 11t0.5 21.5t4 10.5q76 -2 307 -2q258 0 295 2q4 0 4.5 -10.5t-0.5 -21.5t-2 -11 q-101 -9 -127 -21q-40 -17 -50 -77q-7 -38 -7 -115v-795q0 -51 2 -82.5t10.5 -55.5t18.5 -35.5t31.5 -19.5t44.5 -10.5t63 -6.5q9 -1 14 -1q1 0 2 -11t0.5 -22.5t-4.5 -11.5q-37 2 -295 2q-231 0 -307 -2q-3 0 -4 11t-0.5 22.5zM293 1440l211 389h284l-450 -389h-45z" />
<glyph unicode="&#xce;" horiz-adv-x="792" d="M49 1423l223 408h172l222 -408h-50l-258 248l-260 -248h-49zM89.5 31.5q0.5 11.5 2.5 11.5q36 2 53 3t40.5 5t32.5 9t22 16t16.5 24.5t8.5 36.5t6 50t1 67v795q0 40 -1 67t-5.5 50t-8.5 36.5t-17 25t-22 16.5t-32.5 9.5t-41 5.5l-52.5 3q-2 0 -2.5 11t0.5 21.5t4 10.5 q76 -2 307 -2q258 0 295 2q4 0 4.5 -10.5t-0.5 -21.5t-2 -11q-101 -9 -127 -21q-40 -17 -50 -77q-7 -38 -7 -115v-795q0 -51 2 -82.5t10.5 -55.5t18.5 -35.5t31.5 -19.5t44.5 -10.5t63 -6.5q9 -1 14 -1q1 0 2 -11t0.5 -22.5t-4.5 -11.5q-37 2 -295 2q-231 0 -307 -2 q-3 0 -4 11t-0.5 22.5z" />
<glyph unicode="&#xcf;" horiz-adv-x="792" d="M49 1595q0 57 37 97.5t94 40.5q58 0 94.5 -40.5t36.5 -95.5q0 -56 -36.5 -95.5t-94.5 -39.5q-57 0 -94 39.5t-37 93.5zM89.5 31.5q0.5 11.5 2.5 11.5q36 2 53 3t40.5 5t32.5 9t22 16t16.5 24.5t8.5 36.5t6 50t1 67v795q0 40 -1 67t-5.5 50t-8.5 36.5t-17 25t-22 16.5 t-32.5 9.5t-41 5.5l-52.5 3q-2 0 -2.5 11t0.5 21.5t4 10.5q76 -2 307 -2q258 0 295 2q4 0 4.5 -10.5t-0.5 -21.5t-2 -11q-101 -9 -127 -21q-40 -17 -50 -77q-7 -38 -7 -115v-795q0 -51 2 -82.5t10.5 -55.5t18.5 -35.5t31.5 -19.5t44.5 -10.5t63 -6.5q9 -1 14 -1q1 0 2 -11 t0.5 -22.5t-4.5 -11.5q-37 2 -295 2q-231 0 -307 -2q-3 0 -4 11t-0.5 22.5zM471 1597q0 57 37.5 97.5t93.5 40.5q58 0 94.5 -40.5t36.5 -95.5q0 -56 -36.5 -96.5t-94.5 -40.5q-57 0 -94 40.5t-37 94.5z" />
<glyph unicode="&#xd0;" horiz-adv-x="1525" d="M91.5 31.5q0.5 11.5 2.5 11.5q43 3 64.5 5.5t44 11.5t30.5 20t15.5 37t8.5 56t1 83v365h-162q-3 0 -3 35.5t3 35.5h162v355q0 53 -1 83t-8.5 56t-15.5 37t-30.5 20t-44 11.5t-64.5 5.5q-2 0 -2.5 11t0.5 22.5t4 11.5q76 -2 254 -2q34 0 184 7t183 7q169 0 307 -50 t228 -137t139 -204t49 -252q0 -148 -51 -271.5t-146 -214t-239.5 -141t-323.5 -51.5q-16 0 -135 2t-158 2q-215 0 -291 -2q-3 0 -4 11t-0.5 22.5zM500 262q0 -136 26 -162q19 -19 72.5 -31t110.5 -12q218 0 338 156t120 438q0 148 -39 264.5t-107.5 188.5t-157 109.5 t-191.5 37.5q-107 0 -172 -20v-539h297q3 0 3 -35.5t-3 -35.5h-297v-359z" />
<glyph unicode="&#xd1;" horiz-adv-x="1513" d="M82 1284.5q0 22.5 4 22.5q156 -4 254 -4q30 0 84 1t78 1q86 -140 145 -220l555 -757h2l-4 573q0 84 -2.5 137t-11.5 94.5t-20 63t-35.5 36.5t-50 20.5t-70.5 9.5q-2 0 -2 11t1 21.5t3 10.5q38 -1 119 -4t114 -3q21 0 207 7q3 0 3 -21.5t-3 -21.5q-38 -4 -60.5 -9.5 t-43.5 -20t-31.5 -37.5t-19 -64.5t-11 -96.5t-2.5 -139l-2 -508q0 -219 12 -391q0 -6 -70 -10t-73 2l-809 1106h-2l4 -697q0 -83 2.5 -136t11.5 -94t20 -62t36 -35.5t50 -19t71 -9.5q2 0 2 -11t-1.5 -22.5t-3.5 -11.5q-180 4 -233 4q-101 0 -207 -4q-3 0 -3 22.5t3 22.5 q39 4 60.5 9t43.5 19.5t32 36t18.5 62.5t11 96t2.5 139l2 625q0 150 -47 197q-17 17 -45.5 24.5t-83.5 12.5q-4 0 -4 22.5zM467 1464q13 124 67.5 190.5t137.5 69.5q47 2 112 -26.5t122 -57.5t83 -28q99 3 121 114h53q-15 -125 -67 -191t-135 -69q-47 -2 -113 27t-124 58 t-85 28q-93 -3 -119 -115h-53z" />
<glyph unicode="&#xd2;" horiz-adv-x="1583" d="M94 649q0 105 28 204.5t86 188t139.5 154.5t196.5 104.5t249 38.5t248.5 -38t195.5 -103.5t138.5 -152.5t85.5 -186t28 -204q0 -133 -46 -255t-131.5 -220t-221.5 -156.5t-302 -58.5q-167 0 -302 58t-219 155t-128.5 218t-44.5 253zM367 655q0 -286 115.5 -459 t310.5 -173q197 0 309 168.5t112 457.5q0 287 -115 460t-311 173q-197 0 -309 -169t-112 -458zM385 1829h289l209 -389h-47z" />
<glyph unicode="&#xd3;" horiz-adv-x="1583" d="M94 649q0 105 28 204.5t86 188t139.5 154.5t196.5 104.5t249 38.5t248.5 -38t195.5 -103.5t138.5 -152.5t85.5 -186t28 -204q0 -133 -46 -255t-131.5 -220t-221.5 -156.5t-302 -58.5q-167 0 -302 58t-219 155t-128.5 218t-44.5 253zM367 655q0 -286 115.5 -459 t310.5 -173q197 0 309 168.5t112 457.5q0 287 -115 460t-311 173q-197 0 -309 -169t-112 -458zM731 1440l211 389h285l-451 -389h-45z" />
<glyph unicode="&#xd4;" horiz-adv-x="1583" d="M94 649q0 105 28 204.5t86 188t139.5 154.5t196.5 104.5t249 38.5t248.5 -38t195.5 -103.5t138.5 -152.5t85.5 -186t28 -204q0 -133 -46 -255t-131.5 -220t-221.5 -156.5t-302 -58.5q-167 0 -302 58t-219 155t-128.5 218t-44.5 253zM367 655q0 -286 115.5 -459 t310.5 -173q197 0 309 168.5t112 457.5q0 287 -115 460t-311 173q-197 0 -309 -169t-112 -458zM487 1423l224 408h172l221 -408h-49l-258 248l-260 -248h-50z" />
<glyph unicode="&#xd5;" horiz-adv-x="1583" d="M94 649q0 105 28 204.5t86 188t139.5 154.5t196.5 104.5t249 38.5t248.5 -38t195.5 -103.5t138.5 -152.5t85.5 -186t28 -204q0 -133 -46 -255t-131.5 -220t-221.5 -156.5t-302 -58.5q-167 0 -302 58t-219 155t-128.5 218t-44.5 253zM367 655q0 -286 115.5 -459 t310.5 -173q197 0 309 168.5t112 457.5q0 287 -115 460t-311 173q-197 0 -309 -169t-112 -458zM518 1464q13 124 67.5 190.5t137.5 69.5q47 2 112 -26.5t122 -57.5t83 -28q99 3 121 114h53q-15 -125 -67 -191t-135 -69q-47 -2 -113 27t-124 58t-85 28q-93 -3 -119 -115h-53z " />
<glyph unicode="&#xd6;" horiz-adv-x="1583" d="M94 649q0 105 28 204.5t86 188t139.5 154.5t196.5 104.5t249 38.5t248.5 -38t195.5 -103.5t138.5 -152.5t85.5 -186t28 -204q0 -133 -46 -255t-131.5 -220t-221.5 -156.5t-302 -58.5q-167 0 -302 58t-219 155t-128.5 218t-44.5 253zM367 655q0 -286 115.5 -459 t310.5 -173q197 0 309 168.5t112 457.5q0 287 -115 460t-311 173q-197 0 -309 -169t-112 -458zM487 1595q0 57 37 97.5t94 40.5q58 0 95 -40.5t37 -95.5q0 -56 -37 -95.5t-95 -39.5q-57 0 -94 39.5t-37 93.5zM909 1597q0 57 37.5 97.5t93.5 40.5q58 0 94.5 -40.5t36.5 -95.5 q0 -56 -36.5 -96.5t-94.5 -40.5q-57 0 -94 40.5t-37 94.5z" />
<glyph unicode="&#xd8;" horiz-adv-x="1583" d="M94 649q0 105 28 204.5t86 187.5t139.5 153.5t196.5 104t249 38.5q213 0 376 -96l152 215q1 2 12.5 -5.5t23 -17t11.5 -12.5l-147 -213q130 -94 199 -241.5t69 -311.5q0 -105 -28.5 -205t-86.5 -187.5t-140 -153.5t-197 -104t-249 -38q-218 0 -374 92l-174 -245 q-1 -2 -12.5 5.5t-23 16.5t-11.5 12l172 242q-132 96 -201.5 244.5t-69.5 314.5zM367 655q0 -263 94 -426l629 897q-110 154 -302 154q-197 0 -309 -168t-112 -457zM494 176q113 -151 299 -151q197 0 309 167.5t112 456.5q0 260 -92 422z" />
<glyph unicode="&#xd9;" horiz-adv-x="1468" d="M51.5 1269q-0.5 12 0 24t3.5 12q74 -2 287 -2q248 0 285 2q4 0 4.5 -12t-0.5 -24t-2 -12q-43 -4 -64 -6.5t-44 -11.5t-31.5 -21t-17 -37.5t-10 -57.5t-1.5 -85v-565q0 -195 88.5 -291t273.5 -96q167 0 260 107t91 292l-5 414q-1 84 -3.5 137t-11.5 95t-20 63.5t-35 37 t-49.5 21t-70.5 9.5q-2 0 -2 11t1 21.5t3 10.5q38 -1 119 -4t114 -3q22 0 207 7q2 0 3 -10.5t1 -21.5t-2 -11q-38 -4 -60.5 -9.5t-44 -20t-32 -37.5t-19.5 -64.5t-11.5 -97.5t-2.5 -140v-399q0 -242 -132 -386.5t-373 -144.5q-257 0 -394 126t-137 374v575q0 53 -1.5 85 t-9.5 58t-16.5 38t-30.5 21t-43 11.5t-63 5.5q-1 0 -1.5 12zM362 1829h289l209 -389h-47z" />
<glyph unicode="&#xda;" horiz-adv-x="1468" d="M51.5 1269q-0.5 12 0 24t3.5 12q74 -2 287 -2q248 0 285 2q4 0 4.5 -12t-0.5 -24t-2 -12q-43 -4 -64 -6.5t-44 -11.5t-31.5 -21t-17 -37.5t-10 -57.5t-1.5 -85v-565q0 -195 88.5 -291t273.5 -96q167 0 260 107t91 292l-5 414q-1 84 -3.5 137t-11.5 95t-20 63.5t-35 37 t-49.5 21t-70.5 9.5q-2 0 -2 11t1 21.5t3 10.5q38 -1 119 -4t114 -3q22 0 207 7q2 0 3 -10.5t1 -21.5t-2 -11q-38 -4 -60.5 -9.5t-44 -20t-32 -37.5t-19.5 -64.5t-11.5 -97.5t-2.5 -140v-399q0 -242 -132 -386.5t-373 -144.5q-257 0 -394 126t-137 374v575q0 53 -1.5 85 t-9.5 58t-16.5 38t-30.5 21t-43 11.5t-63 5.5q-1 0 -1.5 12zM688 1440l211 389h285l-451 -389h-45z" />
<glyph unicode="&#xdb;" horiz-adv-x="1468" d="M51.5 1269q-0.5 12 0 24t3.5 12q74 -2 287 -2q248 0 285 2q4 0 4.5 -12t-0.5 -24t-2 -12q-43 -4 -64 -6.5t-44 -11.5t-31.5 -21t-17 -37.5t-10 -57.5t-1.5 -85v-565q0 -195 88.5 -291t273.5 -96q167 0 260 107t91 292l-5 414q-1 84 -3.5 137t-11.5 95t-20 63.5t-35 37 t-49.5 21t-70.5 9.5q-2 0 -2 11t1 21.5t3 10.5q38 -1 119 -4t114 -3q22 0 207 7q2 0 3 -10.5t1 -21.5t-2 -11q-38 -4 -60.5 -9.5t-44 -20t-32 -37.5t-19.5 -64.5t-11.5 -97.5t-2.5 -140v-399q0 -242 -132 -386.5t-373 -144.5q-257 0 -394 126t-137 374v575q0 53 -1.5 85 t-9.5 58t-16.5 38t-30.5 21t-43 11.5t-63 5.5q-1 0 -1.5 12zM444 1423l224 408h172l221 -408h-49l-258 248l-260 -248h-50z" />
<glyph unicode="&#xdc;" horiz-adv-x="1468" d="M51.5 1269q-0.5 12 0 24t3.5 12q74 -2 287 -2q248 0 285 2q4 0 4.5 -12t-0.5 -24t-2 -12q-43 -4 -64 -6.5t-44 -11.5t-31.5 -21t-17 -37.5t-10 -57.5t-1.5 -85v-565q0 -195 88.5 -291t273.5 -96q167 0 260 107t91 292l-5 414q-1 84 -3.5 137t-11.5 95t-20 63.5t-35 37 t-49.5 21t-70.5 9.5q-2 0 -2 11t1 21.5t3 10.5q38 -1 119 -4t114 -3q22 0 207 7q2 0 3 -10.5t1 -21.5t-2 -11q-38 -4 -60.5 -9.5t-44 -20t-32 -37.5t-19.5 -64.5t-11.5 -97.5t-2.5 -140v-399q0 -242 -132 -386.5t-373 -144.5q-257 0 -394 126t-137 374v575q0 53 -1.5 85 t-9.5 58t-16.5 38t-30.5 21t-43 11.5t-63 5.5q-1 0 -1.5 12zM403 1595q0 57 37.5 97.5t94.5 40.5q58 0 94.5 -40.5t36.5 -95.5q0 -56 -36.5 -95.5t-94.5 -39.5q-57 0 -94.5 39.5t-37.5 93.5zM825 1597q0 57 37.5 97.5t93.5 40.5q58 0 94.5 -40.5t36.5 -95.5 q0 -56 -36.5 -96.5t-94.5 -40.5q-57 0 -94 40.5t-37 94.5z" />
<glyph unicode="&#xdd;" horiz-adv-x="1251" d="M-14 1284.5q0 22.5 4 22.5q82 -4 274 -4q115 0 271 4q3 0 3.5 -11.5t-1.5 -22.5t-5 -11q-57 -5 -83.5 -18.5t-26.5 -39.5q0 -25 19 -66.5t65 -127.5l205 -346l184 342q41 77 58.5 118t17.5 68q0 33 -28.5 48.5t-90.5 21.5q-4 0 -4 22.5t4 22.5q118 -4 231 -4q5 0 181 4 q3 0 4.5 -11.5t1 -22.5t-3.5 -11q-95 -10 -153 -67t-146 -214l-209 -379v-346q0 -39 1 -66t5.5 -50t8.5 -36.5t16.5 -25t22 -16.5t33 -9.5t41.5 -6t54 -3.5q2 0 3 -11t0 -22.5t-5 -11.5q-39 2 -293 2q-227 0 -305 -2q-4 0 -4 22.5t4 22.5q36 2 54 3.5t41 6t32 9.5t21.5 17 t16 25t8 36.5t5 49.5t0.5 66v303l-287 479q-77 129 -122 173t-119 51q-4 0 -4 22.5zM590 1427l211 390h284l-448 -390h-47z" />
<glyph unicode="&#xde;" horiz-adv-x="1232" d="M83.5 1273q-0.5 11 0.5 21.5t4 10.5q76 -2 299 -2q248 0 287 2q4 0 5 -10.5t0 -21.5t-3 -11q-44 -4 -64.5 -6.5t-45 -10.5t-33.5 -19t-18.5 -33.5t-11.5 -52.5t-3 -77v-29q136 8 172 8q233 0 357 -89.5t124 -264.5q0 -124 -75.5 -218t-199 -138.5t-266.5 -32.5 q-5 0 -5.5 22.5t5.5 22.5q285 11 285 301q0 180 -112.5 266t-284.5 56v-715q0 -51 1.5 -81t9.5 -55t16.5 -36.5t31 -20t44.5 -11t65 -5.5q2 0 3 -11t0 -22.5t-5 -11.5q-39 2 -279 2q-215 0 -291 -2q-3 0 -4 11t-0.5 22.5t2.5 11.5q43 3 64.5 5.5t44 11.5t30.5 20t15.5 37 t8.5 56t1 83v791q0 52 -1.5 83t-9.5 56.5t-17 37.5t-32 21t-45.5 11.5t-66.5 5.5q-2 0 -2.5 11z" />
<glyph unicode="&#xdf;" d="M30.5 810q-1.5 28 2.5 30q115 27 143 55q22 22 33 96q19 158 94.5 272t185.5 169t242 55q161 0 270 -82t109 -211q0 -21 -4.5 -41t-9 -36.5t-17 -36t-19.5 -31t-26 -30.5t-26.5 -27t-31 -27t-29.5 -23.5t-32.5 -24.5t-29.5 -22q-115 -81 -115 -145q0 -36 26.5 -66.5 t69 -54t94.5 -47.5t103.5 -53t94 -64t69 -87t26.5 -116q0 -130 -92 -211.5t-246 -81.5q-101 0 -165 16.5t-125 47.5q-17 10 -21 248q0 5 26 5.5t27 -3.5q56 -121 129 -186.5t156 -65.5q65 0 106.5 34.5t41.5 96.5q0 41 -26.5 76.5t-69 62.5t-93.5 53t-102 55t-93.5 62 t-69 80t-26.5 104q0 27 4 50.5t16 47t20 38.5t29.5 38.5t30.5 32.5t38 36t36 34q53 50 79 98.5t26 120.5q0 105 -62 177.5t-165 72.5q-107 0 -167.5 -96t-60.5 -265v-774q0 -98 10.5 -143t31 -59t69.5 -21q1 0 1.5 -11t0 -22.5t-3.5 -11.5q-59 2 -211 2q-201 0 -260 -2 q-3 0 -4 11t0.5 22.5t5.5 11.5q40 5 60 10.5t37.5 17.5t24 37t10 60.5t3.5 97.5v516h-174q-3 0 -4.5 28z" />
<glyph unicode="&#xe0;" horiz-adv-x="976" d="M86 197q0 139 129 224.5t367 88.5l2 47q5 96 -48 152.5t-149 56.5q-69 0 -137 -38.5t-115 -100.5q-2 -3 -10 3t-15 14t-6 11q60 121 167.5 189.5t226.5 68.5q139 0 224 -93.5t81 -250.5l-12 -360q-1 -59 21.5 -89t57.5 -30q33 0 59 24t38 62q1 3 14.5 -3t13.5 -9 q-12 -92 -73 -144.5t-148 -52.5q-69 0 -124 42t-72 110q-38 -67 -103 -109.5t-147 -42.5q-99 0 -170.5 67.5t-71.5 162.5zM96 1397h289l209 -389h-47zM303 242q0 -62 39 -102t96 -40q70 0 117 47q20 20 20 46l7 268q-152 -16 -226 -90q-53 -53 -53 -129z" />
<glyph unicode="&#xe1;" horiz-adv-x="976" d="M86 197q0 139 129 224.5t367 88.5l2 47q5 96 -48 152.5t-149 56.5q-69 0 -137 -38.5t-115 -100.5q-2 -3 -10 3t-15 14t-6 11q60 121 167.5 189.5t226.5 68.5q139 0 224 -93.5t81 -250.5l-12 -360q-1 -59 21.5 -89t57.5 -30q33 0 59 24t38 62q1 3 14.5 -3t13.5 -9 q-12 -92 -73 -144.5t-148 -52.5q-69 0 -124 42t-72 110q-38 -67 -103 -109.5t-147 -42.5q-99 0 -170.5 67.5t-71.5 162.5zM299 1008l211 389h285l-451 -389h-45zM303 242q0 -62 39 -102t96 -40q70 0 117 47q20 20 20 46l7 268q-152 -16 -226 -90q-53 -53 -53 -129z" />
<glyph unicode="&#xe2;" horiz-adv-x="976" d="M86 197q0 139 129 224.5t367 88.5l2 47q5 96 -48 152.5t-149 56.5q-69 0 -137 -38.5t-115 -100.5q-2 -3 -10 3t-15 14t-6 11q60 121 167.5 189.5t226.5 68.5q139 0 224 -93.5t81 -250.5l-12 -360q-1 -59 21.5 -89t57.5 -30q33 0 59 24t38 62q1 3 14.5 -3t13.5 -9 q-12 -92 -73 -144.5t-148 -52.5q-69 0 -124 42t-72 110q-38 -67 -103 -109.5t-147 -42.5q-99 0 -170.5 67.5t-71.5 162.5zM129 991l223 408h172l221 -408h-49l-258 248l-260 -248h-49zM303 242q0 -62 39 -102t96 -40q70 0 117 47q20 20 20 46l7 268q-152 -16 -226 -90 q-53 -53 -53 -129z" />
<glyph unicode="&#xe3;" horiz-adv-x="976" d="M86 197q0 139 129 224.5t367 88.5l2 47q5 96 -48 152.5t-149 56.5q-69 0 -137 -38.5t-115 -100.5q-2 -3 -10 3t-15 14t-6 11q60 121 167.5 189.5t226.5 68.5q139 0 224 -93.5t81 -250.5l-12 -360q-1 -59 21.5 -89t57.5 -30q33 0 59 24t38 62q1 3 14.5 -3t13.5 -9 q-12 -92 -73 -144.5t-148 -52.5q-69 0 -124 42t-72 110q-38 -67 -103 -109.5t-147 -42.5q-99 0 -170.5 67.5t-71.5 162.5zM178 1032q13 124 67.5 190.5t137.5 69.5q47 2 112 -26.5t122 -57.5t83 -28q99 3 121 114h53q-15 -125 -67 -191t-135 -69q-47 -2 -113 27t-124 58 t-85 28q-93 -3 -119 -115h-53zM303 242q0 -62 39 -102t96 -40q70 0 117 47q20 20 20 46l7 268q-152 -16 -226 -90q-53 -53 -53 -129z" />
<glyph unicode="&#xe4;" horiz-adv-x="976" d="M86 197q0 139 129 224.5t367 88.5l2 47q5 96 -48 152.5t-149 56.5q-69 0 -137 -38.5t-115 -100.5q-2 -3 -10 3t-15 14t-6 11q60 121 167.5 189.5t226.5 68.5q139 0 224 -93.5t81 -250.5l-12 -360q-1 -59 21.5 -89t57.5 -30q33 0 59 24t38 62q1 3 14.5 -3t13.5 -9 q-12 -92 -73 -144.5t-148 -52.5q-69 0 -124 42t-72 110q-38 -67 -103 -109.5t-147 -42.5q-99 0 -170.5 67.5t-71.5 162.5zM143 1163q0 57 37 97t94 40q58 0 95 -40t37 -95q0 -56 -37 -95.5t-95 -39.5q-57 0 -94 39.5t-37 93.5zM303 242q0 -62 39 -102t96 -40q70 0 117 47 q20 20 20 46l7 268q-152 -16 -226 -90q-53 -53 -53 -129zM565 1165q0 57 37.5 97.5t93.5 40.5q58 0 94.5 -40.5t36.5 -95.5q0 -56 -36.5 -96.5t-94.5 -40.5q-57 0 -94 40.5t-37 94.5z" />
<glyph unicode="&#xe5;" horiz-adv-x="976" d="M86 197q0 139 129 224.5t367 88.5l2 47q5 96 -48 152.5t-149 56.5q-69 0 -137 -38.5t-115 -100.5q-2 -3 -10 3t-15 14t-6 11q60 121 167.5 189.5t226.5 68.5q139 0 224 -93.5t81 -250.5l-12 -360q-1 -59 21.5 -89t57.5 -30q33 0 59 24t38 62q1 3 14.5 -3t13.5 -9 q-12 -92 -73 -144.5t-148 -52.5q-69 0 -124 42t-72 110q-38 -67 -103 -109.5t-147 -42.5q-99 0 -170.5 67.5t-71.5 162.5zM297 1247q0 87 56 144t141 57t141.5 -57t56.5 -144t-56.5 -143.5t-141.5 -56.5t-141 56.5t-56 143.5zM303 242q0 -62 39 -102t96 -40q70 0 117 47 q20 20 20 46l7 268q-152 -16 -226 -90q-53 -53 -53 -129zM362 1251q0 -62 38 -103.5t96 -41.5q59 0 94 39t35 100t-37.5 103.5t-95.5 42.5t-94 -39.5t-36 -100.5z" />
<glyph unicode="&#xe6;" horiz-adv-x="1509" d="M78 197q0 139 129 224.5t366 88.5l2 45q5 96 -47.5 152.5t-148.5 56.5q-69 0 -138 -38.5t-114 -98.5q-2 -3 -10 3t-15 14t-6 11q60 116 166.5 185t226.5 69q158 0 238 -125q122 125 313 125q170 0 279 -99.5t117 -256.5v-61h-627q0 -5 -1 -22t-1 -21q0 -152 81 -251.5 t218 -99.5q83 0 161 46t122 116q1 2 10 -1t17 -7.5t7 -7.5q-37 -118 -151 -197.5t-252 -79.5q-123 0 -220.5 51.5t-154.5 141.5q-132 -193 -323 -193q-100 0 -172 67.5t-72 162.5zM295 242q0 -63 40.5 -102.5t104.5 -39.5q46 0 94 27t87 78q-52 104 -52 227v29 q-151 -20 -221 -90q-53 -53 -53 -129zM811 555h369v61q0 105 -45.5 166.5t-112.5 61.5q-84 0 -141.5 -79.5t-69.5 -209.5z" />
<glyph unicode="&#xe7;" horiz-adv-x="989" d="M78 432q0 134 57 242.5t166 173.5t252 65q80 0 160 -23.5t90 -23.5q30 0 47 39q2 5 27.5 5t25.5 -5v-334q0 -4 -26.5 -4.5t-28.5 2.5q-61 126 -136 203.5t-159 77.5q-110 0 -172 -103.5t-62 -269.5q0 -172 80 -278.5t205 -106.5q83 0 164.5 49.5t122.5 118.5 q4 3 13.5 0.5t19 -8.5t8.5 -10q-42 -118 -149.5 -197t-235.5 -80h-8l-39 -98h26q112 0 177 -51t65 -129q0 -86 -78.5 -143.5t-187.5 -57.5q-76 0 -143 31t-111 82q-2 3 3.5 11t12.5 15t8 6q37 -37 90.5 -58.5t110.5 -21.5q65 0 103 31t38 76q0 59 -54.5 88t-139.5 29 q-5 0 -15 -1t-14 -1l82 196q-118 14 -209 81t-138.5 166.5t-47.5 215.5z" />
<glyph unicode="&#xe8;" horiz-adv-x="1030" d="M78 432q0 128 57 236.5t169 176.5t257 68q170 0 278.5 -100.5t116.5 -257.5v-63h-626v-43q0 -152 81 -252.5t218 -100.5q83 0 159.5 46.5t120.5 117.5q1 2 6.5 0t12.5 -4.5t12 -6t4 -5.5q-37 -119 -151 -199t-252 -80q-141 0 -248 64t-161 169.5t-54 233.5zM178 1397h289 l209 -389h-47zM334 555h366v66q0 105 -44 165t-111 60q-84 0 -141.5 -80.5t-69.5 -210.5z" />
<glyph unicode="&#xe9;" horiz-adv-x="1030" d="M78 432q0 128 57 236.5t169 176.5t257 68q170 0 278.5 -100.5t116.5 -257.5v-63h-626v-43q0 -152 81 -252.5t218 -100.5q83 0 159.5 46.5t120.5 117.5q1 2 6.5 0t12.5 -4.5t12 -6t4 -5.5q-37 -119 -151 -199t-252 -80q-141 0 -248 64t-161 169.5t-54 233.5zM334 555h366 v66q0 105 -44 165t-111 60q-84 0 -141.5 -80.5t-69.5 -210.5zM371 1008l211 389h284l-450 -389h-45z" />
<glyph unicode="&#xea;" horiz-adv-x="1030" d="M78 432q0 128 57 236.5t169 176.5t257 68q170 0 278.5 -100.5t116.5 -257.5v-63h-626v-43q0 -152 81 -252.5t218 -100.5q83 0 159.5 46.5t120.5 117.5q1 2 6.5 0t12.5 -4.5t12 -6t4 -5.5q-37 -119 -151 -199t-252 -80q-141 0 -248 64t-161 169.5t-54 233.5zM190 991 l224 408h172l221 -408h-49l-258 248l-260 -248h-50zM334 555h366v66q0 105 -44 165t-111 60q-84 0 -141.5 -80.5t-69.5 -210.5z" />
<glyph unicode="&#xeb;" horiz-adv-x="1030" d="M78 432q0 128 57 236.5t169 176.5t257 68q170 0 278.5 -100.5t116.5 -257.5v-63h-626v-43q0 -152 81 -252.5t218 -100.5q83 0 159.5 46.5t120.5 117.5q1 2 6.5 0t12.5 -4.5t12 -6t4 -5.5q-37 -119 -151 -199t-252 -80q-141 0 -248 64t-161 169.5t-54 233.5zM199 1163 q0 57 37 97t94 40q58 0 94.5 -40t36.5 -95q0 -56 -36.5 -95.5t-94.5 -39.5q-57 0 -94 39.5t-37 93.5zM334 555h366v66q0 105 -44 165t-111 60q-84 0 -141.5 -80.5t-69.5 -210.5zM621 1165q0 57 37.5 97.5t93.5 40.5q58 0 94.5 -40.5t36.5 -95.5q0 -56 -36.5 -96.5 t-94.5 -40.5q-57 0 -94 40.5t-37 94.5z" />
<glyph unicode="&#xec;" horiz-adv-x="630" d="M-113 1397h289l209 -389h-47zM66.5 856.5q0.5 22.5 5.5 22.5h370v-613q0 -52 1.5 -85t8.5 -58t14.5 -38t25.5 -22t35.5 -12.5t50.5 -7.5q4 0 5.5 -11t0.5 -22.5t-4 -11.5q-59 2 -250 2t-250 -2q-3 0 -4 11t0.5 22.5t5.5 11.5q25 3 39 5t30 7.5t23.5 11t16 18t11.5 26.5 t6.5 37.5t4 50.5t0.5 67v336q0 53 -1.5 86t-8.5 59t-14.5 39t-26.5 23.5t-37 14.5t-53 10q-6 0 -5.5 22.5z" />
<glyph unicode="&#xed;" horiz-adv-x="630" d="M66.5 856.5q0.5 22.5 5.5 22.5h370v-613q0 -52 1.5 -85t8.5 -58t14.5 -38t25.5 -22t35.5 -12.5t50.5 -7.5q4 0 5.5 -11t0.5 -22.5t-4 -11.5q-59 2 -250 2t-250 -2q-3 0 -4 11t0.5 22.5t5.5 11.5q25 3 39 5t30 7.5t23.5 11t16 18t11.5 26.5t6.5 37.5t4 50.5t0.5 67v336 q0 53 -1.5 86t-8.5 59t-14.5 39t-26.5 23.5t-37 14.5t-53 10q-6 0 -5.5 22.5zM111 1008l211 389h284l-450 -389h-45z" />
<glyph unicode="&#xee;" horiz-adv-x="630" d="M-10 991l223 408h172l221 -408h-49l-258 248l-260 -248h-49zM66.5 856.5q0.5 22.5 5.5 22.5h370v-613q0 -52 1.5 -85t8.5 -58t14.5 -38t25.5 -22t35.5 -12.5t50.5 -7.5q4 0 5.5 -11t0.5 -22.5t-4 -11.5q-59 2 -250 2t-250 -2q-3 0 -4 11t0.5 22.5t5.5 11.5q25 3 39 5 t30 7.5t23.5 11t16 18t11.5 26.5t6.5 37.5t4 50.5t0.5 67v336q0 53 -1.5 86t-8.5 59t-14.5 39t-26.5 23.5t-37 14.5t-53 10q-6 0 -5.5 22.5z" />
<glyph unicode="&#xef;" horiz-adv-x="630" d="M-10 1163q0 57 37 97t94 40q58 0 94.5 -40t36.5 -95q0 -56 -36.5 -95.5t-94.5 -39.5q-57 0 -94 39.5t-37 93.5zM66.5 856.5q0.5 22.5 5.5 22.5h370v-613q0 -52 1.5 -85t8.5 -58t14.5 -38t25.5 -22t35.5 -12.5t50.5 -7.5q4 0 5.5 -11t0.5 -22.5t-4 -11.5q-59 2 -250 2 t-250 -2q-3 0 -4 11t0.5 22.5t5.5 11.5q25 3 39 5t30 7.5t23.5 11t16 18t11.5 26.5t6.5 37.5t4 50.5t0.5 67v336q0 53 -1.5 86t-8.5 59t-14.5 39t-26.5 23.5t-37 14.5t-53 10q-6 0 -5.5 22.5zM412 1165q0 57 37.5 97.5t93.5 40.5q58 0 94.5 -40.5t36.5 -95.5 q0 -56 -36.5 -96.5t-94.5 -40.5q-57 0 -94 40.5t-37 94.5z" />
<glyph unicode="&#xf0;" horiz-adv-x="1124" d="M82 440q0 201 136 335t351 134q104 0 172 -61q-61 170 -223 338l-301 -142q-2 -1 -11 15t-16 33t-4 18l279 131q-126 126 -268 211q-5 3 -6.5 13t0.5 19t6 9h262q89 -58 198 -162l279 131q2 1 10.5 -15t15 -32.5t3.5 -17.5l-254 -121q151 -160 243.5 -355.5t92.5 -404.5 q0 -253 -131.5 -399t-356.5 -146q-112 0 -203 36.5t-150.5 100.5t-91.5 149t-32 183zM328 457q0 -111 25 -205t79.5 -155.5t130.5 -61.5q121 0 188.5 111.5t67.5 293.5q0 198 -65 302t-183 104q-77 0 -133.5 -55t-83 -142t-26.5 -192z" />
<glyph unicode="&#xf1;" horiz-adv-x="1234" d="M64.5 856.5q0.5 22.5 5.5 22.5h350v-205h4q59 110 148.5 171.5t195.5 61.5q127 0 211 -92.5t84 -249.5v-299q0 -52 1.5 -84.5t8 -58t13 -38t24 -22t33.5 -12.5t49 -8q6 0 5.5 -22.5t-5.5 -22.5q-59 2 -225 2q-185 0 -244 -2q-3 0 -3.5 11t0 22.5t1.5 11.5q29 4 43.5 7 t30.5 12.5t21.5 21.5t11.5 38t7 58.5t1 85.5v279q0 93 -50.5 152t-132.5 59q-55 0 -101.5 -23.5t-72.5 -60.5q-39 -45 -39 -142v-264q0 -61 4 -98.5t10.5 -61.5t23.5 -36t34 -17t51 -10q1 0 1.5 -11t0 -22.5t-3.5 -11.5q-59 2 -229 2q-183 0 -242 -2q-3 0 -4 11t-1 22.5 t1 11.5q34 5 48.5 8.5t33 13t24 21t12.5 37.5t8 58t1 85v336q0 52 -2 85.5t-9.5 59.5t-15 39t-27 23.5t-37 14.5t-52.5 10q-6 0 -5.5 22.5zM317 1032q13 124 67.5 190.5t137.5 69.5q47 2 112 -26.5t122.5 -57.5t83.5 -28q99 3 121 114h53q-15 -125 -67.5 -191t-135.5 -69 q-47 -2 -113 27t-124 58t-85 28q-91 -3 -118 -115h-54z" />
<glyph unicode="&#xf2;" horiz-adv-x="1126" d="M80 438q0 201 134.5 336t348.5 135q152 0 262.5 -63.5t164.5 -168t54 -235.5q0 -202 -132 -336.5t-349 -134.5q-151 0 -262 63.5t-166 168t-55 235.5zM180 1397h289l209 -389h-47zM330 455q0 -82 14.5 -156t42 -133.5t73 -95t103.5 -35.5q110 0 172 114t62 277 q0 82 -14 156t-41.5 133.5t-73.5 95t-105 35.5q-74 0 -128 -56t-79.5 -143t-25.5 -192z" />
<glyph unicode="&#xf3;" horiz-adv-x="1126" d="M80 438q0 201 134.5 336t348.5 135q152 0 262.5 -63.5t164.5 -168t54 -235.5q0 -202 -132 -336.5t-349 -134.5q-151 0 -262 63.5t-166 168t-55 235.5zM330 455q0 -82 14.5 -156t42 -133.5t73 -95t103.5 -35.5q110 0 172 114t62 277q0 82 -14 156t-41.5 133.5t-73.5 95 t-105 35.5q-74 0 -128 -56t-79.5 -143t-25.5 -192zM424 1008l211 389h285l-451 -389h-45z" />
<glyph unicode="&#xf4;" horiz-adv-x="1126" d="M80 438q0 201 134.5 336t348.5 135q152 0 262.5 -63.5t164.5 -168t54 -235.5q0 -202 -132 -336.5t-349 -134.5q-151 0 -262 63.5t-166 168t-55 235.5zM242 991l223 408h172l221 -408h-49l-258 248l-260 -248h-49zM330 455q0 -82 14.5 -156t42 -133.5t73 -95t103.5 -35.5 q110 0 172 114t62 277q0 82 -14 156t-41.5 133.5t-73.5 95t-105 35.5q-74 0 -128 -56t-79.5 -143t-25.5 -192z" />
<glyph unicode="&#xf5;" horiz-adv-x="1126" d="M80 438q0 201 134.5 336t348.5 135q152 0 262.5 -63.5t164.5 -168t54 -235.5q0 -202 -132 -336.5t-349 -134.5q-151 0 -262 63.5t-166 168t-55 235.5zM272 1032q13 124 67.5 190.5t137.5 69.5q47 2 112 -26.5t122.5 -57.5t83.5 -28q98 3 120 114h54q-15 -125 -67.5 -191 t-135.5 -69q-47 -2 -113 27t-124 58t-85 28q-91 -3 -118 -115h-54zM330 455q0 -82 14.5 -156t42 -133.5t73 -95t103.5 -35.5q110 0 172 114t62 277q0 82 -14 156t-41.5 133.5t-73.5 95t-105 35.5q-74 0 -128 -56t-79.5 -143t-25.5 -192z" />
<glyph unicode="&#xf6;" horiz-adv-x="1126" d="M80 438q0 201 134.5 336t348.5 135q152 0 262.5 -63.5t164.5 -168t54 -235.5q0 -202 -132 -336.5t-349 -134.5q-151 0 -262 63.5t-166 168t-55 235.5zM242 1163q0 57 37 97t94 40q58 0 94.5 -40t36.5 -95q0 -56 -36.5 -95.5t-94.5 -39.5q-57 0 -94 39.5t-37 93.5z M330 455q0 -82 14.5 -156t42 -133.5t73 -95t103.5 -35.5q110 0 172 114t62 277q0 82 -14 156t-41.5 133.5t-73.5 95t-105 35.5q-74 0 -128 -56t-79.5 -143t-25.5 -192zM664 1165q0 57 37.5 97.5t93.5 40.5q58 0 94.5 -40.5t36.5 -95.5q0 -56 -36.5 -96.5t-94.5 -40.5 q-57 0 -94 40.5t-37 94.5z" />
<glyph unicode="&#xf8;" horiz-adv-x="1126" d="M80 438q0 201 134.5 336t348.5 135q148 0 256 -59l94 133q1 2 12 -6t22 -18t11 -13l-90 -127q85 -62 130.5 -160.5t45.5 -216.5q0 -202 -132 -336.5t-349 -134.5q-141 0 -250 56l-108 -152q-1 -2 -12 5.5t-22 17t-11 12.5l102 145q-88 64 -135 163.5t-47 219.5zM330 455 q0 -151 35 -252l370 526q-67 117 -172 117q-74 0 -128 -56t-79.5 -143t-25.5 -192zM393 139q64 -104 170 -104q110 0 172 114t62 277q0 134 -37 238z" />
<glyph unicode="&#xf9;" horiz-adv-x="1212" d="M39 867.5q1 11.5 4 11.5h360v-545q0 -95 45.5 -155t126.5 -60q54 0 98 23.5t70 60.5q43 53 43 143v264q0 51 -2 85t-8.5 58.5t-13.5 38t-23.5 22.5t-31 12.5t-43.5 7.5q-1 0 -1.5 11t0 22.5t3.5 11.5h348v-603q0 -52 1.5 -85.5t9 -59t15 -39t27 -23.5t37.5 -14t53 -10 q6 0 5.5 -22.5t-5.5 -22.5h-352v205h-4q-60 -111 -147.5 -172.5t-192.5 -61.5q-127 0 -206 90.5t-79 247.5v301q0 52 -1.5 84.5t-8.5 58t-13.5 38t-24.5 22t-34 13t-49 8.5q-4 0 -5.5 11t-0.5 22.5zM184 1397h289l209 -389h-47z" />
<glyph unicode="&#xfa;" horiz-adv-x="1212" d="M39 867.5q1 11.5 4 11.5h360v-545q0 -95 45.5 -155t126.5 -60q54 0 98 23.5t70 60.5q43 53 43 143v264q0 51 -2 85t-8.5 58.5t-13.5 38t-23.5 22.5t-31 12.5t-43.5 7.5q-1 0 -1.5 11t0 22.5t3.5 11.5h348v-603q0 -52 1.5 -85.5t9 -59t15 -39t27 -23.5t37.5 -14t53 -10 q6 0 5.5 -22.5t-5.5 -22.5h-352v205h-4q-60 -111 -147.5 -172.5t-192.5 -61.5q-127 0 -206 90.5t-79 247.5v301q0 52 -1.5 84.5t-8.5 58t-13.5 38t-24.5 22t-34 13t-49 8.5q-4 0 -5.5 11t-0.5 22.5zM449 1008l210 389h285l-450 -389h-45z" />
<glyph unicode="&#xfb;" horiz-adv-x="1212" d="M39 867.5q1 11.5 4 11.5h360v-545q0 -95 45.5 -155t126.5 -60q54 0 98 23.5t70 60.5q43 53 43 143v264q0 51 -2 85t-8.5 58.5t-13.5 38t-23.5 22.5t-31 12.5t-43.5 7.5q-1 0 -1.5 11t0 22.5t3.5 11.5h348v-603q0 -52 1.5 -85.5t9 -59t15 -39t27 -23.5t37.5 -14t53 -10 q6 0 5.5 -22.5t-5.5 -22.5h-352v205h-4q-60 -111 -147.5 -172.5t-192.5 -61.5q-127 0 -206 90.5t-79 247.5v301q0 52 -1.5 84.5t-8.5 58t-13.5 38t-24.5 22t-34 13t-49 8.5q-4 0 -5.5 11t-0.5 22.5zM266 991l223 408h173l221 -408h-49l-259 248l-260 -248h-49z" />
<glyph unicode="&#xfc;" horiz-adv-x="1212" d="M39 867.5q1 11.5 4 11.5h360v-545q0 -95 45.5 -155t126.5 -60q54 0 98 23.5t70 60.5q43 53 43 143v264q0 51 -2 85t-8.5 58.5t-13.5 38t-23.5 22.5t-31 12.5t-43.5 7.5q-1 0 -1.5 11t0 22.5t3.5 11.5h348v-603q0 -52 1.5 -85.5t9 -59t15 -39t27 -23.5t37.5 -14t53 -10 q6 0 5.5 -22.5t-5.5 -22.5h-352v205h-4q-60 -111 -147.5 -172.5t-192.5 -61.5q-127 0 -206 90.5t-79 247.5v301q0 52 -1.5 84.5t-8.5 58t-13.5 38t-24.5 22t-34 13t-49 8.5q-4 0 -5.5 11t-0.5 22.5zM266 1163q0 57 37 97t94 40q58 0 94.5 -40t36.5 -95q0 -56 -36.5 -95.5 t-94.5 -39.5q-57 0 -94 39.5t-37 93.5zM688 1165q0 57 37.5 97.5t93.5 40.5q58 0 94.5 -40.5t36.5 -95.5q0 -56 -36.5 -96.5t-94.5 -40.5q-57 0 -94 40.5t-37 94.5z" />
<glyph unicode="&#xfd;" horiz-adv-x="970" d="M-46.5 872.5q0.5 12.5 3.5 12.5q118 -4 254 -4q134 0 252 4q5 0 5 -23.5t-5 -23.5q-36 -5 -58 -11.5t-33.5 -20.5t-14.5 -29t4.5 -45.5t19 -59.5t33.5 -82l161 -393l127 335q70 182 70 228q0 36 -27.5 52t-101.5 24q-5 0 -5 24.5t5 24.5q136 -4 205 -4q19 0 40.5 0.5 t57.5 1.5t66 2q3 0 3.5 -24.5t-3.5 -24.5q-68 -7 -109 -48q-8 -8 -15.5 -18t-15.5 -25.5t-14 -28t-17 -38.5t-17.5 -43t-21.5 -56t-24 -63l-301 -772q-38 -102 -76 -168t-79.5 -101.5t-82.5 -49t-94 -13.5q-52 0 -103 21.5t-54 40.5q-3 29 25 100.5t48 71.5l71 -27 q72 -27 106 -27q58 0 98.5 38.5t71.5 123.5l57 150q-13 43 -135.5 324.5t-130.5 301.5q-9 21 -30 72t-29 69.5t-22.5 49.5t-25.5 47t-22 27q-18 18 -40 26.5t-71 14.5q-3 0 -4.5 12t-1 24.5zM438 1010l211 389h287l-451 -389h-47z" />
<glyph unicode="&#xfe;" horiz-adv-x="1142" d="M9 1460q-1 11 0.5 22t4.5 11h371v-715h2q54 54 126.5 91.5t150.5 37.5q170 0 283.5 -124t113.5 -316q0 -143 -69 -258.5t-184.5 -178.5t-252.5 -63q-108 0 -170 19v-281q0 -51 2 -83.5t9.5 -58t16.5 -38.5t29.5 -22.5t41.5 -13.5t59 -7q3 0 3.5 -22.5t-3.5 -22.5 q-59 2 -267 2q-182 0 -241 -2q-3 0 -4.5 11.5t0 22.5t6.5 11q33 5 48 8t32.5 13.5t22.5 21t11 37.5t6.5 57.5t0.5 85.5v1512q0 53 -1.5 86t-9 59t-15 38.5t-27 23t-37.5 14.5t-54 10q-4 1 -5 12zM385 92q84 -51 170 -51q128 0 200 95.5t72 275.5q0 165 -74.5 263.5 t-195.5 98.5q-48 0 -95.5 -16t-76.5 -43v-623z" />
<glyph unicode="&#xff;" horiz-adv-x="968" d="M-46 859.5q0 23.5 5 23.5q118 -4 252 -4q73 0 250 6q5 0 5 -23.5t-5 -23.5q-35 -5 -57 -11.5t-33.5 -21t-14.5 -29.5t4.5 -46t18.5 -60t33 -82l163 -391l127 335q68 177 68 226q0 37 -27.5 53.5t-99.5 22.5q-5 0 -5 25.5t5 25.5q198 -6 203 -6q22 0 73.5 2.5t90.5 3.5 q2 0 3.5 -12.5t1.5 -25.5t-3 -13q-68 -5 -109 -46q-24 -24 -46 -73t-64 -160q-10 -27 -15 -41l-301 -770q-38 -101 -76.5 -167t-80 -101t-82 -48.5t-93.5 -13.5q-52 0 -103.5 21.5t-53.5 38.5q-3 29 25 100.5t48 71.5q3 0 36 -13t75 -26t66 -13q58 0 98.5 38.5t71.5 123.5 l57 148q-12 43 -135 323t-131 301q-8 20 -22 53.5t-21.5 51t-18.5 43t-18.5 40.5t-16.5 32t-16.5 28t-15.5 19q-18 18 -40.5 26.5t-70.5 14.5q-5 0 -5 23.5zM211 1163q0 57 37 97t94 40q58 0 94.5 -40t36.5 -95q0 -56 -36.5 -95.5t-94.5 -39.5q-57 0 -94 39.5t-37 93.5z M633 1165q0 57 37.5 97.5t93.5 40.5q58 0 94.5 -40.5t36.5 -95.5q0 -56 -36.5 -96.5t-94.5 -40.5q-57 0 -94 40.5t-37 94.5z" />
<glyph unicode="&#x152;" horiz-adv-x="1972" d="M94 629q0 148 51 272t145.5 214.5t239 141t322.5 50.5q16 0 139.5 -2t161.5 -2h326q109 0 305 8q6 0 11 -5t5 -12q10 -163 10 -276q0 -2 -15 -4t-27.5 -2t-14.5 2q-22 83 -57 128t-106 68t-193 23h-90q-31 0 -31 -8v-529q86 2 106 4q106 3 159 12t77 29q21 17 30.5 45.5 t20.5 87.5q1 4 29 3.5t28 -5.5q-6 -75 -6 -202q0 -92 9 -207q0 -3 -15 -5t-30 -2t-15 3q-19 99 -45 125t-79 37t-167 12l-102 2v-320q0 -99 8.5 -143t34.5 -70q41 -41 160 -41h32q134 0 203.5 60.5t112.5 210.5q1 4 31 2.5t30 -6.5q-6 -58 -37 -299q-3 -26 -12 -31.5 t-45 -3.5q-159 6 -389 6h-174q-81 0 -236 -6t-178 -6q-169 0 -307 49.5t-228 136t-139 203.5t-49 252zM367 651q0 -147 39 -263t107 -188.5t156.5 -110.5t190.5 -38q94 0 172 21v970q0 134 -26 160q-18 18 -72.5 30.5t-108.5 12.5q-218 0 -338 -156t-120 -438z" />
<glyph unicode="&#x153;" horiz-adv-x="1738" d="M80 438q0 132 59.5 239t170.5 169.5t253 62.5q121 0 212 -42t147 -117q62 74 151.5 116.5t196.5 42.5q170 0 278.5 -99.5t116.5 -256.5v-61h-627v-43q0 -152 81 -251.5t218 -99.5q83 0 160 45.5t121 116.5q1 2 6.5 0t12.5 -4.5t12 -6t4 -5.5q-37 -118 -151.5 -197.5 t-252.5 -79.5q-107 0 -194.5 41t-145.5 115q-126 -152 -346 -152q-152 0 -263 63.5t-165.5 168t-54.5 235.5zM332 455q0 -82 14 -156t41 -133.5t72.5 -95t103.5 -35.5q73 0 127 56t79.5 143.5t25.5 191.5q0 82 -14 156t-41.5 133.5t-73 95t-103.5 35.5q-73 0 -126.5 -56 t-79 -143.5t-25.5 -191.5zM1042 555h367v61q0 105 -44.5 166.5t-111.5 61.5q-84 0 -141.5 -79.5t-69.5 -209.5z" />
<glyph unicode="&#x178;" horiz-adv-x="1249" d="M-14 1284.5q0 22.5 4 22.5q82 -4 274 -4q112 0 268 4q4 0 4 -22.5t-4 -22.5q-110 -9 -110 -58q0 -25 19 -66.5t65 -127.5l203 -348l186 344q74 139 74 184q0 33 -28.5 49.5t-88.5 22.5q-4 0 -4 22.5t4 22.5q118 -4 231 -4q5 0 181 4q2 0 3.5 -11.5t1.5 -22.5t-3 -11 q-50 -5 -87 -20.5t-72 -52.5t-65 -83t-75 -127l-211 -377v-348q0 -52 1.5 -83.5t11.5 -56.5t18.5 -36t34.5 -19.5t48 -10.5t70 -5q1 0 2 -11t0.5 -22.5t-4.5 -11.5q-37 2 -293 2q-229 0 -305 -2q-3 0 -4 11t-0.5 22.5t2.5 11.5q35 2 54 3t41.5 5.5t32.5 9.5t22 16.5t16 25 t8 36.5t5 49.5t1 65.5v305l-287 477q-79 130 -123.5 174.5t-117.5 51.5q-4 0 -4 22.5zM311 1595q0 57 37 97.5t94 40.5q58 0 94.5 -40.5t36.5 -95.5q0 -56 -36.5 -95.5t-94.5 -39.5q-57 0 -94 39.5t-37 93.5zM733 1597q0 57 37.5 97.5t93.5 40.5q58 0 94.5 -40.5t36.5 -95.5 q0 -56 -36.5 -96.5t-94.5 -40.5q-57 0 -94 40.5t-37 94.5z" />
<glyph unicode="&#x2c6;" horiz-adv-x="704" d="M43 991l223 408h172l221 -408h-49l-258 248l-260 -248h-49z" />
<glyph unicode="&#x2dc;" horiz-adv-x="845" d="M74 1032q13 124 67.5 190.5t137.5 69.5q47 2 112 -26.5t122 -57.5t83 -28q99 3 121 114h53q-15 -125 -67.5 -191t-135.5 -69q-47 -2 -112.5 27t-123.5 58t-85 28q-93 -3 -119 -115h-53z" />
<glyph unicode="&#x2000;" horiz-adv-x="915" />
<glyph unicode="&#x2001;" horiz-adv-x="1831" />
<glyph unicode="&#x2002;" horiz-adv-x="915" />
<glyph unicode="&#x2003;" horiz-adv-x="1831" />
<glyph unicode="&#x2004;" horiz-adv-x="610" />
<glyph unicode="&#x2005;" horiz-adv-x="457" />
<glyph unicode="&#x2006;" horiz-adv-x="305" />
<glyph unicode="&#x2007;" horiz-adv-x="305" />
<glyph unicode="&#x2008;" horiz-adv-x="228" />
<glyph unicode="&#x2009;" horiz-adv-x="366" />
<glyph unicode="&#x200a;" horiz-adv-x="101" />
<glyph unicode="&#x2010;" horiz-adv-x="595" d="M48 536q0 42 3 42h494q3 0 3 -42t-3 -42h-494q-3 0 -3 42z" />
<glyph unicode="&#x2011;" horiz-adv-x="595" d="M48 536q0 42 3 42h494q3 0 3 -42t-3 -42h-494q-3 0 -3 42z" />
<glyph unicode="&#x2012;" horiz-adv-x="595" d="M48 536q0 42 3 42h494q3 0 3 -42t-3 -42h-494q-3 0 -3 42z" />
<glyph unicode="&#x2013;" horiz-adv-x="1024" d="M48 535.5q0 35.5 3 35.5h922q3 0 3 -35.5t-3 -35.5h-922q-3 0 -3 35.5z" />
<glyph unicode="&#x2014;" horiz-adv-x="2048" d="M48 535.5q0 35.5 3 35.5h1946q3 0 3 -35.5t-3 -35.5h-1946q-3 0 -3 35.5z" />
<glyph unicode="&#x2018;" horiz-adv-x="436" d="M45 999q0 111 82.5 211t216.5 174q2 1 11.5 -9.5t16.5 -22.5t3 -15q-191 -127 -191 -237q0 -74 86 -99q56 -15 86.5 -41t30.5 -73q0 -48 -37 -80.5t-88 -32.5q-95 0 -156 71.5t-61 153.5z" />
<glyph unicode="&#x2019;" horiz-adv-x="436" d="M47 1262q0 48 37 79t88 31q95 0 156 -70.5t61 -152.5q0 -112 -82.5 -213t-216.5 -174q-2 -1 -11.5 10t-16.5 23.5t-3 15.5q191 127 191 236q0 73 -86 98q-117 32 -117 117z" />
<glyph unicode="&#x201a;" horiz-adv-x="436" d="M47 152q0 48 37 79t88 31q95 0 156 -70.5t61 -152.5q0 -111 -82.5 -211t-216.5 -174q-2 -1 -11.5 10t-16.5 23.5t-3 15.5q191 127 191 236q0 71 -86 96q-117 32 -117 117z" />
<glyph unicode="&#x201c;" horiz-adv-x="878" d="M45 999q0 111 82.5 211t216.5 174q2 1 11.5 -9.5t16.5 -22.5t3 -15q-191 -127 -191 -237q0 -74 86 -99q56 -15 86.5 -41t30.5 -73q0 -48 -37 -80.5t-88 -32.5q-95 0 -156 71.5t-61 153.5zM487 999q0 111 82.5 211t216.5 174q2 1 11.5 -9.5t16.5 -22.5t3 -15 q-188 -125 -188 -237q0 -74 86 -99q55 -15 84.5 -41t29.5 -73q0 -49 -36.5 -81t-87.5 -32q-95 0 -156.5 71.5t-61.5 153.5z" />
<glyph unicode="&#x201d;" horiz-adv-x="878" d="M47 1262q0 48 37 79t88 31q95 0 156 -70.5t61 -152.5q0 -112 -82.5 -213t-216.5 -174q-2 -1 -11.5 10t-16.5 23.5t-3 15.5q191 127 191 236q0 73 -86 98q-117 32 -117 117zM489 1262q0 48 37 79t88 31q95 0 156 -70.5t61 -152.5q0 -112 -81.5 -213t-214.5 -174 q-2 -1 -11.5 10t-16.5 23.5t-3 15.5q188 125 188 236q0 73 -86 98q-117 32 -117 117z" />
<glyph unicode="&#x201e;" horiz-adv-x="878" d="M47 152q0 48 37 79t88 31q95 0 156 -70.5t61 -152.5q0 -111 -82.5 -211t-216.5 -174q-2 -1 -11.5 10t-16.5 23.5t-3 15.5q191 127 191 236q0 71 -86 96q-117 32 -117 117zM489 152q0 48 37 79t88 31q95 0 156 -70.5t61 -152.5q0 -112 -81 -212t-215 -173q-2 -1 -11.5 10 t-16.5 23.5t-3 15.5q188 125 188 236q0 71 -86 96q-117 32 -117 117z" />
<glyph unicode="&#x2022;" horiz-adv-x="739" d="M133 412q0 105 68 173t170 68q101 0 168 -67t67 -172t-68.5 -175.5t-170.5 -70.5q-100 0 -167 69.5t-67 174.5z" />
<glyph unicode="&#x2026;" horiz-adv-x="1474" d="M98 102q0 64 42 108t104 44q64 0 106.5 -44t42.5 -108q0 -62 -43 -103.5t-104 -41.5q-64 0 -106 41t-42 104zM590 102q0 64 41.5 108t103.5 44q64 0 107 -44t43 -108q0 -62 -43.5 -103.5t-104.5 -41.5q-64 0 -105.5 41t-41.5 104zM1081 102q0 64 42 108t104 44 q64 0 106.5 -44t42.5 -108q0 -62 -43 -103.5t-104 -41.5q-64 0 -106 41t-42 104z" />
<glyph unicode="&#x202f;" horiz-adv-x="366" />
<glyph unicode="&#x2039;" horiz-adv-x="602" d="M67 412.5q0 15.5 9 21.5q186 136 420 328q1 1 10.5 -6t18 -15.5t5.5 -11.5l-235 -315l235 -316q3 -3 -5.5 -12t-18 -16.5t-10.5 -6.5q-233 194 -420 328q-9 6 -9 21.5z" />
<glyph unicode="&#x203a;" horiz-adv-x="602" d="M78 98l235 316l-235 315q-2 3 6.5 11.5t18 15.5t10.5 6q242 -199 419 -328q9 -6 9 -21.5t-9 -21.5q-180 -129 -419 -328l-3 1q-2 1 -5.5 4t-7.5 6t-7.5 7t-6.5 7t-4.5 6t-0.5 4z" />
<glyph unicode="&#x205f;" horiz-adv-x="457" />
<glyph unicode="&#x20ac;" horiz-adv-x="1366" d="M85 510q0 31 3 31h166q-6 47 -6 100q0 3 6 96h-166q-3 0 -3 32t3 32h174q44 241 211.5 388.5t417.5 147.5q96 0 202.5 -19t143.5 -40q4 -11 9 -136t5 -181q0 -4 -26.5 -5t-28.5 2q-62 155 -152.5 235.5t-197.5 80.5q-137 0 -224.5 -126t-107.5 -347h453q3 0 3 -32t-3 -32 h-457q-2 -20 -2 -69q0 -68 6 -127h453q3 0 3 -31t-3 -31h-443q34 -189 135.5 -288t243.5 -99q102 0 196 63t146 156q4 8 22.5 -1.5t16.5 -16.5q-42 -143 -169.5 -231.5t-285.5 -88.5q-216 0 -371 136.5t-196 369.5h-174q-3 0 -3 31z" />
<glyph unicode="&#x2122;" horiz-adv-x="1458" d="M53 1112q1 17 9 92t10 105q92 -6 256 -6q158 0 260 6q0 -24 2 -62.5t4.5 -80.5t3.5 -54q0 -1 -10.5 -2.5t-20.5 -2t-12 2.5q-18 85 -57 116t-105 31v-403q0 -49 13.5 -62.5t60.5 -19.5q1 0 1.5 -9t0 -18.5t-3.5 -9.5h-277q-4 0 -3 18.5t3 18.5q45 5 57.5 18t12.5 64v403 q-62 0 -102 -31t-60 -116q-2 -1 -11.5 -1t-20.5 1t-11 2zM649.5 753.5q0.5 18.5 3.5 18.5q37 3 53 12.5t23 35t10 85.5l13 260q2 61 -13 81t-67 24q-3 0 -3 19.5t3 19.5q114 -4 213 -4q17 0 26 -23q10 -32 54.5 -178t60.5 -195q12 39 51.5 158t57.5 178q14 64 32 64 q5 0 94.5 -2t120.5 -2q3 0 3 -18.5t-3 -18.5q-39 -6 -52 -23t-11 -59l8 -307q1 -66 13.5 -83.5t58.5 -23.5q3 0 3 -18.5t-3 -18.5h-273q-3 0 -3 18.5t3 18.5q43 5 59 26t13 81l-14 352q-18 -48 -174 -498q-1 -4 -12 -4.5t-22 1t-11 3.5q-112 343 -164 488l-13 -314 q-3 -82 10.5 -107t57.5 -28q1 -1 1 -9.5t-1 -18t-2 -9.5h-201q-4 0 -3.5 18.5z" />
<glyph unicode="&#x25fc;" horiz-adv-x="880" d="M0 0v881h881v-881h-881z" />
<glyph unicode="&#xfb01;" horiz-adv-x="1265" d="M31 824.5q0 14.5 4 15.5q115 27 143 55q19 19 31 96q15 119 66.5 214.5t127.5 156t168 93t191 32.5q114 0 198 -44t84 -97q0 -46 -55.5 -105t-77.5 -59q-9 0 -64 46.5t-123 93t-110 46.5q-90 0 -133 -83t-43 -269v-142h635v-608q0 -52 1.5 -85t8.5 -58t14 -38t25.5 -22 t35.5 -12.5t50 -7.5q6 0 5.5 -22.5t-5.5 -22.5q-59 2 -247 2q-191 0 -250 -2q-3 0 -4 11t0.5 22.5t5.5 11.5q34 4 50.5 7t34.5 12.5t25 21.5t13.5 38t8 58.5t1.5 85.5v336q0 65 -5 101t-22 55.5t-39.5 24.5t-66.5 5h-277v-522q0 -49 2 -78.5t9 -55t17 -39t31 -24.5t46.5 -16 t66.5 -10q4 0 5.5 -11t0.5 -22.5t-4 -11.5q-59 2 -276 2q-201 0 -260 -2q-5 0 -5.5 22.5t5.5 22.5q40 5 60 10.5t37.5 17.5t24 37t10 60.5t3.5 97.5v516h-172q-2 0 -4 14t-2 28.5z" />
<glyph unicode="&#xfb02;" horiz-adv-x="1255" d="M31 824.5q0 14.5 4 15.5q115 27 143 55q19 19 31 96q15 119 66.5 214.5t126.5 156t166 93t188 32.5q106 0 207 -45l65 53q6 4 27.5 0.5t21.5 -8.5v-1221q0 -52 1.5 -85t8.5 -58t14 -38t25.5 -22t35.5 -12.5t50 -7.5q4 0 5.5 -11t0.5 -22.5t-4 -11.5q-59 2 -247 2 q-191 0 -250 -2q-5 0 -5.5 22.5t5.5 22.5q33 4 50 7.5t35 12.5t25 21.5t13.5 38.5t8 58.5t1.5 84.5v858q0 130 -49 179q-65 65 -170 65q-193 0 -193 -352v-142h256q6 0 6 -43t-6 -43h-258v-522q0 -49 2 -78.5t9 -55t17 -39t31 -24.5t46.5 -16t66.5 -10q4 0 5.5 -11 t0.5 -22.5t-4 -11.5q-59 2 -276 2q-201 0 -260 -2q-5 0 -5.5 22.5t5.5 22.5q40 5 60 10.5t37.5 17.5t24 37t10 60.5t3.5 97.5v516h-172q-2 0 -4 14t-2 28.5z" />
<glyph unicode="&#xfb03;" horiz-adv-x="1908" d="M31.5 824.5q0.5 14.5 3.5 15.5q118 28 143 53l4 4q5 4 5.5 5t3.5 5t4 6t4 7.5t4 10.5t3 12t3.5 16t3.5 20q26 205 159.5 344t309.5 139q93 0 148 -37t55 -86q0 -40 -50 -92.5t-69 -52.5q-7 0 -31 22.5t-51 49t-61.5 49t-61.5 22.5q-64 0 -93.5 -70.5t-29.5 -228.5v-164 h404q0 46 6 107q13 121 64.5 219t128 159.5t169.5 94.5t193 33q114 0 197 -44t83 -97q0 -46 -54.5 -105t-76.5 -59q-9 0 -64.5 46.5t-124 93t-110.5 46.5q-90 0 -133 -83t-43 -269v-142h641v-608q0 -52 1.5 -85t8.5 -58t14 -38t25.5 -22t35.5 -12.5t50 -7.5q4 0 5.5 -11 t0.5 -22.5t-4 -11.5q-59 2 -249 2q-191 0 -250 -2q-3 0 -4 11t0.5 22.5t5.5 11.5q34 4 50.5 7t34.5 12.5t25 21.5t13.5 38t8 58.5t1.5 85.5v336q0 65 -5 101t-22 55.5t-39.5 24.5t-66.5 5h-281v-522q0 -49 2 -78.5t9 -55t17 -39t31 -24.5t46.5 -16t66.5 -10q6 0 5.5 -22.5 t-5.5 -22.5q-59 2 -276 2q-201 0 -260 -2q-3 0 -4 11t0.5 22.5t5.5 11.5q40 5 60 10.5t37.5 17.5t24 37t10 60.5t3.5 97.5v522h-414v-522q0 -52 1.5 -83.5t10 -57t17.5 -37.5t32.5 -22t45.5 -14t65 -9q4 0 5.5 -11t0.5 -22.5t-4 -11.5q-59 2 -276 2q-201 0 -260 -2 q-5 0 -5.5 22.5t5.5 22.5q40 5 60 10.5t37.5 17.5t24 37t10 60.5t3.5 97.5v516h-174q-2 0 -3 14t-0.5 28.5z" />
<glyph unicode="&#xfb04;" horiz-adv-x="1898" d="M31.5 824.5q0.5 14.5 3.5 15.5q118 28 143 53l4 4q5 4 5.5 5t3.5 5t4 6t4 7.5t4 10.5t3 12t3.5 16t3.5 20q26 207 160.5 345t308.5 138q93 0 148 -37t55 -86q0 -40 -50 -92.5t-69 -52.5q-7 0 -31 22.5t-51 49t-61.5 49t-61.5 22.5q-64 0 -93.5 -70.5t-29.5 -228.5v-164 h404q0 9 -0.5 22.5t-0.5 21t1.5 24t5.5 39.5q15 123 67 221t127.5 159.5t166 93.5t188.5 32q106 0 207 -45l63 53q6 4 27.5 0.5t21.5 -8.5v-1221q0 -52 1.5 -85t8.5 -58t14 -38t25.5 -22t35.5 -12.5t50 -7.5q4 0 5.5 -11t0.5 -22.5t-4 -11.5q-59 2 -247 2q-191 0 -250 -2 q-5 0 -5.5 22.5t5.5 22.5q33 4 50 7.5t35 12.5t25 21.5t13.5 38.5t8 58.5t1.5 84.5v858q0 130 -49 179q-65 65 -170 65q-193 0 -193 -352v-142h256q10 0 8.5 -43t-8.5 -43h-256v-522q0 -49 2 -78.5t9 -55t17 -39t31 -24.5t46.5 -16t66.5 -10q6 0 5.5 -22.5t-5.5 -22.5 q-59 2 -276 2q-201 0 -260 -2q-3 0 -4 11t0.5 22.5t5.5 11.5q40 5 60 10.5t37.5 17.5t24 37t10 60.5t3.5 97.5v522h-414v-522q0 -52 1.5 -83.5t10 -57t17.5 -37.5t32.5 -22t45.5 -14t65 -9q4 0 5.5 -11t0.5 -22.5t-4 -11.5q-59 2 -276 2q-201 0 -260 -2q-5 0 -5.5 22.5 t5.5 22.5q40 5 60 10.5t37.5 17.5t24 37t10 60.5t3.5 97.5v516h-174q-2 0 -3 14t-0.5 28.5z" />
</font>
</defs>
</svg>
