<?xml version="1.0" standalone="no"?>
<!DOCTYPE svg PUBLIC "-//W3C//DTD SVG 1.1//EN" "http://www.w3.org/Graphics/SVG/1.1/DTD/svg11.dtd" >
<svg xmlns="http://www.w3.org/2000/svg" xmlns:xlink="http://www.w3.org/1999/xlink" version="1.1">
<metadata></metadata>
<defs>
<font id="sterling_textitalic" horiz-adv-x="1447" >
<font-face units-per-em="2048" ascent="1638" descent="-410" />
<missing-glyph horiz-adv-x="415" />
<glyph horiz-adv-x="0" />
<glyph horiz-adv-x="682" />
<glyph unicode=" "  horiz-adv-x="415" />
<glyph unicode="&#x09;" horiz-adv-x="415" />
<glyph unicode="&#xa0;" horiz-adv-x="415" />
<glyph unicode="!" horiz-adv-x="438" d="M47 66q0 45 28.5 76.5t78.5 31.5q49 0 77.5 -31.5t28.5 -76.5q0 -41 -29 -72t-77 -31q-50 0 -78.5 31t-28.5 72zM188 340q34 217 53.5 514t30.5 358q13 71 36.5 100t64.5 29q80 0 80 -94q0 -21 -7 -61q-11 -63 -51.5 -195t-90.5 -310t-83 -345q0 -2 -10 -2q-23 0 -23 6z " />
<glyph unicode="&#x22;" horiz-adv-x="581" d="M213 856q2 41 4.5 105t4 93t3.5 71.5t3.5 64.5t4 45.5t5.5 40.5q4 24 26.5 40.5t44.5 16.5q20 0 38 -21t18 -46t-12 -70t-48 -155.5t-59 -188.5q-2 -4 -13 -4q-20 0 -20 8zM483 856q2 41 4.5 105t4 93t3.5 71.5t3.5 64.5t4 45.5t5.5 40.5q4 23 27 40t45 17q20 0 37.5 -21 t17.5 -46t-12 -70t-48 -155.5t-59 -188.5q-2 -4 -12 -4q-21 0 -21 8z" />
<glyph unicode="#" horiz-adv-x="1259" d="M9 442.5q0 22.5 3 22.5h320q82 188 172 393h-305q-3 0 -3 22.5t3 22.5h325l207 477q1 2 12.5 -2.5t22.5 -10t10 -7.5l-198 -457h376l207 477q1 2 12.5 -2.5t22.5 -10t10 -7.5l-198 -457h299q3 0 3 -22.5t-3 -22.5h-320l-170 -393h303q3 0 3 -22.5t-3 -22.5h-323 l-207 -479q-1 -2 -13 2.5t-23.5 10t-10.5 7.5l200 459h-376l-207 -479q-1 -2 -13 2.5t-23.5 10t-10.5 7.5l200 459h-301q-3 0 -3 22.5zM387 465h375q82 188 172 393h-377z" />
<glyph unicode="$" horiz-adv-x="991" d="M72 96q-6 6 28 297q0 3 9 3.5t18.5 -1.5t9.5 -6q14 -148 70 -235.5t176 -116.5q1 0 32 140.5t61.5 281.5t29.5 141l-37 29q-122 92 -184 172t-62 184q0 142 114 240t284 98q29 0 43 -2l22 104q1 4 15 4.5t27.5 -2t12.5 -6.5l-22 -106q134 -22 252 -84l-43 -270 q0 -2 -7 -3t-13.5 -1t-6.5 1q-48 242 -194 302l-113 -517q8 -4 12 -8q63 -48 106.5 -86.5t88 -89t67.5 -104.5t23 -111q0 -68 -31.5 -133.5t-87.5 -116.5t-140 -82.5t-181 -31.5h-23l-33 -148q-1 -4 -15 -4.5t-27.5 2.5t-12.5 8l33 146q-97 12 -185 48t-116 64zM365 1053 q0 -81 45 -141t135 -132l108 496q-28 4 -43 4q-106 0 -175.5 -64t-69.5 -163zM438 29q14 -2 41 -2q122 0 196.5 73.5t74.5 175.5q0 82 -47 145t-148 142z" />
<glyph unicode="%" horiz-adv-x="1533" d="M129 928q0 98 45 190.5t125 151.5t172 59q122 0 194 -88t72 -215q0 -98 -45 -190.5t-125 -151.5t-172 -59q-120 0 -193 88.5t-73 214.5zM147 -18l1278 1368q11 11 33 -1q19 -11 8 -24l-1273 -1368q-8 -6 -20 -2t-21.5 13t-4.5 14zM252 856q0 -89 41 -139.5t100 -50.5 q69 0 121.5 71.5t76 167.5t23.5 193q0 89 -41 139.5t-100 50.5q-69 0 -121.5 -71.5t-76 -167.5t-23.5 -193zM868 279q0 98 45 190.5t125 151.5t172 59q122 0 194.5 -88t72.5 -215q0 -98 -45 -190.5t-125 -152t-172 -59.5q-120 0 -193.5 89t-73.5 215zM991 207 q0 -89 41.5 -140t100.5 -51q53 0 96.5 41.5t69.5 107t40.5 139.5t14.5 145q0 89 -41.5 139.5t-100.5 50.5q-69 0 -121.5 -71.5t-76 -167.5t-23.5 -193z" />
<glyph unicode="&#x26;" horiz-adv-x="1304" d="M18 242q0 81 29 148t89.5 124.5t133 104t181.5 100.5q-21 85 -21 172q0 102 36.5 188.5t95.5 141.5t130.5 85.5t143.5 30.5q80 0 139 -49.5t59 -134.5q0 -46 -22 -95t-60 -87q-118 -118 -358 -232q48 -182 164 -342q143 215 226 290t169 75q51 0 87 -29t36 -74 q0 -65 -90 -120q-12 29 -50.5 53t-74.5 24q-57 0 -102 -45t-171 -215q40 -51 91 -102q188 -188 268 -188q55 0 113 77l30 -18q-45 -86 -105.5 -129t-117.5 -43q-101 0 -281 180q-42 42 -90 100q-218 -266 -393 -266q-117 0 -201 84t-84 191zM170 315q0 -98 64.5 -162.5 t152.5 -64.5q127 0 279 184q-145 194 -203 404q-156 -84 -230 -178q-26 -32 -44.5 -85.5t-18.5 -97.5zM561 989q0 -95 23 -207q223 112 278 187q37 50 37 129q0 74 -42 124t-112 50q-78 0 -131 -82.5t-53 -200.5z" />
<glyph unicode="'" horiz-adv-x="311" d="M213 856q2 41 4.5 105t4 93t3.5 71.5t3.5 64.5t4 45.5t5.5 40.5q4 24 26.5 40.5t44.5 16.5q20 0 38 -21t18 -46t-12 -70t-48 -155.5t-59 -188.5q-2 -4 -13 -4q-20 0 -20 8z" />
<glyph unicode="(" horiz-adv-x="761" d="M166 229q0 185 65.5 375t177 352t260.5 298.5t316 224.5h4q4 0 8 -6.5t4 -12.5q0 -8 -4 -8q-129 -71 -252.5 -204.5t-219 -298t-154 -360t-58.5 -378.5q0 -259 93 -486.5t229 -328.5q3 -2 -0.5 -10t-10 -14t-10.5 -3q-207 130 -327.5 360t-120.5 500z" />
<glyph unicode=")" horiz-adv-x="761" d="M-246 -612q0 8 4 8q129 71 252.5 204.5t219 298t154 360t58.5 378.5q0 259 -92.5 486.5t-228.5 328.5q-3 2 0.5 10t9.5 14t10 3q207 -130 328 -360.5t121 -500.5q0 -185 -65 -374.5t-177 -352t-261 -298t-316 -224.5h-4q-4 0 -8.5 6.5t-4.5 12.5z" />
<glyph unicode="*" horiz-adv-x="747" d="M165 931.5q-1 22.5 15 29.5l271 59l-234 147q-11 11 -3.5 31.5t28 35t32.5 1.5l193 -201l12 275q1 17 25 20t46 -8t17 -27l-82 -264l248 125q16 8 30.5 -12.5t15 -42.5t-14.5 -29l-266 -59l229 -148q13 -12 5.5 -32.5t-29 -35t-33.5 -1.5l-189 202l-14 -278 q-1 -17 -25 -19.5t-46 8.5t-17 27l82 266l-250 -127q-15 -8 -30 13.5t-16 44z" />
<glyph unicode="+" horiz-adv-x="983" d="M106 657.5q0 26.5 3 26.5h395v403q0 3 26.5 3t26.5 -3v-403h401q3 0 3 -26.5t-3 -26.5h-401v-402q0 -3 -26.5 -3t-26.5 3v402h-395q-3 0 -3 26.5z" />
<glyph unicode="," horiz-adv-x="370" d="M-61 -307q186 111 186 231q0 65 -66 82q-67 17 -67 78q0 48 28.5 75t75.5 27q71 0 110.5 -51t39.5 -115q0 -102 -85 -201t-208 -157q-2 -1 -6.5 6t-7.5 15t0 10z" />
<glyph unicode="-" horiz-adv-x="595" d="M67 536.5q0 26.5 3 26.5h493q3 0 3 -26.5t-3 -26.5h-493q-3 0 -3 26.5z" />
<glyph unicode="." horiz-adv-x="397" d="M25 72q0 47 29.5 80.5t82.5 33.5q52 0 82.5 -33.5t30.5 -80.5q0 -43 -31 -76t-82 -33q-52 0 -82 33t-30 76z" />
<glyph unicode="/" horiz-adv-x="460" d="M-317 -592l927 2089q1 2 15 -1t27 -7.5t12 -7.5l-926 -2089q-1 -3 -15 0.5t-27.5 8.5t-12.5 7z" />
<glyph unicode="0" horiz-adv-x="1261" d="M125 545q0 102 28 211.5t84 212t130 184t174.5 131t210.5 49.5q90 0 166 -32.5t129.5 -87.5t91 -128t55.5 -154.5t18 -166.5q0 -84 -20.5 -175.5t-57.5 -179.5t-93 -167.5t-123.5 -139.5t-153.5 -95.5t-178 -35.5q-90 0 -166.5 33.5t-129.5 89.5t-91 130.5t-56 155.5 t-18 165zM305 469q0 -64 7 -122t25.5 -118.5t47.5 -104t78 -71.5t112 -28q75 0 141.5 40.5t115 108.5t87.5 152.5t62.5 175.5t36 175t12.5 154q0 81 -12 153.5t-40.5 142.5t-84.5 111.5t-135 41.5q-89 0 -166 -58.5t-128.5 -148.5t-88.5 -201t-53.5 -214.5t-16.5 -188.5z " />
<glyph unicode="1" horiz-adv-x="833" d="M56 4q0 8 2 16.5t5 8.5q60 3 90.5 5.5t62.5 12t45.5 20.5t28 37.5t21.5 57t17 84.5l139 782q10 54 13 88t-3 62.5t-20 43t-45 25t-70.5 13.5t-103.5 4q-4 0 -5 8.5t1 17t6 8.5q167 6 417 25q16 0 9 -31l-187 -1046q-9 -53 -13 -84t2 -57t15.5 -38t38.5 -21t58.5 -11.5 t87.5 -5.5q3 0 3 -8t-2 -16.5t-5 -8.5q-82 4 -291 4q-158 0 -314 -4q-3 0 -3 8z" />
<glyph unicode="2" horiz-adv-x="991" d="M-33 51q214 165 362.5 294.5t234.5 220t132.5 169.5t60 133t13.5 121q0 108 -71.5 174t-180.5 66q-75 0 -154 -42.5t-149 -121.5q-5 -5 -13.5 2t-4.5 14q76 118 183.5 185t225.5 67q62 0 120.5 -20.5t106 -58t76.5 -97t29 -131.5q0 -53 -15 -105t-39.5 -99t-72 -103.5 t-96 -106t-128 -119.5t-151.5 -130.5t-183 -152.5q-67 -55 -103 -85h475q28 0 51 4t39.5 9.5t31.5 17t24.5 20.5t21.5 26.5t18 29t18 34t19 35.5q1 2 5 2.5t9.5 -0.5l11 -2t9 -3.5t2.5 -4.5l-84 -238l-21 -55h-803z" />
<glyph unicode="3" horiz-adv-x="927" d="M-20 160q10 20 22 20h2q76 -75 147.5 -105t157.5 -30q156 0 253 103t97 239q0 120 -73 191t-205 71q-63 0 -133 -18q-6 -2 -8 8q-5 20 2 33q1 2 2 2q477 64 477 373q0 90 -65 148t-167 58q-77 0 -157 -44.5t-150 -123.5l-20 19q69 106 174 167.5t225 61.5q79 0 143 -24 t104 -64t61.5 -90.5t21.5 -105.5q0 -122 -102.5 -221t-299.5 -144q164 -18 250 -109.5t86 -214.5q0 -75 -31.5 -145t-88 -124.5t-143 -87t-189.5 -32.5q-249 0 -393 189z" />
<glyph unicode="4" horiz-adv-x="1157" d="M33 481l815 842h115l-140 -774h142q55 0 84.5 31t68.5 110q2 2 11 2t18.5 -1.5t9.5 -2.5l-67 -184l-23 -64h-262l-78 -444h-145l82 444h-619zM176 549h506l115 643h-4z" />
<glyph unicode="5" horiz-adv-x="942" d="M10 184q-3 4 9.5 15t15.5 8q64 -70 151 -115t185 -45q142 0 239 114t97 269q0 120 -83 197.5t-223 77.5q-79 0 -168 -35l-47 35l164 598h545q36 0 53.5 19.5t48.5 82.5q0 2 7 2t19.5 -3t12.5 -5q-3 -7 -26.5 -69t-34.5 -95l-19 -55h-573l-117 -432q75 28 174 28 q187 0 307.5 -97t120.5 -257q0 -123 -66.5 -226.5t-173 -161t-225.5 -57.5q-112 0 -217.5 59.5t-175.5 147.5z" />
<glyph unicode="6" horiz-adv-x="1136" d="M121 461q0 163 80 318.5t215 274t323 197.5t394 95q14 0 14 -27v-6q-3 -10 -14 -10q-125 -11 -241 -56t-208.5 -113t-169 -156t-127.5 -184.5t-79.5 -198.5t-28.5 -200q-1 -106 29 -190t94 -135.5t153 -51.5q91 0 164 59t110 146t37 180q0 144 -67.5 230t-190.5 86 q-64 0 -127 -21q-2 -1 -3 3q-5 15 2 27q1 3 3 3q112 39 199 39q107 0 189 -49.5t123.5 -128t41.5 -170.5q0 -125 -59 -228.5t-167.5 -165t-244.5 -61.5q-132 0 -234 67t-156 179t-54 248z" />
<glyph unicode="7" horiz-adv-x="974" d="M143 -2l805 1184h-506q-37 0 -66 -7t-46.5 -15.5t-35.5 -29t-26 -32.5t-24.5 -42.5t-24.5 -43.5q-5 -7 -29 3q-8 4 -8 7l105 293h794q7 0 7.5 -14.5t-3.5 -18.5l-856 -1309q-8 -7 -29 -4t-41.5 12.5t-15.5 16.5z" />
<glyph unicode="8" horiz-adv-x="1071" d="M72 309q0 73 32 137t86.5 109.5t116 77.5t131.5 53q-57 44 -96 84t-69.5 100t-30.5 123q0 101 58 182t147.5 122.5t189.5 41.5q68 0 137 -19t128.5 -54.5t96.5 -95t37 -132.5q0 -70 -30.5 -128.5t-84 -99.5t-111 -69t-124.5 -47q47 -33 75 -54.5t70 -59.5t65.5 -71.5 t41.5 -78.5t18 -92q0 -81 -45 -156q-62 -103 -169 -159t-232 -56q-60 0 -121 13.5t-118 42t-101.5 68t-71 96t-26.5 122.5zM223 319q0 -124 85.5 -211.5t209.5 -87.5q115 0 207 73t92 186q0 42 -18 83.5t-42.5 72t-67 67.5t-71.5 57.5t-78 53.5t-67 46 q-115 -46 -182.5 -133.5t-67.5 -206.5zM381 1049q0 -51 20.5 -97t68 -90.5t75 -65t89.5 -63.5q11 -8 17 -12q107 38 174.5 124t67.5 197q0 113 -74 183.5t-188 70.5q-106 0 -178 -70t-72 -177z" />
<glyph unicode="9" horiz-adv-x="1140" d="M63 -12q3 10 15 10q149 14 285 74.5t237.5 152.5t177 205t114.5 235.5t40 239.5q1 106 -29.5 190t-94.5 135.5t-153 51.5q-91 0 -164 -59t-110 -146t-37 -180q0 -143 68.5 -225t193.5 -82q67 0 127 20q2 1 3 -3q5 -14 -2 -26l-3 -3q-110 -39 -199 -39q-161 0 -259.5 99 t-98.5 241q0 196 131.5 325t339.5 129q93 0 176 -39t142 -105.5t93 -157t34 -191.5q0 -163 -80 -318.5t-215 -274t-323 -197.5t-394 -95q-15 0 -15 27v6z" />
<glyph unicode=":" horiz-adv-x="397" d="M31 72q0 47 29.5 80.5t82.5 33.5q52 0 82.5 -33.5t30.5 -80.5q0 -43 -32 -76t-83 -33q-52 0 -81 32.5t-29 76.5zM119 637q0 47 29.5 81t82.5 34q52 0 82.5 -34t30.5 -81q0 -43 -31 -76t-82 -33q-52 0 -82 33t-30 76z" />
<glyph unicode=";" horiz-adv-x="370" d="M-61 -307q186 111 186 231q0 65 -66 82q-67 17 -67 78q0 48 28.5 75t75.5 27q71 0 110.5 -51t39.5 -115q0 -102 -85 -201t-208 -157q-2 -1 -6.5 6t-7.5 15t0 10zM121 637q0 47 29.5 81t82.5 34q52 0 82.5 -34t30.5 -81q0 -43 -31 -76t-82 -33q-52 0 -82 33t-30 76z" />
<glyph unicode="&#x3c;" horiz-adv-x="983" d="M127 637v43l795 358q2 1 5.5 -3t6 -10.5t4.5 -14t2 -12.5t-2 -7l-748 -334l748 -333q2 -2 2 -7t-2 -12.5t-4.5 -14.5t-6 -11t-5.5 -3z" />
<glyph unicode="=" horiz-adv-x="983" d="M101 522.5q0 26.5 3 26.5h852q3 0 3 -26.5t-3 -26.5h-852q-3 0 -3 26.5zM101 792.5q0 26.5 3 26.5h852q3 0 3 -26.5t-3 -26.5h-852q-3 0 -3 26.5z" />
<glyph unicode="&#x3e;" horiz-adv-x="983" d="M125 317q0 5 2 7l747 333l-747 334q-2 2 -2 7t2 12.5t4.5 14t6 10.5t5.5 3l795 -358v-43l-795 -361q-2 -1 -5.5 3t-6 11t-4.5 14.5t-2 12.5z" />
<glyph unicode="?" horiz-adv-x="739" d="M139 66q0 45 28.5 76.5t78.5 31.5q49 0 77.5 -31.5t28.5 -76.5q0 -41 -29 -72t-77 -31q-50 0 -78.5 31t-28.5 72zM188 1145q137 190 326 190q120 0 199.5 -71t79.5 -181q0 -30 -7.5 -60t-16.5 -53t-28 -49t-31.5 -42t-38 -39t-36.5 -32t-37.5 -29.5t-30.5 -24.5 q-118 -95 -187 -194t-79 -228q0 -6 -9.5 -8.5t-18.5 0.5t-9 10v18q0 75 20.5 142t53.5 116.5t72.5 95t79.5 86t73 80t53.5 87t20.5 98.5q0 86 -59 135t-138 49q-132 0 -233 -115q-2 -2 -7.5 1.5t-9.5 9t-2 8.5z" />
<glyph unicode="@" horiz-adv-x="1949" d="M168 475q0 180 69.5 342.5t188 279.5t282.5 186t345 69q219 0 398.5 -90.5t283.5 -252.5t104 -362q0 -138 -65.5 -266t-182 -209.5t-252.5 -81.5q-110 0 -178 59t-80 166q-69 -72 -147 -137q-65 -53 -125 -53q-62 0 -108 55t-46 144q0 118 48.5 237.5t132.5 206.5 q133 139 247 139q66 0 121 -41l82 52l23 -15l-109 -469q-7 -37 -9 -75.5t10 -75.5t31.5 -65.5t55.5 -46t82 -17.5q95 0 172.5 42t125 111.5t72.5 156t25 179.5q0 140 -57 264.5t-154 213t-230.5 139.5t-281.5 51q-169 0 -317 -68.5t-250.5 -183t-161.5 -267.5t-59 -319 q0 -210 90.5 -375t254.5 -257.5t374 -92.5q230 0 436 90q6 3 11.5 -5t6.5 -16.5t-2 -11.5q-210 -100 -450 -100q-171 0 -319 54.5t-256 153t-170 244t-62 318.5zM778 367q0 -62 26.5 -103t67.5 -41q34 0 78 28t119 103l88 420q-84 43 -139 43q-66 0 -123 -57 q-54 -54 -85.5 -165t-31.5 -228z" />
<glyph unicode="A" horiz-adv-x="1228" d="M-70 12.5q0 16.5 4 16.5q39 3 65 9.5t51 23t41.5 34.5t40.5 57.5t43.5 78.5t54.5 110q4 8 6 12.5t5.5 11.5l6.5 13l463 940h131l139 -1077q7 -52 12.5 -83t16.5 -56.5t21 -37t34 -20t45.5 -11t65.5 -5.5q4 0 4 -16.5t-4 -16.5q-82 4 -236 4q-100 0 -256 -4q-4 0 -4 16.5 t4 16.5q32 2 49 4t36.5 6.5t28.5 10t18 17t11 25t3 36.5t-1.5 49t-7.5 65l-35 286h-395l-78 -163q-34 -71 -53.5 -117t-30 -86t-7.5 -62t19.5 -39t45 -23.5t75.5 -8.5q4 0 4 -16.5t-4 -16.5q-156 4 -221 4q-125 0 -207 -4q-4 0 -4 16.5zM420 592h358l-76 600q0 1 -47 -99 t-111 -236t-124 -265z" />
<glyph unicode="B" horiz-adv-x="1159" d="M23.5 0q-0.5 8 1 16.5t4.5 8.5q43 3 64 5t44.5 11t33 20t21.5 37t19 56.5t16 83.5l146 819q7 39 11 65.5t4 49.5t-1 36.5t-10 25t-17.5 16.5t-28 10t-36.5 6.5t-49 3.5q-4 0 -4 16.5t4 16.5h51q73 -1 183 1q156 2 216 3q200 0 305 -71.5t105 -215.5q0 -108 -100 -203 t-242 -131q156 -22 240 -113q79 -86 79 -190v-12q-5 -159 -146 -270t-353 -111q-49 0 -159.5 3t-141.5 3q-100 0 -256 -4q-3 0 -3.5 8zM376.5 145.5q-0.5 -30.5 12.5 -47.5q21 -23 73 -40t134 -17q143 0 230 95t87 245q0 128 -82 205.5t-208 77.5q-79 0 -162 -19l-72 -399 q-12 -70 -12.5 -100.5zM475 725q20 -7 79.5 -12.5t94.5 -5.5q132 0 211.5 79.5t79.5 217.5q0 119 -78.5 186t-204.5 67q-13 1 -26 1q-30 0 -62 -5q-5 -33 -19 -107t-18 -99z" />
<glyph unicode="C" horiz-adv-x="1255" d="M123 569q0 163 59.5 308.5t159 247.5t233 161.5t277.5 59.5q81 0 155 -21t122.5 -42t66.5 -21q22 0 43 30q3 4 14 2.5t11 -6.5l-50 -309q0 -3 -6.5 -3.5t-13.5 1t-8 4.5q-27 139 -112.5 228t-223.5 89q-99 0 -187.5 -44t-152.5 -118.5t-111 -170.5t-70.5 -202t-23.5 -212 q0 -104 24 -197t72.5 -170.5t132.5 -123.5t195 -46q127 0 225 72q51 36 156 229q1 2 5 2.5t9 -0.5t9.5 -2.5t7.5 -3.5t2 -4q-3 -11 -11.5 -50.5t-17 -75.5t-18.5 -74.5t-19.5 -63.5t-15.5 -27q-136 -51 -313 -51q-144 0 -263.5 48.5t-197.5 132t-121 192.5t-43 231z" />
<glyph unicode="D" horiz-adv-x="1413" d="M23.5 2q-0.5 8 1 16.5t4.5 8.5q43 3 64 5t44.5 11t33 20t21.5 37t19 56.5t16 83.5l146 815q7 39 11 65.5t4 49.5t-1 36.5t-10 25t-17.5 16.5t-28 10t-36.5 6.5t-49 3.5q-4 0 -4 16t4 16q13 0 179.5 1.5t231.5 1.5q200 0 356.5 -67.5t247.5 -200t91 -310.5 q0 -205 -104 -373.5t-283 -263t-394 -94.5q-45 0 -147 1t-139 1q-180 0 -258 -2q-3 0 -3.5 8zM388 192v-8q0 -39 8 -66q9 -29 33.5 -44.5t56 -21t81.5 -5.5q125 0 227.5 42t169.5 110t113 157.5t66 182t20 186.5q0 127 -42 229.5t-112.5 165.5t-158 96t-184.5 33 q-47 0 -71 -1l-24 -1l-170 -942q-12 -67 -13 -113z" />
<glyph unicode="E" horiz-adv-x="1095" d="M23.5 4q-0.5 8 1 16.5t4.5 8.5q43 3 64 5t44.5 11t33 20t21.5 37t19 56.5t16 83.5l146 819q7 39 11 65.5t4 49.5t-1 36.5t-10 25t-17.5 16.5t-28 10t-36.5 6.5t-49 3.5q-4 0 -4 16.5t4 16.5q156 -4 250 -4h221q70 0 172.5 3t116.5 3q29 0 45.5 -3.5t19.5 -7.5t2 -10 q-19 -169 -39 -258q0 -2 -7.5 -3t-15 -0.5t-7.5 1.5q0 52 -4.5 82.5t-20 59t-47 42.5t-83 22.5t-130.5 8.5h-127q-27 0 -27 -4l-98 -551h70q64 0 103.5 0.5t79.5 4t61 6.5t43 13t32 19t22 28.5t18.5 37.5t16.5 49q0 4 24 0q12 -2 11 -6q-5 -15 -19 -79.5t-20 -101.5 q-22 -154 -24 -192q0 -6 -17.5 -5.5t-17.5 5.5q0 32 -1 50t-6 39t-13 31t-25 21.5t-39 16.5t-57.5 9.5t-78 5.5t-102.5 1h-69l-56 -315q-9 -53 -14 -81.5t-6 -60.5t1 -46.5t14 -31.5t24 -22.5t41 -12.5t55.5 -9.5t75.5 -6.5h31q71 0 119.5 14t84 49t60 81.5t51.5 124.5 q2 8 28 1q9 -3 9 -6q-35 -184 -53 -299q-4 -24 -12.5 -27.5t-43.5 -0.5q-73 8 -379 8h-20q-286 0 -442 -4q-3 0 -3.5 8z" />
<glyph unicode="F" horiz-adv-x="1040" d="M23.5 4q-0.5 8 1 16.5t4.5 8.5q43 3 64 5t44.5 11t33 20t21.5 37t19 56.5t16 83.5l146 819q7 39 11 65.5t4 49.5t-1 36.5t-10 25t-17.5 16.5t-28 10t-36.5 6.5t-49 3.5q-4 0 -4 16.5t4 16.5q156 -4 250 -4h221q70 0 172.5 3t116.5 3q29 0 45.5 -3.5t19.5 -7.5t2 -10 q-19 -169 -39 -258q0 -2 -7.5 -3t-15 -0.5t-7.5 1.5q0 52 -4.5 82.5t-20 59t-47 42.5t-83 22.5t-130.5 8.5h-127q-27 0 -27 -4l-100 -561h70q64 0 103.5 0.5t79.5 4t61 6.5t43 13t32 19t22 28.5t18.5 37.5t16.5 49q0 1 4 1t9 -0.5t10.5 -1t9 -2.5t2.5 -4q-5 -15 -19 -79 t-20 -101q-22 -154 -24 -192q0 -6 -17.5 -5.5t-17.5 5.5q0 32 -1 50t-6 39t-13 31t-25 21.5t-39 16.5t-57.5 9.5t-78 5.5t-102.5 1h-69l-68 -389q-6 -31 -9 -53t-4.5 -43t-1.5 -34.5t4 -26t8 -19.5t14.5 -13.5t19.5 -10t26.5 -6.5t32.5 -4t41 -3q3 0 3.5 -8t-1 -16.5 t-4.5 -8.5q-82 4 -235 4q-100 0 -256 -4q-3 0 -3.5 8z" />
<glyph unicode="G" horiz-adv-x="1353" d="M123 553q0 168 59 316t159.5 252.5t237.5 164.5t289 60q74 0 140.5 -13t104.5 -29t72.5 -29t51.5 -13q22 0 43 30q2 3 8.5 3t12 -2t4.5 -5l-54 -309q-2 -4 -14 -3.5t-14 5.5q-45 149 -130 233t-227 84q-104 0 -195.5 -43.5t-157.5 -118.5t-113.5 -173t-71 -208.5 t-23.5 -224.5q0 -75 16.5 -148t52.5 -140t86.5 -117.5t123.5 -80.5t159 -30q101 0 175 33q19 7 34.5 53.5t32.5 145.5q9 53 12.5 83.5t-0.5 56t-11 36.5t-30.5 20t-47 11.5t-70.5 5.5q-4 0 -4 16.5t4 16.5q195 -5 270 -5q128 0 231 5q5 0 5 -16.5t-5 -16.5q-43 -3 -65 -5.5 t-45.5 -11.5t-33.5 -20t-22 -37t-19 -56t-17 -83l-43 -234q-3 -10 -19 -14q-165 -33 -313 -33q-153 0 -277 49t-201.5 131.5t-119 187.5t-41.5 220z" />
<glyph unicode="H" horiz-adv-x="1488" d="M23.5 4q-0.5 8 1 16.5t4.5 8.5q43 3 64 5t44.5 11t33 20t21.5 37t19 56.5t16 83.5l146 819q7 39 11 65.5t4 49.5t-1 36.5t-10 25t-17.5 16.5t-28 10t-36.5 6.5t-49 3.5q-4 0 -4 16.5t4 16.5q156 -4 256 -4q153 0 235 4q5 0 5 -16.5t-5 -16.5q-43 -3 -65 -5.5t-46 -11.5 t-34 -20t-22 -36.5t-19 -56t-16 -83.5l-66 -369h643l66 369q7 39 11 65t4 49t-1.5 36.5t-10 25t-17 17t-28 10t-36.5 6.5t-49 4q-5 0 -5 16.5t5 16.5q156 -4 256 -4q153 0 235 4q4 0 4 -16.5t-4 -16.5q-44 -3 -65 -5.5t-45.5 -11t-34.5 -19.5t-22.5 -36.5t-19.5 -56.5 t-16 -84l-145 -819q-9 -52 -13 -83.5t-0.5 -56.5t10 -36.5t28.5 -20t42.5 -11t63.5 -5.5q3 0 3.5 -8t-1 -16.5t-4.5 -8.5q-82 4 -236 4q-100 0 -256 -4q-3 0 -3.5 8t1.5 16.5t5 8.5q43 3 64 5t44.5 11t33 20t21.5 37t19 56.5t16 83.5l70 397h-643l-70 -397q-9 -52 -13 -83.5 t-0.5 -56.5t10 -36.5t28.5 -20t42.5 -11t63.5 -5.5q3 0 3.5 -8t-1 -16.5t-4.5 -8.5q-82 4 -235 4q-100 0 -256 -4q-3 0 -3.5 8z" />
<glyph unicode="I" horiz-adv-x="692" d="M27.5 4q-0.5 8 1 16.5t4.5 8.5q43 3 64 5t44.5 11t33 20t21.5 37t19 56.5t16 83.5l146 819q7 39 11 65.5t4 49.5t-1 36.5t-10 25t-17.5 16.5t-28 10t-36.5 6.5t-49 3.5q-4 0 -4 16.5t4 16.5q156 -4 256 -4q153 0 235 4q5 0 5 -16.5t-5 -16.5q-44 -3 -65 -5.5t-45.5 -11 t-34 -19.5t-22 -37t-19.5 -56.5t-16 -83.5l-146 -819q-9 -52 -13 -83.5t-0.5 -56.5t10 -36.5t28.5 -20t42.5 -11t63.5 -5.5q3 0 3.5 -8t-1 -16.5t-4.5 -8.5q-82 4 -235 4q-100 0 -256 -4q-3 0 -3.5 8z" />
<glyph unicode="J" horiz-adv-x="655" d="M-110 -301q0 9 8 12q136 45 202 137t103 302l159 911q11 82 11 128q0 40 -9 52q-18 26 -132 32q-10 1 -15 1q-3 0 -3 8t2 16.5t5 8.5q156 -4 277 -4q174 0 256 4q3 0 3 -8.5t-2 -16.5t-5 -8q-106 -12 -125 -17q-46 -14 -66 -60q-18 -40 -35 -136l-164 -938 q-30 -179 -174 -305q-119 -98 -282 -142q-4 -1 -9 6.5t-5 16.5z" />
<glyph unicode="K" horiz-adv-x="1277" d="M17 4.5q0 7.5 2.5 16t5.5 8.5q44 3 65 5.5t45.5 11t34 19.5t22 37t19.5 56.5t16 83.5l144 819q9 53 13.5 84t1 56.5t-9 36.5t-26.5 19.5t-41 11t-63 5.5q-3 0 -3 8t2 16.5t5 8.5q156 -4 256 -4q153 0 235 4q3 0 3 -8.5t-2 -16.5t-5 -8q-44 -3 -65.5 -5.5t-46 -11 t-34.5 -19.5t-23 -36.5t-20 -56.5t-16 -84l-143 -819q-7 -39 -11 -65.5t-4 -49.5t1 -36.5t10 -25t17.5 -16.5t28 -10t36.5 -6.5t49 -3.5q3 0 3 -8t-2 -16.5t-5 -8.5q-82 4 -236 4q-100 0 -256 -4q-3 1 -3 8.5zM520.5 662.5q0.5 13.5 5.5 17.5l260 250l273 264q19 19 22.5 33 t-14.5 26.5t-61 20.5q-2 1 -2 8.5t2 16t4 8.5q122 -4 174 -4q77 0 143 4q3 0 3 -8t-2 -16t-5 -9q-16 -3 -31 -7.5t-25 -7t-22.5 -9t-18 -8.5t-18.5 -10.5t-15.5 -10t-17 -12t-16.5 -11.5q-55 -40 -307 -280q-85 -81 -197 -185q76 -131 191.5 -313t183.5 -277 q42 -59 88 -87.5t88 -28.5q2 0 2.5 -8t-1.5 -16.5t-7 -8.5q-93 6 -252 6q-19 0 -41 31q-40 56 -172 267.5t-213 348.5q-2 2 -1.5 15.5z" />
<glyph unicode="L" horiz-adv-x="1067" d="M17.5 4.5q0.5 7.5 3.5 16t6 8.5q44 3 65 5t45 11t33.5 20t22 37t18.5 56t16 84l142 798q7 41 11 70t4 53.5t-1.5 39.5t-10 27.5t-17 19t-27.5 11.5t-35.5 7.5t-46.5 5.5q-3 1 -2.5 8.5t3 16t5.5 8.5q152 -4 244 -4q186 0 268 4q3 -1 2.5 -8.5t-3 -16t-5.5 -8.5 q-33 -4 -45.5 -5.5t-37 -5.5t-32.5 -7t-24.5 -10.5t-22 -15t-16.5 -20.5t-15 -28t-11.5 -37t-12.5 -46.5t-11 -58.5l-127 -714q-13 -71 -17.5 -106t-1 -63.5t18.5 -43.5q58 -58 191 -58h31q71 0 119.5 14t84 49t60 81.5t51.5 124.5q2 8 28 1q9 -3 9 -6q-35 -184 -53 -299 q-4 -24 -12.5 -27.5t-43.5 -0.5q-73 8 -379 8h-20q-293 0 -449 -4q-3 1 -2.5 8.5z" />
<glyph unicode="M" horiz-adv-x="1699" d="M8.5 4q-0.5 8 1 16.5t4.5 8.5q33 3 50.5 5.5t39.5 9.5t32.5 14.5t25 26.5t22 39.5t19 58.5t21 78t22.5 104l141 675q11 54 16 89t1 61t-10.5 40t-27.5 23.5t-41.5 13t-60.5 7.5q-4 0 -4 16.5t4 16.5q54 -2 123.5 -2t136 1t76.5 1q38 0 41 -25l10 -92q16 -99 75.5 -464 t76.5 -474h2q258 462 504 915l45 90q2 4 4.5 10t4 9t3.5 7.5t3 6.5t3 5t4 4.5l4 3t4 2t5 0.5q4 0 45.5 -3.5t74.5 -3.5q125 0 228 5q5 0 5 -16.5t-5 -16.5q-43 -3 -67 -7t-47.5 -14t-35.5 -23.5t-23.5 -41t-18.5 -60.5t-15 -88l-119 -798q-6 -39 -9 -65.5t-2 -49.5 t2.5 -36.5t11.5 -25t18 -17t28.5 -10t37.5 -6t50 -3.5q4 0 4 -16.5t-4 -16.5q-82 4 -235 4q-100 0 -256 -4q-5 0 -5 16.5t5 16.5q44 3 64 5t44 11t32.5 19.5t20 36.5t17.5 56.5t14 84.5l123 772q21 129 21 159h-7q-377 -682 -659 -1187q-5 -8 -25 -7.5t-22 7.5 q-23 173 -100 638t-91 554h-10l-164 -809q-16 -81 -24 -131q-8 -47 -8 -86q-1 -44 7 -64q6 -19 28 -32.5t46.5 -17t69.5 -5.5q3 0 3.5 -8t-1 -16.5t-4.5 -8.5q-156 4 -219 4q-119 0 -201 -4q-3 0 -3.5 8z" />
<glyph unicode="N" d="M22 12.5q0 16.5 5 16.5q43 4 65 7.5t46 18t34.5 31.5t25 58.5t24 88.5t24.5 132l135 741q7 38 7 66q0 43 -16 61q-26 31 -136 41q-4 0 -4 16.5t4 16.5q156 -4 256 -4h63q21 -49 51 -105l512 -930h4l111 670q14 80 20 130q5 37 5 69q0 11 -1 21q-2 40 -9 59.5t-29 33 t-47 17.5t-70 6q-4 0 -4 16.5t4 16.5q156 -4 223 -4q115 0 197 4q4 0 4 -16.5t-4 -16.5q-43 -4 -65 -7.5t-45.5 -18.5t-34 -31.5t-25 -59t-24 -88t-25.5 -131.5l-111 -602q-10 -55 -30.5 -182.5t-26.5 -163.5q-2 -6 -30.5 -7t-31.5 5l-627 1155h-2l-129 -778 q-14 -81 -20 -131q-5 -37 -5 -68q0 -11 1 -21q2 -40 9 -59.5t29 -33t47 -17.5t70 -6q4 0 4 -16.5t-4 -16.5q-156 4 -223 4q-114 0 -196 -4q-5 0 -5 16.5z" />
<glyph unicode="O" d="M131 582q0 138 50 273.5t137.5 243.5t218 175t278.5 67q108 0 201 -34t160 -92.5t115 -137t71.5 -168.5t23.5 -186q0 -138 -50 -273.5t-137.5 -244t-218 -175.5t-278.5 -67q-134 0 -244 52t-180.5 139t-108.5 197.5t-38 230.5zM313 512q0 -223 98.5 -356t282.5 -133 q145 0 262 101.5t182.5 277.5t65.5 391q0 223 -98.5 356t-282.5 133q-145 0 -262 -101.5t-182.5 -277.5t-65.5 -391z" />
<glyph unicode="P" horiz-adv-x="1083" d="M17 4.5q0 7.5 2.5 16t5.5 8.5q44 3 65 5.5t45.5 11t34 19.5t22 37t19.5 56.5t16 83.5l144 819q6 34 9 59t5.5 46t-1.5 35t-6 25t-13.5 18.5t-18 12t-26.5 8t-32.5 5t-41.5 4.5q-3 0 -3 8t2 16.5t5 8.5q156 -4 264 -4q26 0 97.5 3t101.5 3q200 0 307.5 -88t107.5 -228 q0 -90 -45 -172.5t-121 -140.5q-74 -58 -182 -86q-68 -17 -140 -18q-42 0 -85 6q-7 2 -5 16t7 14h7q100 0 175 28q78 30 122.5 81t65.5 112t21 132q0 159 -108 239q-78 57 -185 58q-42 0 -88 -9l-178 -1011q-11 -79 -11 -123q0 -37 8 -49q17 -26 118 -37q21 -3 33 -4 q3 -1 3 -8.5t-2.5 -16t-5.5 -8.5q-82 4 -256 4q-100 0 -256 -4q-3 1 -3 8.5z" />
<glyph unicode="Q" d="M137 582q0 110 30.5 219.5t90.5 206.5t140.5 171.5t189 118t227.5 43.5q108 0 200 -34t158.5 -92.5t113.5 -137t70 -168.5t23 -186q0 -99 -25.5 -199t-75.5 -190t-118 -164t-158.5 -126t-191.5 -71q308 -237 565 -237q61 0 123 20t103 45q3 2 7 -4.5t5 -13.5t-2 -10 q-187 -103 -375 -103q-159 0 -292 60t-359 241l-11 9q-139 30 -240 121t-149.5 215t-48.5 266zM313 512q0 -224 98.5 -359t282.5 -135q145 0 262 103t182.5 280t65.5 392q0 223 -98.5 356t-282.5 133q-145 0 -262 -101.5t-182.5 -277.5t-65.5 -391z" />
<glyph unicode="R" horiz-adv-x="1200" d="M23.5 4q-0.5 8 1 16.5t4.5 8.5q43 3 64 5t44.5 11t33 20t21.5 37t19 56.5t16 83.5l146 819q7 39 11 65.5t4 49.5t-1 36.5t-10 25t-17.5 16.5t-28 10t-36.5 6.5t-49 3.5q-4 0 -4 16.5t4 16.5q156 -4 256 -4q35 0 110.5 5t106.5 5q172 0 282.5 -90t110.5 -226 q0 -134 -88.5 -233.5t-235.5 -163.5q78 -56 170 -299q76 -205 111 -240q15 -15 33.5 -21.5t62.5 -10.5q7 -1 5 -17t-7 -16q-18 0 -109.5 2t-123.5 2h-35q-3 6 -19 50.5t-42 117.5t-43 119q-75 202 -125 252q-26 26 -52.5 34t-83.5 13l-79 6l-62 -350q-6 -31 -9 -53t-4.5 -43 t-1.5 -34.5t4 -26t8 -19.5t14.5 -13.5t19.5 -10t26.5 -6.5t32.5 -4t41 -3q3 0 3.5 -8t-1 -16.5t-4.5 -8.5q-82 4 -235 4q-100 0 -256 -4q-3 0 -3.5 8zM461 641q70 -18 157 -18q71 0 121.5 12t91.5 53q103 103 103 258q0 139 -77.5 228.5t-225.5 89.5q-28 0 -64 -4z" />
<glyph unicode="S" horiz-adv-x="991" d="M53 90q-2 1 7 56t24 128.5t27 118.5q0 2 7 2.5t14 -0.5t7 -4q11 -377 342 -377q114 0 196.5 68.5t82.5 169.5q0 40 -16.5 80.5t-35.5 69t-62 69.5t-65 59t-77 62q-11 9 -45 35.5t-47.5 37.5t-43 36t-42.5 39.5t-35 38.5t-32 43.5t-22.5 44.5t-17 51t-4.5 53 q0 159 116.5 264.5t286.5 105.5q106 0 216 -49q52 -24 90 -24q27 0 45 32q3 4 13.5 1.5t10.5 -7.5l-51 -329q0 -3 -7 -3t-14.5 1.5t-7.5 3.5q-9 141 -94.5 235t-212.5 94q-97 0 -172.5 -64.5t-75.5 -162.5q0 -26 6.5 -50.5t15 -43.5t27 -42.5t32 -38.5t41.5 -38.5t44 -36 t50.5 -39.5t50.5 -39q66 -51 107.5 -88.5t85.5 -88t65.5 -104t21.5 -110.5q0 -154 -124 -268.5t-308 -114.5q-230 0 -420 123z" />
<glyph unicode="T" horiz-adv-x="1208" d="M166 973q5 22 22.5 112t32.5 154t23 72q16 -2 144 -5t212 -3h320q329 0 360 8q1 -2 1 -10q0 -16 -5 -59q-8 -64 -22 -155.5t-17 -113.5q0 -2 -7.5 -3t-15.5 -0.5t-8 1.5q0 54 -4.5 89.5t-23 75.5t-51.5 63t-93 38.5t-145 15.5h-60l-178 -1011q-10 -53 -14 -83.5t0 -56.5 t11.5 -37t31 -20t48.5 -11.5t73 -4.5q3 -1 2.5 -8.5t-3 -16t-5.5 -8.5q-82 4 -254 4q-123 0 -279 -4q-3 1 -2.5 8.5t3 16t5.5 8.5q49 2 74.5 4.5t51.5 11.5t37 19.5t23.5 38t18.5 56t16 83.5l179 1011h-60q-85 0 -150 -15.5t-105 -38.5t-72 -63.5t-48 -75t-36 -89.5 q0 -1 -7.5 -1.5t-15.5 0.5t-8 3z" />
<glyph unicode="U" horiz-adv-x="1396" d="M194 1290.5q0 16.5 5 16.5q156 -4 256 -4q153 0 235 4q4 0 4 -16.5t-4 -16.5q-44 -3 -65 -5.5t-45.5 -11t-34.5 -19.5t-22.5 -36.5t-19.5 -56.5t-16 -84l-94 -522q-24 -138 -24 -189q0 -132 88 -217.5t250 -85.5q80 0 150.5 29t117.5 76q88 88 133 337l80 449 q14 80 21 130q5 39 5 72v18q-2 40 -9.5 60t-30 33t-47.5 17t-70 6q-5 0 -5 16.5t5 16.5q156 -4 223 -4q115 0 197 4q5 0 5 -16.5t-5 -16.5q-32 -3 -50.5 -5.5t-39 -10t-31 -15.5t-24 -27.5t-20.5 -39.5t-17.5 -58.5t-18 -77t-19.5 -102.5l-81 -444q-28 -154 -66 -241 t-98 -147q-62 -62 -152.5 -100.5t-193.5 -38.5q-249 0 -371 132q-87 94 -87 257q0 67 15 146l103 559q7 39 11 65t4 49t-1.5 36.5t-10 25t-17 17t-28 10t-36.5 6.5t-49 4q-5 0 -5 16.5z" />
<glyph unicode="V" horiz-adv-x="1202" d="M110 1290.5q0 16.5 5 16.5q82 -4 215 -4q100 0 256 4q4 0 4 -16.5t-4 -16.5q-25 -2 -40 -3t-32 -4t-26 -6.5t-19.5 -10t-14.5 -13.5t-8.5 -19.5t-4.5 -26t1 -34.5t3.5 -43t7.5 -53l131 -918l393 795q37 74 57.5 121t32 87t8.5 61t-20 37t-45.5 22t-75.5 8q-4 0 -4 16.5 t4 16.5q156 -4 225 -4q121 0 203 4q4 0 4 -16.5t-4 -16.5q-23 -2 -41 -4.5t-36.5 -10t-30 -11.5t-28.5 -20.5t-26 -24.5t-26.5 -36t-26.5 -42.5t-31 -56t-33.5 -65t-40.5 -79.5l-475 -940h-108l-166 1077q-9 58 -18 92t-20 58t-31.5 35.5t-43 17t-65.5 10.5q-5 0 -5 16.5z " />
<glyph unicode="W" horiz-adv-x="1972" d="M157 1282q0 8 2 16.5t5 8.5q82 -4 239 -4q68 0 224 4q3 0 3 -8.5t-2 -16.5t-5 -8q-41 -4 -65 -8.5t-44 -16.5t-28 -28.5t-10 -47.5q-1 -9 -1 -18q0 -23 4 -51q5 -38 17 -100l159 -816l400 725q-13 69 -21 111t-18 84t-16.5 63t-18 42.5t-20 30t-24.5 16.5t-30.5 10 t-38.5 4q-4 0 -4 16.5t4 16.5q82 -4 240 -4q65 0 221 4q3 0 3 -8.5t-2 -16.5t-5 -8q-48 -4 -75 -12.5t-46 -23.5q-18 -16 -22 -48q-2 -16 -2 -34t2 -39q4 -42 16 -113l148 -803l391 737q39 74 61.5 121t35.5 87t11 61t-18.5 37t-45 22t-75.5 8q-4 0 -4 16.5t4 16.5 q156 -4 225 -4q121 0 203 4q4 0 4 -16.5t-4 -16.5q-108 -9 -158.5 -64.5t-169.5 -277.5q-3 -5 -4 -8l-502 -938h-65l-162 833l-463 -833h-73l-191 956q-14 68 -21.5 105.5t-18 78t-16 58t-17 37.5t-18 26t-22.5 13t-28 8.5l-36 4.5q-6 1 -9 1t-3 8z" />
<glyph unicode="X" horiz-adv-x="1214" d="M-92 12.5q0 16.5 4 16.5q40 3 60 6t52 14t58.5 30.5t63.5 55t83 88.5l357 420l-148 342q-43 99 -70.5 152t-58 84t-57 40t-76.5 15q-3 0 -3.5 8t1 16.5t4.5 8.5q117 -6 217 -6q2 0 242 6q3 0 3.5 -8.5t-1 -16.5t-4.5 -8q-36 -4 -53 -6.5t-32 -13.5t-16 -25t5.5 -47 t21 -71.5t41.5 -106.5l100 -252l222 266q129 156 130 205q0 32 -52 43l-37 6q-5 0 -5 16.5t5 16.5q143 -7 206 -7q19 0 81.5 3t101.5 4q4 0 4 -16.5t-4 -16.5q-89 -8 -148 -44.5t-157 -150.5l-324 -379l168 -383q57 -130 92.5 -187t68.5 -76t97 -27q3 0 3.5 -8t-1 -16.5 t-4.5 -8.5q-117 6 -217 6q-4 0 -244 -6q-3 0 -3.5 8t1 16.5t4.5 8.5q38 3 56 5.5t34 13.5t17 24.5t-5.5 47t-21 72t-41.5 107.5l-117 295l-258 -309q-131 -158 -131 -207q0 -30 50 -41q15 -3 40 -6q5 0 5 -16.5t-5 -16.5q-82 4 -221 4q-24 0 -180 -4q-4 0 -4 16.5z" />
<glyph unicode="Y" horiz-adv-x="1163" d="M149 1282q0 8 2 16.5t5 8.5q82 -4 215 -4q69 0 225 4q3 0 3 -8.5t-2 -16.5t-5 -8q-56 -5 -80 -14.5t-27 -32.5q-1 -4 -1 -9q0 -27 24 -85l190 -471l330 460q45 61 51 97q4 24 -17 37t-71 18q-3 0 -3 8t2 16.5t5 8.5q82 -4 189 -4q3 0 159 4q3 0 3 -8.5t-2 -16.5t-5 -8 q-41 -3 -77 -18.5t-61 -32t-57.5 -53.5t-50 -60t-55.5 -76l-315 -434l-64 -358q-10 -53 -14 -83t-0.5 -56.5t11 -37.5t30.5 -20t48 -11.5t73 -4.5q3 0 3.5 -8t-1 -16.5t-4.5 -8.5q-82 4 -256 4q-121 0 -277 -4q-3 0 -3.5 8t1 16.5t4.5 8.5q51 2 75.5 4t51.5 11t37.5 19.5 t24 37t19.5 56.5t16 85l55 321l-213 527q-45 111 -77 143t-111 41q-3 0 -3 8z" />
<glyph unicode="Z" horiz-adv-x="1138" d="M-21 14q1 8 5 13l991 1216h-371q-109 0 -178 -26.5t-101 -69.5t-51 -115q-1 -1 -6.5 -1t-11.5 1.5t-6 3.5q3 18 28 136t27 124l1 2q0 3 0.5 3.5t2 2.5t4 3t6 2t9 1.5t12.5 0.5q35 0 126.5 -4t133.5 -4h274q116 0 316 4q9 0 9.5 -9.5t-5.5 -17.5l-997 -1225h475 q62 0 106 10t75 28t55.5 54t41.5 75.5t39 105.5q1 3 20 3t19 -3q-7 -38 -33.5 -158.5t-31.5 -142.5q-4 -17 -18.5 -25t-29 -9t-45.5 -1q-25 0 -103.5 4t-111.5 4h-268q-59 0 -208 -3t-195 -3q-3 0 -4.5 6t-0.5 14z" />
<glyph unicode="[" horiz-adv-x="677" d="M35 -588q43 145 76 330l251 1425q38 217 44 314q341 -15 458 -11q6 0 6 -17t-6 -17l-332 -6l-350 -1969l330 -6q6 0 6 -17.5t-6 -17.5q-305 0 -477 -8z" />
<glyph unicode="\" horiz-adv-x="460" d="M170 1481q0 2 13 6.5t25.5 8t12.5 1.5l191 -2089q0 -2 -12.5 -6.5t-25 -8t-12.5 -1.5z" />
<glyph unicode="]" horiz-adv-x="677" d="M-192 -562.5q0 17.5 6 17.5l331 6l351 1969l-330 6q-6 0 -6 17t6 17q284 0 477 9q-43 -145 -76 -330l-252 -1425q-37 -209 -43 -314q-328 14 -458 10q-6 0 -6 17.5z" />
<glyph unicode="^" horiz-adv-x="694" d="M152 954l280 349h133l158 -349h-35l-203 244l-295 -244h-38z" />
<glyph unicode="_" horiz-adv-x="1024" d="M-8 0v53h897v-53h-897z" />
<glyph unicode="`" horiz-adv-x="696" d="M258 1333h211l176 -334h-31z" />
<glyph unicode="a" horiz-adv-x="921" d="M49 201q0 138 56 278t153 240q158 164 291 164q74 0 141 -49l101 73l22 -14l-137 -608q-18 -68 -18 -115q0 -14 2 -26q7 -52 55 -52q10 0 24 7t30.5 20.5t28 24.5t28.5 27t20 19l22 -20q-6 -8 -26.5 -36t-28 -37t-26.5 -32.5t-29 -33t-27.5 -25t-31 -22t-30.5 -12 t-34 -5.5q-63 1 -92 61q-21 43 -21 98q0 23 4 48q-92 -96 -151 -143q-80 -64 -148 -64q-72 0 -125 64.5t-53 169.5zM193 250q0 -71 30.5 -119.5t77.5 -48.5q39 0 89.5 33t141.5 121l103 491q-92 49 -162 49q-80 0 -145 -65q-62 -62 -98.5 -192.5t-36.5 -268.5z" />
<glyph unicode="b" horiz-adv-x="919" d="M51 -25l281 1309q8 35 8 62q0 40 -17 60q-28 34 -124 46q-6 2 -4 21.5t8 19.5h319l-194 -809h2q91 105 168.5 159t150.5 54q42 0 78.5 -15.5t68 -48t50 -91.5t18.5 -138q0 -72 -27.5 -159t-76.5 -170t-110 -153t-134.5 -112.5t-142.5 -42.5q-58 0 -101 20t-92 60 q0 1 -26 -19l-52 -40l-26 -21zM229 170q37 -32 61 -50t64.5 -35t79.5 -17q78 0 143 72.5t100.5 184.5t35.5 234q0 225 -152 225q-44 0 -107 -44.5t-128 -116.5z" />
<glyph unicode="c" horiz-adv-x="753" d="M74 236q0 139 58 285t157 245q72 72 140 101.5t146 29.5q72 0 129.5 -42.5t57.5 -88.5q0 -27 -21.5 -57t-43.5 -46.5t-23 -13.5q-35 62 -94.5 106t-104.5 44q-65 0 -121 -56q-60 -60 -98.5 -188t-38.5 -225q0 -121 41 -190.5t123 -69.5q46 0 112 35t134 102l28 -27 q-88 -105 -172.5 -162t-191.5 -57q-98 0 -157.5 81t-59.5 194z" />
<glyph unicode="d" horiz-adv-x="933" d="M49 201q0 139 56.5 286t152.5 246q158 164 291 164q73 0 135 -45l90 432q8 35 8 62q0 40 -17 60q-28 34 -124 46q-6 2 -4 21.5t8 19.5h320l-269 -1208q-18 -68 -18 -115q0 -14 2 -26q7 -52 55 -52q10 0 24 7t30.5 20.5t28 24.5t28.5 27t20 19l23 -20q-6 -8 -23.5 -32 t-24.5 -33t-23.5 -30t-25.5 -30l-24.5 -24.5t-27 -22.5t-26.5 -15.5t-29.5 -12t-29.5 -3.5q-57 0 -88 61q-24 47 -24 116q0 20 2 42q-72 -74 -170 -155q-80 -64 -148 -64q-72 0 -125 64.5t-53 169.5zM193 250q0 -71 30.5 -119.5t77.5 -48.5q41 0 97.5 38t160.5 140l98 467 q-105 64 -184 64t-145 -66q-62 -62 -98.5 -199t-36.5 -276z" />
<glyph unicode="e" horiz-adv-x="753" d="M114 521q46 109 116 190t161 131.5t180 50.5q73 0 115.5 -42.5t42.5 -98.5q0 -125 -116 -215.5t-398 -180.5v-12v-6q0 -127 42 -192q43 -67 124 -70h5q46 0 110 34q68 36 137 103l29 -27q-88 -105 -173 -162t-192 -57q-107 -1 -169 89q-61 88 -60 240q-1 114 46 225z M219 410q208 68 291.5 136.5t83.5 155.5q0 107 -100 107q-84 0 -169.5 -119.5t-105.5 -279.5z" />
<glyph unicode="f" horiz-adv-x="595" d="M-313 -351q0 75 88 128q35 -70 75.5 -103.5t96.5 -33.5q52 0 78 26q51 51 90.5 181.5t83.5 443.5q47 332 84 504h-193l4 41l203 28q87 392 244 549q111 111 243 111q70 0 118 -40t48 -81q0 -76 -94 -133q-78 139 -166 139q-67 0 -108 -41q-40 -40 -75 -160.5t-71 -349.5 h271l-17 -63h-264l-8 -62q-26 -177 -46 -294t-50.5 -254.5t-62.5 -230t-78 -179t-101 -142.5q-100 -104 -244 -104q-63 0 -105 37q-44 39 -44 83z" />
<glyph unicode="g" horiz-adv-x="860" d="M-113 -340q0 43 31.5 86t81 77.5t101.5 60t102 42.5v8q-23 13 -40.5 37t-17.5 49q0 10 2.5 20.5t8.5 21t11.5 19t16 19.5t17 17.5t19.5 17.5t18.5 15t19 15t16.5 13q-79 28 -135.5 104.5t-56.5 170.5q0 111 57 214.5t151.5 166.5t196.5 63q71 0 127.5 -48.5t81.5 -127.5 h11q72 160 174 160q31 0 51 -28.5t20 -61.5q0 -56 -63 -119q-29 59 -78 59q-29 0 -54 -24.5t-42 -57.5q0 -189 -95.5 -313.5t-277.5 -163.5q-30 -13 -53 -41t-23 -49q0 -38 36.5 -57.5t172.5 -61.5q45 -15 77.5 -29t70.5 -38t58.5 -58.5t20.5 -77.5q0 -80 -49 -144.5 t-124.5 -101t-154 -55t-149.5 -18.5q-58 0 -115.5 13t-108.5 38.5t-82.5 69t-31.5 98.5zM18 -297q0 -46 31 -81.5t80 -55t100 -29.5t99 -10q34 0 76 7t88 22t77 45t31 69q0 38 -20 67.5t-58.5 50.5t-76.5 36t-93.5 34.5t-89.5 35.5q-101 -21 -172.5 -75.5t-71.5 -115.5z M223 481q0 -99 47 -165t123 -66q75 0 130 98t55 242q0 104 -47.5 165.5t-127.5 61.5q-76 0 -128 -94t-52 -242z" />
<glyph unicode="h" horiz-adv-x="968" d="M51 -25l281 1309q8 35 8 62q0 40 -17 60q-28 34 -124 46q-6 2 -4 21.5t8 19.5h319l-198 -823q126 133 200.5 180t147.5 47q71 0 113 -45t42 -117q0 -60 -57 -291.5t-57 -265.5q0 -31 18 -53.5t45 -22.5q9 0 20.5 5.5t25.5 16t24 19t24.5 21t18.5 16.5l22 -20 q-61 -77 -130.5 -135t-108.5 -58q-41 0 -72 38.5t-31 88.5q0 60 54.5 292.5t54.5 264.5q0 117 -113 117q-115 0 -243 -160l-72 -342l-43 -258z" />
<glyph unicode="i" horiz-adv-x="526" d="M61 705q59 75 132.5 133.5t113.5 58.5q44 0 67 -44.5t23 -117.5q0 -60 -66.5 -291.5t-66.5 -265.5q0 -31 19 -53.5t47 -22.5q11 0 28 10t28.5 19.5t32 27.5t23.5 21l23 -20q-61 -77 -131 -135t-109 -58q-41 0 -72.5 38.5t-31.5 88.5q0 60 67.5 309t67.5 283q0 78 -57 78 q-26 0 -115 -74zM295 1202q3 46 32 82.5t72 36.5q45 0 67 -28q21 -26 22 -63q0 -3 -1 -7q-2 -45 -31 -83t-73 -38q-45 0 -68 29q-20 26 -20 61v10z" />
<glyph unicode="j" horiz-adv-x="493" d="M-295 -366q0 67 82 130q33 -74 62 -99t85 -25q79 0 131.5 137.5t114.5 455.5q13 66 37 179.5t37.5 182.5t13.5 91q0 78 -57 78q-26 0 -115 -74l-22 15q59 75 132 133.5t113 58.5q44 0 68.5 -41t24.5 -100q0 -87 -66 -375q-68 -299 -151.5 -497.5t-151.5 -266.5 q-56 -56 -100.5 -76t-102.5 -20q-59 0 -96 35q-39 36 -39 78zM303 1202q3 46 32.5 82.5t72.5 36.5q45 0 68 -28q20 -26 20 -63v-7q-2 -45 -31.5 -83t-73.5 -38q-45 0 -68 29q-20 26 -20 61v10z" />
<glyph unicode="k" horiz-adv-x="913" d="M51 -25l281 1309q8 35 8 62q0 40 -17 60q-28 34 -124 46q-6 2 -4 21.5t8 19.5h319l-207 -889h11q71 76 108.5 114t95 88t105 71.5t92.5 21.5q52 -5 94.5 -53.5t42.5 -108.5q0 -200 -375 -346v-6q4 -8 28.5 -59t53.5 -109t52 -98q24 -43 71 -43q18 0 50.5 31t62.5 73 l27 -18q-52 -101 -116.5 -148t-109.5 -47q-82 0 -121 82q-24 51 -75 168.5t-70 153.5l2 24l84 23q135 46 213 107t78 132q0 56 -30.5 89t-70.5 36q-45 0 -116.5 -59.5t-198.5 -200.5l-53 -256l-43 -258z" />
<glyph unicode="l" horiz-adv-x="497" d="M88 145l244 1139q8 35 8 62q0 40 -17 60q-28 34 -124 46q-6 2 -4 21.5t8 19.5h319l-284 -1294q-4 -18 -4 -32q0 -25 11 -41q17 -24 48 -24q9 0 20.5 5.5t25.5 16t24 19t24.5 21t18.5 16.5l22 -20q-61 -77 -131 -135t-109 -58q-48 1 -82 49q-23 32 -24 79q0 23 6 50z" />
<glyph unicode="m" horiz-adv-x="1519" d="M78 705q59 75 132.5 133.5t113.5 58.5q46 1 69 -43q16 -30 16 -73q0 -18 -3 -38l-13 -73h2q127 134 200 180.5t146 46.5q71 0 114.5 -45.5t43.5 -116.5q0 -13 -4 -53q123 128 189.5 171.5t136.5 43.5q71 0 114 -45.5t43 -116.5q0 -60 -57 -291.5t-57 -265.5 q0 -31 18 -53.5t45 -22.5q9 0 20.5 5.5t25.5 16t24 19t24.5 21t18.5 16.5l22 -20q-61 -77 -130.5 -135t-108.5 -58q-41 0 -72 38.5t-31 88.5q0 60 54.5 292.5t54.5 264.5q0 117 -115 117q-45 0 -90.5 -26.5t-74 -56t-66.5 -77.5l-72 -342l-49 -258l-154 -33q142 602 142 676 q0 117 -115 117q-114 0 -242 -160l-74 -342l-43 -258l-155 -33l147 676q4 24 3 49t-15.5 44.5t-40.5 19.5t-115 -74z" />
<glyph unicode="n" horiz-adv-x="1040" d="M78 705q59 75 132.5 133.5t113.5 58.5q46 1 69 -43q16 -30 16 -73q0 -18 -3 -38l-13 -73h2q127 134 200 180.5t146 46.5q71 0 114.5 -45.5t43.5 -116.5q0 -60 -57.5 -291.5t-57.5 -265.5q0 -31 18.5 -53.5t45.5 -22.5q9 0 20.5 5.5t25.5 16t24 19t24.5 21t18.5 16.5 l22 -20q-61 -77 -131 -135t-109 -58q-41 0 -71.5 38.5t-30.5 88.5q0 60 54.5 292.5t54.5 264.5q0 117 -115 117q-114 0 -242 -160l-74 -342l-43 -258l-155 -33l147 676q4 24 3 49t-15.5 44.5t-40.5 19.5t-115 -74z" />
<glyph unicode="o" horiz-adv-x="872" d="M68 319q0 72 22 152.5t64.5 155.5t97 136t125.5 97.5t145 36.5q125 0 204 -103t79 -249q0 -91 -36 -192.5t-95 -187t-145.5 -142t-178.5 -56.5q-124 0 -203 103t-79 249zM211 399q0 -86 24.5 -162.5t75 -127t117.5 -50.5q101 0 167.5 121t66.5 285q0 86 -25 162.5 t-75.5 127t-117.5 50.5q-101 0 -167 -121t-66 -285z" />
<glyph unicode="p" horiz-adv-x="978" d="M-93 -461.5q1 10.5 5 10.5q74 6 94 25.5t39 103.5l215 973q4 24 3 49t-15.5 44.5t-40.5 19.5t-115 -74l-22 15q59 75 132 133.5t113 58.5q49 0 69 -57q11 -32 11 -78q0 -34 -6 -76h2q92 105 168.5 158t149.5 53q42 0 78.5 -15.5t68 -48t50 -91.5t18.5 -138 q0 -90 -44 -201.5t-111.5 -208t-159 -162t-177.5 -65.5q-57 0 -93 16l-83 52l-18 -85l-38 -172l-18 -87q-8 -35 -8 -60q0 -38 18 -53q30 -26 144 -29q4 0 5 -10.5t-1 -20.5t-6 -10h-420q-4 0 -6 10t-1 20.5zM289 170q37 -32 61 -50t64.5 -35t79.5 -17q78 0 143 72.5 t100 184.5t35 234q0 225 -151 225q-44 0 -107.5 -45t-128.5 -116z" />
<glyph unicode="q" horiz-adv-x="880" d="M49 201q0 139 56.5 286t152.5 246q158 164 291 164q83 0 160 -63l104 73l23 -14l-269 -1202q-13 -50 -13 -80q0 -24 9 -35q19 -24 127 -27q4 0 5 -10.5t-1 -20.5t-6 -10h-420q-4 0 -6 10t-1 20.5t5 10.5q43 4 64.5 8t44 17t34.5 37.5t21 66.5l109 502q-70 -73 -164 -149 q-80 -64 -148 -64q-72 0 -125 64.5t-53 169.5zM193 250q0 -71 30.5 -119.5t77.5 -48.5q42 0 97.5 37.5t156.5 138.5l102 469q-101 64 -184 64q-79 0 -145 -66q-62 -62 -98.5 -199t-36.5 -276z" />
<glyph unicode="r" horiz-adv-x="733" d="M78 705q59 75 132.5 133.5t113.5 58.5q47 1 73 -45q17 -30 17 -69q0 -19 -4 -40l-35 -149l6 -2q94 178 152 241.5t120 63.5q44 0 73.5 -32t29.5 -72q0 -62 -78 -123q-38 71 -98 71q-40 0 -83.5 -47.5t-127.5 -199.5l-50 -228l-40 -258l-158 -33l69 318l74 336q8 29 8 54 q0 20 -5 39q-11 42 -52 42q-26 0 -115 -74z" />
<glyph unicode="s" horiz-adv-x="671" d="M-4 117q0 17 5.5 31t21 28.5t25.5 22t34 24.5q34 -74 108.5 -117t141.5 -43q55 0 89 33.5t34 87.5q0 26 -16 53.5t-33.5 45.5t-54.5 51.5t-54 50.5q-86 86 -112 120q-46 63 -46 113q0 88 70 158q121 121 256 121q69 0 122.5 -42.5t53.5 -84.5q0 -56 -90 -102 q-13 52 -72 94.5t-114 42.5q-53 0 -87 -39t-34 -74q0 -25 17 -51.5t37 -45t55.5 -49.5t54.5 -50q5 -5 28.5 -28t31.5 -31.5t27 -30t27 -36t19.5 -36t15.5 -43.5t4 -45q0 -84 -76 -160q-119 -119 -266 -119q-78 0 -150.5 50.5t-72.5 99.5z" />
<glyph unicode="t" horiz-adv-x="626" d="M86 795l4 41l186 28l50 201l137 20l-47 -227h260l-17 -63h-256l-116 -541q-10 -44 -10 -76q1 -25 7 -42q14 -38 64 -38q23 0 70 26t106 83l23 -23q-91 -108 -159 -162.5t-142 -54.5q-120 0 -120 141q0 47 13 109l123 578h-176z" />
<glyph unicode="u" horiz-adv-x="1040" d="M80 705q60 75 132 133.5t112 58.5q39 0 61.5 -41.5t22.5 -101.5q0 -53 -54.5 -280t-54.5 -261q0 -117 115 -117q36 0 70 14.5t66 42.5t54 51.5t51 59.5l125 592l154 33l-74 -301l-80 -375q-4 -25 -3 -50t16 -44t41 -19q9 0 21 5.5t26 16.5t24.5 19.5t25.5 22t19 16.5 l23 -20q-59 -75 -133.5 -134t-114.5 -59q-46 0 -70 43q-16 29 -16 68q0 20 4 43l12 74h-2q-127 -134 -200 -181t-146 -47q-71 0 -114 45.5t-43 116.5q0 61 57 287.5t57 253.5q0 92 -45 92q-6 0 -14.5 -3t-18 -9t-18 -11.5t-19.5 -14.5t-17.5 -14.5t-16.5 -14t-13 -11.5z" />
<glyph unicode="v" horiz-adv-x="851" d="M18 725q82 106 129.5 139t90.5 33q37 0 59 -25q49 -49 70 -231t32 -510h13l196 303q44 68 77.5 145.5t33.5 108.5q0 14 -51.5 57.5t-51.5 49.5q0 14 49 61t66 47q33 0 74 -37t41 -80q0 -49 -31 -114.5t-108 -194.5q-38 -62 -167.5 -244t-170.5 -243q-3 -4 -26.5 -8 t-46.5 -6l-22 -3q-17 591 -84 752q-14 39 -51 39q-10 0 -22 -5t-25 -14t-22 -16t-20 -17l-11 -10z" />
<glyph unicode="w" horiz-adv-x="1286" d="M27 725q87 106 136.5 139t92.5 33q32 0 57 -25q45 -50 57 -230q8 -126 9 -324q0 -86 -2 -187h18l283 418q-22 148 -60 319l150 27q12 -65 42.5 -302t51.5 -462h8l181 303q40 68 70 146q28 73 28 104q0 18 -55 62q-54 44 -54 49q0 14 46 61t63 47q33 0 75.5 -37t45.5 -80 v-10q0 -46 -24 -104q-28 -65 -99 -195q-36 -65 -156.5 -248.5t-154.5 -238.5q-3 -4 -25 -8t-43 -6l-20 -3q-19 241 -58 494q-30 -45 -79.5 -114t-89.5 -122.5t-99.5 -133.5t-79.5 -107q-3 -4 -27.5 -8t-47.5 -6l-23 -3q2 109 2 203q0 421 -47 549q-9 23 -19.5 31t-29.5 8 q-29 0 -103 -62z" />
<glyph unicode="x" horiz-adv-x="927" d="M-16 96q4 33 27 58.5t67 54.5q32 -67 51.5 -91t56.5 -24q33 0 81.5 68t140.5 225q-57 199 -121 338q-21 49 -68 49q-22 0 -53 -25t-57 -61l-29 19q37 59 75 99.5t70 58.5t55.5 25t43.5 7q33 0 55 -25q21 -24 56.5 -121t70.5 -223q34 58 52.5 88t51 81.5t56 80t52.5 60 t55.5 45.5t51.5 14q55 0 89 -32q29 -27 29 -60q0 -6 -1 -12q-16 -89 -90 -125q-19 54 -40 78t-54 24q-20 0 -42.5 -18.5t-54.5 -63.5t-56 -84t-70 -117q61 -204 129 -352q26 -61 69 -61q13 0 48 32.5t63 71.5l28 -20q-36 -70 -86 -117t-86.5 -62.5t-62.5 -15.5q-18 0 -37 8 t-27 17q-50 53 -137 360q-12 -21 -41.5 -73.5t-44.5 -78t-42 -68.5t-47 -66t-45.5 -48t-51 -36t-51.5 -11q-47 1 -91 43q-39 37 -39 76q0 5 1 10z" />
<glyph unicode="y" horiz-adv-x="868" d="M-199 -399q0 34 29 67.5t66 44.5q37 -82 112 -82q105 0 211 170q105 178 105 371q0 130 -9.5 235.5t-30 190t-56 131.5t-83.5 47q-30 0 -110 -67l-19 24q52 70 112 117t101 47q86 0 143.5 -103t72.5 -268q6 -66 6 -140q0 -108 -13 -230l17 -6l73 106q112 160 155.5 257.5 t43.5 164.5q0 14 -51 62.5t-51 54.5q0 14 45.5 61t62.5 47q33 0 74 -37t41 -80t-14 -94t-46 -114t-58 -110t-78.5 -123t-77 -110.5t-80.5 -111.5q-72 -100 -207 -311q-201 -312 -350 -312q-61 0 -98.5 28t-37.5 73z" />
<glyph unicode="z" horiz-adv-x="821" d="M-18 -8q13 47 43.5 93.5t56 73.5t86.5 85.5t90 87.5l322 325q-5 2 -47.5 18t-54.5 20t-49.5 17t-56.5 17.5t-49.5 12t-55.5 10t-48 2.5q-9 0 -35.5 -61.5t-29.5 -84.5l-33 10q8 80 44.5 175t84.5 104q66 0 150 -26t171.5 -62t118.5 -45l82 135l86 -10q-90 -121 -194 -225 l-455 -455q80 -7 160.5 -38t137.5 -58t85 -27q74 0 115 166l34 -4q-15 -131 -67 -209t-119 -78q-44 0 -108 22.5t-119 49.5t-121 47q-55 17 -98 17q-9 0 -17 -1l-41 -119z" />
<glyph unicode="{" horiz-adv-x="718" d="M106 442q0 16 25 21q52 7 98 18.5t92 31.5t78.5 46t53 63.5t20.5 82.5q0 50 -26 115.5t-52 136.5t-26 133q0 66 28 125t73 101t103 74.5t118 50t118 23.5q12 2 15 -12q3 -17 -17 -20q-50 -10 -90.5 -22t-85 -34t-75 -50t-50 -70.5t-19.5 -94.5q0 -56 25.5 -123.5 t50.5 -134.5t25 -123q0 -58 -20.5 -107.5t-54 -85t-80.5 -64.5t-95 -47.5t-102 -31.5q105 -26 174 -98t69 -176q0 -61 -27.5 -120t-66.5 -107t-78 -94.5t-66.5 -101t-27.5 -107.5q0 -46 24 -83.5t62.5 -61t77 -38t78.5 -22.5q18 -3 10 -16q-7 -13 -19 -11q-137 16 -232 98.5 t-95 206.5q0 60 27.5 120t67 108.5t79 94.5t67 96t27.5 97t-24.5 84.5t-66 59.5t-83 35t-88.5 20q-19 5 -19 14z" />
<glyph unicode="|" horiz-adv-x="454" d="M18 -600l369 2085q0 3 24.5 3t24.5 -3l-368 -2085q0 -3 -25 -3t-25 3z" />
<glyph unicode="}" horiz-adv-x="718" d="M-105 -580q-4 18 17 21q63 13 113 30t100 47.5t78 79.5t28 113q0 68 -50 191t-50 190q0 58 20.5 107.5t54 85t80.5 64.5t95 47.5t102 31.5q-105 26 -174 98t-69 176q0 61 27.5 120t66.5 107t78 95t66.5 101.5t27.5 107.5q0 46 -24 83.5t-62.5 61t-77 38t-78.5 22.5 q-19 3 -11 17q7 10 19 9q137 -16 232.5 -98.5t95.5 -206.5q0 -60 -27.5 -120t-67 -108.5t-79 -94.5t-67 -96t-27.5 -97t24.5 -84.5t66 -59.5t83 -35t88.5 -20q18 -4 18 -14q0 -15 -24 -20q-52 -7 -98 -18.5t-92 -31.5t-78.5 -46t-53 -63.5t-20.5 -82.5q0 -50 26 -115.5 t52 -136.5t26 -133q0 -82 -42 -152t-108 -115.5t-141 -73t-149 -34.5q-12 -1 -15 12z" />
<glyph unicode="~" horiz-adv-x="694" d="M31 428q22 92 76.5 155.5t132.5 63.5q42 0 85.5 -19t73.5 -42.5t66 -42.5t65 -19q87 0 132 123h47q-22 -92 -76.5 -155.5t-132.5 -63.5q-42 0 -85.5 19t-74 42.5t-66.5 42.5t-65 19q-86 0 -131 -123h-47z" />
<glyph unicode="&#xa1;" horiz-adv-x="438" d="M70 51q0 27 6 62q11 63 51.5 195t90.5 310t83 345q0 2 10 2q23 0 23 -7q-34 -217 -53.5 -514t-30.5 -358q-13 -71 -36.5 -100t-63.5 -29q-80 0 -80 94zM262 1233q0 41 29 71.5t78 30.5q50 0 78 -30.5t28 -71.5q0 -46 -28 -77.5t-78 -31.5q-49 0 -78 32t-29 77z" />
<glyph unicode="&#xa2;" horiz-adv-x="753" d="M74 236q0 139 58 285t157 245q106 106 221 125l27 131q1 4 14 5.5t25.5 0t11.5 -5.5l-27 -125h14q72 0 129.5 -42.5t57.5 -88.5q0 -27 -21.5 -57t-43.5 -46.5t-23 -13.5q-50 87 -137 133l-152 -719q46 3 110.5 40.5t131.5 103.5l28 -27q-75 -87 -142 -140t-148 -71 l-33 -162q-1 -4 -13.5 -5.5t-24.5 0t-11 5.5l32 154h-24q-98 0 -157.5 81t-59.5 194zM217 330q0 -226 121 -262l151 729q-4 2 -14 2q-65 0 -121 -56q-60 -60 -98.5 -188t-38.5 -225z" />
<glyph unicode="&#xa3;" horiz-adv-x="956" d="M-13 -9.5q-1 8.5 2 17.5t7 10q170 36 268 148t98 280q0 44 -14 95h-248q-8 0 -8 26.5t8 26.5h230q-5 13 -28.5 64t-33 76.5t-20 74.5t-10.5 98q0 94 38 175.5t101.5 137t147.5 87.5t175 32q51 0 102 -12t97 -44.5t57 -80.5q-5 -12 -46.5 -46t-53.5 -34q-6 0 -29 23.5 t-51 51.5t-73.5 51.5t-90.5 23.5q-113 0 -178 -83.5t-65 -199.5q0 -72 22.5 -140.5t53 -137.5t40.5 -117h256q9 0 9 -26.5t-9 -26.5h-249v-13q0 -117 -67.5 -232.5t-158.5 -184.5l287 -7q96 -1 133 8.5t72 37.5q33 26 98 159q4 8 29 0q6 -2 6 -4q-55 -156 -113 -287 q-11 -28 -88 -28q-11 0 -107.5 2t-176.5 2h-54q-192 0 -358 -12q-6 0 -7 8.5z" />
<glyph unicode="&#xa5;" horiz-adv-x="1187" d="M153 344.5q0 22.5 3 22.5h374l33 194h-366q-3 0 -3 22.5t3 22.5h364l-211 484q-28 63 -42.5 91.5t-36.5 51t-44.5 29.5t-64.5 12q-3 0 -3 8t2 16.5t5 8.5q82 -4 215 -4q67 0 223 4q3 0 3 -8.5t-2 -16.5t-5 -8q-59 -5 -85 -16t-30 -37q-4 -21 23 -88l197 -459l337 448 q45 59 52 97q4 24 -17 37t-71 18q-3 0 -3 8t2 16.5t5 8.5q82 -4 188 -4q4 0 160 4q3 0 3 -8.5t-2 -16.5t-5 -8q-21 -2 -40.5 -7t-34.5 -9.5t-33.5 -17t-29 -18.5t-29 -25t-25.5 -25.5t-27.5 -32t-25.5 -31.5t-28 -37t-28 -37l-324 -428h354q3 0 3 -22.5t-3 -22.5h-370 l-33 -194h362q3 0 3 -22.5t-3 -22.5h-370l-15 -80q-13 -74 -15.5 -112t18.5 -59.5t42.5 -26.5t84.5 -12q5 -1 8 -1t7.5 -1t8.5 -1q3 0 3.5 -8t-1 -16.5t-4.5 -8.5q-82 4 -256 4q-121 0 -277 -4q-3 0 -3.5 8t1.5 16.5t5 8.5q106 5 136 18q45 18 66 82q14 39 27 113l14 80 h-366q-3 0 -3 22.5z" />
<glyph unicode="&#xa7;" horiz-adv-x="991" d="M63 -129q-1 10 44.5 45t58.5 35q5 0 29 -26t55 -57.5t82 -60t102 -32.5q74 -6 125 40t64 117q7 35 -2 69t-23.5 60t-47.5 60t-56 53.5t-69 57t-67 55.5q-117 99 -158 149q-82 101 -63 205q15 81 75 145.5t142 96.5q-54 89 -39 180q14 81 80 147.5t159 100.5t185 26 q95 -9 161 -48t77 -89q3 -12 -42 -48t-58 -34q-5 1 -27.5 23.5t-51.5 49.5t-74 51.5t-89 27.5q-78 6 -130.5 -33.5t-64.5 -108.5q-6 -35 3 -69.5t23 -60t48 -60.5t55.5 -53.5t69 -57.5t66.5 -55q116 -98 156 -145q85 -102 67 -207q-13 -81 -74 -146t-147 -98q58 -84 43 -178 q-23 -128 -155.5 -214.5t-266.5 -74.5q-107 10 -180.5 58.5t-84.5 103.5zM262 705q-10 -55 16.5 -108.5t79 -102t109.5 -92t121 -98t100 -101.5q49 24 75.5 56.5t37.5 94.5q10 56 -16.5 109.5t-78.5 102t-109 92.5t-121 98.5t-101 101.5q-48 -23 -75 -57.5t-38 -95.5z" />
<glyph unicode="&#xa8;" horiz-adv-x="696" d="M166 1126q0 42 31 74.5t73 32.5q41 0 72 -32.5t31 -74.5q0 -41 -31 -72.5t-72 -31.5q-42 0 -73 31t-31 73zM565 1128q0 42 31 74.5t72 32.5q42 0 73 -32.5t31 -74.5t-31 -74t-73 -32q-41 0 -72 32t-31 74z" />
<glyph unicode="&#xa9;" horiz-adv-x="1566" d="M143 655q0 139 54.5 265.5t146 218t218 146t265.5 54.5t265.5 -54.5t218 -146t146 -218t54.5 -265.5t-54.5 -265.5t-146 -218t-218 -146t-265.5 -54.5t-265.5 54.5t-218 146t-146 218t-54.5 265.5zM190 655q0 -174 85 -321.5t231.5 -233.5t320.5 -86t320.5 86 t231.5 233.5t85 321.5t-85 321.5t-231.5 233.5t-320.5 86t-320.5 -86t-231.5 -233.5t-85 -321.5zM465 651q0 119 52.5 204.5t136.5 126t188 40.5q42 0 105.5 -12.5t76.5 -12.5q25 0 35 17q1 2 8.5 1.5t7.5 -3.5l6 -217q0 -3 -11.5 -4t-12.5 2q-46 105 -96.5 150.5 t-124.5 45.5q-112 0 -179 -81.5t-67 -241.5q0 -148 69.5 -248.5t188.5 -100.5q46 0 84 18.5t64 51t44 69t31 79.5q0 1 7.5 1.5t14.5 -2t7 -6.5q1 -35 -9 -107.5t-18 -80.5q-18 -18 -87.5 -35.5t-151.5 -17.5q-72 0 -137.5 24t-117.5 68.5t-83 115t-31 156.5z" />
<glyph unicode="&#xaa;" horiz-adv-x="669" d="M147 846q0 52 28.5 92.5t73.5 62t92.5 32.5t94.5 11q64 0 84 -2l8 37q9 41 9 64q0 56 -38 87.5t-98 31.5q-94 0 -176 -78l-10 14q31 58 99 97.5t139 39.5q84 0 138 -46.5t54 -127.5q0 -34 -8 -74l-51 -233q-4 -20 -4 -33q0 -55 51 -55q38 0 80 53l6 -16 q-51 -101 -139 -101q-40 0 -71 26t-32 77q-29 -52 -76.5 -77.5t-97.5 -25.5q-68 0 -112 41.5t-44 102.5zM256 862q0 -44 27 -71t71 -27q29 0 62.5 20.5t60.5 53.5l37 172q-6 0 -19.5 1t-19.5 1q-54 0 -101 -13t-82.5 -48.5t-35.5 -88.5z" />
<glyph unicode="&#xab;" horiz-adv-x="899" d="M78 413.5q2 10.5 12 16.5q127 83 438 309q1 1 7 -6t10 -15.5t0 -12.5l-297 -297l192 -297q2 -3 -4.5 -9t-14 -10.5t-7.5 -3.5q-72 76 -170 167.5t-160 141.5q-8 6 -6 16.5zM457.5 413q1.5 10 11.5 17q179 124 418 309q1 1 6.5 -6t9.5 -15.5t0 -12.5l-297 -297l193 -297 q2 -3 -5 -9t-14.5 -10.5t-7.5 -3.5q-167 179 -309 309q-7 6 -5.5 16z" />
<glyph unicode="&#xad;" horiz-adv-x="595" d="M67 536.5q0 26.5 3 26.5h493q3 0 3 -26.5t-3 -26.5h-493q-3 0 -3 26.5z" />
<glyph unicode="&#xae;" horiz-adv-x="1566" d="M143 655q0 139 54.5 265.5t146 218t218 146t265.5 54.5t265.5 -54.5t218 -146t146 -218t54.5 -265.5t-54.5 -265.5t-146 -218t-218 -146t-265.5 -54.5t-265.5 54.5t-218 146t-146 218t-54.5 265.5zM190 655q0 -174 85 -321.5t231.5 -233.5t320.5 -86t320.5 86 t231.5 233.5t85 321.5t-85 321.5t-231.5 233.5t-320.5 86t-320.5 -86t-231.5 -233.5t-85 -321.5zM530.5 318q-0.5 5 1.5 6q63 7 79 26t16 82v447q0 63 -16 82t-79 26q-2 1 -1.5 6t2 11t2.5 6q51 -2 155 -2q20 0 81.5 4t78.5 4q114 0 169.5 -48.5t55.5 -123.5 q0 -125 -149 -209q70 -57 137 -170q71 -114 74 -117q14 -14 69 -24q2 0 2.5 -11.5t-2.5 -11.5q-13 0 -67 1t-82 1h-21q-7 7 -63.5 106t-79.5 130q-32 42 -51.5 57.5t-50.5 15.5q-30 0 -58 -4v-176q0 -61 20 -79t93 -29q2 0 2 -6t-1 -11.5t-3 -5.5q-14 2 -154 2 q-104 0 -155 -2q-1 0 -2.5 6t-2 11zM733 659q34 -14 111 -14q43 0 74 31q49 49 49 121q0 77 -47.5 131.5t-137.5 54.5q-31 0 -49 -6v-318z" />
<glyph unicode="&#xaf;" horiz-adv-x="696" d="M201 1077l18 103h520l-18 -103h-520z" />
<glyph unicode="&#xb0;" horiz-adv-x="614" d="M199 1083q0 100 71 173t170 73q90 0 150.5 -54.5t60.5 -141.5q0 -101 -73.5 -174.5t-174.5 -73.5q-88 0 -146 55t-58 143zM252 1087q0 -66 44 -111.5t110 -45.5q76 0 134 61t58 137q0 66 -47 111t-113 45q-75 0 -130.5 -60.5t-55.5 -136.5z" />
<glyph unicode="&#xb4;" horiz-adv-x="696" d="M188 999l295 334h219l-475 -334h-39z" />
<glyph unicode="&#xb6;" horiz-adv-x="1409" d="M133 565q0 95 24 186.5t69.5 173t116 150t158 118t200 77.5t239.5 28h41l-233 -1304h-3q-140 0 -256.5 44.5t-193.5 121.5t-119.5 181t-42.5 224zM895 -6l231 1311q223 10 387 30q7 2 2 -21q-3 -14 -8 -16l-276 -34l-217 -1231l264 -35q2 -1 3 -5t0.5 -9t-1.5 -10 t-3.5 -8.5t-4.5 -2.5q-171 22 -377 31z" />
<glyph unicode="&#xb7;" horiz-adv-x="397" d="M86 436q0 47 30 81t83 34q52 0 82 -34t30 -81q0 -43 -30.5 -75.5t-81.5 -32.5q-52 0 -82.5 32.5t-30.5 75.5z" />
<glyph unicode="&#xb8;" horiz-adv-x="696" d="M-6 -377q-1 3 4 8t11 8t7 1q60 -80 166 -80q59 0 103.5 28t44.5 84q0 107 -201 107l115 207h55l-78 -138q55 -2 101 -16.5t80 -49.5t34 -85q0 -86 -76 -134t-167 -48q-61 0 -116 28t-83 80z" />
<glyph unicode="&#xba;" horiz-adv-x="710" d="M152 991q0 146 95 242t232 96q128 0 204.5 -83t76.5 -199q0 -146 -95.5 -242t-232.5 -96q-127 0 -203.5 83t-76.5 199zM274 954q0 -96 45 -150t105 -54q53 0 95 27.5t67 74.5t38 106t13 125q0 96 -45 150.5t-105 54.5q-70 0 -119.5 -48.5t-71.5 -122t-22 -163.5z" />
<glyph unicode="&#xbb;" horiz-adv-x="899" d="M6 123l299 297l-194 297q-3 4 11.5 14t16.5 8q157 -171 307 -309q7 -6 5.5 -16t-11.5 -17q-182 -126 -415 -309q-2 -1 -8 6.5t-10 16.5t-1 12zM365 123l299 297l-195 297q-3 4 12 14t17 8q207 -207 327 -309q8 -6 6 -16.5t-12 -16.5q-80 -52 -209.5 -143t-226.5 -166 q-2 -1 -7.5 6.5t-9.5 16.5t-1 12z" />
<glyph unicode="&#xbf;" horiz-adv-x="739" d="M29 219q0 31 7.5 61t16 52.5t28.5 49.5t31 41.5t38 39t36 32t37.5 30.5t30.5 24q118 95 187 194t79 228q0 6 9 8.5t18.5 -0.5t9.5 -10v-19q0 -75 -20.5 -142t-53.5 -116.5t-73 -94.5t-79.5 -85.5t-72.5 -80t-53.5 -87t-20.5 -98.5q0 -86 59 -135.5t138 -49.5 q132 0 233 115q3 3 12.5 -5.5t6.5 -12.5q-138 -191 -326 -191q-120 0 -199 71t-79 181zM469 1237q0 41 28.5 71.5t77.5 30.5q50 0 78.5 -30.5t28.5 -71.5q0 -45 -28.5 -77t-78.5 -32q-49 0 -77.5 32t-28.5 77z" />
<glyph unicode="&#xc0;" horiz-adv-x="1228" d="M-70 12.5q0 16.5 4 16.5q39 3 65 9.5t51 23t41.5 34.5t40.5 57.5t43.5 78.5t54.5 110q4 8 6 12.5t5.5 11.5l6.5 13l463 940h131l139 -1077q7 -52 12.5 -83t16.5 -56.5t21 -37t34 -20t45.5 -11t65.5 -5.5q4 0 4 -16.5t-4 -16.5q-82 4 -236 4q-100 0 -256 -4q-4 0 -4 16.5 t4 16.5q32 2 49 4t36.5 6.5t28.5 10t18 17t11 25t3 36.5t-1.5 49t-7.5 65l-35 286h-395l-78 -163q-34 -71 -53.5 -117t-30 -86t-7.5 -62t19.5 -39t45 -23.5t75.5 -8.5q4 0 4 -16.5t-4 -16.5q-156 4 -221 4q-125 0 -207 -4q-4 0 -4 16.5zM420 592h358l-76 600q0 1 -47 -99 t-111 -236t-124 -265zM455 1765h211l176 -333h-31z" />
<glyph unicode="&#xc1;" horiz-adv-x="1228" d="M-70 12.5q0 16.5 4 16.5q39 3 65 9.5t51 23t41.5 34.5t40.5 57.5t43.5 78.5t54.5 110q4 8 6 12.5t5.5 11.5l6.5 13l463 940h131l139 -1077q7 -52 12.5 -83t16.5 -56.5t21 -37t34 -20t45.5 -11t65.5 -5.5q4 0 4 -16.5t-4 -16.5q-82 4 -236 4q-100 0 -256 -4q-4 0 -4 16.5 t4 16.5q32 2 49 4t36.5 6.5t28.5 10t18 17t11 25t3 36.5t-1.5 49t-7.5 65l-35 286h-395l-78 -163q-34 -71 -53.5 -117t-30 -86t-7.5 -62t19.5 -39t45 -23.5t75.5 -8.5q4 0 4 -16.5t-4 -16.5q-156 4 -221 4q-125 0 -207 -4q-4 0 -4 16.5zM420 592h358l-76 600q0 1 -47 -99 t-111 -236t-124 -265zM702 1432l295 333h220l-476 -333h-39z" />
<glyph unicode="&#xc2;" horiz-adv-x="1228" d="M-70 12.5q0 16.5 4 16.5q39 3 65 9.5t51 23t41.5 34.5t40.5 57.5t43.5 78.5t54.5 110q4 8 6 12.5t5.5 11.5l6.5 13l463 940h131l139 -1077q7 -52 12.5 -83t16.5 -56.5t21 -37t34 -20t45.5 -11t65.5 -5.5q4 0 4 -16.5t-4 -16.5q-82 4 -236 4q-100 0 -256 -4q-4 0 -4 16.5 t4 16.5q32 2 49 4t36.5 6.5t28.5 10t18 17t11 25t3 36.5t-1.5 49t-7.5 65l-35 286h-395l-78 -163q-34 -71 -53.5 -117t-30 -86t-7.5 -62t19.5 -39t45 -23.5t75.5 -8.5q4 0 4 -16.5t-4 -16.5q-156 4 -221 4q-125 0 -207 -4q-4 0 -4 16.5zM420 592h358l-76 600q0 1 -47 -99 t-111 -236t-124 -265zM498 1421l280 348h133l158 -348h-35l-203 244l-294 -244h-39z" />
<glyph unicode="&#xc3;" horiz-adv-x="1228" d="M-70 12.5q0 16.5 4 16.5q39 3 65 9.5t51 23t41.5 34.5t40.5 57.5t43.5 78.5t54.5 110q4 8 6 12.5t5.5 11.5l6.5 13l463 940h131l139 -1077q7 -52 12.5 -83t16.5 -56.5t21 -37t34 -20t45.5 -11t65.5 -5.5q4 0 4 -16.5t-4 -16.5q-82 4 -236 4q-100 0 -256 -4q-4 0 -4 16.5 t4 16.5q32 2 49 4t36.5 6.5t28.5 10t18 17t11 25t3 36.5t-1.5 49t-7.5 65l-35 286h-395l-78 -163q-34 -71 -53.5 -117t-30 -86t-7.5 -62t19.5 -39t45 -23.5t75.5 -8.5q4 0 4 -16.5t-4 -16.5q-156 4 -221 4q-125 0 -207 -4q-4 0 -4 16.5zM420 592h358l-76 600q0 1 -47 -99 t-111 -236t-124 -265zM498 1458q22 92 76.5 155.5t132.5 63.5q42 0 85.5 -19t73.5 -42.5t66 -42.5t65 -19q86 0 131 123h48q-22 -92 -76.5 -155.5t-132.5 -63.5q-42 0 -85.5 19t-74 42.5t-66.5 42.5t-65 19q-86 0 -131 -123h-47z" />
<glyph unicode="&#xc4;" horiz-adv-x="1228" d="M-70 12.5q0 16.5 4 16.5q39 3 65 9.5t51 23t41.5 34.5t40.5 57.5t43.5 78.5t54.5 110q4 8 6 12.5t5.5 11.5l6.5 13l463 940h131l139 -1077q7 -52 12.5 -83t16.5 -56.5t21 -37t34 -20t45.5 -11t65.5 -5.5q4 0 4 -16.5t-4 -16.5q-82 4 -236 4q-100 0 -256 -4q-4 0 -4 16.5 t4 16.5q32 2 49 4t36.5 6.5t28.5 10t18 17t11 25t3 36.5t-1.5 49t-7.5 65l-35 286h-395l-78 -163q-34 -71 -53.5 -117t-30 -86t-7.5 -62t19.5 -39t45 -23.5t75.5 -8.5q4 0 4 -16.5t-4 -16.5q-156 4 -221 4q-125 0 -207 -4q-4 0 -4 16.5zM420 592h358l-76 600q0 1 -47 -99 t-111 -236t-124 -265zM489 1556q0 42 31.5 74.5t73.5 32.5q41 0 71.5 -32.5t30.5 -74.5q0 -41 -30.5 -72.5t-71.5 -31.5q-42 0 -73.5 31t-31.5 73zM889 1559q0 42 30.5 74t71.5 32q42 0 73.5 -32t31.5 -74t-31.5 -74.5t-73.5 -32.5q-41 0 -71.5 32.5t-30.5 74.5z" />
<glyph unicode="&#xc5;" horiz-adv-x="1228" d="M-70 12.5q0 16.5 4 16.5q39 3 65 9.5t51 23t41.5 34.5t40.5 57.5t43.5 78.5t54.5 110q4 8 6 12.5t5.5 11.5l6.5 13l448 909q-78 40 -78 135q0 83 54 141t137 58q72 0 119 -42t47 -112q0 -67 -35 -117.5t-94 -70.5l135 -1038q7 -52 12.5 -83t16.5 -56.5t21 -37t34 -20 t45.5 -11t65.5 -5.5q4 0 4 -16.5t-4 -16.5q-82 4 -236 4q-100 0 -256 -4q-4 0 -4 16.5t4 16.5q32 2 49 4t36.5 6.5t28.5 10t18 17t11 25t3 36.5t-1.5 49t-7.5 65l-35 286h-395l-78 -163q-34 -71 -53.5 -117t-30 -86t-7.5 -62t19.5 -39t45 -23.5t75.5 -8.5q4 0 4 -16.5 t-4 -16.5q-156 4 -221 4q-125 0 -207 -4q-4 0 -4 16.5zM420 592h358l-76 600q0 1 -47 -99t-111 -236t-124 -265zM680 1432q0 -46 27 -78t69 -35h17q52 1 86 43.5t34 95.5q0 49 -30 82t-78 33q-54 0 -89.5 -42.5t-35.5 -98.5z" />
<glyph unicode="&#xc6;" horiz-adv-x="1593" d="M-171.5 4q-0.5 8 1 16.5t4.5 8.5q46 3 74.5 13t60.5 38q49 42 222 269q9 11 13.5 17l12 16t14.5 19l553 723q62 82 66 107q3 18 -23 27t-104 16q-3 0 -3.5 8t1 16.5t4.5 8.5q156 -4 248 -4h241q70 0 172.5 3t116.5 3q29 0 45.5 -3.5t20 -7.5t2.5 -10q-19 -169 -39 -258 q0 -2 -8 -3t-15.5 -0.5t-7.5 1.5q0 52 -4.5 82.5t-20 59t-46.5 42.5t-82.5 22.5t-130.5 8.5h-127q-27 0 -27 -4l-98 -551h69q86 0 133.5 1t91.5 8t63 14.5t38.5 28.5t28.5 42.5t22 63.5q0 4 24 0q12 -2 11 -6q-5 -15 -19 -79.5t-20 -101.5q-24 -164 -25 -192q0 -6 -17 -5.5 t-17 5.5q0 32 -1 50t-6 39t-13 31t-25 21.5t-39 16.5t-57.5 9.5t-78 5.5t-102.5 1h-70l-55 -315q-9 -52 -13.5 -82t-6 -62.5t1 -49t13 -33.5t24.5 -23t40.5 -12.5t56 -7.5t75.5 -1h30q71 0 119.5 14t84.5 49t60.5 81.5t51.5 124.5q2 8 28 1q9 -3 9 -6q-41 -217 -54 -299 q-4 -24 -12 -27.5t-43 -0.5q-73 8 -379 8h-20q-287 0 -443 -4q-3 0 -3.5 8t1 16.5t4.5 8.5q43 3 64 5.5t45 11t34 19.5t22 36.5t18.5 56.5t15.5 84l49 286h-379q-168 -223 -233.5 -319t-71.5 -131q-4 -28 10 -36t58 -13q3 0 3.5 -8t-1 -16.5t-4.5 -8.5q-82 4 -172 4 q-19 0 -38.5 -0.5t-51.5 -1.5t-62 -2q-3 0 -3.5 8zM442 592h344l76 432q18 109 23 156z" />
<glyph unicode="&#xc7;" horiz-adv-x="1255" d="M123 569q0 163 59.5 308.5t159 247.5t233 161.5t277.5 59.5q81 0 155 -21t122.5 -42t66.5 -21q22 0 43 30q3 4 14 2.5t11 -6.5l-50 -309q0 -3 -6.5 -3.5t-13.5 1t-8 4.5q-27 139 -112.5 228t-223.5 89q-99 0 -187.5 -44t-152.5 -118.5t-111 -170.5t-70.5 -202t-23.5 -212 q0 -104 24 -197t72.5 -170.5t132.5 -123.5t195 -46q127 0 225 72q51 36 156 229q1 2 5 2.5t9 -0.5t9.5 -2.5t7.5 -3.5t2 -4q-3 -11 -11.5 -50.5t-17 -75.5t-18.5 -74.5t-19.5 -63.5t-15.5 -27q-136 -51 -313 -51q-44 0 -64 2l-68 -119q55 -2 101 -16.5t80 -49.5t34 -85 q0 -86 -76 -134t-167 -48q-61 0 -116 28t-83 80q-1 3 4.5 8t11.5 8t7 1q60 -80 166 -80q59 0 103 28t44 84q0 107 -201 107l109 194q-159 24 -276 111t-175.5 212.5t-58.5 272.5z" />
<glyph unicode="&#xc8;" horiz-adv-x="1095" d="M23.5 4q-0.5 8 1 16.5t4.5 8.5q43 3 64 5t44.5 11t33 20t21.5 37t19 56.5t16 83.5l146 819q7 39 11 65.5t4 49.5t-1 36.5t-10 25t-17.5 16.5t-28 10t-36.5 6.5t-49 3.5q-4 0 -4 16.5t4 16.5q156 -4 250 -4h221q70 0 172.5 3t116.5 3q29 0 45.5 -3.5t19.5 -7.5t2 -10 q-19 -169 -39 -258q0 -2 -7.5 -3t-15 -0.5t-7.5 1.5q0 52 -4.5 82.5t-20 59t-47 42.5t-83 22.5t-130.5 8.5h-127q-27 0 -27 -4l-98 -551h70q64 0 103.5 0.5t79.5 4t61 6.5t43 13t32 19t22 28.5t18.5 37.5t16.5 49q0 4 24 0q12 -2 11 -6q-5 -15 -19 -79.5t-20 -101.5 q-22 -154 -24 -192q0 -6 -17.5 -5.5t-17.5 5.5q0 32 -1 50t-6 39t-13 31t-25 21.5t-39 16.5t-57.5 9.5t-78 5.5t-102.5 1h-69l-56 -315q-9 -53 -14 -81.5t-6 -60.5t1 -46.5t14 -31.5t24 -22.5t41 -12.5t55.5 -9.5t75.5 -6.5h31q71 0 119.5 14t84 49t60 81.5t51.5 124.5 q2 8 28 1q9 -3 9 -6q-35 -184 -53 -299q-4 -24 -12.5 -27.5t-43.5 -0.5q-73 8 -379 8h-20q-286 0 -442 -4q-3 0 -3.5 8zM440 1765h211l176 -333h-30z" />
<glyph unicode="&#xc9;" horiz-adv-x="1095" d="M23.5 4q-0.5 8 1 16.5t4.5 8.5q43 3 64 5t44.5 11t33 20t21.5 37t19 56.5t16 83.5l146 819q7 39 11 65.5t4 49.5t-1 36.5t-10 25t-17.5 16.5t-28 10t-36.5 6.5t-49 3.5q-4 0 -4 16.5t4 16.5q156 -4 250 -4h221q70 0 172.5 3t116.5 3q29 0 45.5 -3.5t19.5 -7.5t2 -10 q-19 -169 -39 -258q0 -2 -7.5 -3t-15 -0.5t-7.5 1.5q0 52 -4.5 82.5t-20 59t-47 42.5t-83 22.5t-130.5 8.5h-127q-27 0 -27 -4l-98 -551h70q64 0 103.5 0.5t79.5 4t61 6.5t43 13t32 19t22 28.5t18.5 37.5t16.5 49q0 4 24 0q12 -2 11 -6q-5 -15 -19 -79.5t-20 -101.5 q-22 -154 -24 -192q0 -6 -17.5 -5.5t-17.5 5.5q0 32 -1 50t-6 39t-13 31t-25 21.5t-39 16.5t-57.5 9.5t-78 5.5t-102.5 1h-69l-56 -315q-9 -53 -14 -81.5t-6 -60.5t1 -46.5t14 -31.5t24 -22.5t41 -12.5t55.5 -9.5t75.5 -6.5h31q71 0 119.5 14t84 49t60 81.5t51.5 124.5 q2 8 28 1q9 -3 9 -6q-35 -184 -53 -299q-4 -24 -12.5 -27.5t-43.5 -0.5q-73 8 -379 8h-20q-286 0 -442 -4q-3 0 -3.5 8zM594 1432l295 333h219l-475 -333h-39z" />
<glyph unicode="&#xca;" horiz-adv-x="1095" d="M23.5 4q-0.5 8 1 16.5t4.5 8.5q43 3 64 5t44.5 11t33 20t21.5 37t19 56.5t16 83.5l146 819q7 39 11 65.5t4 49.5t-1 36.5t-10 25t-17.5 16.5t-28 10t-36.5 6.5t-49 3.5q-4 0 -4 16.5t4 16.5q156 -4 250 -4h221q70 0 172.5 3t116.5 3q29 0 45.5 -3.5t19.5 -7.5t2 -10 q-19 -169 -39 -258q0 -2 -7.5 -3t-15 -0.5t-7.5 1.5q0 52 -4.5 82.5t-20 59t-47 42.5t-83 22.5t-130.5 8.5h-127q-27 0 -27 -4l-98 -551h70q64 0 103.5 0.5t79.5 4t61 6.5t43 13t32 19t22 28.5t18.5 37.5t16.5 49q0 4 24 0q12 -2 11 -6q-5 -15 -19 -79.5t-20 -101.5 q-22 -154 -24 -192q0 -6 -17.5 -5.5t-17.5 5.5q0 32 -1 50t-6 39t-13 31t-25 21.5t-39 16.5t-57.5 9.5t-78 5.5t-102.5 1h-69l-56 -315q-9 -53 -14 -81.5t-6 -60.5t1 -46.5t14 -31.5t24 -22.5t41 -12.5t55.5 -9.5t75.5 -6.5h31q71 0 119.5 14t84 49t60 81.5t51.5 124.5 q2 8 28 1q9 -3 9 -6q-35 -184 -53 -299q-4 -24 -12.5 -27.5t-43.5 -0.5q-73 8 -379 8h-20q-286 0 -442 -4q-3 0 -3.5 8zM434 1421l281 348h133l158 -348h-35l-203 244l-295 -244h-39z" />
<glyph unicode="&#xcb;" horiz-adv-x="1095" d="M23.5 4q-0.5 8 1 16.5t4.5 8.5q43 3 64 5t44.5 11t33 20t21.5 37t19 56.5t16 83.5l146 819q7 39 11 65.5t4 49.5t-1 36.5t-10 25t-17.5 16.5t-28 10t-36.5 6.5t-49 3.5q-4 0 -4 16.5t4 16.5q156 -4 250 -4h221q70 0 172.5 3t116.5 3q29 0 45.5 -3.5t19.5 -7.5t2 -10 q-19 -169 -39 -258q0 -2 -7.5 -3t-15 -0.5t-7.5 1.5q0 52 -4.5 82.5t-20 59t-47 42.5t-83 22.5t-130.5 8.5h-127q-27 0 -27 -4l-98 -551h70q64 0 103.5 0.5t79.5 4t61 6.5t43 13t32 19t22 28.5t18.5 37.5t16.5 49q0 4 24 0q12 -2 11 -6q-5 -15 -19 -79.5t-20 -101.5 q-22 -154 -24 -192q0 -6 -17.5 -5.5t-17.5 5.5q0 32 -1 50t-6 39t-13 31t-25 21.5t-39 16.5t-57.5 9.5t-78 5.5t-102.5 1h-69l-56 -315q-9 -53 -14 -81.5t-6 -60.5t1 -46.5t14 -31.5t24 -22.5t41 -12.5t55.5 -9.5t75.5 -6.5h31q71 0 119.5 14t84 49t60 81.5t51.5 124.5 q2 8 28 1q9 -3 9 -6q-35 -184 -53 -299q-4 -24 -12.5 -27.5t-43.5 -0.5q-73 8 -379 8h-20q-286 0 -442 -4q-3 0 -3.5 8zM436 1559q0 42 31.5 74t73.5 32q41 0 71.5 -32t30.5 -74t-30.5 -73.5t-71.5 -31.5q-42 0 -73.5 31.5t-31.5 73.5zM836 1561q0 42 30.5 74t71.5 32 q42 0 73 -32t31 -74t-31 -74.5t-73 -32.5q-41 0 -71.5 32.5t-30.5 74.5z" />
<glyph unicode="&#xcc;" horiz-adv-x="692" d="M27.5 4q-0.5 8 1 16.5t4.5 8.5q43 3 64 5t44.5 11t33 20t21.5 37t19 56.5t16 83.5l146 819q7 39 11 65.5t4 49.5t-1 36.5t-10 25t-17.5 16.5t-28 10t-36.5 6.5t-49 3.5q-4 0 -4 16.5t4 16.5q156 -4 256 -4q153 0 235 4q5 0 5 -16.5t-5 -16.5q-44 -3 -65 -5.5t-45.5 -11 t-34 -19.5t-22 -37t-19.5 -56.5t-16 -83.5l-146 -819q-9 -52 -13 -83.5t-0.5 -56.5t10 -36.5t28.5 -20t42.5 -11t63.5 -5.5q3 0 3.5 -8t-1 -16.5t-4.5 -8.5q-82 4 -235 4q-100 0 -256 -4q-3 0 -3.5 8zM229 1765h211l176 -333h-30z" />
<glyph unicode="&#xcd;" horiz-adv-x="692" d="M27.5 4q-0.5 8 1 16.5t4.5 8.5q43 3 64 5t44.5 11t33 20t21.5 37t19 56.5t16 83.5l146 819q7 39 11 65.5t4 49.5t-1 36.5t-10 25t-17.5 16.5t-28 10t-36.5 6.5t-49 3.5q-4 0 -4 16.5t4 16.5q156 -4 256 -4q153 0 235 4q5 0 5 -16.5t-5 -16.5q-44 -3 -65 -5.5t-45.5 -11 t-34 -19.5t-22 -37t-19.5 -56.5t-16 -83.5l-146 -819q-9 -52 -13 -83.5t-0.5 -56.5t10 -36.5t28.5 -20t42.5 -11t63.5 -5.5q3 0 3.5 -8t-1 -16.5t-4.5 -8.5q-82 4 -235 4q-100 0 -256 -4q-3 0 -3.5 8zM449 1432l294 333h220l-476 -333h-38z" />
<glyph unicode="&#xce;" horiz-adv-x="692" d="M27.5 4q-0.5 8 1 16.5t4.5 8.5q43 3 64 5t44.5 11t33 20t21.5 37t19 56.5t16 83.5l146 819q7 39 11 65.5t4 49.5t-1 36.5t-10 25t-17.5 16.5t-28 10t-36.5 6.5t-49 3.5q-4 0 -4 16.5t4 16.5q156 -4 256 -4q153 0 235 4q5 0 5 -16.5t-5 -16.5q-44 -3 -65 -5.5t-45.5 -11 t-34 -19.5t-22 -37t-19.5 -56.5t-16 -83.5l-146 -819q-9 -52 -13 -83.5t-0.5 -56.5t10 -36.5t28.5 -20t42.5 -11t63.5 -5.5q3 0 3.5 -8t-1 -16.5t-4.5 -8.5q-82 4 -235 4q-100 0 -256 -4q-3 0 -3.5 8zM242 1421l280 348h133l158 -348h-35l-203 244l-294 -244h-39z" />
<glyph unicode="&#xcf;" horiz-adv-x="692" d="M27.5 4q-0.5 8 1 16.5t4.5 8.5q43 3 64 5t44.5 11t33 20t21.5 37t19 56.5t16 83.5l146 819q7 39 11 65.5t4 49.5t-1 36.5t-10 25t-17.5 16.5t-28 10t-36.5 6.5t-49 3.5q-4 0 -4 16.5t4 16.5q156 -4 256 -4q153 0 235 4q5 0 5 -16.5t-5 -16.5q-44 -3 -65 -5.5t-45.5 -11 t-34 -19.5t-22 -37t-19.5 -56.5t-16 -83.5l-146 -819q-9 -52 -13 -83.5t-0.5 -56.5t10 -36.5t28.5 -20t42.5 -11t63.5 -5.5q3 0 3.5 -8t-1 -16.5t-4.5 -8.5q-82 4 -235 4q-100 0 -256 -4q-3 0 -3.5 8zM246 1559q0 42 31 74t73 32q41 0 72 -32t31 -74q0 -41 -31 -73t-72 -32 q-42 0 -73 31.5t-31 73.5zM645 1561q0 42 31 74t72 32q42 0 73 -32t31 -74t-31 -74.5t-73 -32.5q-41 0 -72 32.5t-31 74.5z" />
<glyph unicode="&#xd0;" horiz-adv-x="1413" d="M23.5 2q-0.5 8 1 16.5t4.5 8.5q43 3 64 5t44.5 11t33 20t21.5 37t19 56.5t16 83.5l72 399h-162q-3 0 -3 26.5t3 26.5h170l66 363q7 39 11 65.5t4 49.5t-1 36.5t-10 25t-17.5 16.5t-28 10t-36.5 6.5t-49 3.5q-4 0 -4 16t4 16q13 0 179.5 1.5t231.5 1.5q200 0 356.5 -67.5 t247.5 -200t91 -310.5q0 -205 -104 -373.5t-283 -263t-394 -94.5q-45 0 -147 1t-139 1q-180 0 -258 -2q-3 0 -3.5 8zM388 192.5q-1 -45.5 8 -74.5t33.5 -44.5t56 -21t81.5 -5.5q125 0 227.5 42t169.5 110t113 157.5t66 182t20 186.5q0 127 -42 229.5t-112.5 165.5t-158 96 t-184.5 33q-47 0 -71 -1l-24 -1l-100 -555h326q3 0 3 -26.5t-3 -26.5h-336l-60 -334q-12 -67 -13 -112.5z" />
<glyph unicode="&#xd1;" d="M22 12.5q0 16.5 5 16.5q43 4 65 7.5t46 18t34.5 31.5t25 58.5t24 88.5t24.5 132l135 741q17 96 -9 127t-136 41q-4 0 -4 16.5t4 16.5q156 -4 256 -4h63q21 -49 51 -105l512 -930h4l111 670q14 81 20 130.5t4 89.5t-9 59.5t-29 33t-47 17.5t-70 6q-4 0 -4 16.5t4 16.5 q156 -4 223 -4q115 0 197 4q4 0 4 -16.5t-4 -16.5q-43 -4 -65 -7.5t-45.5 -18.5t-34 -31.5t-25 -59t-24 -88t-25.5 -131.5l-111 -602q-10 -55 -30.5 -182.5t-26.5 -163.5q-2 -6 -30.5 -7t-31.5 5l-627 1155h-2l-129 -778q-14 -81 -20 -130.5t-4 -89.5t9 -59.5t29 -33 t47 -17.5t70 -6q4 0 4 -16.5t-4 -16.5q-156 4 -223 4q-114 0 -196 -4q-5 0 -5 16.5zM602 1458q22 92 76.5 155.5t132.5 63.5q42 0 85.5 -19t74 -42.5t66.5 -42.5t65 -19q86 0 131 123h47q-22 -92 -76.5 -155.5t-132.5 -63.5q-42 0 -85.5 19t-74 42.5t-66.5 42.5t-65 19 q-86 0 -131 -123h-47z" />
<glyph unicode="&#xd2;" d="M131 582q0 138 50 273.5t137.5 243.5t218 175t278.5 67q108 0 201 -34t160 -92.5t115 -137t71.5 -168.5t23.5 -186q0 -138 -50 -273.5t-137.5 -244t-218 -175.5t-278.5 -67q-134 0 -244 52t-180.5 139t-108.5 197.5t-38 230.5zM313 512q0 -223 98.5 -356t282.5 -133 q145 0 262 101.5t182.5 277.5t65.5 391q0 223 -98.5 356t-282.5 133q-145 0 -262 -101.5t-182.5 -277.5t-65.5 -391zM555 1765h211l176 -333h-31z" />
<glyph unicode="&#xd3;" d="M131 582q0 138 50 273.5t137.5 243.5t218 175t278.5 67q108 0 201 -34t160 -92.5t115 -137t71.5 -168.5t23.5 -186q0 -138 -50 -273.5t-137.5 -244t-218 -175.5t-278.5 -67q-134 0 -244 52t-180.5 139t-108.5 197.5t-38 230.5zM313 512q0 -223 98.5 -356t282.5 -133 q145 0 262 101.5t182.5 277.5t65.5 391q0 223 -98.5 356t-282.5 133q-145 0 -262 -101.5t-182.5 -277.5t-65.5 -391zM809 1432l295 333h219l-475 -333h-39z" />
<glyph unicode="&#xd4;" d="M131 582q0 138 50 273.5t137.5 243.5t218 175t278.5 67q108 0 201 -34t160 -92.5t115 -137t71.5 -168.5t23.5 -186q0 -138 -50 -273.5t-137.5 -244t-218 -175.5t-278.5 -67q-134 0 -244 52t-180.5 139t-108.5 197.5t-38 230.5zM313 512q0 -223 98.5 -356t282.5 -133 q145 0 262 101.5t182.5 277.5t65.5 391q0 223 -98.5 356t-282.5 133q-145 0 -262 -101.5t-182.5 -277.5t-65.5 -391zM602 1421l281 348h133l158 -348h-35l-203 244l-295 -244h-39z" />
<glyph unicode="&#xd5;" d="M131 582q0 138 50 273.5t137.5 243.5t218 175t278.5 67q108 0 201 -34t160 -92.5t115 -137t71.5 -168.5t23.5 -186q0 -138 -50 -273.5t-137.5 -244t-218 -175.5t-278.5 -67q-134 0 -244 52t-180.5 139t-108.5 197.5t-38 230.5zM313 512q0 -223 98.5 -356t282.5 -133 q145 0 262 101.5t182.5 277.5t65.5 391q0 223 -98.5 356t-282.5 133q-145 0 -262 -101.5t-182.5 -277.5t-65.5 -391zM571 1458q22 92 76.5 155.5t132.5 63.5q42 0 85.5 -19t74 -42.5t66.5 -42.5t65 -19q86 0 131 123h47q-22 -92 -76.5 -155.5t-132.5 -63.5q-42 0 -85.5 19 t-73.5 42.5t-66 42.5t-65 19q-87 0 -132 -123h-47z" />
<glyph unicode="&#xd6;" d="M131 582q0 138 50 273.5t137.5 243.5t218 175t278.5 67q108 0 201 -34t160 -92.5t115 -137t71.5 -168.5t23.5 -186q0 -138 -50 -273.5t-137.5 -244t-218 -175.5t-278.5 -67q-134 0 -244 52t-180.5 139t-108.5 197.5t-38 230.5zM313 512q0 -223 98.5 -356t282.5 -133 q145 0 262 101.5t182.5 277.5t65.5 391q0 223 -98.5 356t-282.5 133q-145 0 -262 -101.5t-182.5 -277.5t-65.5 -391zM535 1559q0 42 31 74t73 32q41 0 71.5 -32t30.5 -74t-30.5 -73.5t-71.5 -31.5q-42 0 -73 31.5t-31 73.5zM934 1561q0 42 30.5 74t71.5 32q42 0 73.5 -32 t31.5 -74t-31.5 -74.5t-73.5 -32.5q-41 0 -71.5 32.5t-30.5 74.5z" />
<glyph unicode="&#xd8;" d="M131 582q0 138 50 273.5t137.5 243.5t218 175t278.5 67q188 0 330 -102l151 215q1 2 11 -4t19 -14t7 -11l-151 -215q98 -88 151 -216t53 -271q0 -138 -50 -273.5t-137.5 -244t-218 -175.5t-278.5 -67q-184 0 -325 98l-172 -245q-1 -2 -11 4.5t-19 14t-7 9.5l172 246 q-100 87 -154.5 217.5t-54.5 274.5zM313 512q0 -208 86 -338q44 63 116 165.5t224 319.5t253.5 361t101.5 143q-99 119 -271 119q-145 0 -262 -101.5t-182.5 -277.5t-65.5 -391zM428 135q98 -112 266 -112q145 0 262 101.5t182.5 277.5t65.5 391q0 206 -82 331z" />
<glyph unicode="&#xd9;" horiz-adv-x="1396" d="M194 1290.5q0 16.5 5 16.5q156 -4 256 -4q153 0 235 4q4 0 4 -16.5t-4 -16.5q-44 -3 -65 -5.5t-45.5 -11t-34.5 -19.5t-22.5 -36.5t-19.5 -56.5t-16 -84l-94 -522q-24 -138 -24 -189q0 -132 88 -217.5t250 -85.5q80 0 150.5 29t117.5 76q88 88 133 337l80 449 q14 80 21 130.5t5 90t-9.5 59.5t-30 33t-47.5 17t-70 6q-5 0 -5 16.5t5 16.5q156 -4 223 -4q115 0 197 4q5 0 5 -16.5t-5 -16.5q-32 -3 -50.5 -5.5t-39 -10t-31 -15.5t-24 -27.5t-20.5 -39.5t-17.5 -58.5t-18 -77t-19.5 -102.5l-81 -444q-28 -154 -66 -241t-98 -147 q-62 -62 -152.5 -100.5t-193.5 -38.5q-249 0 -371 132t-72 403l103 559q7 39 11 65t4 49t-1.5 36.5t-10 25t-17 17t-28 10t-36.5 6.5t-49 4q-5 0 -5 16.5zM645 1765h211l176 -333h-31z" />
<glyph unicode="&#xda;" horiz-adv-x="1396" d="M194 1290.5q0 16.5 5 16.5q156 -4 256 -4q153 0 235 4q4 0 4 -16.5t-4 -16.5q-44 -3 -65 -5.5t-45.5 -11t-34.5 -19.5t-22.5 -36.5t-19.5 -56.5t-16 -84l-94 -522q-24 -138 -24 -189q0 -132 88 -217.5t250 -85.5q80 0 150.5 29t117.5 76q88 88 133 337l80 449 q14 80 21 130.5t5 90t-9.5 59.5t-30 33t-47.5 17t-70 6q-5 0 -5 16.5t5 16.5q156 -4 223 -4q115 0 197 4q5 0 5 -16.5t-5 -16.5q-32 -3 -50.5 -5.5t-39 -10t-31 -15.5t-24 -27.5t-20.5 -39.5t-17.5 -58.5t-18 -77t-19.5 -102.5l-81 -444q-28 -154 -66 -241t-98 -147 q-62 -62 -152.5 -100.5t-193.5 -38.5q-249 0 -371 132t-72 403l103 559q7 39 11 65t4 49t-1.5 36.5t-10 25t-17 17t-28 10t-36.5 6.5t-49 4q-5 0 -5 16.5zM821 1432l295 333h219l-475 -333h-39z" />
<glyph unicode="&#xdb;" horiz-adv-x="1396" d="M194 1290.5q0 16.5 5 16.5q156 -4 256 -4q153 0 235 4q4 0 4 -16.5t-4 -16.5q-44 -3 -65 -5.5t-45.5 -11t-34.5 -19.5t-22.5 -36.5t-19.5 -56.5t-16 -84l-94 -522q-24 -138 -24 -189q0 -132 88 -217.5t250 -85.5q80 0 150.5 29t117.5 76q88 88 133 337l80 449 q14 80 21 130.5t5 90t-9.5 59.5t-30 33t-47.5 17t-70 6q-5 0 -5 16.5t5 16.5q156 -4 223 -4q115 0 197 4q5 0 5 -16.5t-5 -16.5q-32 -3 -50.5 -5.5t-39 -10t-31 -15.5t-24 -27.5t-20.5 -39.5t-17.5 -58.5t-18 -77t-19.5 -102.5l-81 -444q-28 -154 -66 -241t-98 -147 q-62 -62 -152.5 -100.5t-193.5 -38.5q-249 0 -371 132t-72 403l103 559q7 39 11 65t4 49t-1.5 36.5t-10 25t-17 17t-28 10t-36.5 6.5t-49 4q-5 0 -5 16.5zM629 1421l280 348h133l158 -348h-35l-202 244l-295 -244h-39z" />
<glyph unicode="&#xdc;" horiz-adv-x="1396" d="M194 1290.5q0 16.5 5 16.5q156 -4 256 -4q153 0 235 4q4 0 4 -16.5t-4 -16.5q-44 -3 -65 -5.5t-45.5 -11t-34.5 -19.5t-22.5 -36.5t-19.5 -56.5t-16 -84l-94 -522q-24 -138 -24 -189q0 -132 88 -217.5t250 -85.5q80 0 150.5 29t117.5 76q88 88 133 337l80 449 q14 80 21 130.5t5 90t-9.5 59.5t-30 33t-47.5 17t-70 6q-5 0 -5 16.5t5 16.5q156 -4 223 -4q115 0 197 4q5 0 5 -16.5t-5 -16.5q-32 -3 -50.5 -5.5t-39 -10t-31 -15.5t-24 -27.5t-20.5 -39.5t-17.5 -58.5t-18 -77t-19.5 -102.5l-81 -444q-28 -154 -66 -241t-98 -147 q-62 -62 -152.5 -100.5t-193.5 -38.5q-249 0 -371 132t-72 403l103 559q7 39 11 65t4 49t-1.5 36.5t-10 25t-17 17t-28 10t-36.5 6.5t-49 4q-5 0 -5 16.5zM594 1559q0 42 31 74t73 32q41 0 72 -32t31 -74q0 -41 -31 -73t-72 -32q-42 0 -73 31.5t-31 73.5zM993 1561 q0 42 31 74t72 32q42 0 73 -32t31 -74t-31 -74.5t-73 -32.5q-41 0 -72 32.5t-31 74.5z" />
<glyph unicode="&#xdd;" horiz-adv-x="1163" d="M149 1282q0 8 2 16.5t5 8.5q82 -4 215 -4q69 0 225 4q3 0 3 -8.5t-2 -16.5t-5 -8q-56 -5 -80 -14.5t-27 -32.5q-5 -26 23 -94l190 -471l330 460q45 61 51 97q4 24 -17 37t-71 18q-3 0 -3 8t2 16.5t5 8.5q82 -4 189 -4q3 0 159 4q3 0 3 -8.5t-2 -16.5t-5 -8 q-41 -3 -77 -18.5t-61 -32t-57.5 -53.5t-50 -60t-55.5 -76l-315 -434l-64 -358q-10 -53 -14 -83t-0.5 -56.5t11 -37.5t30.5 -20t48 -11.5t73 -4.5q3 0 3.5 -8t-1 -16.5t-4.5 -8.5q-82 4 -256 4q-121 0 -277 -4q-3 0 -3.5 8t1 16.5t4.5 8.5q51 2 75.5 4t51.5 11t37.5 19.5 t24 37t19.5 56.5t16 85l55 321l-213 527q-45 111 -77 143t-111 41q-3 0 -3 8zM711 1421l295 334h219l-475 -334h-39z" />
<glyph unicode="&#xde;" horiz-adv-x="1122" d="M17 4.5q0 7.5 2.5 16t5.5 8.5q44 3 65 5.5t45.5 11t34 19.5t22 37t19.5 56.5t16 83.5l142 798q7 41 11 70t4 53.5t-1.5 39.5t-10 27.5t-17 19t-27.5 11.5t-35.5 7.5t-46.5 5.5q-3 1 -2.5 8.5t3 16t5.5 8.5q152 -4 244 -4q186 0 268 4q3 -1 2.5 -8.5t-3 -16t-5.5 -8.5 q-31 -3 -45.5 -5t-37 -6t-32 -7.5t-25 -10.5t-21.5 -15t-16.5 -21.5t-15 -28t-12 -37t-12.5 -47t-11 -58.5v-2q90 4 136 4q200 0 307.5 -88t107.5 -227q0 -90 -45 -172.5t-120.5 -141t-183 -86.5t-224.5 -12q-7 1 -5 16t7 15q104 -1 182 28t122.5 80t65.5 112t21 132 q0 160 -108 240t-273 49l-131 -743q-20 -146 -3 -172t118 -37q21 -3 33 -4q3 -1 3 -8.5t-2.5 -16t-5.5 -8.5q-82 4 -256 4q-100 0 -256 -4q-3 1 -3 8.5z" />
<glyph unicode="&#xdf;" horiz-adv-x="1050" d="M-313 -356q-3 78 88 133q35 -70 75.5 -103.5t96.5 -33.5q52 0 78 26q51 51 90.5 181.5t83.5 443.5q47 332 84 504h-193l4 41l203 28q40 180 110.5 324t151.5 225q55 55 117 83t119 28q105 0 176 -78t71 -186q0 -47 -16.5 -91t-50.5 -85.5t-61.5 -69t-75 -69.5t-64.5 -58 q-121 -118 -121 -178q0 -25 17 -51.5t37.5 -45.5t56.5 -50t55 -50q34 -34 53 -55.5t46 -58t40 -74.5t13 -78q0 -84 -76 -160q-119 -119 -266 -119q-77 0 -147 50.5t-70 99.5q0 17 5.5 31t21 28.5t25.5 22t34 24.5q23 -50 66.5 -87.5t89 -55t87.5 -17.5q55 0 89 33.5t34 87.5 q0 15 -4 30.5t-14.5 32.5t-19 29.5t-26.5 32t-27.5 29.5t-32 32t-31.5 31q-3 3 -24 23.5t-26 26t-23 24.5t-24 27t-19.5 25t-18.5 27.5t-12.5 25.5t-10 28.5t-2.5 26.5q0 28 4.5 52.5t17 49.5t21.5 41.5t33.5 43.5t37 40t47 46.5t48.5 47.5q31 31 48.5 50t44 53.5t39.5 68.5 t13 68q0 104 -49 162.5t-135 58.5q-70 0 -117 -47q-101 -101 -166 -512l-18 -125q-25 -169 -45 -285t-50.5 -253.5t-62.5 -233t-78.5 -184t-101.5 -144.5q-100 -104 -244 -104q-63 0 -105 37t-44 78z" />
<glyph unicode="&#xe0;" horiz-adv-x="921" d="M49 201q0 138 56 278t153 240q158 164 291 164q74 0 141 -49l101 73l22 -14l-137 -608q-23 -89 -16 -141t55 -52q10 0 24 7t30.5 20.5t28 24.5t28.5 27t20 19l22 -20q-6 -8 -26.5 -36t-28 -37t-26.5 -32.5t-29 -33t-27.5 -25t-31 -22t-30.5 -12t-34 -5.5q-63 0 -92 60.5 t-17 146.5q-92 -96 -151 -143q-80 -64 -148 -64q-72 0 -125 64.5t-53 169.5zM193 250q0 -71 30.5 -119.5t77.5 -48.5q39 0 89.5 33t141.5 121l103 491q-92 49 -162 49q-80 0 -145 -65q-62 -62 -98.5 -192.5t-36.5 -268.5zM303 1333h211l176 -334h-31z" />
<glyph unicode="&#xe1;" horiz-adv-x="921" d="M49 201q0 138 56 278t153 240q158 164 291 164q74 0 141 -49l101 73l22 -14l-137 -608q-23 -89 -16 -141t55 -52q10 0 24 7t30.5 20.5t28 24.5t28.5 27t20 19l22 -20q-6 -8 -26.5 -36t-28 -37t-26.5 -32.5t-29 -33t-27.5 -25t-31 -22t-30.5 -12t-34 -5.5q-63 0 -92 60.5 t-17 146.5q-92 -96 -151 -143q-80 -64 -148 -64q-72 0 -125 64.5t-53 169.5zM193 250q0 -71 30.5 -119.5t77.5 -48.5q39 0 89.5 33t141.5 121l103 491q-92 49 -162 49q-80 0 -145 -65q-62 -62 -98.5 -192.5t-36.5 -268.5zM399 999l295 334h219l-475 -334h-39z" />
<glyph unicode="&#xe2;" horiz-adv-x="921" d="M49 201q0 138 56 278t153 240q158 164 291 164q74 0 141 -49l101 73l22 -14l-137 -608q-23 -89 -16 -141t55 -52q10 0 24 7t30.5 20.5t28 24.5t28.5 27t20 19l22 -20q-6 -8 -26.5 -36t-28 -37t-26.5 -32.5t-29 -33t-27.5 -25t-31 -22t-30.5 -12t-34 -5.5q-63 0 -92 60.5 t-17 146.5q-92 -96 -151 -143q-80 -64 -148 -64q-72 0 -125 64.5t-53 169.5zM193 250q0 -71 30.5 -119.5t77.5 -48.5q39 0 89.5 33t141.5 121l103 491q-92 49 -162 49q-80 0 -145 -65q-62 -62 -98.5 -192.5t-36.5 -268.5zM276 989l281 348h133l158 -348h-35l-203 244 l-295 -244h-39z" />
<glyph unicode="&#xe3;" horiz-adv-x="921" d="M49 201q0 138 56 278t153 240q158 164 291 164q74 0 141 -49l101 73l22 -14l-137 -608q-23 -89 -16 -141t55 -52q10 0 24 7t30.5 20.5t28 24.5t28.5 27t20 19l22 -20q-6 -8 -26.5 -36t-28 -37t-26.5 -32.5t-29 -33t-27.5 -25t-31 -22t-30.5 -12t-34 -5.5q-63 0 -92 60.5 t-17 146.5q-92 -96 -151 -143q-80 -64 -148 -64q-72 0 -125 64.5t-53 169.5zM193 250q0 -71 30.5 -119.5t77.5 -48.5q39 0 89.5 33t141.5 121l103 491q-92 49 -162 49q-80 0 -145 -65q-62 -62 -98.5 -192.5t-36.5 -268.5zM272 1026q22 92 76.5 155.5t132.5 63.5 q42 0 85.5 -19t74 -42.5t66.5 -42.5t65 -19q86 0 131 123h47q-22 -92 -76.5 -155.5t-132.5 -63.5q-42 0 -85.5 19t-73.5 42.5t-66 42.5t-65 19q-87 0 -132 -123h-47z" />
<glyph unicode="&#xe4;" horiz-adv-x="921" d="M49 201q0 138 56 278t153 240q158 164 291 164q74 0 141 -49l101 73l22 -14l-137 -608q-23 -89 -16 -141t55 -52q10 0 24 7t30.5 20.5t28 24.5t28.5 27t20 19l22 -20q-6 -8 -26.5 -36t-28 -37t-26.5 -32.5t-29 -33t-27.5 -25t-31 -22t-30.5 -12t-34 -5.5q-63 0 -92 60.5 t-17 146.5q-92 -96 -151 -143q-80 -64 -148 -64q-72 0 -125 64.5t-53 169.5zM193 250q0 -71 30.5 -119.5t77.5 -48.5q39 0 89.5 33t141.5 121l103 491q-92 49 -162 49q-80 0 -145 -65q-62 -62 -98.5 -192.5t-36.5 -268.5zM297 1126q0 42 31 74.5t73 32.5q41 0 72 -32.5 t31 -74.5q0 -41 -31 -72.5t-72 -31.5q-42 0 -73 31t-31 73zM696 1128q0 42 31 74.5t72 32.5q42 0 73 -32.5t31 -74.5t-31 -74t-73 -32q-41 0 -72 32t-31 74z" />
<glyph unicode="&#xe5;" horiz-adv-x="921" d="M49 201q0 138 56 278t153 240q158 164 291 164q74 0 141 -49l101 73l22 -14l-137 -608q-23 -89 -16 -141t55 -52q10 0 24 7t30.5 20.5t28 24.5t28.5 27t20 19l22 -20q-6 -8 -26.5 -36t-28 -37t-26.5 -32.5t-29 -33t-27.5 -25t-31 -22t-30.5 -12t-34 -5.5q-63 0 -92 60.5 t-17 146.5q-92 -96 -151 -143q-80 -64 -148 -64q-72 0 -125 64.5t-53 169.5zM193 250q0 -71 30.5 -119.5t77.5 -48.5q39 0 89.5 33t141.5 121l103 491q-92 49 -162 49q-80 0 -145 -65q-62 -62 -98.5 -192.5t-36.5 -268.5zM436 1194q0 83 54 141t137 58q72 0 119 -42t47 -112 q0 -85 -55 -142t-138 -57q-72 0 -118 41.5t-46 112.5zM498 1202q0 -48 29.5 -80t76.5 -32q55 0 91 42t36 97q0 48 -30 81t-78 33q-54 0 -89.5 -42.5t-35.5 -98.5z" />
<glyph unicode="&#xe6;" horiz-adv-x="1239" d="M80 201q0 138 56 278t153 240q158 164 291 164q124 0 200 -109q135 119 277 119q73 0 115 -42.5t42 -98.5q0 -125 -116 -215.5t-398 -180.5v-12q0 -256 166 -262q48 -2 116 31.5t136 99.5l29 -27q-88 -105 -173 -162t-192 -57q-83 0 -139 53.5t-78 151.5 q-95 -91 -159 -141q-80 -64 -148 -64q-72 0 -125 64.5t-53 169.5zM223 250q0 -71 31 -119.5t78 -48.5q38 0 86 30t139 115q-4 23 -4 74q1 105 40 206t105 183q-99 86 -194 86q-81 0 -146 -65q-62 -62 -98.5 -192.5t-36.5 -268.5zM705 410q205 67 289.5 139.5t84.5 161.5 q0 98 -100 98q-84 0 -169 -119.5t-105 -279.5z" />
<glyph unicode="&#xe7;" horiz-adv-x="753" d="M23 -377q-1 3 4 8t11 8t7 1q60 -80 166 -80q59 0 103 28t44 84q0 107 -200 107l102 184q-85 13 -135.5 91t-50.5 182q0 139 58 285t157 245q72 72 140 101.5t146 29.5q72 0 129.5 -42.5t57.5 -88.5q0 -27 -21.5 -57t-43.5 -46.5t-23 -13.5q-35 62 -94.5 106t-104.5 44 q-65 0 -121 -56q-60 -60 -98.5 -188t-38.5 -225q0 -121 41 -190.5t123 -69.5q46 0 112 35t134 102l28 -27q-82 -98 -162.5 -155t-179.5 -64l-63 -113q55 -2 101 -16.5t80 -49.5t34 -85q0 -86 -76.5 -134t-167.5 -48q-61 0 -115.5 28t-82.5 80z" />
<glyph unicode="&#xe8;" horiz-adv-x="753" d="M68 301q1 111 46.5 220t115.5 190t161 131.5t180 50.5q73 0 115.5 -42.5t42.5 -98.5q0 -125 -116 -215.5t-398 -180.5v-12q-1 -131 42 -198t124 -70q47 -2 115 33.5t137 103.5l29 -27q-88 -105 -173 -162t-192 -57t-168.5 89.5t-60.5 244.5zM219 410q208 68 291.5 136.5 t83.5 155.5q0 107 -100 107q-84 0 -169.5 -119.5t-105.5 -279.5zM270 1333h211l176 -334h-30z" />
<glyph unicode="&#xe9;" horiz-adv-x="753" d="M68 301q1 111 46.5 220t115.5 190t161 131.5t180 50.5q73 0 115.5 -42.5t42.5 -98.5q0 -125 -116 -215.5t-398 -180.5v-12q-1 -131 42 -198t124 -70q47 -2 115 33.5t137 103.5l29 -27q-88 -105 -173 -162t-192 -57t-168.5 89.5t-60.5 244.5zM219 410q208 68 291.5 136.5 t83.5 155.5q0 107 -100 107q-84 0 -169.5 -119.5t-105.5 -279.5zM358 999l295 334h219l-475 -334h-39z" />
<glyph unicode="&#xea;" horiz-adv-x="753" d="M68 301q1 111 46.5 220t115.5 190t161 131.5t180 50.5q73 0 115.5 -42.5t42.5 -98.5q0 -125 -116 -215.5t-398 -180.5v-12q-1 -131 42 -198t124 -70q47 -2 115 33.5t137 103.5l29 -27q-88 -105 -173 -162t-192 -57t-168.5 89.5t-60.5 244.5zM190 989l281 348h133 l158 -348h-35l-203 244l-295 -244h-39zM219 410q208 68 291.5 136.5t83.5 155.5q0 107 -100 107q-84 0 -169.5 -119.5t-105.5 -279.5z" />
<glyph unicode="&#xeb;" horiz-adv-x="753" d="M68 301q1 111 46.5 220t115.5 190t161 131.5t180 50.5q73 0 115.5 -42.5t42.5 -98.5q0 -125 -116 -215.5t-398 -180.5v-12q-1 -131 42 -198t124 -70q47 -2 115 33.5t137 103.5l29 -27q-88 -105 -173 -162t-192 -57t-168.5 89.5t-60.5 244.5zM217 1126q0 42 31.5 74.5 t73.5 32.5q41 0 71.5 -32.5t30.5 -74.5q0 -41 -30.5 -72.5t-71.5 -31.5q-42 0 -73.5 31t-31.5 73zM219 410q208 68 291.5 136.5t83.5 155.5q0 107 -100 107q-84 0 -169.5 -119.5t-105.5 -279.5zM616 1128q0 42 31 74.5t72 32.5q42 0 73 -32.5t31 -74.5t-31 -74t-73 -32 q-41 0 -72 32t-31 74z" />
<glyph unicode="&#xec;" horiz-adv-x="526" d="M61 705q59 75 132.5 133.5t113.5 58.5q44 0 67 -44.5t23 -117.5q0 -60 -66.5 -291.5t-66.5 -265.5q0 -31 19 -53.5t47 -22.5q11 0 28 10t28.5 19.5t32 27.5t23.5 21l23 -20q-61 -77 -131 -135t-109 -58q-41 0 -72.5 38.5t-31.5 88.5q0 60 67.5 309t67.5 283q0 78 -57 78 q-26 0 -115 -74zM74 1333h211l176 -334h-31z" />
<glyph unicode="&#xed;" horiz-adv-x="526" d="M61 705q59 75 132.5 133.5t113.5 58.5q44 0 67 -44.5t23 -117.5q0 -60 -66.5 -291.5t-66.5 -265.5q0 -31 19 -53.5t47 -22.5q11 0 28 10t28.5 19.5t32 27.5t23.5 21l23 -20q-61 -77 -131 -135t-109 -58q-41 0 -72.5 38.5t-31.5 88.5q0 60 67.5 309t67.5 283q0 78 -57 78 q-26 0 -115 -74zM182 999l295 334h219l-475 -334h-39z" />
<glyph unicode="&#xee;" horiz-adv-x="526" d="M61 705q59 75 132.5 133.5t113.5 58.5q44 0 67 -44.5t23 -117.5q0 -60 -66.5 -291.5t-66.5 -265.5q0 -31 19 -53.5t47 -22.5q11 0 28 10t28.5 19.5t32 27.5t23.5 21l23 -20q-61 -77 -131 -135t-109 -58q-41 0 -72.5 38.5t-31.5 88.5q0 60 67.5 309t67.5 283q0 78 -57 78 q-26 0 -115 -74zM63 989l281 348h133l158 -348h-35l-203 244l-295 -244h-39z" />
<glyph unicode="&#xef;" horiz-adv-x="526" d="M61 705q59 75 132.5 133.5t113.5 58.5q44 0 67 -44.5t23 -117.5q0 -60 -66.5 -291.5t-66.5 -265.5q0 -31 19 -53.5t47 -22.5q11 0 28 10t28.5 19.5t32 27.5t23.5 21l23 -20q-61 -77 -131 -135t-109 -58q-41 0 -72.5 38.5t-31.5 88.5q0 60 67.5 309t67.5 283q0 78 -57 78 q-26 0 -115 -74zM72 1126q0 42 31 74.5t73 32.5q41 0 72 -32.5t31 -74.5q0 -41 -31 -72.5t-72 -31.5q-42 0 -73 31t-31 73zM471 1128q0 42 30.5 74.5t71.5 32.5q42 0 73.5 -32.5t31.5 -74.5t-31.5 -74t-73.5 -32q-41 0 -71.5 32t-30.5 74z" />
<glyph unicode="&#xf0;" horiz-adv-x="878" d="M68 332q0 91 35.5 189.5t95 180t145.5 134.5t178 53q81 0 144 -60q-65 232 -217 422l-240 -82q-2 -1 -6.5 11t-7.5 25t0 14l217 75q-92 102 -209 185q-5 5 -2.5 14.5t6.5 9.5q12 0 96.5 -12t95.5 -16q85 -71 142 -136l264 91q2 1 6.5 -11.5t7.5 -26t0 -14.5l-241 -82 q115 -142 181 -307t66 -332q0 -146 -60 -305t-153 -252q-120 -120 -262 -120q-124 0 -203 103t-79 249zM211 412q0 -86 24.5 -162.5t75 -127t117.5 -50.5q73 0 135 72t95.5 184.5t33.5 234.5q0 35 -10 148q-56 44 -122 70t-116 26q-68 0 -121.5 -55t-82.5 -144.5t-29 -195.5 z" />
<glyph unicode="&#xf1;" horiz-adv-x="1040" d="M78 705q59 75 132.5 133.5t113.5 58.5q46 0 69 -43.5t13 -110.5l-13 -73h2q127 134 200 180.5t146 46.5q71 0 114.5 -45.5t43.5 -116.5q0 -60 -57.5 -291.5t-57.5 -265.5q0 -31 18.5 -53.5t45.5 -22.5q9 0 20.5 5.5t25.5 16t24 19t24.5 21t18.5 16.5l22 -20 q-61 -77 -131 -135t-109 -58q-41 0 -71.5 38.5t-30.5 88.5q0 60 54.5 292.5t54.5 264.5q0 117 -115 117q-114 0 -242 -160l-74 -342l-43 -258l-155 -33l147 676q4 24 3 49t-15.5 44.5t-40.5 19.5t-115 -74zM301 1026q22 92 76.5 155.5t132.5 63.5q42 0 85.5 -19t74 -42.5 t66.5 -42.5t65 -19q86 0 131 123h47q-22 -92 -76.5 -155.5t-132.5 -63.5q-42 0 -85.5 19t-74 42.5t-66.5 42.5t-65 19q-86 0 -131 -123h-47z" />
<glyph unicode="&#xf2;" horiz-adv-x="872" d="M68 319q0 72 22 152.5t64.5 155.5t97 136t125.5 97.5t145 36.5q125 0 204 -103t79 -249q0 -91 -36 -192.5t-95 -187t-145.5 -142t-178.5 -56.5q-124 0 -203 103t-79 249zM211 399q0 -86 24.5 -162.5t75 -127t117.5 -50.5q101 0 167.5 121t66.5 285q0 86 -25 162.5 t-75.5 127t-117.5 50.5q-101 0 -167 -121t-66 -285zM285 1333h211l176 -334h-31z" />
<glyph unicode="&#xf3;" horiz-adv-x="872" d="M68 319q0 72 22 152.5t64.5 155.5t97 136t125.5 97.5t145 36.5q125 0 204 -103t79 -249q0 -91 -36 -192.5t-95 -187t-145.5 -142t-178.5 -56.5q-124 0 -203 103t-79 249zM211 399q0 -86 24.5 -162.5t75 -127t117.5 -50.5q101 0 167.5 121t66.5 285q0 86 -25 162.5 t-75.5 127t-117.5 50.5q-101 0 -167 -121t-66 -285zM420 999l295 334h219l-475 -334h-39z" />
<glyph unicode="&#xf4;" horiz-adv-x="872" d="M68 319q0 72 22 152.5t64.5 155.5t97 136t125.5 97.5t145 36.5q125 0 204 -103t79 -249q0 -91 -36 -192.5t-95 -187t-145.5 -142t-178.5 -56.5q-124 0 -203 103t-79 249zM211 399q0 -86 24.5 -162.5t75 -127t117.5 -50.5q101 0 167.5 121t66.5 285q0 86 -25 162.5 t-75.5 127t-117.5 50.5q-101 0 -167 -121t-66 -285zM248 989l280 348h134l157 -348h-35l-202 244l-295 -244h-39z" />
<glyph unicode="&#xf5;" horiz-adv-x="872" d="M68 319q0 72 22 152.5t64.5 155.5t97 136t125.5 97.5t145 36.5q125 0 204 -103t79 -249q0 -91 -36 -192.5t-95 -187t-145.5 -142t-178.5 -56.5q-124 0 -203 103t-79 249zM211 399q0 -86 24.5 -162.5t75 -127t117.5 -50.5q101 0 167.5 121t66.5 285q0 86 -25 162.5 t-75.5 127t-117.5 50.5q-101 0 -167 -121t-66 -285zM217 1026q22 92 76.5 155.5t132.5 63.5q42 0 85.5 -19t74 -42.5t66.5 -42.5t65 -19q86 0 131 123h47q-22 -92 -76.5 -155.5t-132.5 -63.5q-42 0 -85.5 19t-74 42.5t-66.5 42.5t-65 19q-86 0 -131 -123h-47z" />
<glyph unicode="&#xf6;" horiz-adv-x="872" d="M68 319q0 72 22 152.5t64.5 155.5t97 136t125.5 97.5t145 36.5q125 0 204 -103t79 -249q0 -91 -36 -192.5t-95 -187t-145.5 -142t-178.5 -56.5q-124 0 -203 103t-79 249zM211 399q0 -86 24.5 -162.5t75 -127t117.5 -50.5q101 0 167.5 121t66.5 285q0 86 -25 162.5 t-75.5 127t-117.5 50.5q-101 0 -167 -121t-66 -285zM260 1126q0 42 31.5 74.5t73.5 32.5q41 0 71.5 -32.5t30.5 -74.5q0 -41 -30.5 -72.5t-71.5 -31.5q-43 0 -74 31t-31 73zM659 1128q0 42 31 74.5t72 32.5q42 0 73 -32.5t31 -74.5t-31 -74t-73 -32q-41 0 -72 32t-31 74z " />
<glyph unicode="&#xf8;" horiz-adv-x="872" d="M39 -94l111 160q-82 101 -82 253q0 72 22 152.5t64.5 155.5t97 136t125.5 97.5t145 36.5q93 0 166 -63l86 120q1 2 11 -4.5t19 -14t7 -9.5l-88 -127q82 -106 82 -254q0 -91 -36 -192.5t-95 -187t-145.5 -142t-178.5 -56.5t-166 64l-108 -154q-1 -2 -11 4.5t-19 14.5 t-7 10zM211 399q0 -110 37 -194l352 502q-61 98 -156 98q-101 0 -167 -121t-66 -285zM272 158q62 -99 156 -99q101 0 167.5 121t66.5 285q0 110 -37 194z" />
<glyph unicode="&#xf9;" horiz-adv-x="1040" d="M80 705q60 75 132 133.5t112 58.5q39 0 61.5 -41.5t22.5 -101.5q0 -53 -54.5 -280t-54.5 -261q0 -117 115 -117q36 0 70 14.5t66 42.5t54 51.5t51 59.5l125 592l154 33l-74 -301l-80 -375q-4 -25 -3 -50t16 -44t41 -19q9 0 21 5.5t26 16.5t24.5 19.5t25.5 22t19 16.5 l23 -20q-59 -75 -133.5 -134t-114.5 -59q-46 0 -70 43t-12 111l12 74h-2q-127 -134 -200 -181t-146 -47q-71 0 -114 45.5t-43 116.5q0 61 57 287.5t57 253.5q0 92 -45 92q-6 0 -14.5 -3t-18 -9t-18 -11.5t-19.5 -14.5t-17.5 -14.5t-16.5 -14t-13 -11.5zM326 1333h211 l176 -334h-31z" />
<glyph unicode="&#xfa;" horiz-adv-x="1040" d="M80 705q60 75 132 133.5t112 58.5q39 0 61.5 -41.5t22.5 -101.5q0 -53 -54.5 -280t-54.5 -261q0 -117 115 -117q36 0 70 14.5t66 42.5t54 51.5t51 59.5l125 592l154 33l-74 -301l-80 -375q-4 -25 -3 -50t16 -44t41 -19q9 0 21 5.5t26 16.5t24.5 19.5t25.5 22t19 16.5 l23 -20q-59 -75 -133.5 -134t-114.5 -59q-46 0 -70 43t-12 111l12 74h-2q-127 -134 -200 -181t-146 -47q-71 0 -114 45.5t-43 116.5q0 61 57 287.5t57 253.5q0 92 -45 92q-6 0 -14.5 -3t-18 -9t-18 -11.5t-19.5 -14.5t-17.5 -14.5t-16.5 -14t-13 -11.5zM514 999l295 334h219 l-475 -334h-39z" />
<glyph unicode="&#xfb;" horiz-adv-x="1040" d="M80 705q60 75 132 133.5t112 58.5q39 0 61.5 -41.5t22.5 -101.5q0 -53 -54.5 -280t-54.5 -261q0 -117 115 -117q36 0 70 14.5t66 42.5t54 51.5t51 59.5l125 592l154 33l-74 -301l-80 -375q-4 -25 -3 -50t16 -44t41 -19q9 0 21 5.5t26 16.5t24.5 19.5t25.5 22t19 16.5 l23 -20q-59 -75 -133.5 -134t-114.5 -59q-46 0 -70 43t-12 111l12 74h-2q-127 -134 -200 -181t-146 -47q-71 0 -114 45.5t-43 116.5q0 61 57 287.5t57 253.5q0 92 -45 92q-6 0 -14.5 -3t-18 -9t-18 -11.5t-19.5 -14.5t-17.5 -14.5t-16.5 -14t-13 -11.5zM317 989l281 348h133 l158 -348h-35l-203 244l-295 -244h-39z" />
<glyph unicode="&#xfc;" horiz-adv-x="1040" d="M80 705q60 75 132 133.5t112 58.5q39 0 61.5 -41.5t22.5 -101.5q0 -53 -54.5 -280t-54.5 -261q0 -117 115 -117q36 0 70 14.5t66 42.5t54 51.5t51 59.5l125 592l154 33l-74 -301l-80 -375q-4 -25 -3 -50t16 -44t41 -19q9 0 21 5.5t26 16.5t24.5 19.5t25.5 22t19 16.5 l23 -20q-59 -75 -133.5 -134t-114.5 -59q-46 0 -70 43t-12 111l12 74h-2q-127 -134 -200 -181t-146 -47q-71 0 -114 45.5t-43 116.5q0 61 57 287.5t57 253.5q0 92 -45 92q-6 0 -14.5 -3t-18 -9t-18 -11.5t-19.5 -14.5t-17.5 -14.5t-16.5 -14t-13 -11.5zM322 1126 q0 42 31 74.5t73 32.5q41 0 71.5 -32.5t30.5 -74.5q0 -41 -30.5 -72.5t-71.5 -31.5q-42 0 -73 31t-31 73zM721 1128q0 42 30.5 74.5t71.5 32.5q42 0 73.5 -32.5t31.5 -74.5t-31.5 -74t-73.5 -32q-41 0 -71.5 32t-30.5 74z" />
<glyph unicode="&#xfd;" horiz-adv-x="886" d="M-199 -399q0 34 29 67.5t66 44.5q37 -82 112 -82q105 0 211 170q105 178 105 371q0 130 -9.5 235.5t-30 190t-56 131.5t-83.5 47q-30 0 -110 -67l-19 24q52 70 112 117t101 47q86 0 143.5 -103t72.5 -267.5t-7 -370.5l17 -6l73 106q112 160 155.5 257.5t43.5 164.5 q0 14 -51 62.5t-51 54.5q0 14 45.5 61t62.5 47q33 0 74 -37t41 -80t-14 -94t-46 -114t-58 -110t-78.5 -123t-77 -110.5t-80.5 -111.5q-72 -100 -207 -311q-201 -312 -350 -312q-61 0 -98.5 28t-37.5 73zM430 999l295 334h219l-475 -334h-39z" />
<glyph unicode="&#xfe;" horiz-adv-x="919" d="M-154.5 -461.5q0.5 10.5 4.5 10.5q74 6 94.5 25.5t39.5 103.5l348 1606q19 87 -9 121.5t-124 46.5q-6 2 -4 21.5t8 19.5h319l-184 -809h2q167 213 309 213q42 0 78.5 -15.5t68 -48t50 -91.5t18.5 -138q0 -72 -27.5 -159t-76.5 -170t-110 -153t-134.5 -112.5t-142.5 -42.5 q-58 0 -94.5 16t-83.5 52q0 1 -18.5 -85t-36.5 -172l-19 -87q-20 -88 9.5 -113.5t143.5 -28.5q4 0 5 -10.5t-1 -20.5t-6 -10h-419q-4 0 -6 10t-1.5 20.5zM229 170q37 -32 61 -50t64.5 -35t79.5 -17q78 0 143 72.5t100.5 184.5t35.5 234q0 225 -152 225q-44 0 -107 -44.5 t-128 -116.5z" />
<glyph unicode="&#xff;" horiz-adv-x="868" d="M-199 -399q0 34 29 67.5t66 44.5q37 -82 112 -82q105 0 211 170q105 178 105 371q0 130 -9.5 235.5t-30 190t-56 131.5t-83.5 47q-30 0 -110 -67l-19 24q52 70 112 117t101 47q86 0 143.5 -103t72.5 -267.5t-7 -370.5l17 -6l73 106q112 160 155.5 257.5t43.5 164.5 q0 14 -51 62.5t-51 54.5q0 14 45.5 61t62.5 47q33 0 74 -37t41 -80t-14 -94t-46 -114t-58 -110t-78.5 -123t-77 -110.5t-80.5 -111.5q-72 -100 -207 -311q-201 -312 -350 -312q-61 0 -98.5 28t-37.5 73zM281 1126q0 42 31 74.5t73 32.5q41 0 71.5 -32.5t30.5 -74.5 q0 -41 -30.5 -72.5t-71.5 -31.5q-42 0 -73 31t-31 73zM680 1128q0 42 30.5 74.5t71.5 32.5q42 0 73.5 -32.5t31.5 -74.5t-31.5 -74t-73.5 -32q-41 0 -71.5 32t-30.5 74z" />
<glyph unicode="&#x152;" horiz-adv-x="1814" d="M131 573q0 205 103.5 373.5t282.5 263.5t394 95q47 0 161 -1t142 -1h222q70 0 172 3t116 3q29 0 45.5 -3.5t20 -7.5t2.5 -10q-19 -169 -39 -258q0 -2 -7.5 -3t-15.5 -0.5t-8 1.5q0 52 -4.5 82.5t-20 59t-46.5 42.5t-82.5 22.5t-130.5 8.5h-127q-27 0 -27 -4l-98 -551h69 q86 0 133.5 1t91.5 8t63 14.5t38.5 28.5t28.5 42.5t22 63.5q0 4 24 0q12 -2 11 -6q-5 -15 -19 -79.5t-20 -101.5q-22 -154 -24 -192q0 -6 -17.5 -5.5t-17.5 5.5q0 32 -1 50t-6 39t-13 31t-25 21.5t-39 16.5t-57.5 9.5t-78 5.5t-102.5 1h-69l-56 -315q-9 -52 -13.5 -82 t-6 -62.5t1 -49t13 -33.5t24.5 -23t40.5 -12.5t56 -7.5t75.5 -1h30q71 0 119.5 14t84.5 49t60.5 81.5t51.5 124.5q2 8 28 1q9 -3 9 -6q-41 -217 -54 -299q-4 -24 -12 -27.5t-43 -0.5q-73 8 -379 8h-20q-17 0 -139 -2t-224 -2q-150 0 -277 39.5t-219.5 112t-145 182 t-52.5 243.5zM319 573q0 -127 42 -229.5t113 -165.5t158.5 -96t184.5 -33q47 0 71 1l23 1l170 942q12 67 13 112.5t-8 74.5t-33.5 44.5t-56 21t-81.5 5.5q-125 0 -227.5 -42t-169.5 -110t-113 -157.5t-66 -182t-20 -186.5z" />
<glyph unicode="&#x153;" horiz-adv-x="1325" d="M68 319q0 72 22 152.5t64.5 155.5t97 136t125.5 97.5t145 36.5q91 0 159.5 -57.5t100.5 -151.5q75 94 170.5 149.5t190.5 55.5q73 0 115 -42.5t42 -98.5q0 -125 -116 -215.5t-398 -180.5v-12q-1 -131 42 -198t124 -70q47 -2 115 33.5t137 103.5l29 -27 q-88 -105 -173 -162t-192 -57q-76 0 -130.5 46.5t-80.5 131.5q-137 -178 -307 -178q-124 0 -203 103t-79 249zM211 399q0 -86 24.5 -162.5t75 -127t117.5 -50.5q101 0 167.5 121t66.5 285q0 86 -25 162.5t-75.5 127t-117.5 50.5q-101 0 -167 -121t-66 -285zM791 410 q207 68 290.5 136.5t83.5 155.5q0 107 -100 107q-84 0 -169 -119.5t-105 -279.5z" />
<glyph unicode="&#x178;" horiz-adv-x="1163" d="M149 1282q0 8 2 16.5t5 8.5q82 -4 215 -4q69 0 225 4q3 0 3 -8.5t-2 -16.5t-5 -8q-56 -5 -80 -14.5t-27 -32.5q-5 -26 23 -94l190 -471l330 460q45 61 51 97q4 24 -17 37t-71 18q-3 0 -3 8t2 16.5t5 8.5q82 -4 189 -4q3 0 159 4q3 0 3 -8.5t-2 -16.5t-5 -8 q-41 -3 -77 -18.5t-61 -32t-57.5 -53.5t-50 -60t-55.5 -76l-315 -434l-64 -358q-10 -53 -14 -83t-0.5 -56.5t11 -37.5t30.5 -20t48 -11.5t73 -4.5q3 0 3.5 -8t-1 -16.5t-4.5 -8.5q-82 4 -256 4q-121 0 -277 -4q-3 0 -3.5 8t1 16.5t4.5 8.5q51 2 75.5 4t51.5 11t37.5 19.5 t24 37t19.5 56.5t16 85l55 321l-213 527q-45 111 -77 143t-111 41q-3 0 -3 8zM514 1559q0 42 31 74t73 32q41 0 72 -32t31 -74q0 -41 -31 -73t-72 -32q-42 0 -73 31.5t-31 73.5zM913 1561q0 42 31 74t72 32q42 0 73 -32t31 -74t-31 -74.5t-73 -32.5q-41 0 -72 32.5t-31 74.5 z" />
<glyph unicode="&#x2c6;" horiz-adv-x="694" d="M158 989l280 348h133l158 -348h-35l-202 244l-295 -244h-39z" />
<glyph unicode="&#x2dc;" horiz-adv-x="694" d="M127 1026q22 92 76.5 155.5t132.5 63.5q42 0 85.5 -19t74 -42.5t66.5 -42.5t65 -19q86 0 131 123h47q-22 -92 -76.5 -155.5t-132.5 -63.5q-42 0 -85.5 19t-74 42.5t-66.5 42.5t-65 19q-86 0 -131 -123h-47z" />
<glyph unicode="&#x2000;" horiz-adv-x="884" />
<glyph unicode="&#x2001;" horiz-adv-x="1769" />
<glyph unicode="&#x2002;" horiz-adv-x="884" />
<glyph unicode="&#x2003;" horiz-adv-x="1769" />
<glyph unicode="&#x2004;" horiz-adv-x="589" />
<glyph unicode="&#x2005;" horiz-adv-x="442" />
<glyph unicode="&#x2006;" horiz-adv-x="294" />
<glyph unicode="&#x2007;" horiz-adv-x="294" />
<glyph unicode="&#x2008;" horiz-adv-x="221" />
<glyph unicode="&#x2009;" horiz-adv-x="353" />
<glyph unicode="&#x200a;" horiz-adv-x="98" />
<glyph unicode="&#x2010;" horiz-adv-x="595" d="M67 536.5q0 26.5 3 26.5h493q3 0 3 -26.5t-3 -26.5h-493q-3 0 -3 26.5z" />
<glyph unicode="&#x2011;" horiz-adv-x="595" d="M67 536.5q0 26.5 3 26.5h493q3 0 3 -26.5t-3 -26.5h-493q-3 0 -3 26.5z" />
<glyph unicode="&#x2012;" horiz-adv-x="595" d="M67 536.5q0 26.5 3 26.5h493q3 0 3 -26.5t-3 -26.5h-493q-3 0 -3 26.5z" />
<glyph unicode="&#x2013;" horiz-adv-x="1024" d="M67 536.5q0 26.5 3 26.5h921q3 0 3 -26.5t-3 -26.5h-921q-3 0 -3 26.5z" />
<glyph unicode="&#x2014;" horiz-adv-x="2048" d="M67 536.5q0 26.5 3 26.5h1945q3 0 3 -26.5t-3 -26.5h-1945q-3 0 -3 26.5z" />
<glyph unicode="&#x2018;" horiz-adv-x="370" d="M156 995q0 102 85 201.5t208 157.5q2 1 6.5 -6t7.5 -15t0 -10q-187 -112 -187 -231q0 -65 66 -82q68 -17 68 -78q0 -48 -29 -75.5t-76 -27.5q-71 0 -110 51t-39 115z" />
<glyph unicode="&#x2019;" horiz-adv-x="370" d="M141 830q-3 8 0 10q187 112 187 231q0 65 -66 82q-67 17 -67 78q0 48 28.5 75t75.5 27q71 0 110.5 -51t39.5 -115q0 -102 -85 -201t-208 -157q-2 -1 -7 6t-8 15z" />
<glyph unicode="&#x201a;" horiz-adv-x="370" d="M-59 -307q186 111 186 231q0 65 -66 82q-67 17 -67 78q0 48 28.5 75t75.5 27q71 0 110.5 -51t39.5 -115q0 -102 -85 -201t-208 -157q-2 -1 -6.5 6t-7.5 15t0 10z" />
<glyph unicode="&#x201c;" horiz-adv-x="749" d="M156 995q0 102 85 201.5t208 157.5q2 1 6.5 -6t7.5 -15t0 -10q-187 -112 -187 -231q0 -65 66 -82q68 -17 68 -78q0 -48 -29 -75.5t-76 -27.5q-71 0 -110 51t-39 115zM535 995q0 102 84.5 201.5t207.5 157.5q2 1 7 -6t8 -15t0 -10q-187 -112 -187 -231q0 -65 66 -82 q67 -17 67 -78q0 -49 -28.5 -76t-75.5 -27q-71 0 -110 51t-39 115z" />
<glyph unicode="&#x201d;" horiz-adv-x="749" d="M141 830q-3 8 0 10q187 112 187 231q0 65 -66 82q-67 17 -67 78q0 48 28.5 75t75.5 27q71 0 110.5 -51t39.5 -115q0 -102 -85 -201t-208 -157q-2 -1 -7 6t-8 15zM520 830q-3 8 0 10q187 112 187 231q0 65 -66 82q-68 17 -68 78q0 48 29 75t76 27q71 0 110 -51t39 -115 q0 -102 -84.5 -201t-207.5 -157q-2 -1 -7 6t-8 15z" />
<glyph unicode="&#x201e;" horiz-adv-x="749" d="M-59 -307q186 111 186 231q0 65 -66 82q-67 17 -67 78q0 48 28.5 75t75.5 27q71 0 110.5 -51t39.5 -115q0 -102 -85 -201t-208 -157q-2 -1 -6.5 6t-7.5 15t0 10zM319 -307q187 112 187 231q0 65 -66 82q-67 17 -67 78q0 48 28.5 75t75.5 27q71 0 110.5 -51t39.5 -115 q0 -102 -85 -201t-208 -157q-2 -1 -7 6t-8 15t0 10z" />
<glyph unicode="&#x2022;" horiz-adv-x="739" d="M133 412q0 105 68 173t170 68q101 0 168 -67t67 -172t-68.5 -175.5t-170.5 -70.5q-100 0 -167 69.5t-67 174.5z" />
<glyph unicode="&#x2026;" horiz-adv-x="1191" d="M23 72q0 47 29.5 80.5t82.5 33.5q52 0 82.5 -33.5t30.5 -80.5q0 -43 -31 -76t-82 -33q-52 0 -82 33t-30 76zM420 72q0 47 29.5 80.5t82.5 33.5q52 0 82.5 -33.5t30.5 -80.5q0 -43 -31 -76t-82 -33q-52 0 -82 33t-30 76zM817 72q0 47 30 80.5t83 33.5q52 0 82 -33.5 t30 -80.5q0 -43 -30.5 -76t-81.5 -33q-52 0 -82.5 33t-30.5 76z" />
<glyph unicode="&#x202f;" horiz-adv-x="353" />
<glyph unicode="&#x2039;" horiz-adv-x="540" d="M78 413.5q2 10.5 12 16.5q127 83 438 309q1 1 7 -6t10 -15.5t0 -12.5l-297 -297l192 -297q2 -3 -4.5 -9t-14 -10.5t-7.5 -3.5q-72 76 -170 167.5t-160 141.5q-8 6 -6 16.5z" />
<glyph unicode="&#x203a;" horiz-adv-x="540" d="M6 123l299 297l-194 297q-3 4 11.5 14t16.5 8q201 -201 328 -309q8 -6 6 -16.5t-12 -16.5q-80 -52 -209.5 -143t-226.5 -166q-2 -1 -8 6.5t-10 16.5t-1 12z" />
<glyph unicode="&#x205f;" horiz-adv-x="442" />
<glyph unicode="&#x20ac;" horiz-adv-x="1282" d="M75 507.5q0 22.5 3 22.5h174q0 108 20 195h-153q-3 0 -3 22.5t3 22.5h162q64 245 235 394t399 149q189 0 369 -84l-45 -271q0 -2 -12 -2h-13q-69 312 -309 312q-88 0 -162.5 -43t-127.5 -116.5t-89.5 -157.5t-60.5 -181h479q3 0 3 -22.5t-3 -22.5h-489q-21 -103 -27 -195 h475q3 0 3 -22.5t-3 -22.5h-475q0 -68 11.5 -130.5t38 -122t65.5 -103t99.5 -70t135.5 -26.5q106 0 197.5 53t146.5 133q5 8 15 8q6 0 12.5 -6t5.5 -10q-32 -74 -102 -130t-152.5 -83t-163.5 -27q-109 0 -199 40.5t-150 110.5t-94.5 163t-39.5 200h-176q-3 0 -3 22.5z" />
<glyph unicode="&#x2122;" horiz-adv-x="1419" d="M188 1126q1 4 27 185q60 -8 231 -8q169 0 240 8q4 -103 16 -185q0 -2 -8 -3t-16.5 -0.5t-9.5 3.5q-24 85 -56 110.5t-118 25.5v-416q0 -50 11 -62t60 -18q5 0 5 -15.5t-5 -15.5h-235q-4 0 -4 15.5t4 15.5q45 5 57 17.5t12 62.5v416q-84 0 -117 -27.5t-59 -108.5 q-1 -2 -9.5 -2.5t-17 0.5t-8.5 2zM754 751.5q0 16.5 6 16.5q51 4 62 26t16 121l8 279q1 28 -1.5 43t-14.5 23t-21 10t-37 6q-4 0 -4 16.5t4 16.5q61 -4 162 -4q22 0 29 -17q20 -54 73 -219t66 -203q8 22 57 161t74 218q15 53 26 61q5 3 11 3q4 0 66.5 -2t97.5 -2 q3 0 4.5 -7.5t1 -15.5t-3.5 -8q-39 -6 -51 -21t-11 -59l10 -322q1 -63 12.5 -79.5t57.5 -24.5q4 -2 4 -17.5t-4 -15.5h-229q-5 0 -5 16.5t5 16.5q41 5 54.5 26t10.5 78l-14 340q-118 -319 -174 -477q-3 -7 -22 -6t-21 6q-19 53 -77.5 224.5t-88.5 252.5l-12 -346 q-2 -62 7.5 -78t55.5 -20q3 0 3 -16.5t-3 -16.5h-184q-6 0 -6 16.5z" />
<glyph unicode="&#x25fc;" horiz-adv-x="901" d="M0 0v901h901v-901h-901z" />
<glyph unicode="&#xfb01;" horiz-adv-x="1028" d="M-313 -356q-3 78 88 133q35 -70 75.5 -103.5t96.5 -33.5q52 0 78 26q51 51 90.5 181.5t83.5 443.5q47 332 84 504h-193l4 41l203 28q87 392 244 549q111 111 243 111q70 0 118 -40t48 -81q0 -76 -94 -133q-78 139 -166 139q-67 0 -108 -41q-40 -40 -75 -160.5t-71 -349.5 h178q14 0 88 19.5t107 19.5q44 0 67 -44.5t23 -117.5q0 -60 -66.5 -291.5t-66.5 -265.5q0 -31 19 -53.5t46 -22.5q9 0 20.5 5.5t25.5 16t24 19t24.5 21t18.5 16.5l23 -20q-61 -77 -131 -135t-109 -58q-41 0 -72.5 38.5t-31.5 88.5q0 60 67.5 309t67.5 283q0 65 -32 87 t-105 22h-195l-8 -62q-26 -177 -46 -294t-50.5 -254.5t-62.5 -230t-78 -179t-101 -142.5q-100 -104 -244 -104q-63 0 -105 37t-44 78z" />
<glyph unicode="&#xfb02;" horiz-adv-x="1064" d="M-313 -356q-3 78 88 133q35 -70 75.5 -103.5t96.5 -33.5q52 0 78 26q51 51 90.5 181.5t83.5 443.5q47 332 84 504h-193l4 41l203 28q40 180 110.5 324t151.5 225q55 55 117 83t119 28q97 0 168 -58l127 27l-285 -1294q-10 -48 7 -72.5t48 -24.5q9 0 20.5 5.5t25.5 16 t24 19t24.5 21t18.5 16.5l22 -20q-61 -77 -130.5 -135t-108.5 -58q-48 0 -83 49t-18 129l256 1196q-84 76 -192 76q-70 0 -117 -47q-95 -95 -166 -512h271l-17 -63h-264l-8 -62q-26 -177 -46 -294t-50.5 -254.5t-62.5 -230t-78 -179t-101 -142.5q-100 -104 -244 -104 q-63 0 -105 37t-44 78z" />
<glyph unicode="&#xfb03;" horiz-adv-x="1542" d="M-313 -356q-3 78 88 133q35 -70 75.5 -103.5t96.5 -33.5q52 0 78 26q51 51 90.5 181.5t83.5 443.5q47 332 84 504h-193l4 41l203 28q41 183 91 290t130 187q111 111 234 111q62 0 108.5 -32.5t46.5 -71.5q0 -32 -27 -65t-73 -58q-70 112 -139 112q-68 0 -109 -41 q-34 -34 -61 -125.5t-62 -312.5l375 6q87 392 244 549q111 111 243 111q70 0 118 -40t48 -81q0 -76 -94 -133q-78 139 -166 139q-67 0 -108 -41q-40 -40 -75 -160.5t-71 -349.5h178q14 0 88 19.5t107 19.5q44 0 67 -44.5t23 -117.5q0 -60 -66.5 -291.5t-66.5 -265.5 q0 -31 19 -53.5t47 -22.5q11 0 28 10t28.5 19.5t32 27.5t23.5 21l23 -20q-61 -77 -131 -135t-109 -58q-41 0 -72.5 38.5t-31.5 88.5q0 60 67.5 309t67.5 283q0 65 -32 87t-105 22h-195l-8 -62q-26 -177 -46 -294t-50.5 -254.5t-62.5 -230t-78 -179t-101 -142.5 q-100 -104 -234 -104q-69 0 -108 36.5t-39 78.5q0 80 88 133q36 -73 71 -105t89 -32q52 0 78 26q51 51 90.5 181.5t83.5 443.5q47 332 84 504h-371l-8 -62q-26 -177 -46 -294t-50.5 -254.5t-62.5 -230t-78 -179t-101 -142.5q-100 -104 -244 -104q-63 0 -105 37t-44 78z" />
<glyph unicode="&#xfb04;" horiz-adv-x="1579" d="M-313 -356q-3 78 88 133q35 -70 75.5 -103.5t96.5 -33.5q52 0 78 26q51 51 90.5 181.5t83.5 443.5q47 332 84 504h-193l4 41l203 28q41 183 91 290t130 187q111 111 234 111q62 0 108.5 -32.5t46.5 -71.5q0 -32 -27 -65t-73 -58q-70 112 -139 112q-68 0 -109 -41 q-34 -34 -61 -125.5t-62 -312.5l375 6q40 180 110.5 324t151.5 225q55 55 117 83t119 28q97 0 168 -58l127 27l-285 -1294q-10 -48 7 -72.5t48 -24.5q9 0 20.5 5.5t25.5 16t24 19t24.5 21t18.5 16.5l22 -20q-61 -77 -130.5 -135t-108.5 -58q-48 0 -83 49t-18 129l256 1196 q-84 76 -192 76q-70 0 -117 -47q-95 -95 -166 -512h271l-17 -63h-264l-8 -62q-26 -177 -46 -294t-50.5 -254.5t-62.5 -230t-78 -179t-101 -142.5q-100 -104 -244 -104q-63 0 -105 37t-44 78q-3 78 88 133q35 -70 75.5 -103.5t96.5 -33.5q52 0 78 26q51 51 90.5 181.5 t83.5 443.5q47 332 84 504h-371l-8 -62q-26 -177 -46 -294t-50.5 -254.5t-62.5 -230t-78 -179t-101 -142.5q-100 -104 -244 -104q-63 0 -105 37t-44 78z" />
</font>
</defs>
</svg>
