<?xml version="1.0" encoding="utf-8"?>
<!-- Generator: Adobe Illustrator 16.0.0, SVG Export Plug-In . SVG Version: 6.00 Build 0)  -->
<!DOCTYPE svg PUBLIC "-//W3C//DTD SVG 1.1//EN" "http://www.w3.org/Graphics/SVG/1.1/DTD/svg11.dtd">
<svg version="1.1" id="Layer_1" xmlns="http://www.w3.org/2000/svg" xmlns:xlink="http://www.w3.org/1999/xlink" x="0px" y="0px"
	 width="259.225px" height="71.866px" viewBox="0 0 259.225 71.866" enable-background="new 0 0 259.225 71.866"
	 xml:space="preserve">
<g>
	<path fill="#000000" d="M31.491,71.866h1.283l12.143-33.762h0.197l11.155,33.762h1.284L80.355,8.193
		c1.58-4.442,3.455-6.614,8.588-6.614h0.888V0H72.261v1.58h2.863c3.356,0,4.344,1.283,4.344,2.764c0,0.79-0.197,1.579-1.185,4.442
		L61.402,56.269h-0.197L50.247,23.1l5.824-16.091c1.481-4.541,3.85-5.429,7.799-5.429h2.665V0H26.357v1.58h5.923l11.747,33.958
		l-7.404,20.73h-0.197L17.67,1.58h5.232V0H0v1.58h7.009L31.491,71.866L31.491,71.866z M42.547,1.58h8.194
		c3.554,0,3.949,1.283,3.949,2.468c0,0.888-0.198,2.172-0.889,4.047L49.26,20.829h-0.197L42.547,1.58L42.547,1.58z M107.995,38.303
		c0-7.602-8.885-11.452-16.387-11.452c-9.872,0-15.203,5.528-15.203,10.563c0,3.355,1.58,5.527,4.344,5.527
		c2.567,0,4.541-1.776,4.541-4.146c0-4.442-3.258-3.356-3.258-5.726c0-3.554,6.713-4.64,9.576-4.64c3.751,0,8.095,1.086,8.095,5.726
		v12.143h-1.876c-10.168,0-24.877,2.764-24.877,13.82c0,6.712,4.64,10.562,12.34,10.562c6.515,0,10.958-1.678,14.314-6.12h0.197
		c0.691,3.455,4.048,6.12,8.687,6.12c4.245,0,6.813-2.073,8.688-5.33l-1.085-0.79c-1.481,2.073-2.863,3.949-5.134,3.949
		c-2.665,0-2.961-2.468-2.961-4.344V38.303L107.995,38.303z M99.703,47.878V60.81c0,1.975-3.258,7.502-10.662,7.502
		c-6.318,0-7.206-4.146-7.206-9.674c0-10.563,8.983-10.76,16.189-10.76H99.703L99.703,47.878z M118.854,61.896
		c0,6.516,4.541,8.785,11.451,8.785c7.305,0,10.168-5.133,10.859-7.502l-1.48-0.296c-0.592,1.678-2.764,6.219-7.701,6.219
		c-3.159,0-4.836-1.282-4.836-5.331V30.602h13.624v-1.58h-13.624v-13.82h-1.185c-1.678,9.674-5.429,14.018-15.696,13.82v1.58h8.589
		V61.896L118.854,61.896z M142.842,61.896c0,6.516,4.541,8.785,11.451,8.785c7.305,0,10.168-5.133,10.857-7.502l-1.48-0.296
		c-0.592,1.678-2.764,6.219-7.699,6.219c-3.16,0-4.838-1.282-4.838-5.331V30.602h13.623v-1.58h-13.623v-13.82h-1.184
		c-1.678,9.674-5.43,14.018-15.695,13.82v1.58h8.588V61.896L142.842,61.896z M170.48,44.916h25.766c0.592,0,0.889-0.296,0.889-0.889
		c0-4.146-6.021-17.176-17.67-17.176c-10.76,0-18.461,12.339-18.461,21.915c0,13.031,8.096,21.915,19.645,21.915
		c9.082,0,15.795-6.12,17.375-15.202h-1.58c-1.381,8.096-7.502,13.623-15.795,13.623c-9.279,0-10.266-7.896-10.168-14.906V44.916
		L170.48,44.916z M187.658,42.646c0,0.396-0.197,0.691-0.691,0.691H170.48v-2.765c0-6.317,2.074-12.142,8.984-12.142
		c6.516,0,8.193,5.824,8.193,12.142V42.646L187.658,42.646z M201.773,67.917h-8.293v1.58h25.568v-1.58h-8.984V47.68
		c0-12.833,7.307-19.249,11.354-19.249c0.492,0,0.986,0,1.381,0.296c-1.084,0.592-2.17,2.073-2.17,4.245
		c0,2.666,1.086,4.343,4.342,4.343c2.963,0,4.541-2.073,4.541-4.639c0-3.455-2.863-5.824-6.514-5.824
		c-8.096,0-11.551,7.206-12.736,11.649h-0.197V26.851c-1.973,1.974-5.133,2.171-8.291,2.171h-8.293v1.58h8.293V67.917
		L201.773,67.917z M230.695,70.089h1.482c0.197-2.073-0.1-3.652,1.184-3.652c1.975,0,4.344,4.244,12.143,4.244
		c7.602,0,13.721-6.021,13.721-15.202c0-6.812-3.256-11.154-11.254-11.648l-3.355-0.197c-6.516-0.395-10.365-2.172-10.365-7.305
		c0-5.134,4.047-7.897,9.082-7.897c7.799,0,10.76,5.133,11.451,10.76h1.283l-0.395-11.747h-1.383v0.79
		c0,1.382-0.098,2.073-0.691,2.073c-0.986,0-4.639-3.455-9.969-3.455c-7.701,0-12.34,5.626-12.34,12.735
		c0,10.266,6.219,11.154,12.635,11.846c5.232,0.592,11.156,0.691,11.156,8.489c0,5.627-4.146,9.181-9.576,9.181
		c-10.365,0-12.932-8.885-13.723-13.919H230.5L230.695,70.089L230.695,70.089z"/>
</g>
</svg>
