<?xml version="1.0" encoding="utf-8"?>
<!-- Generator: Adobe Illustrator 16.0.0, SVG Export Plug-In . SVG Version: 6.00 Build 0)  -->
<!DOCTYPE svg PUBLIC "-//W3C//DTD SVG 1.1//EN" "http://www.w3.org/Graphics/SVG/1.1/DTD/svg11.dtd">
<svg version="1.1" id="Layer_1" xmlns="http://www.w3.org/2000/svg" xmlns:xlink="http://www.w3.org/1999/xlink" x="0px" y="0px"
	 width="89.832px" height="71.866px" viewBox="0 0 89.832 71.866" enable-background="new 0 0 89.832 71.866" xml:space="preserve">
<g>
	<path fill="#cdcdcd" d="M31.49,71.866h1.283l12.143-33.762h0.197l11.155,33.762h1.284L80.355,8.193
		c1.58-4.442,3.455-6.613,8.588-6.613h0.889V0H72.261v1.58h2.862c3.357,0,4.344,1.283,4.344,2.764c0,0.789-0.197,1.579-1.184,4.441
		L61.402,56.269h-0.197L50.247,23.1l5.824-16.091c1.481-4.541,3.851-5.429,7.799-5.429h2.665V0H26.357v1.58h5.924l11.746,33.958
		l-7.403,20.73h-0.197L17.67,1.58h5.232V0H0v1.58h7.009L31.49,71.866L31.49,71.866z M42.547,1.58h8.193
		c3.555,0,3.949,1.283,3.949,2.467c0,0.889-0.197,2.172-0.889,4.048L49.26,20.829h-0.197L42.547,1.58L42.547,1.58z"/>
</g>
</svg>
