<?xml version="1.0" encoding="utf-8"?>
<!-- Generator: Adobe Illustrator 16.0.0, SVG Export Plug-In . SVG Version: 6.00 Build 0)  -->
<!DOCTYPE svg PUBLIC "-//W3C//DTD SVG 1.1//EN" "http://www.w3.org/Graphics/SVG/1.1/DTD/svg11.dtd">
<svg version="1.1" id="Layer_1" xmlns="http://www.w3.org/2000/svg" xmlns:xlink="http://www.w3.org/1999/xlink" x="0px" y="0px"
	 width="508.66px" height="141.109px" viewBox="0 0 508.66 141.109" enable-background="new 0 0 508.66 141.109"
	 xml:space="preserve">
<path fill-rule="evenodd" clip-rule="evenodd" fill="#676767" d="M373.547,98.762c2.544-1.304,5.054-2.708,6.54-5.267
	c1.9-3.276,4.086-6.38,6.146-9.563c0.14-0.216,0.238-0.456,0.529-1.021c-1.647,0.867-2.971,1.603-4.329,2.274
	c-2.575,1.265-5.663,2.057-8.326,0.561c-1.313-0.735-1.526-1.696-1.973-3.025c-0.159,0.078-0.459,0.208-0.729,0.378
	c-3.237,2.074-6.35,4.075-10.327,4.252c-1.007,0.046-2.085-0.013-3.075-0.215c-1.488-0.302-4.02-1.22-5.139-2.272
	c-0.717,0.109,0,0-1.686,0.832c-1.182,0.58-2.21,1.415-3.464,1.82c-2.096,0.67-4.543,1.199-6.636,0.254
	c-1.699-0.769-3.104-2.333-3.516-4.169c-0.217-0.961-0.301-2.29-0.045-3.251c0.244-0.926,0.393-1.874,0.576-2.814
	c0.011-0.061,0.346-0.639,0.564-1.397c-0.805,0.847-2.271,2.782-3.151,3.437c-3.313,2.449-7.755,9.234-12.603,6.05
	c-0.99-0.646-2.213-2.12-2.492-3.304c-0.673-2.854,0.729-5.5,1.957-7.982c1.267-2.557,2.422-5.169,4.088-7.496
	c0.396-0.558,4.645-5.982,2.603-5.926c-1.969,2.989-4.188,5.813-6.66,8.405c-2.497,2.617-5.449,4.75-7.923,7.377
	c-2.059,2.184-3.949,4.655-6.409,6.415c-1.927,1.38-4.12,1.631-6.245,0.748c-0.996-0.415-3.616-1.566-2.481-4.562
	c-1.86,1.164-3.863,2.695-6.095,3.743c-2.387,1.12-5.637,1.296-6.835-0.908c-1.132,0.761-2.294,1.461-3.357,2.285
	c-2.422,1.879-6.275,1.919-8.828,1.067c-2.725-0.91-2.579-4.164-1.936-6.565c0.857-3.188,2.701-6.106,4.547-8.81
	c1.058-1.547,2.239-3.024,3.279-4.586c1.122-1.691,2.551-3.634,3.06-4.816c0.511-1.177,1.332-2.455-0.004-2.812
	c-1.367-0.368-2.77,1.643-3.631,2.487c-3.428,3.337-6.392,7.166-9.329,10.944c-3.01,3.869-3.912,7.506-6.946,11.312
	c-0.916,1.146-2.867,3.117-4.164,1.852c-1.844-1.803,0.979-4.825,2.116-6.192c0.886-1.07,2.195-2.16,3.716-3.793
	c2.008-2.155,2.025-3.355,3.298-5.982c1.099-2.27,1.771-5.885,1.915-8.434c0.082-1.417,0.965-4.412-1.345-2.911
	c-1.226,0.796-1.642,1.318-2.679,2.34c-1.151,1.136-2.27,2.292-3.281,3.555c-0.677,0.845-1.371,1.691-2.031,2.544
	c-2.988,3.885-5.604,7.604-8.571,11.93c-2.446,3.565-3.796,6.656-6.636,9.923c-0.639,0.73-3.833,2.718-4.897,1.841
	c-1.017-0.826-1.066-1.909-0.417-3.078c2.034-3.672,6.034-8.3,8.679-11.586c3.02-3.753,5.614-7.861,8.311-11.865
	c1.213-1.808,2.417-3.669,3.266-5.66c0.542-1.26,0.597-2.813,0.559-4.23c-0.05-1.732-1.77-2.013-2.89-2.074
	c-5.84-0.314-14.578,2.967-18.897,7.121c-0.063,0.061-0.095,0.155-0.341,0.57c1.134-0.208,2.952-0.811,3.958,0.059
	c1.614,1.395,0.172,3.976-0.729,5.254c-1.211,1.717-2.897,3.068-5.116,2.901c-0.83-0.059-1.65-0.351-2.366-0.776
	c-0.115-0.068-1.756-1.326-1.577-1.463c-2.028,1.574-1.67,1.521-3.791,2.948c-2.069,1.391-4.105,2.836-6.163,4.24
	c-3.724,2.549-7.513,4.82-11.493,6.938c-4.99,2.65-9.868,5.784-15.21,7.693c-1.481,0.53-3.004,0.938-4.561,1.177
	c-3.315,0.497-7.378,0.289-9.573-2.627c-2.604-3.453-2.272-8.243-0.717-12.08c0.474-1.177,0.738-1.755,1.387-2.83
	c-2.043,0.735-3.705,0.127-4.532-0.669c-0.472,0.431-1.366,1.638-1.521,1.83c-2.852,3.508-5.245,6.624-8.536,10.105
	c-2.459,2.606-4.495,5.333-7.667,7.153c-2.054,1.179-4.755-0.403-4.258-3.043c0.472-2.511,0.988-5.013,1.504-7.516
	c0.665-3.205,1.922-9.296,2.591-12.501c0.061-0.305,0.538-1.977,0.561-2.229c-1.823,2.095-3.064,4.676-7.119,5.543
	c-0.34,0.804-0.179,1.073-1.076,2.566c-2.924,4.876-4.755,8.087-9.115,11.834c-4.037,3.467-11.193,4.633-16.126,2.379
	c-1.183-0.543-2.294-1.359-2.941-2.5c-0.178-0.313-1.153-2.123-0.832-2.42c-2.064,1.907-3.945,3.414-6.578,4.555
	c-3.468,1.506-10.592,4.098-11.992-1.296c-1.144-4.415,1.09-8.994,2.774-12.945c2.508-5.875,5.966-12.78,9.804-19.116
	c2.4-3.956,1.585-1.94,4.274-6.05c0.21-0.322,0.318-0.515,0.606-0.616c-7.027,3.027-14.16,3.773-21.731,3.709
	c-2.589-0.025-5.179-0.051-7.763,0.175c-4.017,0.352-7.969,1.303-11.733,2.744c-3.167,1.214-6.054,2.746-8.981,4.438
	c-0.147,0.088,0.001,0.925-0.053,2.046c-0.046,0.895-0.42,1.958-0.927,2.7c-1.193,1.757-2.747,3.461-4.955,3.312
	c-0.882-0.057-1.892-0.439-2.268-1.298c-0.425-0.964-0.369-2.369,0.114-3.287c0.491-0.936,1.354-1.663,2.216-2.251
	c0.326-0.223,3.824-2.328,3.913-2.199c-0.287-0.423-0.584-3.58-5.582-4.252c-4.058-0.547-9.512,1.024-13.23,2.455
	c-4.118,1.58-7.981,3.882-11.786,6.091c-7.289,4.223-14.098,10.115-20.142,16.006c-3.943,3.844-7.585,7.957-11.337,11.979
	c-1.85,1.98-3.536,4.182-5.508,6.04c-0.478,0.454-1.386,1.479-2.146,1.126c-3.119-1.438,2.372-7.176,3.33-8.284
	c2.201-2.548,4.671-4.846,7.111-7.158c3.985-3.775,8.078-7.571,12.443-10.911c4.361-3.33,9.313-7.415,14.058-10.146
	c4.703-2.706,9.44-5.082,14.563-6.925c4.606-1.658,11.168-3.18,16.041-1.336c2.532,0.964,3.551,2.726,4,4.435
	c1.022-0.657,2.899-1.798,3.188-1.95c1.26-0.669,2.548-1.283,3.838-1.889c2.941-1.387,6.055-2.473,9.236-3.149
	c2.769-0.591,5.58-1.037,8.411-1.162c5.127-0.223,10.234-0.061,15.332-0.786c1.486-0.215,2.964-0.492,4.425-0.836
	c5.581-1.334,6.465-2.346,8.261-4.205c2.718-3.852,5.313-7.802,8.004-11.674c2.894-4.169,5.896-8.244,9.313-12.002
	c2.494-2.741,5.083-5.383,7.803-7.901c3.043-2.817,6.089-5.649,9.794-7.6c1.912-1.006,5.414-2.071,6.334,0.751
	c0.72,2.206-0.865,4.566-1.773,6.466c-1.799,3.763-4.198,6.999-6.682,10.351c-3.849,5.193-8.379,9.747-13.274,13.957
	c-1.396,1.2-2.812,2.376-4.237,3.54c-2.48,2.031-6.267,5.005-9.529,6.552c-0.563,0.576-1.028,1.243-1.482,1.976
	c-2.49,3.986-1.054,1.937-3.436,5.987c-1.435,2.442-2.841,4.896-4.227,7.361c-3.341,5.941-6.146,11.387-8.781,17.662
	c-0.801,1.909-3.862,7.589-0.113,8.106c4.1,0.563,7.555-2.733,10.177-5.366c0.142-0.139,0.208-0.405,0.221-0.618
	c0.322-5.835,3.436-11.865,7.262-16.15c3.446-3.862,8.014-6.162,12.881-7.706c1.41-0.449,3.083-1.301,4.585-0.702
	c1.425,0.57,1.403,2.163,1.01,3.433c-1.676,5.421-8.851,4.012-12.57,6.956c-2.519,1.996-4.611,5.561-5.764,8.52
	c-1.198,3.084-2.597,9.626,1.028,11.757c1.769,1.039,4.118,0.542,5.893-0.203c4.025-1.694,7.056-5.478,9.522-8.946
	c3.169-4.471,5.912-9.159,4.458-14.834c-0.47-1.838,0.024-2.643,1.749-3.504c1.906-0.948,3.427,1.511,3.592,3.03
	c0.149,1.382-0.298,2.738-0.796,4.014c-0.091,0.228-0.985,2.86-1.19,2.843c1.713,0.145,3.287-2.08,4.267-3.195
	c1.476-1.679,2.17-4.131,3.35-6.058c0.496-0.804,2.013-0.989,2.934-1.413c0.942-0.434,1.604,0.125,1.664,1.111
	c0.128,2.1-0.585,4.273-0.88,6.339c-0.689,4.82-1.938,12.531-2.591,17.357c-0.063,0.467-0.221,1.103-0.294,2.292
	c3.645-3.634,7.326-7.979,10.539-11.994c0.913-1.144,1.958-2.17,2.655-3.256c-0.438-0.74-1.032-1.607-1.18-2.27
	c-0.936-4.189,0.336-7.354,3.408-9.808c0.727-0.581,1.685-1.105,2.59-1.341c1.422-0.365,3.08-0.388,3.729,1.169
	c0.801,1.915,0.488,3.479-0.473,5.53c-0.221,0.472-2.655,4.105-4.904,6.778c1.027,1.148,3.271,0.786,4.438-0.002
	c0.593-0.719,0.799-1.172,1.154-1.697c2.594-3.867,5.71-7.635,9.467-10.422c2.028-1.506,4.529-2.961,7.134-2.908
	c2.282,0.045,3.936,1.554,4.08,3.841c0.154,2.465-0.719,4.534-2.517,6.22c-0.625,0.583-1.307,1.131-2.007,1.623
	c-2.368,1.677-5.073,2.858-7.795,3.829c-0.785,0.279-1.576,0.543-2.37,0.793c-0.396,0.127-0.789,0.249-1.184,0.373
	c-0.235,0.074-0.684,0.137-0.81,0.371c-1.876,3.499-2.505,6.189-2.833,10.14c-0.304,3.669,2.07,5.538,5.711,4.854
	c4.028-0.761,7.387-3.053,11.098-4.523c5.251-2.077,17.771-10.159,22.596-12.952c3.245-1.883,3.832-2.682,6.745-5.083
	c1.016-0.836,1.562-2.219,2.427-3.271c2.315-2.812,5.206-4.854,8.474-6.453c4.058-1.986,11.279-4.029,15.729-3.464
	c2.586,0.33,5.281,1.085,5.433,4.141c0.087,1.674,0.166,3.464-0.479,5.046c2.025-2.09,5.057-5.302,8.301-4.653
	c3.598,0.723,2.778,3.92,2.457,6.558c-0.094,0.753-0.155,0.958-0.393,2.028c0.252-0.228,0.458-0.497,0.683-0.814
	c1.54-2.147,2.932-3.39,4.978-5.099c1.565-1.311,4.39-2.333,6.41-1.494c2.212,0.913,2.735,3.411,2.142,5.525
	c-0.357,1.283-1.064,2.386-1.722,3.53c-2.052,3.58-4.882,6.653-6.867,10.279c-0.843,1.539-1.604,3.124-2.392,4.688
	c-0.907,1.806-2.474,5.15,0.799,5.435c2.459,0.218,5.066-2.176,6.998-3.657c0.271-0.205-0.1-0.712-0.153-1.144
	c-0.409-3.129,1.964-6.086,3.671-8.457c1.781-2.472,3.632-4.873,5.689-7.13c2.918-3.195,6.314-6.689,10.443-8.246
	c1.646-0.619,3.641-1.073,5.412-0.898c0.443,0.041,0.694,0.048,0.943,0.426c0.104,0.157,0.381,1.569,0.283,1.63
	c1.039-0.657,2.002-1.39,3.07-1.907c1.348-0.652,1.836-0.241,1.615,1.245c-0.605,4.141-2.862,7.471-5.229,10.77
	c-2.007,2.802-3.992,5.631-5.685,8.621c-0.761,1.344-3.668,5.251-1.143,6.988c0.13,0.079,0.259,0.16,0.392,0.238
	c0.379-0.183,0.827-0.294,1.131-0.563c2.859-2.516,5.369-5.386,7.855-8.259c2.424-2.787,5.001-5.429,7.448-8.193
	c1.167-1.315,2.257-2.708,3.204-4.191c0.746-1.169,2.118-2.5,2.387-3.87c0.216-1.098-0.355-2.153-0.42-3.233
	c-0.163-2.792,1.482-5.543,3.99-6.763c2.811-1.364,2.781,3.652,2.129,5.062c-2.58,5.563,5.704,3.043,4.96,7.042
	c-0.629,3.39-3.735,6.03-5.665,8.73c-2.021,2.83-3.784,5.822-5.412,8.896c-0.892,1.679-2.164,3.251-2.658,5.112
	c-0.688,2.599,1.875,1.909,3.335,1.065c0.937-0.533,1.768-1.238,2.519-2.006c2.906-2.979,6.118-5.64,9.042-8.602
	c0.969-0.981,1.774-2.176,2.436-3.396c3.849-7.085,6.657-14.836,10.874-21.708c4.875-7.942,9.941-15.653,15.656-23.022
	c1.611-2.079,3.247-4.146,4.887-6.202c0.868-1.088,5.98-7.889,7.827-5.873c1.088,1.189,0.665,3.916,0.36,5.315
	c-0.808,3.689-3.055,7.225-4.828,10.519c-1.95,3.616-4.026,7.163-6.234,10.625c-1.259,1.97-2.56,3.91-3.903,5.825
	c-1.821,2.586-4.105,5.226-6.149,7.635c-3.091,3.649-5.061,5.979-8.345,10.308c-2.826,3.723-4.942,9.945-6.56,14.23
	c-0.806,2.122-3,7.506,0.438,8.553c1.176,0.355,2.9-0.24,3.942-0.707c1.475-0.651,2.869-1.088,2.346-3.111
	c-0.604-2.361-0.198-4.93,0.455-7.237c0.749-2.642,2.215-5.062,3.655-7.379c1.418-2.284,3.037-4.463,4.988-6.321
	c1.068-1.02,2.248-1.922,3.556-2.62c2.257-1.207,6.383-3.05,8.839-1.537c2.091,1.288,1.766,4.229,0.905,6.18
	c-0.803,1.818-1.794,3.629-2.847,5.313c-2.52,4.039-6.312,7.617-9.813,10.813c-0.753,0.689-1.538,1.349-2.359,1.955
	c-0.323,0.243-1.97,1.095-1.962,1.521c0.039,1.785,0.781,2.381,1.684,2.599c1.139,0.281,2.493,0.14,3.65-0.183
	c3.667-1.024,6.795-3.051,9.552-5.649c0.347-0.332,0.652-0.766,0.813-1.217c1.927-5.292,4.854-9.928,8.623-14.124
	c1.778-1.983,3.553-3.868,5.79-5.311c0.62-0.398,1.173-0.801,1.769-0.038c0.496,0.641,1.12,1.197,0.442,2.158
	c-3.253,4.595-6.968,8.862-9.946,13.652c-0.766,1.232-1.432,2.53-1.923,3.9c-0.533,1.498-2.146,4.082-0.951,5.619
	c0.859,1.101,3.341,0.246,4.259-0.13c1.764-0.718,3.476-1.498,5.185-2.327c3.924-1.912,5.875-6.332,8.522-9.489
	c3.129-3.732,6.177-7.536,9.468-11.114c0.741-0.804,1.585-1.521,2.592-1.967c0.691-0.307,1.925-0.789,2.602-0.236
	c0.746,0.606,0.183,2.495-0.127,3.205c-1.473,3.39-4.209,5.817-6.666,8.437c-2.559,2.733-5.229,5.353-7.833,8.041
	c-0.345,0.357-0.615,0.791-0.876,1.217c-1.888,3.07-3.791,6.129-5.636,9.225c-0.753,1.266-1.37,2.612-2.218,4.242
	c2.238-1.166,4.118-2.262,6.09-3.144c3.896-1.755,7.828-3.434,11.778-5.062c3.735-1.539,7.498-3.022,11.278-4.455
	c4.868-1.841,9.862-3.386,14.622-5.468c3.646-1.597,10.524-3.428,11.709-5.524c-0.053,0.094-1.916-1.162-2.418-2.285
	c-0.438-0.989-0.435-2.271-0.232-3.334c0.416-2.151,2.396-4.192,4.533-4.679c0.799-0.185,2.71-0.162,3.316,0.535
	c1.034,1.194,1.139,3.22,0.825,4.691c-0.162,0.764-0.396,1.531-0.767,2.222c-0.124,0.224-1.049,1.727-1.211,1.663
	c4.607,1.74,11.964-1.166,16.947-2.559c4.95-1.387,9.923-2.949,14.942-4.054c5.612-1.238,11.79-1.517,17.452-0.441
	c3.524,0.669,7.036,1.268,10.001,3.451c2.909,2.143,4.505,5.404,3.933,9.025c-0.748,4.716-3.587,9.752-7.532,12.506
	c-2.642,1.844-5.841,3.578-8.93,4.501c-3.675,1.096-11.008,1.342-10.884-4.237c0.057-2.49,1.655-4.22,3.791-5.193
	c0.925-0.421,4.123-2.046,4.892-0.553c0.712,1.38-2.802,2.597-3.604,2.96c-1.328,0.605-3.215,2.117-1.982,3.709
	c1.224,1.59,4.255,1.359,5.99,1.126c1.133-0.149,2.291-0.423,3.365-0.816c4.56-1.638,8.267-4.232,10.079-8.956
	c1.941-5.062-0.006-10.295-5.031-12.507c-2.544-1.115-5.318-1.879-8.079-2.195c-3.595-0.414-7.272-0.172-10.858,0.23
	c-7.698,0.87-14.844,3.482-22.345,5.201c-2.345,0.537-4.731,0.948-7.139,1.047c-1.176,0.049-2.357,0.028-3.53-0.104
	c-0.212-0.021-2.999-0.632-3.012-0.606c-1.326,2.097-4.979,4.245-7.251,5.247c-5.529,2.449-11.163,4.64-16.763,6.933
	c-3.742,1.528-7.508,3.015-11.235,4.579c-3.686,1.557-7.34,3.172-11,4.785c-2.036,0.897-3.977,2.171-6.103,2.68
	c-3.011,0.726-5.377,2.566-8.042,3.878c-0.4,0.195-0.715,0.677-0.952,1.088c-1.79,3.131-3.64,6.228-5.3,9.428
	c-2.466,4.749-6.265,8.52-9.221,12.894c-2.838,4.202-6.302,7.836-9.866,11.371c-2.038,2.021-4.278,3.985-6.777,5.408
	c-2.401,1.364-5.295,2.894-8.076,3.165c-1.553,0.151-3.787,0.162-5.24-0.357c-1.344-0.482-2.541-1.238-3.119-2.736
	c-0.65-1.689-0.07-4.151,0.385-5.827c0.314-1.159,0.809-2.305,1.402-3.348c3.025-5.305,7.05-9.75,11.689-13.561
	c2.504-2.06,4.999-4.129,7.64-5.97c2.94-2.051,6.05-3.836,9.14-5.645c2.221-1.298,4.392-2.683,6.672-3.879
	C372.32,99.381,372.938,99.074,373.547,98.762z M374.677,102.251c-0.105-0.106-0.212-0.216-0.318-0.324
	c-1.264,0.659-2.64,1.082-3.915,1.727c-1.347,0.685-2.627,1.488-3.934,2.246c-1.73,0.999-3.473,1.991-5.193,3.008
	c-3.379,2.008-6.67,4.187-9.709,6.685c-2.982,2.449-5.724,5.312-8.185,8.284c-2.346,2.837-4.365,6.063-4.915,9.77
	c-0.134,0.918-0.047,2.093,0.517,2.881c1.189,1.676,3.444,1.212,5.024,0.578c1.986-0.794,3.924-1.8,5.621-3.106
	c0.916-0.71,1.816-1.491,2.625-2.322c0.794-0.827,1.578-1.658,2.398-2.455c3.066-2.977,5.117-5.872,7.914-9.11
	c0.816-0.946,1.612-1.902,2.393-2.873c2.72-3.388,4.971-7.11,7.266-10.792C373.117,105.079,373.876,103.651,374.677,102.251z
	 M291.666,80.082c0.094,0.056,0.2,0.099,0.32,0.137c1.867,0.591,3.736-1.397,5.125-2.36c1.77-1.23,3.38-2.658,4.482-4.539
	c3.108-5.308,6.751-10.597,9.895-15.884c-0.697,0.119-1.277,0.261-1.547,0.406c-3.386,1.757-6.482,3.953-9.063,6.737
	c-3.005,3.246-5.228,6.591-7.892,10.115C292.25,75.665,289.908,79.103,291.666,80.082z M356.721,51.876
	c1.963-1.907,3.217-3.689,4.898-5.759c4.778-5.896,9.101-12.676,12.786-19.302c1.291-2.317,2.578-4.699,2.587-7.703
	C368.845,29.298,361.434,39.708,356.721,51.876z M163.813,3.495c-5.506,0.018-29.53,31.935-29.68,33.365
	c2.891-1.521,9.909-8.287,12.395-10.438c2.761-2.391,5.102-4.863,7.341-7.731c2.744-3.514,5.866-6.915,8.052-10.825
	C162.83,6.233,163.669,5.716,163.813,3.495z M356.746,79.661c2.945-2.338,5.518-5.044,7.949-7.904
	c1.953-2.302,3.864-4.636,5.477-7.196c0.729-1.158,1.967-2.969,1.95-4.407c-0.01-0.811-0.737-1.11-1.497-0.976
	c-3.027,0.533-5.487,3.895-7.342,6.09c-1.678,1.986-3.211,4.228-4.491,6.486c-0.688,1.213-1.118,2.554-1.425,3.911
	c-0.143,0.618-0.317,1.234-0.357,1.866C356.947,78.608,356.974,79.478,356.746,79.661z M71.195,56.94
	c-0.509,0.233-1.364,0.682-1.811,0.938c-1.2,0.687-2.296,1.443-2.958,2.733c-0.089,0.175-0.147,0.36-0.163,0.556
	c-0.011,0.154-0.033,0.459,0.042,0.596c0.241,0.454,0.824,0.52,1.278,0.434c1.27-0.231,2.385-1.118,3.041-2.216
	c0.24-0.398,0.442-0.827,0.517-1.291c0.038-0.226,0.054-0.457,0.052-0.687C71.192,57.932,71.183,56.948,71.195,56.94z
	 M190.683,66.431c2.243-0.644,4.526-1.328,6.556-2.5c0.851-0.489,1.671-1.067,2.423-1.704c1.894-1.595,2.905-3.849,3.095-6.296
	c0.064-0.819-0.064-1.854-1.099-1.864c-1.349-0.013-2.907,1.374-3.724,2.264c-1.931,2.102-3.407,4.189-5.125,6.471
	c-0.469,0.622-0.8,1.319-1.214,1.978C191.258,65.31,190.938,65.859,190.683,66.431z M236.932,64.945
	c0.175,0.014,0.356-0.007,0.543-0.065c0.857-0.269,1.69-0.999,2.464-1.448c0.78-0.456,1.609-1.528,1.15-2.472
	c-0.849-1.745-5.029,0.809-5.451,2.003C235.314,63.888,236.002,64.876,236.932,64.945z M445.257,61.393
	c-0.361-0.307-0.881-0.464-1.548-0.457c-1.649,0.028-2.504,1.255-2.759,2.799c-0.236,1.415,0.988,4.765,2.713,2.898
	c0.904-0.979,1.993-1.874,2.169-3.279C445.944,62.473,445.743,61.799,445.257,61.393z M181.668,58.01
	c-0.068-0.083-0.152-0.145-0.255-0.195c-0.397-0.185-0.939,0.114-1.279,0.307c-0.913,0.507-1.421,1.273-1.815,2.221
	c-0.378,0.908-0.647,1.871-0.643,2.86c0.001,0.51,0.084,1.075,0.222,1.56c0.038,0.139,0.454,0.979,0.377,1.064
	c0.961-1.034,2.737-3.669,3.227-4.66C181.804,60.548,182.278,58.71,181.668,58.01z"/>
</svg>
