<?xml version="1.0" encoding="utf-8"?>
<!-- Generator: Adobe Illustrator 16.0.0, SVG Export Plug-In . SVG Version: 6.00 Build 0)  -->
<!DOCTYPE svg PUBLIC "-//W3C//DTD SVG 1.1//EN" "http://www.w3.org/Graphics/SVG/1.1/DTD/svg11.dtd">
<svg version="1.1" id="type" xmlns="http://www.w3.org/2000/svg" xmlns:xlink="http://www.w3.org/1999/xlink" x="0px" y="0px"
	 width="328.862px" height="152.598px" viewBox="0 0 328.862 152.598" enable-background="new 0 0 328.862 152.598"
	 xml:space="preserve">
<path fill="#676767" d="M327.202,39.349c-1.104-4.059-2.884-7.959-5.149-11.497c-1.153-1.758-2.402-3.448-3.777-5.023
	c-1.386-1.567-2.866-3.038-4.42-4.415c-6.214-5.55-13.652-9.314-21.267-12.012c-7.674-2.621-15.536-4.408-23.531-5.44
	c-7.988-1.018-16.071-1.211-24.098-0.655c-8.029,0.569-15.988,2-23.743,4.146c-15.511,4.317-30.159,11.637-43.058,21.28
	c-6.492,4.766-12.354,10.415-17.641,16.469c-5.306,6.057-10.138,12.501-14.693,19.12c-9.127,13.236-17,27.266-24.937,41.176
	c-1.005,1.73-2.017,3.456-3.078,5.138c-1.064,1.67-2.207,3.315-3.354,4.949c-2.308,3.263-4.712,6.461-7.188,9.603
	c-1.529,1.936-3.097,3.841-4.688,5.727c0.344-0.588,0.684-1.178,1.012-1.773c2.955-5.494,5.179-11.313,6.874-17.217
	c1.69-5.908,2.934-11.899,3.758-17.916l0.599-4.509c0.182-1.504,0.292-3.015,0.426-4.52c0.118-1.507,0.26-3.009,0.334-4.516
	l0.189-4.517c0.12-3.017,0.113-5.933,0.225-8.904c0.061-2.962,0.157-5.924,0.299-8.885c0.068-1.441,0.149-2.882,0.244-4.322
	c2.678-3.161,5.238-6.423,7.58-9.86c1.672-2.484,3.262-5.091,4.434-7.877c1.197-2.764,2.231-5.603,2.911-8.563
	c0.335-1.48,0.583-2.992,0.591-4.554c-0.011-0.781-0.066-1.579-0.313-2.383c-0.12-0.4-0.312-0.803-0.586-1.169
	c-0.264-0.364-0.688-0.688-1.06-0.862c-0.821-0.422-1.822-0.414-2.623-0.122c-0.814,0.278-1.488,0.748-2.096,1.252
	c-1.206,1.027-2.16,2.242-3.025,3.496c-1.688,2.54-3.101,5.211-4.26,8.055c-1.137,2.832-2.026,5.704-2.912,8.591
	c-1.701,5.786-3.223,11.628-4.621,17.51c-0.141,0.594-0.271,1.191-0.408,1.786c-1.414,1.517-2.848,3.016-4.32,4.475
	c-2.118,2.071-4.29,4.144-6.392,6.257c-4.224,4.218-8.378,8.501-12.491,12.823c-8.22,8.652-16.292,17.432-24.127,26.448
	c-3.887,4.541-7.623,9.237-10.877,14.29c-1.621,2.527-3.109,5.151-4.383,7.883c-0.573,1.217-1.09,2.457-1.583,3.704
	c0.051-0.295,0.1-0.591,0.156-0.885c0.331-1.874,0.774-3.725,1.308-5.55c1.029-3.656,2.326-7.237,3.848-10.729
	c1.527-3.492,3.227-6.91,5.07-10.259c0.928-1.673,1.887-3.328,2.871-4.979l2.956-4.957l1.491-2.442l1.475-2.494
	c1.01-1.656,1.955-3.354,2.907-5.051c0.976-1.685,1.872-3.415,2.781-5.14c0.923-1.718,1.81-3.458,2.673-5.211
	c1.754-3.492,3.423-7.035,5.01-10.629c1.633-3.575,3.136-7.204,4.588-10.919c3.004-7.838,4.332-16.107,3.779-24.298
	c-0.364-4.071-1.155-8.167-3.002-11.841c-1.783-3.677-4.571-6.862-7.988-8.973c-3.337-2.216-7.186-3.524-11.104-4.209
	C60.86,2.837,56.813,2.903,52.87,3.58c-3.96,0.619-7.827,1.807-11.53,3.353c-3.695,1.563-7.288,3.408-10.635,5.613
	c-1.673,1.102-3.318,2.246-4.909,3.456c-1.575,1.234-3.104,2.511-4.607,3.831c-3.006,2.586-5.819,5.598-8.336,8.739
	C7.858,34.943,4.203,42.31,2.021,50.025c-1.082,3.862-1.771,7.832-1.959,11.827c-0.197,3.987,0.052,8.023,1.15,11.898
	c0.549,1.931,1.342,3.82,2.5,5.504c1.177,1.703,2.699,3.083,4.401,4.179c3.409,2.229,7.565,3.151,11.625,3.023
	c4.081-0.142,8.066-1.286,11.76-2.944c3.707-1.657,7.12-3.905,10.19-6.502c3.097-2.552,5.884-5.582,8.202-8.926
	c2.347-3.325,4.149-7.029,5.331-10.923c1.184-3.883,1.791-7.997,1.29-12.11c-0.265-2.044-0.829-4.109-1.989-5.945
	c-0.588-0.909-1.346-1.738-2.304-2.349c-0.956-0.598-1.966-0.929-3.017-1.124c-2.102-0.375-4.191-0.014-6.105,0.601
	c-1.927,0.62-3.713,1.556-5.37,2.651c-2.729,1.805-5.152,4.023-7.275,6.501c-2.257,2.492-5.727,6.671-5.045,8.121
	c0.3,0.637,0.766,0.732,1.017,0.732c0.645,0,1.175-0.575,1.456-1.112c0.163-0.31,0.334-0.767,0.551-1.344
	c0.489-1.305,1.225-3.26,2.512-5.173c2.038-2.677,4.533-5.019,7.366-6.821c1.619-1.01,3.346-1.854,5.148-2.381
	c1.799-0.523,3.702-0.673,5.438-0.262c0.853,0.206,1.707,0.559,2.378,1.041c0.664,0.48,1.222,1.149,1.647,1.9
	c0.865,1.516,1.214,3.352,1.307,5.173c0.16,3.679-0.689,7.401-1.988,10.886c-0.662,1.745-1.463,3.438-2.379,5.063
	c-0.914,1.625-1.883,3.223-2.992,4.723c-2.18,3.036-4.856,5.652-7.678,8.17c-2.845,2.477-5.856,4.748-9.11,6.608
	c-3.253,1.841-6.798,3.22-10.499,3.688c-3.677,0.491-7.568-0.093-10.758-2.08c-1.573-0.994-3.048-2.234-4.055-3.774
	c-1.028-1.553-1.739-3.324-2.223-5.153c-0.951-3.678-1.012-7.574-0.58-11.367c0.458-3.801,1.391-7.54,2.686-11.136
	c2.581-7.214,6.639-13.8,11.447-19.678c1.218-1.461,2.498-2.87,3.834-4.222c1.334-1.347,2.74-2.64,4.149-3.951
	c1.413-1.293,2.863-2.556,4.346-3.769c1.471-1.229,2.965-2.43,4.502-3.572C39.04,11.125,45.772,7.16,53.233,5.274
	c3.717-0.897,7.605-1.254,11.402-0.702c3.807,0.48,7.439,1.976,10.578,4.118c3.1,2.185,5.45,5.277,6.712,8.775
	c1.224,3.514,1.593,7.291,1.253,11c-0.299,3.715-1.186,7.373-2.43,10.874c-1.234,3.505-2.85,6.864-4.701,9.985l-5.959,9.967
	c-2.021,3.32-3.93,6.707-5.867,10.084c-3.869,6.783-7.52,13.592-10.74,20.916c-3.055,7.302-5.854,14.86-7.858,22.651
	c-0.999,3.895-1.812,7.861-2.138,11.904c-0.15,2.021-0.204,4.051-0.133,6.074c0.131,2.025,0.344,4.046,0.847,6.002v0.005
	c0.017,0.237,0.171,0.456,0.409,0.542c0.324,0.118,0.682-0.049,0.799-0.373l0.002-0.005c1.02-2.808,2.026-5.586,3.285-8.256
	c1.246-2.674,2.705-5.247,4.303-7.737c3.204-4.977,6.909-9.637,10.772-14.15c7.808-8.984,15.879-17.765,24.084-26.401
	c4.107-4.314,8.255-8.592,12.469-12.799c2.103-2.115,4.244-4.158,6.389-6.254c0.978-0.968,1.938-1.953,2.89-2.947
	c-0.344,1.549-0.678,3.1-1,4.654c-0.569,2.951-1.155,5.969-1.603,8.886l-0.724,4.379l-0.668,4.371l-0.687,4.354l-0.64,4.348
	c-0.918,5.778-1.801,11.53-2.871,17.224c-1.083,5.686-2.251,11.339-3.858,16.865c-1.626,5.525-3.552,10.941-6.534,16.16v0.002
	l-0.008,0.007c-0.152,0.171-0.172,0.431-0.033,0.624c0.161,0.225,0.473,0.275,0.697,0.115c0.489-0.352,0.955-0.723,1.412-1.104
	c1.094-0.881,2.127-1.843,3.102-2.867c0.02-0.02,0.04-0.039,0.06-0.059c1.427-1.426,2.8-2.898,4.146-4.395
	c2.688-2.992,5.267-6.076,7.776-9.215c2.507-3.141,4.942-6.338,7.284-9.607c1.163-1.641,2.329-3.275,3.414-4.988
	c1.079-1.709,2.096-3.443,3.104-5.18c4.008-6.957,7.908-13.952,12.012-20.831c4.094-6.882,8.344-13.67,12.875-20.264
	c4.533-6.588,9.34-12.996,14.603-19.003c2.633-3.001,5.381-5.899,8.28-8.634c2.891-2.739,5.973-5.271,9.16-7.676
	c12.75-9.591,27.251-16.894,42.611-21.219c15.352-4.341,31.585-5.559,47.396-3.412c3.952,0.53,7.878,1.259,11.759,2.182
	c3.882,0.922,7.733,1.991,11.42,3.46c7.382,2.89,14.292,7.076,19.868,12.648c2.783,2.78,5.237,5.875,7.283,9.211
	c2.05,3.34,3.585,6.957,4.729,10.7c2.26,7.517,2.529,15.578,1.488,23.414c-0.522,3.925-1.379,7.814-2.539,11.61
	c-1.161,3.801-2.63,7.494-4.565,10.97c-3.822,6.985-8.52,13.499-13.687,19.575c-10.375,12.13-22.94,22.417-37.017,29.934
	c-4.354,2.332-8.858,3.875-13.475,5.624c-22.664,7.284-46.263,8.903-66.516,6.576c-18.201-2.091-34.388-6.511-45.638-15.011
	c-3.144-2.375-5.794-5.408-7.574-8.9c-1.8-3.484-2.706-7.379-2.636-11.305c0.025-3.911,1.012-7.813,3.034-11.148
	c2.003-3.348,4.963-6.07,8.317-8.098c3.362-2.037,7.111-3.421,10.961-4.306c3.644-0.854,7.362-1.178,11.104-1.208
	c-3.396,6.936-8.61,18.581-8.381,24.305c0.235,5.896,4.325,7.996,8.074,7.996c0.385,0,0.762-0.022,1.124-0.064
	c0.03-0.004,0.054-0.02,0.081-0.027c7.465-0.513,19.852-12.537,26.215-20.797c-0.357,5.795,0.837,10.069,2.338,13.047
	c2.027,4.02,4.884,6.172,6.12,6.542c0.002,0.001,0.003,0.002,0.005,0.003c1.037,0.512,2.195,0.771,3.442,0.771
	c7.182,0,16.771-8.521,23.699-20.73c2.816,0.822,5.619,1.707,8.459,2.521c0.69,0.2,1.388,0.38,2.08,0.573
	c0.109,4.155,1.052,7.373,2.186,9.77c2.197,4.645,5.377,6.796,6.394,7.116c1.024,0.496,2.165,0.751,3.394,0.751
	c5.292,0,11.891-4.631,17.77-11.95c1.245,0.089,2.492,0.163,3.742,0.2c4.037,0.104,8.11-0.08,12.11-0.889
	c3.804-0.774,7.609-2.173,10.721-4.67c0.014-0.01,0.03-0.014,0.044-0.023c0.105-0.084,0.207-0.166,0.306-0.249l0.018-0.015
	c0.018-0.014,0.036-0.027,0.054-0.041l0.002-0.002c0.001-0.001,0.002-0.003,0.003-0.004l0.384-0.311
	c3.361-2.709,4.411-3.763,4.009-4.668c-0.176-0.394-0.562-0.639-1.009-0.639c-0.519,0-1.015,0.321-1.297,0.838l-0.072,0.134
	c-0.649,1.192-1.321,2.427-2.887,3.743l-0.008,0.006c-2.943,2.488-6.697,3.9-10.516,4.676c-3.867,0.782-7.857,0.967-11.827,0.864
	c-0.95-0.028-1.9-0.075-2.849-0.135c2.532-3.32,4.908-7.131,6.955-11.279c0.344-0.696,0.668-1.396,0.983-2.097
	c1.082,0.381,2.284,0.574,3.58,0.574c6.582-0.001,15.388-4.667,21.012-11.662c4.347-5.405,7.301-12.053,8.32-18.719
	c2.946-19.288-6.553-34.777-25.41-41.434c-4.444-1.569-10.33-2.818-16.146-3.427c-15.665-1.643-31.038,3.807-35.784,12.667
	c-2.536,4.733-2.583,9.563-0.134,13.6c2.469,4.068,7.227,6.748,11.923,6.709c7.004-0.083,13.428-2.639,19.497-7.759
	c0.131-0.102,0.309-0.236,0.532-0.406c5.297-4.022,6.106-5.199,5.792-6.064c-0.354-0.98-1.637-1.025-2.453-0.01
	c-0.188,0.231-0.409,0.532-0.67,0.887c-0.867,1.179-2.177,2.959-4.232,4.82c-0.003,0.003-0.005,0.007-0.008,0.011
	c-5.775,4.796-11.863,7.193-18.474,7.272c-4.251,0.063-8.592-2.405-10.839-6.108c-2.211-3.644-2.151-8.034,0.167-12.362
	c4.521-8.438,19.384-13.604,34.552-12.013c5.725,0.6,11.506,1.825,15.861,3.362c18.246,6.44,27.439,21.418,24.59,40.066
	c-0.985,6.451-3.848,12.888-8.059,18.125c-6.406,7.97-16.989,12.807-23.106,10.716c6.59-15.413,6.346-31.132-0.923-34.719
	c-0.274-0.135-0.559-0.249-0.849-0.348c-0.819-0.324-1.924-0.508-3.213-0.508c-8.166,0-20.662,6.434-29.006,24.567
	c-0.869,1.888-1.604,3.689-2.228,5.41c-3.413,3.508-7.261,5.682-9.947,5.486c6.542-15.377,6.282-31.03-0.969-34.607
	c-0.104-0.051-0.212-0.088-0.317-0.134c-0.004-0.002-0.007-0.006-0.011-0.009c-0.83-0.459-2.141-0.713-3.689-0.713
	c-8.166,0-20.662,6.434-29.006,24.567c-1.458,3.168-2.543,6.088-3.343,8.794c-5.343-0.971-10.712-1.809-16.119-2.402
	c-0.745-0.081-1.491-0.151-2.237-0.222c2.445-4.505,4.72-8.471,6.172-10.831l0.189-0.308c2.423-3.938,7.628-12.398,13.423-21.145
	h13.855c0.345,0,0.625-0.28,0.625-0.625s-0.28-0.625-0.625-0.625H196.36c4.28-6.418,8.82-12.882,12.76-17.731
	c0.216-0.266,0.178-0.657-0.087-0.875c-0.263-0.218-0.655-0.184-0.877,0.079c-1.752,2.081-4.216,3.092-7.533,3.092
	c-1.133,0-2.147-0.115-2.963-0.207c-0.864-0.097-1.474-0.271-1.78,0.148c-1.64,2.242-5.693,8.297-10.338,15.494h-14.657
	c-0.345,0-0.625,0.28-0.625,0.625s0.28,0.625,0.625,0.625h13.852c-6.452,10.037-13.819,21.938-17.406,28.836
	c-0.38,0.731-0.892,1.729-1.481,2.912c-4.017-0.034-8.068,0.354-12.006,1.252c-3.956,0.91-7.827,2.334-11.33,4.455
	c-3.492,2.11-6.615,4.972-8.74,8.522c-2.146,3.536-3.188,7.684-3.213,11.781c-0.076,4.096,0.885,8.242,2.772,11.884
	c1.868,3.663,4.552,6.845,7.613,9.521c3.069,2.682,6.517,4.882,10.123,6.721c0.987,0.5,1.988,0.969,2.997,1.42
	c10.146,5.334,21.123,8.094,29.486,9.155c20.648,2.622,38.731,0.33,52.583-3.07c11.184-2.247,22.044-6.112,32.101-11.5
	c14.247-7.579,26.789-18.13,37.229-30.351c2.617-3.057,5.075-6.245,7.419-9.516c2.351-3.266,4.555-6.644,6.521-10.171
	c1.974-3.525,3.616-7.262,4.951-11.083c1.354-3.821,2.474-7.742,3.278-11.755C329.193,56.02,329.493,47.488,327.202,39.349z
	 M117.968,37.467c0.447-2.92,0.987-5.844,1.729-8.669c0.805-2.78,2.045-5.504,3.674-7.917c0.813-1.203,1.716-2.359,2.777-3.276
	c1.036-0.91,2.376-1.554,3.434-1.006c1.081,0.458,1.347,1.996,1.342,3.38c-0.017,1.422-0.261,2.871-0.596,4.292
	c-0.678,2.849-1.713,5.63-2.906,8.323c-1.162,2.708-2.681,5.224-4.336,7.68c-1.979,2.904-4.133,5.692-6.38,8.409
	C116.993,44.927,117.384,41.181,117.968,37.467z M279.861,81.14c-0.774,3.419-1.914,6.976-3.415,10.5
	c-1.905-1.015-2.791-2.526-2.679-4.615c0.162-2.995,2.539-5.678,4.743-6.541c0.707-0.278,1.104-0.265,1.229-0.171
	C279.796,80.356,279.914,80.536,279.861,81.14z M253.855,81.668c5.089-9.716,14.966-23.399,20.989-23.399
	c0.343,0,0.673,0.047,0.979,0.139c0.01,0.003,0.02,0.001,0.029,0.003c0.091,0.039,0.185,0.071,0.273,0.115
	c4.69,2.314,6.02,10.733,4.14,20.672c-0.539-0.279-1.26-0.253-2.21,0.12c-2.984,1.168-5.364,4.451-5.536,7.637
	c-0.142,2.628,1.021,4.579,3.424,5.824c-0.307,0.684-0.623,1.365-0.957,2.043c-2.132,4.319-4.66,8.298-7.351,11.715
	c-6.484-0.513-12.928-1.677-19.285-3.13c-0.825-0.189-1.644-0.406-2.466-0.607C247.47,95.785,250.663,87.763,253.855,81.668z
	 M245.623,104.024c0.816,0.199,1.628,0.414,2.447,0.604c6.123,1.398,12.332,2.537,18.611,3.088
	c-5.486,6.605-11.524,10.824-16.227,10.824c-1.041,0-2.001-0.213-2.856-0.629c-0.021-0.011-0.038-0.025-0.06-0.034
	C244.512,115.915,244.317,110.489,245.623,104.024z M231.735,93.274c2.545,0,5.752-1.581,8.796-4.22
	c-1.416,4.538-1.995,8.45-2.045,11.804c-0.578-0.162-1.16-0.313-1.737-0.479c-2.726-0.781-5.444-1.636-8.182-2.439
	c0.456-0.839,0.899-1.693,1.329-2.563c0.355-0.72,0.69-1.444,1.016-2.168C231.178,93.249,231.451,93.274,231.735,93.274z
	 M233.621,81.273c-0.78,3.402-1.92,6.938-3.416,10.438c-2.338-0.892-2.77-3.003-2.679-4.688c0.162-2.995,2.539-5.678,4.743-6.541
	c0.708-0.278,1.104-0.265,1.229-0.171c0.06,0.046,0.192,0.228,0.118,0.91C233.614,81.24,233.621,81.256,233.621,81.273z
	 M207.688,81.668c5.089-9.716,14.966-23.399,20.989-23.399c0.326,0,0.64,0.045,0.933,0.129c0.102,0.043,0.206,0.08,0.305,0.128
	c4.692,2.315,6.021,10.741,4.138,20.687c-0.543-0.295-1.271-0.273-2.238,0.106c-2.984,1.168-5.364,4.451-5.536,7.637
	c-0.157,2.926,1.06,4.988,3.418,5.905c-0.296,0.656-0.6,1.311-0.921,1.962c-0.463,0.938-0.946,1.858-1.443,2.762
	c-0.709-0.202-1.418-0.407-2.13-0.598c-7.288-1.992-14.635-3.747-22.026-5.302C204.555,88.115,206.122,84.659,207.688,81.668z
	 M202.729,92.869c7.43,1.56,14.821,3.323,22.142,5.325c0.612,0.164,1.221,0.34,1.83,0.513
	c-6.642,11.542-15.863,19.833-22.457,19.833c-1.041,0-2.001-0.213-2.856-0.629c-0.021-0.011-0.038-0.025-0.06-0.034
	C196.658,114.85,198.774,103.512,202.729,92.869z M175.098,88.484c0.918,0.083,1.835,0.172,2.75,0.267
	c5.329,0.585,10.634,1.412,15.916,2.369c-0.567,2.101-0.96,4.063-1.196,5.888c-5.805,8.072-19.67,21.855-26.826,21.988
	c-0.534-0.014-0.992-0.236-1.299-0.643c-1.056-1.399-0.637-4.675,0.043-7.054C165.912,106.309,170.687,96.684,175.098,88.484z"/>
</svg>
